<?xml version="1.0" encoding="UTF-8"?>
<!-- Generator: visioncortex VTracer 0.6.4 -->
<svg version="1.1" xmlns="http://www.w3.org/2000/svg" width="192" height="192">
<path d="M0 0 C0.79 -0.21 1.58 -0.43 2.39 -0.65 C3.13 -0.58 3.87 -0.51 4.62 -0.44 C5.7 -0.14 5.7 -0.14 6.79 0.17 C7.52 0.44 8.25 0.72 9 1 C9.83 1.22 10.67 1.45 11.52 1.68 C12.34 1.91 13.16 2.14 14 2.38 C14.74 2.61 15.49 2.84 16.25 3.09 C16.83 3.39 17.41 3.69 18 4 C18.5 5.48 18.5 5.48 19 7 C18.01 8.98 17.02 10.96 16 13 C21.44 16.96 21.44 16.96 27 21 C27.78 20.22 28.57 19.43 29.38 18.62 C30.92 17.08 32.46 15.54 34 14 C34.99 14.04 35.98 14.08 37 14.12 C37.92 14.29 37.92 14.29 38.85 14.46 C39.92 14.73 39.92 14.73 41 15 C41.87 15.26 42.75 15.52 43.65 15.79 C45.42 16.41 47.19 17.04 48.96 17.67 C49.63 18.11 50.31 18.55 51 19 C51.36 19.75 51.72 20.5 52.1 21.28 C52.07 22.18 52.03 23.07 52 24 C51.31 24.96 50.62 25.91 49.91 26.89 C49.46 27.37 49 27.85 48.53 28.35 C48.05 28.83 47.56 29.32 47.06 29.81 C46.58 30.31 46.1 30.82 45.6 31.33 C45.15 31.81 44.69 32.28 44.22 32.77 C43.49 33.51 42.76 34.24 42 35 C42.59 35.81 43.17 36.63 43.77 37.46 C44.88 38.72 44.88 38.72 46 40 C47.2 40.19 48.39 40.37 49.62 40.56 C50.31 40.61 50.99 40.66 51.7 40.71 C52.46 40.8 53.22 40.9 54 41 C54.89 41.25 55.79 41.5 56.71 41.76 C58.06 42.25 58.06 42.25 59.44 42.75 C60.28 43.05 61.13 43.36 62 43.67 C62.66 44.11 63.32 44.55 64 45 C64.55 46.12 64.55 46.12 65.12 47.25 C65.08 48.16 65.04 49.07 65 50 C64.27 50.98 63.54 51.97 62.79 52.98 C62.29 53.5 61.79 54.02 61.28 54.55 C60.73 55.09 60.19 55.63 59.62 56.19 C58.5 57.35 57.38 58.5 56.26 59.66 C55.7 60.23 55.15 60.8 54.57 61.38 C54.05 61.92 53.53 62.45 53 63 C51.47 64.68 49.95 66.36 48.44 68.06 C46.03 70.75 43.62 73.42 41.18 76.07 C40.69 76.6 40.2 77.13 39.7 77.67 C38.33 79.16 36.95 80.65 35.58 82.14 C34.73 83.08 33.88 84.03 33 85 C32.54 85.51 32.08 86.02 31.6 86.55 C31.15 87.06 30.7 87.57 30.24 88.1 C29.5 89.06 28.76 90.01 28 91 C27.75 91.7 27.5 92.41 27.24 93.13 C27.12 93.79 27 94.45 26.88 95.12 C26.65 95.88 26.43 96.64 26.21 97.43 C25.61 98.7 25.61 98.7 25 100 C24.18 101.02 23.36 102.05 22.51 103.11 C22.03 103.64 21.55 104.17 21.06 104.72 C19.62 106.26 18.16 107.79 16.69 109.3 C15.8 110.19 14.92 111.08 14 112 C12.92 113.13 12.92 113.13 11.83 114.28 C10.92 115.13 10.92 115.13 10 116 C9.07 116.41 8.14 116.83 7.19 117.25 C6.14 117.5 5.08 117.75 4 118 C2.95 118.08 1.9 118.17 0.81 118.25 C-0.45 118.17 -1.7 118.08 -3 118 C-3.79 117.68 -4.58 117.35 -5.4 117.02 C-6.28 116.7 -7.16 116.39 -8.06 116.06 C-9 115.87 -9.93 115.68 -10.89 115.48 C-11.92 115.65 -12.94 115.82 -14 116 C-14.58 116.42 -15.17 116.83 -15.77 117.26 C-16.38 117.82 -16.98 118.38 -17.61 118.96 C-18.22 119.6 -18.84 120.23 -19.47 120.88 C-20.68 122.23 -21.87 123.58 -23.05 124.95 C-24.17 126.29 -25.28 127.64 -26.38 128.99 C-26.92 129.65 -27.45 130.32 -28 131 C-29.06 132.3 -30.14 133.6 -31.21 134.89 C-31.67 135.44 -32.13 136 -32.61 136.57 C-33.07 137.04 -33.53 137.51 -34 138 C-35.61 138.93 -35.61 138.93 -37.25 139.88 C-38.49 140.25 -39.72 140.62 -41 141 C-42.59 141.05 -44.17 141.08 -45.76 141.11 C-46.64 141.19 -47.52 141.27 -48.43 141.36 C-49.28 141.57 -50.13 141.78 -51 142 C-51.68 142.47 -52.37 142.94 -53.07 143.42 C-53.69 144.02 -54.31 144.62 -54.94 145.25 C-55.54 145.91 -56.14 146.58 -56.76 147.27 C-57.65 148.34 -57.65 148.34 -58.56 149.44 C-59.2 150.17 -59.85 150.89 -60.51 151.64 C-61.78 153.09 -63.05 154.55 -64.3 156.01 C-65.14 157 -65.14 157 -66 158 C-67.64 159.82 -69.29 161.63 -70.94 163.44 C-73.06 165.8 -75.16 168.18 -77.25 170.57 C-77.97 171.39 -78.69 172.22 -79.44 173.06 C-80.08 173.8 -80.71 174.53 -81.37 175.29 C-81.91 175.85 -82.45 176.42 -83 177 C-83.66 177.33 -84.32 177.66 -85 178 C-86.15 178.14 -86.15 178.14 -87.32 178.27 C-88.25 178.31 -89.17 178.34 -90.12 178.38 C-91.11 178.36 -92.09 178.35 -93.11 178.34 C-94.06 178.23 -95.02 178.12 -96 178 C-96.78 177.71 -97.56 177.43 -98.36 177.13 C-99.39 176.54 -99.39 176.54 -100.44 175.94 C-101.07 175.48 -101.69 175.02 -102.34 174.55 C-103.16 173.78 -103.16 173.78 -104 173 C-104.46 172.47 -104.91 171.94 -105.38 171.39 C-105.75 170.83 -106.12 170.27 -106.5 169.69 C-107 168.47 -107.49 167.25 -108 166 C-108.27 164.76 -108.54 163.53 -108.81 162.25 C-108.77 161.57 -108.72 160.9 -108.68 160.2 C-108.45 159.47 -108.23 158.75 -108 158 C-107.52 157.22 -107.04 156.45 -106.54 155.64 C-105.87 154.79 -105.19 153.94 -104.5 153.06 C-103.69 152.14 -102.88 151.22 -102.04 150.27 C-101.03 149.17 -100.02 148.09 -99 147 C-98.38 146.33 -97.76 145.66 -97.12 144.97 C-93.72 141.33 -90.3 137.71 -86.87 134.11 C-85.57 132.75 -84.28 131.38 -83 130 C-81.13 127.93 -79.29 125.84 -77.45 123.75 C-76.97 123.17 -76.49 122.6 -76 122 C-75.01 120.52 -75.01 120.52 -74 119 C-73.98 118.12 -73.96 117.24 -73.95 116.33 C-74 115.31 -74.06 114.3 -74.12 113.25 C-74.14 112.18 -74.15 111.11 -74.17 110 C-74.11 109.01 -74.06 108.02 -74 107 C-73.79 106.31 -73.58 105.62 -73.36 104.9 C-72.91 104.05 -72.91 104.05 -72.44 103.19 C-71.89 102.39 -71.89 102.39 -71.33 101.57 C-70.89 101.05 -70.45 100.53 -70 100 C-69.48 99.44 -68.96 98.88 -68.42 98.3 C-67.56 97.44 -67.56 97.44 -66.69 96.56 C-66.09 95.99 -65.49 95.42 -64.87 94.83 C-64.25 94.23 -63.64 93.62 -63 93 C-62.06 91.95 -62.06 91.95 -61.1 90.89 C-59.92 89.53 -58.75 88.16 -57.58 86.8 C-56.8 85.91 -56.8 85.91 -56 85 C-55.42 84.53 -54.83 84.06 -54.23 83.58 C-53.83 83.06 -53.42 82.54 -53 82 C-53.1 80.82 -53.1 80.82 -53.21 79.61 C-53.47 78.75 -53.73 77.89 -54 77 C-54.53 75.41 -55.07 73.83 -55.62 72.25 C-55.88 71.38 -56.14 70.51 -56.41 69.62 C-56.6 68.75 -56.8 67.89 -57 67 C-57.06 66.22 -57.12 65.44 -57.18 64.63 C-57.14 63.89 -57.1 63.14 -57.06 62.38 C-56.88 61.27 -56.88 61.27 -56.69 60.14 C-56.46 59.43 -56.23 58.73 -56 58 C-55.47 57.03 -55.47 57.03 -54.94 56.05 C-54.48 55.41 -54.03 54.78 -53.56 54.12 C-53.03 53.48 -52.49 52.84 -51.94 52.18 C-51.3 51.46 -50.66 50.74 -50 50 C-49.22 49.06 -48.43 48.13 -47.62 47.16 C-45.97 45.24 -44.32 43.33 -42.66 41.42 C-41.78 40.62 -40.9 39.82 -40 39 C-38.29 38.31 -36.57 37.63 -34.85 36.96 C-34.24 36.65 -33.63 36.33 -33 36 C-32.08 35.21 -32.08 35.21 -31.15 34.4 C-30.53 33.77 -29.92 33.14 -29.28 32.49 C-28.01 31.11 -26.75 29.71 -25.5 28.31 C-24.56 27.29 -24.56 27.29 -23.61 26.24 C-21.72 24.18 -19.86 22.09 -18 20 C-17.39 19.32 -16.79 18.63 -16.16 17.93 C-14.43 15.96 -12.7 13.99 -11 12 C-10.07 10.86 -9.15 9.71 -8.23 8.56 C-7.37 7.51 -6.5 6.47 -5.62 5.44 C-5.16 4.91 -4.69 4.38 -4.21 3.84 C-3.73 3.34 -3.26 2.85 -2.77 2.34 C-1.85 1.57 -0.94 0.79 0 0 Z M3 6 C2.34 6.66 1.68 7.32 1 8 C1.1 8.82 1.21 9.65 1.31 10.5 C1.54 11.32 1.77 12.15 2 13 C2.33 13.66 2.66 14.32 3 15 C3.99 14.67 4.98 14.34 6 14 C6.72 12.99 7.44 11.98 8.19 10.94 C8.79 9.97 9.38 9 10 8 C7.69 7.34 5.38 6.68 3 6 Z M-5 15 C-5.63 15.56 -6.27 16.11 -6.92 16.69 C-8.49 18.29 -10.06 19.89 -11.63 21.5 C-12.41 22.32 -13.2 23.15 -14 24 C-15.2 25.32 -16.39 26.66 -17.56 28 C-18.11 28.65 -18.66 29.3 -19.22 29.97 C-19.81 30.64 -20.4 31.31 -21 32 C-21.74 32.72 -22.48 33.44 -23.25 34.18 C-23.99 34.93 -24.73 35.67 -25.5 36.44 C-26.16 37.19 -26.82 37.95 -27.5 38.72 C-28 39.47 -28.49 40.23 -29 41 C-29.17 41.72 -29.35 42.44 -29.53 43.18 C-29.5 43.91 -29.47 44.63 -29.44 45.38 C-29.27 46.12 -29.1 46.86 -28.93 47.63 C-28.62 48.41 -28.31 49.19 -28 50 C-27.58 50.85 -27.16 51.71 -26.73 52.59 C-26.2 53.49 -25.67 54.39 -25.12 55.31 C-24.51 56.23 -23.89 57.14 -23.25 58.08 C-22.14 59.53 -22.14 59.53 -21 61 C-20.54 61.53 -20.07 62.06 -19.59 62.61 C-18.59 63.71 -17.59 64.81 -16.58 65.9 C-16.08 66.43 -15.58 66.96 -15.06 67.5 C-14.32 68.26 -14.32 68.26 -13.56 69.03 C-13.1 69.5 -12.64 69.98 -12.16 70.47 C-11.09 71.72 -11.09 71.72 -10 73 C-10 73.99 -10 74.98 -10 76 C-10.9 75.93 -11.79 75.86 -12.72 75.78 C-13.8 75.52 -14.88 75.27 -16 75 C-16.77 74.35 -17.55 73.7 -18.34 73.03 C-19.84 71.27 -21.34 69.51 -22.82 67.74 C-24.14 66.08 -25.46 64.42 -26.77 62.76 C-27.53 61.7 -27.53 61.7 -28.31 60.62 C-28.78 59.91 -29.24 59.19 -29.71 58.45 C-30.14 57.64 -30.56 56.83 -31 56 C-31.62 54.4 -31.62 54.4 -32.25 52.77 C-32.62 51.67 -32.99 50.57 -33.38 49.44 C-33.69 48.4 -34.01 47.37 -34.34 46.31 C-34.56 45.55 -34.77 44.78 -35 44 C-35.85 44.64 -36.69 45.28 -37.56 45.94 C-38.37 46.95 -39.17 47.96 -40 49 C-40.11 49.63 -40.21 50.26 -40.32 50.91 C-40.28 51.62 -40.23 52.33 -40.19 53.06 C-40.04 53.84 -39.9 54.62 -39.75 55.42 C-39.51 56.27 -39.26 57.12 -39 58 C-38.49 59.4 -38.49 59.4 -37.96 60.83 C-37.52 61.81 -37.08 62.8 -36.62 63.81 C-36.09 64.82 -35.55 65.83 -35 66.88 C-34.34 67.91 -33.68 68.94 -33 70 C-32.59 70.53 -32.19 71.05 -31.77 71.59 C-31.33 72.12 -30.89 72.65 -30.44 73.19 C-29.75 73.97 -29.75 73.97 -29.05 74.76 C-28.35 75.53 -28.35 75.53 -27.62 76.31 C-26.66 77.32 -25.7 78.32 -24.72 79.31 C-23.37 80.64 -23.37 80.64 -22 82 C-21.32 82.68 -20.64 83.36 -19.93 84.06 C-19.32 84.64 -18.7 85.22 -18.06 85.81 C-17.43 86.34 -16.8 86.87 -16.16 87.41 C-15.44 87.93 -14.73 88.46 -14 89 C-13.06 89.62 -12.12 90.23 -11.16 90.87 C-9.62 91.8 -9.62 91.8 -8.06 92.75 C-7.04 93.32 -6.01 93.9 -4.96 94.49 C-3.49 95.24 -3.49 95.24 -2 96 C-0.77 96.55 -0.77 96.55 0.49 97.11 C1.61 97.52 1.61 97.52 2.75 97.94 C3.46 98.15 4.17 98.35 4.91 98.57 C5.6 98.71 6.29 98.85 7 99 C8.07 99.14 8.07 99.14 9.16 99.28 C10.19 99.33 10.19 99.33 11.25 99.38 C12.49 99.25 13.72 99.13 15 99 C15.99 98.55 16.98 98.09 18 97.62 C18.66 97.09 19.32 96.55 20 96 C20 95.34 20 94.68 20 94 C17.69 93.34 15.38 92.68 13 92 C13 90.68 13 89.36 13 88 C14.18 88.12 15.35 88.25 16.56 88.38 C17.66 88.37 17.66 88.37 18.78 88.37 C19.51 88.25 20.25 88.12 21 88 C21.61 87.65 22.22 87.3 22.84 86.95 C23.41 86.47 23.98 85.99 24.56 85.5 C25.42 84.67 25.42 84.67 26.3 83.82 C27.4 82.64 28.49 81.46 29.57 80.28 C30.69 79.01 31.79 77.72 32.89 76.43 C33.93 75.23 33.93 75.23 35 74 C37.13 71.65 39.28 69.33 41.44 67 C41.98 66.41 42.53 65.82 43.09 65.22 C44.39 63.81 45.7 62.41 47 61 C46.34 60.34 45.68 59.68 45 59 C44.22 58.68 43.44 58.36 42.64 58.03 C41.66 57.67 40.69 57.31 39.69 56.94 C38.61 56.5 37.54 56.06 36.43 55.61 C35.3 55.08 34.17 54.55 33 54 C31.88 53.31 30.75 52.63 29.6 51.92 C29.04 51.55 28.49 51.17 27.92 50.79 C26.8 50.01 25.69 49.22 24.59 48.43 C23.05 47.3 21.52 46.15 20 45 C19.25 44.43 18.49 43.87 17.72 43.29 C17.07 42.76 16.42 42.23 15.75 41.69 C15.14 41.13 14.53 40.57 13.9 40 C13.27 39.34 12.65 38.68 12 38 C11.25 37.1 10.5 36.21 9.73 35.29 C8.95 34.28 8.17 33.28 7.38 32.25 C6.63 31.23 5.89 30.21 5.12 29.16 C4.42 28.11 3.72 27.07 3 26 C2.37 24.94 1.74 23.88 1.1 22.78 C0.55 21.78 0 20.78 -0.56 19.75 C-1.39 18.17 -2.2 16.59 -3 15 C-3.66 15 -4.32 15 -5 15 Z M10 17 C9.01 18.65 8.02 20.3 7 22 C8.98 24.97 8.98 24.97 11 28 C11.78 27.55 12.57 27.09 13.38 26.62 C14.57 26.42 15.77 26.21 17 26 C17.83 26.4 18.66 26.79 19.52 27.2 C20.4 27.75 21.28 28.31 22.19 28.88 C23.03 29.45 23.87 30.02 24.73 30.62 C25.48 31.07 26.23 31.53 27 32 C27.99 32 28.98 32 30 32 C27.09 29.5 24.16 27.01 21.2 24.56 C20.66 24.12 20.12 23.67 19.56 23.22 C19.04 22.82 18.53 22.41 18 22 C17.15 21.41 16.3 20.83 15.42 20.22 C14.71 19.78 13.99 19.33 13.25 18.88 C12.18 18.26 11.11 17.64 10 17 Z M37 20 C35.68 21.32 34.36 22.64 33 24 C33.4 24.93 33.4 24.93 33.81 25.88 C34.2 26.58 34.6 27.28 35 28 C35.99 28.66 36.98 29.32 38 30 C39.98 27.69 41.96 25.38 44 23 C41.69 22.01 39.38 21.02 37 20 Z M31 34 C30.71 34.93 30.42 35.86 30.12 36.81 C29.75 37.86 29.38 38.92 29 40 C28.34 40.99 27.68 41.98 27 43 C31.95 46.47 31.95 46.47 37 50 C38.32 49.34 39.64 48.68 41 48 C41 46.68 41 45.36 41 44 C40.36 43.15 39.72 42.3 39.07 41.42 C38.24 40.54 37.41 39.66 36.56 38.75 C35.74 37.86 34.92 36.97 34.07 36.05 C33.38 35.37 32.7 34.7 32 34 C31.67 34 31.34 34 31 34 Z M20 35 C20.99 35.99 21.98 36.98 23 38 C22.67 37.01 22.34 36.02 22 35 C21.34 35 20.68 35 20 35 Z M49 47 C48.28 47.99 47.56 48.98 46.81 50 C46.21 50.99 45.62 51.98 45 53 C45.58 53.35 46.16 53.7 46.75 54.06 C47.49 54.37 48.24 54.68 49 55 C49.66 54.98 50.32 54.96 51 54.94 C51.66 54.63 52.32 54.32 53 54 C53.74 53.15 54.49 52.31 55.25 51.44 C55.83 50.63 56.41 49.83 57 49 C56.24 48.67 55.47 48.34 54.69 48 C53.8 47.67 52.91 47.34 52 47 C51.01 47 50.02 47 49 47 Z M-46 55 C-46.66 55.68 -47.32 56.36 -48 57.06 C-48.66 58.03 -49.32 59 -50 60 C-50.33 61.05 -50.66 62.1 -51 63.19 C-51 64.45 -51 65.7 -51 67 C-50.79 67.78 -50.58 68.55 -50.37 69.36 C-50.06 70.19 -49.75 71.02 -49.44 71.88 C-49.06 72.73 -48.68 73.58 -48.29 74.46 C-47.86 75.3 -47.44 76.14 -47 77 C-46.57 77.76 -46.15 78.51 -45.71 79.29 C-45.25 80.02 -44.79 80.75 -44.31 81.5 C-43.8 82.23 -43.28 82.96 -42.75 83.72 C-41.88 84.85 -41.88 84.85 -41 86 C-40.35 86.81 -39.7 87.63 -39.04 88.47 C-38.32 89.3 -37.61 90.14 -36.88 91 C-35.72 92.25 -35.72 92.25 -34.54 93.52 C-33.7 94.34 -32.86 95.16 -32 96 C-30.62 97.2 -30.62 97.2 -29.21 98.42 C-28.23 99.19 -27.26 99.96 -26.25 100.75 C-25.24 101.48 -24.24 102.2 -23.2 102.95 C-22.15 103.63 -21.09 104.3 -20 105 C-18.84 105.61 -17.68 106.23 -16.48 106.86 C-14.76 107.67 -14.76 107.67 -13 108.5 C-11.95 108.96 -10.9 109.43 -9.81 109.91 C-8.88 110.27 -7.96 110.63 -7 111 C-6.29 111.21 -5.57 111.42 -4.84 111.64 C-4.23 111.76 -3.62 111.88 -3 112 C-1.89 112.1 -0.77 112.21 0.38 112.31 C2.17 112.16 2.17 112.16 4 112 C5.11 111.4 6.23 110.8 7.38 110.19 C8.24 109.47 9.11 108.74 10 108 C10.33 107.01 10.66 106.02 11 105 C10.3 104.86 9.59 104.73 8.87 104.59 C7.88 104.37 6.89 104.16 5.88 103.94 C4.78 103.66 3.69 103.38 2.56 103.1 C0.8 102.55 0.8 102.55 -1 102 C-2.75 101.29 -2.75 101.29 -4.53 100.56 C-5.69 100 -6.86 99.45 -8.06 98.88 C-9.81 97.96 -9.81 97.96 -11.6 97.02 C-12.72 96.36 -13.84 95.69 -15 95 C-16.02 94.27 -17.04 93.54 -18.09 92.79 C-19.03 92.03 -19.97 91.28 -20.94 90.5 C-21.82 89.73 -22.7 88.96 -23.61 88.17 C-24.4 87.45 -25.19 86.74 -26 86 C-26.63 85.46 -27.27 84.92 -27.92 84.36 C-28.76 83.6 -28.76 83.6 -29.62 82.81 C-30.16 82.26 -30.69 81.7 -31.24 81.13 C-32.11 80.08 -32.11 80.08 -33 79 C-33.77 77.95 -34.53 76.89 -35.32 75.8 C-36.14 74.61 -36.95 73.4 -37.75 72.19 C-38.14 71.58 -38.53 70.98 -38.93 70.36 C-39.29 69.76 -39.66 69.15 -40.04 68.54 C-40.56 67.64 -40.56 67.64 -41.09 66.73 C-41.54 65.88 -41.54 65.88 -42 65 C-42.41 63.97 -42.82 62.93 -43.24 61.87 C-43.51 60.96 -43.78 60.06 -44.06 59.12 C-44.26 58.32 -44.46 57.52 -44.66 56.7 C-44.77 56.14 -44.88 55.58 -45 55 C-45.33 55 -45.66 55 -46 55 Z M-49 87 C-50.06 87.94 -50.06 87.94 -51.14 88.91 C-53.77 91.59 -56.4 94.28 -59 97 C-59.7 97.73 -60.39 98.45 -61.11 99.2 C-61.71 99.86 -62.32 100.51 -62.94 101.19 C-63.48 101.83 -64.03 102.47 -64.59 103.13 C-65.29 104.06 -65.29 104.06 -66 105 C-66.38 105.6 -66.77 106.19 -67.16 106.8 C-67.46 107.38 -67.76 107.96 -68.06 108.56 C-68.37 109.7 -68.68 110.83 -69 112 C-68.84 113.2 -68.67 114.39 -68.5 115.62 C-68 116.74 -67.51 117.85 -67 119 C-66.32 119.78 -65.64 120.57 -64.94 121.38 C-63.48 122.67 -63.48 122.67 -62 124 C-60.48 125.56 -58.96 127.12 -57.44 128.69 C-56.69 129.45 -55.95 130.22 -55.18 131.01 C-54.46 131.67 -53.74 132.32 -53 133 C-52.32 133.41 -51.64 133.82 -50.93 134.25 C-50.3 134.49 -49.66 134.74 -49 135 C-47.33 135.19 -47.33 135.19 -45.62 135.38 C-44.43 135.25 -43.23 135.13 -42 135 C-41.08 134.49 -40.17 133.97 -39.23 133.44 C-38.71 133.08 -38.19 132.72 -37.66 132.34 C-36.84 131.68 -36.84 131.68 -36 131 C-35.42 130.45 -34.84 129.91 -34.24 129.35 C-33.64 128.74 -33.04 128.13 -32.42 127.5 C-31.19 126.2 -29.97 124.88 -28.75 123.56 C-28.13 122.91 -27.5 122.25 -26.86 121.58 C-26.26 120.93 -25.66 120.29 -25.05 119.63 C-24.5 119.01 -23.95 118.39 -23.38 117.75 C-22.93 117.18 -22.47 116.6 -22 116 C-21.53 115.02 -21.06 114.04 -20.58 113.03 C-20.29 112.02 -20.29 112.02 -20 111 C-20.67 110.61 -21.33 110.22 -22.02 109.82 C-22.94 109.26 -23.86 108.7 -24.81 108.12 C-25.81 107.49 -26.81 106.85 -27.84 106.2 C-28.88 105.47 -29.93 104.75 -31 104 C-31.99 103.19 -32.98 102.39 -34 101.55 C-34.95 100.71 -35.9 99.87 -36.88 99 C-37.78 98.16 -38.68 97.31 -39.61 96.45 C-40.4 95.64 -41.19 94.83 -42 94 C-42.57 93.28 -43.14 92.55 -43.73 91.8 C-44.83 90.21 -45.92 88.61 -47 87 C-47.66 87 -48.32 87 -49 87 Z M-70 125 C-72.2 127.16 -74.4 129.33 -76.58 131.52 C-77.38 132.34 -78.18 133.16 -79 134 C-79.57 134.63 -80.14 135.27 -80.73 135.92 C-81.82 137.18 -82.9 138.43 -83.98 139.69 C-84.64 140.45 -85.31 141.22 -86 142 C-88.56 144.8 -91.15 147.57 -93.74 150.34 C-95.17 151.89 -96.59 153.44 -98 155 C-98.78 155.89 -99.56 156.79 -100.36 157.71 C-100.9 158.46 -101.44 159.22 -102 160 C-102.02 160.99 -102.04 161.98 -102.06 163 C-101.71 163.99 -101.36 164.98 -101 166 C-100.24 166.91 -99.47 167.81 -98.69 168.75 C-97.8 169.49 -96.91 170.24 -96 171 C-95.34 171.45 -94.68 171.91 -94 172.38 C-93.34 172.58 -92.68 172.79 -92 173 C-90.91 172.98 -90.91 172.98 -89.79 172.96 C-88.87 172.65 -87.95 172.33 -87 172 C-86.49 171.57 -85.98 171.14 -85.46 170.7 C-84.66 169.88 -84.66 169.88 -83.84 169.04 C-82.67 167.77 -81.52 166.48 -80.38 165.19 C-79.76 164.51 -79.15 163.84 -78.52 163.14 C-77.27 161.76 -76.03 160.38 -74.79 158.99 C-73.66 157.73 -72.52 156.48 -71.38 155.25 C-70.87 154.71 -70.37 154.17 -69.85 153.62 C-68.01 151.65 -66.18 149.67 -64.36 147.68 C-63.58 146.79 -62.8 145.91 -62 145 C-61.34 144.17 -60.67 143.34 -59.99 142.48 C-59.44 141.74 -58.88 141.01 -58.31 140.25 C-57.55 139.18 -56.79 138.1 -56 137 C-57.58 135.56 -59.17 134.12 -60.75 132.69 C-61.63 131.89 -62.51 131.09 -63.42 130.26 C-64.27 129.52 -65.12 128.77 -66 128 C-66.77 127.41 -67.54 126.82 -68.33 126.21 C-69.16 125.61 -69.16 125.61 -70 125 Z " fill="#FFFFFF" transform="translate(118,7)"/>
</svg>
