<?xml version="1.0" encoding="UTF-8"?>
<!-- Generator: visioncortex VTracer 0.6.4 -->
<svg version="1.1" xmlns="http://www.w3.org/2000/svg" width="192" height="192">
<path d="M0 0 C1.01 -0.02 2.02 -0.04 3.06 -0.06 C4.52 -0.03 4.52 -0.03 6 0 C6.59 1.22 7.17 2.45 7.75 3.69 C8.11 4.49 8.47 5.3 8.84 6.13 C9.23 7.08 9.61 8.03 10 9 C10.38 10.15 10.76 11.3 11.16 12.49 C12.13 15.66 13.08 18.82 14 22 C15.3 22.14 16.6 22.29 17.94 22.44 C18.67 22.52 19.4 22.6 20.15 22.68 C20.76 22.79 21.37 22.89 22 23 C22.33 23.33 22.66 23.66 23 24 C23.12 25.4 23.12 25.4 23.24 26.83 C23.34 29.46 23.42 32.09 23.48 34.72 C23.49 35.43 23.5 36.14 23.51 36.88 C23.53 37.6 23.55 38.32 23.56 39.06 C23.59 39.77 23.63 40.48 23.66 41.21 C23.7 42.26 23.7 42.26 23.75 43.33 C23.78 44.36 23.78 44.36 23.81 45.42 C23.81 46.1 23.81 46.77 23.82 47.47 C23.74 49.45 23.74 49.45 23.66 51.46 C23.34 53.21 23.34 53.21 23 55 C22.43 55.89 21.87 56.79 21.28 57.71 C20.58 58.42 19.88 59.14 19.15 59.87 C18.45 60.45 17.75 61.02 17.02 61.61 C15.36 62.76 13.68 63.88 12 65 C11.86 66.23 11.71 67.45 11.57 68.72 C11.55 69.48 11.53 70.24 11.51 71.02 C11.5 71.84 11.49 72.66 11.49 73.51 C11.46 74.77 11.46 74.77 11.43 76.06 C11.38 78.75 11.35 81.43 11.31 84.12 C11.28 85.95 11.24 87.77 11.21 89.59 C11.12 94.06 11.06 98.53 11 103 C12.48 103.5 12.48 103.5 14 104 C14 112.91 14 121.82 14 131 C21.26 131 28.52 131 36 131 C35.99 129.15 35.98 127.29 35.96 125.38 C35.96 122.96 35.95 120.54 35.94 118.12 C35.93 116.9 35.92 115.68 35.91 114.42 C35.91 113.25 35.91 112.08 35.9 110.88 C35.9 109.8 35.89 108.73 35.89 107.61 C35.92 106.75 35.96 105.89 36 105 C36.33 104.34 36.66 103.68 37 103 C38.32 103 39.64 103 41 103 C41 98.71 41 94.42 41 90 C39.35 89.67 37.7 89.34 36 89 C35.92 87.17 35.85 85.34 35.8 83.51 C35.79 82.76 35.77 82.02 35.75 81.25 C35.72 80.52 35.68 79.79 35.65 79.04 C35.63 77.98 35.63 77.98 35.61 76.89 C35.74 75.61 35.87 74.32 36 73 C36.65 72.38 37.3 71.76 37.97 71.12 C38.64 70.42 39.31 69.72 40 69 C40.14 68.28 40.28 67.57 40.42 66.83 C40.52 65.54 40.52 65.54 40.61 64.23 C40.64 63.34 40.67 62.46 40.71 61.54 C40.72 60.62 40.74 59.7 40.75 58.75 C40.79 57.35 40.79 57.35 40.84 55.91 C40.91 53.61 40.96 51.31 41 49 C39.35 48.67 37.7 48.34 36 48 C35.92 46.17 35.85 44.34 35.8 42.51 C35.79 41.76 35.77 41.02 35.75 40.25 C35.72 39.52 35.68 38.79 35.65 38.04 C35.63 36.98 35.63 36.98 35.61 35.89 C35.74 34.61 35.87 33.32 36 32 C36.66 31.38 37.31 30.77 37.99 30.13 C38.65 29.43 39.32 28.73 40 28 C40.26 26.6 40.26 26.6 40.53 25.18 C40.54 24.11 40.56 23.05 40.57 21.96 C40.6 20.8 40.63 19.65 40.66 18.46 C40.67 17.25 40.68 16.05 40.69 14.81 C40.73 12.42 40.77 10.03 40.82 7.64 C40.84 6.59 40.85 5.53 40.86 4.44 C40.9 3.63 40.95 2.83 41 2 C41.33 1.67 41.66 1.34 42 1 C43.55 0.93 43.55 0.93 45.12 0.87 C46.4 0.87 47.68 0.87 49 0.88 C50.28 0.87 51.56 0.87 52.88 0.87 C53.91 0.91 54.94 0.95 56 1 C56.33 1.33 56.66 1.66 57 2 C57.03 2.75 57.06 3.51 57.1 4.29 C57.08 5.66 57.08 5.66 57.06 7.06 C57.05 7.98 57.04 8.9 57.04 9.85 C57.02 10.91 57.02 10.91 57 12 C58.32 12 59.64 12 61 12 C61.33 12.66 61.66 13.32 62 14 C62.07 15.03 62.13 16.06 62.2 17.12 C62.23 18.98 62.23 18.98 62.25 20.88 C62.29 22.73 62.29 22.73 62.33 24.62 C62.17 26.29 62.17 26.29 62 28 C61.54 28.81 61.08 29.61 60.61 30.45 C60.08 30.96 59.55 31.47 59 32 C58.34 32 57.68 32 57 32 C57.33 38.93 57.66 45.86 58 53 C59.32 53.66 60.64 54.32 62 55 C62.05 55.95 62.09 56.91 62.14 57.89 C62.18 59.14 62.21 60.4 62.25 61.69 C62.3 62.93 62.34 64.17 62.39 65.45 C62.26 66.62 62.13 67.79 62 69 C61.02 70.14 61.02 70.14 60.01 71.29 C59.35 72.19 58.68 73.08 58 74 C57.73 75.6 57.73 75.6 57.45 77.23 C57.43 78.42 57.41 79.61 57.39 80.83 C57.36 82.12 57.33 83.42 57.29 84.75 C57.28 86.1 57.26 87.46 57.25 88.81 C57.22 90.19 57.19 91.56 57.16 92.94 C57.09 96.29 57.04 99.64 57 103 C58.32 103.33 59.64 103.66 61 104 C61 112.91 61 121.82 61 131 C64.01 130.98 64.01 130.98 67.09 130.96 C69.03 130.96 70.97 130.95 72.91 130.95 C74.26 130.94 75.61 130.93 76.96 130.92 C78.9 130.91 80.84 130.91 82.78 130.9 C83.95 130.9 85.11 130.89 86.32 130.89 C87.2 130.92 88.09 130.96 89 131 C89.33 131.33 89.66 131.66 90 132 C90 143.88 90 155.76 90 168 C32.58 168 -24.84 168 -84 168 C-84 156.12 -84 144.24 -84 132 C-83.67 131.67 -83.34 131.34 -83 131 C-82.11 130.96 -81.23 130.93 -80.32 130.89 C-79.15 130.89 -77.98 130.9 -76.78 130.9 C-75.64 130.9 -74.51 130.91 -73.34 130.91 C-71.89 130.92 -70.43 130.93 -68.94 130.94 C-64.34 130.96 -59.74 130.98 -55 131 C-55 121.76 -55 112.52 -55 103 C-53.68 103 -52.36 103 -51 103 C-51 98.38 -51 93.76 -51 89 C-52.65 89 -54.3 89 -56 89 C-56.49 88.5 -56.49 88.5 -57 88 C-57.07 87.14 -57.13 86.27 -57.2 85.38 C-57.22 84.31 -57.23 83.23 -57.25 82.12 C-57.28 81.06 -57.3 79.99 -57.33 78.88 C-57.22 77.93 -57.11 76.98 -57 76 C-56.56 75.38 -56.12 74.76 -55.67 74.12 C-55.12 73.75 -54.57 73.38 -54 73 C-53.01 73 -52.02 73 -51 73 C-51 69.04 -51 65.08 -51 61 C-52.65 61 -54.3 61 -56 61 C-56.33 60.34 -56.66 59.68 -57 59 C-57.1 57.76 -57.1 57.76 -57.2 56.5 C-57.22 55.53 -57.23 54.56 -57.25 53.56 C-57.28 52.59 -57.3 51.63 -57.33 50.63 C-57.22 49.76 -57.11 48.89 -57 48 C-56.31 47.12 -56.31 47.12 -55.61 46.21 C-55.08 45.81 -54.55 45.41 -54 45 C-53.01 44.51 -53.01 44.51 -52 44 C-52 41.03 -52 38.06 -52 35 C-53.32 34.67 -54.64 34.34 -56 34 C-56.49 33.51 -56.49 33.51 -57 33 C-57.08 32.14 -57.16 31.27 -57.24 30.38 C-57.26 29.31 -57.29 28.23 -57.31 27.12 C-57.35 26.06 -57.39 24.99 -57.43 23.88 C-57.29 22.93 -57.14 21.98 -57 21 C-56.37 20.38 -55.75 19.76 -55.11 19.12 C-54.41 18.75 -53.72 18.38 -53 18 C-52.34 18 -51.68 18 -51 18 C-51.01 16.86 -51.02 15.71 -51.04 14.54 C-51.04 13.04 -51.05 11.55 -51.06 10.06 C-51.07 9.31 -51.08 8.55 -51.09 7.78 C-51.09 7.06 -51.09 6.34 -51.1 5.6 C-51.07 4.41 -51.03 3.22 -51 2 C-50.67 1.67 -50.34 1.34 -50 1 C-48.45 0.93 -48.45 0.93 -46.88 0.87 C-45.6 0.87 -44.32 0.87 -43 0.88 C-41.72 0.87 -40.44 0.87 -39.12 0.87 C-38.09 0.91 -37.06 0.95 -36 1 C-35.51 1.5 -35.51 1.5 -35 2 C-34.97 2.68 -34.94 3.36 -34.9 4.07 C-34.91 4.89 -34.93 5.71 -34.94 6.56 C-34.95 7.39 -34.96 8.22 -34.96 9.07 C-34.98 9.7 -34.99 10.34 -35 11 C-32.53 11.5 -32.53 11.5 -30 12 C-29.95 12.9 -29.91 13.81 -29.86 14.74 C-29.81 16.51 -29.81 16.51 -29.75 18.31 C-29.7 19.48 -29.66 20.66 -29.61 21.86 C-29.74 22.9 -29.87 23.93 -30 25 C-30.65 25.53 -31.3 26.05 -31.97 26.59 C-32.97 27.29 -32.97 27.29 -34 28 C-34.2 28.82 -34.4 29.64 -34.61 30.48 C-34.66 31.37 -34.7 32.27 -34.75 33.19 C-34.84 34.54 -34.84 34.54 -34.92 35.92 C-34.96 36.95 -34.96 36.95 -35 38 C-33.35 38 -31.7 38 -30 38 C-30 42.62 -30 47.24 -30 52 C-31.65 52.66 -33.3 53.32 -35 54 C-35 57.96 -35 61.92 -35 66 C-33.35 66.33 -31.7 66.66 -30 67 C-30 71.29 -30 75.58 -30 80 C-32.47 80.99 -32.47 80.99 -35 82 C-35 88.93 -35 95.86 -35 103 C-33.68 103.33 -32.36 103.66 -31 104 C-31 112.91 -31 121.82 -31 131 C-23.41 131 -15.82 131 -8 131 C-8.01 129.06 -8.02 127.13 -8.04 125.13 C-8.04 122.61 -8.05 120.08 -8.06 117.56 C-8.07 116.28 -8.08 115 -8.09 113.69 C-8.09 112.47 -8.09 111.26 -8.1 110 C-8.1 108.88 -8.11 107.75 -8.11 106.59 C-8.06 105.31 -8.06 105.31 -8 104 C-7.67 103.67 -7.34 103.34 -7 103 C-6.92 101.85 -6.84 100.71 -6.76 99.53 C-6.65 96.28 -6.58 93.04 -6.52 89.79 C-6.51 88.92 -6.5 88.04 -6.49 87.13 C-6.47 86.24 -6.45 85.35 -6.44 84.44 C-6.41 83.56 -6.37 82.69 -6.34 81.78 C-6.28 80.05 -6.23 78.32 -6.19 76.58 C-6.19 74.91 -6.19 73.24 -6.21 71.57 C-6.25 70.79 -6.29 70 -6.34 69.19 C-6.45 68.1 -6.45 68.1 -6.57 66.97 C-6.71 66.32 -6.85 65.67 -7 65 C-7.57 64.04 -8.13 63.09 -8.72 62.11 C-9.42 61.4 -10.12 60.7 -10.85 59.97 C-11.9 59.17 -11.9 59.17 -12.98 58.36 C-13.64 57.91 -14.31 57.46 -15 57 C-15.57 56.58 -16.15 56.17 -16.74 55.74 C-17.16 55.17 -17.57 54.59 -18 54 C-18.18 52.48 -18.18 52.48 -18.36 50.92 C-18.35 49.69 -18.34 48.45 -18.33 47.18 C-18.33 46.52 -18.32 45.86 -18.32 45.18 C-18.32 43.79 -18.3 42.4 -18.28 41.01 C-18.25 38.88 -18.24 36.74 -18.23 34.61 C-18.22 32.01 -18.19 29.42 -18.16 26.82 C-18.11 25.89 -18.05 24.96 -18 24 C-17.5 23.51 -17.5 23.51 -17 23 C-15.98 22.95 -15.98 22.95 -14.93 22.9 C-13.7 22.92 -13.7 22.92 -12.44 22.94 C-11.61 22.95 -10.78 22.96 -9.93 22.96 C-8.98 22.98 -8.98 22.98 -8 23 C-7.83 22.25 -7.66 21.5 -7.48 20.73 C-6.98 18.59 -6.46 16.46 -5.93 14.33 C-5.62 13.23 -5.32 12.13 -5 11 C-4.65 10.01 -4.3 9.03 -3.95 8.01 C-3.26 6.29 -2.57 4.57 -1.87 2.86 C-1.58 2.25 -1.29 1.63 -1 1 C-0.67 0.67 -0.34 0.34 0 0 Z M-45 6 C-45 8.97 -45 11.94 -45 15 C-43.68 14.67 -42.36 14.34 -41 14 C-41 11.36 -41 8.72 -41 6 C-42.32 6 -43.64 6 -45 6 Z M47 6 C47 10.95 47 15.9 47 21 C48.32 20.34 49.64 19.68 51 19 C51 14.71 51 10.42 51 6 C49.68 6 48.36 6 47 6 Z M2 8 C1 11.12 -0 14.25 -1 17.38 C-1.29 18.26 -1.57 19.15 -1.87 20.07 C-2.14 20.92 -2.41 21.77 -2.69 22.65 C-2.94 23.43 -3.19 24.22 -3.45 25.03 C-3.63 25.68 -3.81 26.33 -4 27 C-4 27.66 -4 28.32 -4 29 C-6.64 29 -9.28 29 -12 29 C-12.13 30.57 -12.24 32.14 -12.35 33.71 C-12.46 35.79 -12.55 37.86 -12.62 39.94 C-12.65 41 -12.68 42.05 -12.7 43.15 C-12.69 44.18 -12.67 45.22 -12.66 46.29 C-12.6 47.29 -12.53 48.29 -12.47 49.33 C-12.31 50.21 -12.16 51.09 -12 52 C-11.68 52.64 -11.36 53.28 -11.03 53.94 C-10.63 54.44 -10.23 54.94 -9.81 55.46 C-8.9 56.24 -8 57.01 -7.06 57.81 C-5.69 58.72 -5.69 58.72 -4.29 59.64 C-3.15 60.32 -3.15 60.32 -2 61 C-1.67 61.66 -1.34 62.32 -1 63 C-0.93 64.29 -0.86 65.57 -0.79 66.9 C-0.75 68.58 -0.72 70.26 -0.68 71.95 C-0.66 72.83 -0.64 73.72 -0.62 74.63 C-0.56 77.46 -0.5 80.29 -0.44 83.12 C-0.39 85.04 -0.35 86.96 -0.31 88.88 C-0.2 93.59 -0.1 98.29 0 103 C1.98 103 3.96 103 6 103 C5.98 101.81 5.97 100.61 5.95 99.38 C5.9 94.91 5.91 90.45 5.93 85.98 C5.94 84.05 5.92 82.12 5.89 80.2 C5.87 78.32 5.85 76.45 5.86 74.58 C5.89 72.77 5.93 70.96 5.99 69.16 C6.05 68.31 6.11 67.46 6.17 66.58 C6.27 65.79 6.37 64.99 6.48 64.17 C6.74 63.09 6.74 63.09 7 62 C7.66 60.91 8.32 59.83 9 58.71 C9.81 57.9 10.61 57.08 11.44 56.25 C12.24 55.61 13.05 54.98 13.87 54.33 C14.58 53.89 15.28 53.45 16 53 C16.99 52.5 16.99 52.5 18 52 C18 44.41 18 36.82 18 29 C15.36 28.67 12.72 28.34 10 28 C9.74 27.14 9.74 27.14 9.48 26.27 C8.7 23.7 7.91 21.13 7.12 18.56 C6.86 17.66 6.59 16.77 6.31 15.84 C6.04 14.99 5.78 14.13 5.51 13.25 C5.15 12.07 5.15 12.07 4.78 10.86 C4.52 10.24 4.26 9.63 4 9 C3.34 8.67 2.68 8.34 2 8 Z M-37 18 C-37.99 18.31 -38.98 18.63 -40 18.95 C-41.77 19.6 -41.77 19.6 -43.56 20.25 C-44.74 20.67 -45.92 21.09 -47.13 21.52 C-48.08 22.01 -49.02 22.5 -50 23 C-50.3 23.72 -50.6 24.43 -50.9 25.17 C-50.93 25.78 -50.97 26.38 -51 27 C-50.22 26.92 -49.43 26.84 -48.62 26.75 C-47.43 26.5 -46.23 26.26 -45 26 C-44.13 25.68 -43.27 25.37 -42.38 25.04 C-40.57 24.32 -38.77 23.58 -36.98 22.84 C-36.32 22.56 -35.67 22.29 -35 22 C-35 20.68 -35 19.36 -35 18 C-35.66 18 -36.32 18 -37 18 Z M55 22 C54.41 22.6 53.82 23.21 53.21 23.83 C51.59 25.47 49.96 27.1 48.34 28.73 C47.57 29.48 46.79 30.23 46 31 C44.48 32.27 44.48 32.27 42.94 33.56 C42.3 34.04 41.66 34.51 41 35 C41.33 36.32 41.66 37.64 42 39 C43.58 37.58 45.17 36.17 46.75 34.75 C47.63 33.96 48.51 33.17 49.42 32.36 C50.7 31.19 50.7 31.19 52 30 C52.79 29.32 53.58 28.65 54.39 27.95 C54.92 27.31 55.45 26.66 56 26 C55.88 24.89 55.88 24.89 55.75 23.75 C55.5 23.17 55.25 22.59 55 22 Z M-42 30 C-42.99 30.33 -43.98 30.66 -45 31 C-45 34.63 -45 38.26 -45 42 C-43.68 41.67 -42.36 41.34 -41 41 C-41 37.37 -41 33.74 -41 30 C-41.33 30 -41.66 30 -42 30 Z M50 39 C49.24 39.59 49.24 39.59 48.46 40.19 C47.98 40.79 47.49 41.39 47 42 C46.89 42.75 46.78 43.5 46.66 44.27 C46.68 45.13 46.69 46 46.71 46.89 C46.72 47.82 46.73 48.76 46.74 49.73 C46.76 50.7 46.79 51.68 46.81 52.69 C46.83 53.68 46.84 54.66 46.85 55.68 C46.89 58.12 46.94 60.56 47 63 C47.65 62.61 48.3 62.21 48.98 61.81 C49.64 61.21 50.31 60.61 51 60 C51.15 59.25 51.3 58.5 51.45 57.73 C51.43 56.87 51.41 56 51.39 55.11 C51.38 54.18 51.36 53.24 51.35 52.27 C51.3 50.81 51.3 50.81 51.25 49.31 C51.23 48.32 51.21 47.34 51.2 46.32 C51.15 43.88 51.08 41.44 51 39 C50.67 39 50.34 39 50 39 Z M-38 45 C-39.04 45.36 -40.07 45.72 -41.14 46.09 C-42.31 46.56 -43.48 47.02 -44.69 47.5 C-45.87 47.96 -47.05 48.43 -48.26 48.91 C-49.17 49.27 -50.07 49.63 -51 50 C-51 51.32 -51 52.64 -51 54 C-48.82 53.3 -46.64 52.59 -44.47 51.87 C-43.65 51.58 -42.84 51.29 -42 51 C-41.29 50.71 -40.58 50.43 -39.84 50.13 C-38.22 49.44 -36.61 48.72 -35 48 C-35 47.01 -35 46.02 -35 45 C-35.99 45 -36.98 45 -38 45 Z M-43 57 C-43.99 57.5 -43.99 57.5 -45 58 C-45 61.96 -45 65.92 -45 70 C-43.68 69.67 -42.36 69.34 -41 69 C-41 65.04 -41 61.08 -41 57 C-41.66 57 -42.32 57 -43 57 Z M55 63 C54.16 63.85 53.31 64.71 52.45 65.59 C51.34 66.71 50.23 67.82 49.12 68.94 C48.57 69.5 48.01 70.07 47.44 70.65 C46.91 71.18 46.37 71.72 45.82 72.28 C44.89 73.18 43.96 74.07 43 75 C42.01 75.5 42.01 75.5 41 76 C41 77.65 41 79.3 41 81 C41.99 80.17 42.98 79.35 44 78.5 C46.11 76.67 48.2 74.82 50.28 72.96 C51.01 72.27 51.75 71.58 52.5 70.88 C53.19 70.23 53.88 69.59 54.59 68.93 C55.06 68.29 55.52 67.66 56 67 C55.86 66.3 55.73 65.6 55.59 64.88 C55.39 64.26 55.2 63.64 55 63 Z M-38 73 C-39.04 73.36 -40.07 73.72 -41.14 74.09 C-42.31 74.56 -43.48 75.02 -44.69 75.5 C-45.87 75.96 -47.05 76.43 -48.26 76.91 C-49.17 77.27 -50.07 77.63 -51 78 C-51 79.32 -51 80.64 -51 82 C-49.46 81.57 -47.92 81.13 -46.38 80.69 C-45.47 80.42 -44.56 80.15 -43.62 79.87 C-42.76 79.58 -41.89 79.29 -41 79 C-39.8 78.44 -38.61 77.89 -37.38 77.31 C-36.59 76.88 -35.81 76.45 -35 76 C-35 75.01 -35 74.02 -35 73 C-35.99 73 -36.98 73 -38 73 Z M50 80 C49.49 80.4 48.98 80.8 48.46 81.21 C47.98 81.8 47.49 82.39 47 83 C46.89 83.72 46.78 84.44 46.66 85.18 C46.68 86 46.69 86.82 46.71 87.67 C46.72 88.56 46.73 89.45 46.74 90.37 C46.76 91.3 46.79 92.23 46.81 93.19 C46.83 94.13 46.84 95.07 46.85 96.04 C46.89 98.36 46.94 100.68 47 103 C48.32 103 49.64 103 51 103 C51 95.41 51 87.82 51 80 C50.67 80 50.34 80 50 80 Z M-43 85 C-43.99 85.5 -43.99 85.5 -45 86 C-45 91.61 -45 97.22 -45 103 C-43.68 103 -42.36 103 -41 103 C-41 97.06 -41 91.12 -41 85 C-41.66 85 -42.32 85 -43 85 Z M-50 109 C-50 116.26 -50 123.52 -50 131 C-45.38 131 -40.76 131 -36 131 C-36 123.74 -36 116.48 -36 109 C-40.62 109 -45.24 109 -50 109 Z M-3 109 C-3 116.26 -3 123.52 -3 131 C0.63 131 4.26 131 8 131 C8 123.74 8 116.48 8 109 C4.37 109 0.74 109 -3 109 Z M42 109 C42 116.26 42 123.52 42 131 C46.62 131 51.24 131 56 131 C56 123.74 56 116.48 56 109 C51.38 109 46.76 109 42 109 Z M-79 137 C-79 145.58 -79 154.16 -79 163 C-25.21 163 28.58 163 84 163 C84 154.42 84 145.84 84 137 C30.21 137 -23.58 137 -79 137 Z " fill="#FFFFFF" transform="translate(93,12)"/>
<path d="M0 0 C0.83 -0.08 1.65 -0.16 2.5 -0.25 C3.33 -0.17 4.15 -0.09 5 0 C5.66 0.66 6.32 1.32 7 2 C7.06 3.01 7.12 4.02 7.19 5.06 C7.13 6.03 7.06 7 7 8 C6.67 8.33 6.34 8.66 6 9 C4.24 9.03 4.24 9.03 2.44 9.06 C1.3 9.04 0.17 9.02 -1 9 C-1.21 7.89 -1.41 6.77 -1.62 5.62 C-1.75 4.43 -1.87 3.23 -2 2 C-1.34 1.34 -0.68 0.68 0 0 Z " fill="#FFFFFF" transform="translate(93,46)"/>
</svg>
