<?xml version="1.0" encoding="UTF-8"?>
<!-- Generator: visioncortex VTracer 0.6.4 -->
<svg version="1.1" xmlns="http://www.w3.org/2000/svg" width="192" height="193">
<path d="M0 0 C0.75 0.03 1.49 0.05 2.27 0.08 C3.06 0.12 3.86 0.17 4.68 0.21 C6.37 0.34 8.06 0.47 9.75 0.62 C10.6 0.71 11.45 0.8 12.33 0.89 C13.61 1.05 13.61 1.05 14.91 1.2 C15.76 1.32 16.61 1.44 17.48 1.57 C18.31 1.71 19.14 1.85 20 2 C20.8 2.17 21.59 2.35 22.41 2.53 C23.57 2.81 23.57 2.81 24.75 3.11 C25.86 3.42 25.86 3.42 27.01 3.73 C28.44 4.15 29.87 4.59 31.3 5.03 C31.97 5.25 32.63 5.47 33.32 5.69 C34.53 6.12 35.75 6.56 37 7 C38.01 7.4 39.02 7.8 40.05 8.21 C40.88 8.58 41.71 8.94 42.56 9.31 C43.7 9.87 44.83 10.43 46 11 C45.67 12.65 45.34 14.3 45 16 C44.34 15.9 43.69 15.79 43.01 15.68 C42.02 15.46 41.02 15.23 40 15 C39.09 14.7 39.09 14.7 38.15 14.39 C36.04 13.62 33.92 12.84 31.81 12.06 C29.55 11.25 27.28 10.45 25 9.66 C24.01 9.33 24.01 9.33 23 9 C22.06 8.73 21.12 8.47 20.16 8.2 C19.38 8.03 18.61 7.86 17.81 7.69 C17.05 7.56 16.28 7.44 15.5 7.31 C14.67 7.21 13.85 7.1 13 7 C11.96 6.87 10.92 6.73 9.85 6.6 C8.7 6.48 7.56 6.37 6.38 6.25 C5.19 6.18 4 6.11 2.77 6.04 C1.53 6.03 0.28 6.01 -1 6 C-2.31 6.07 -3.61 6.14 -4.96 6.21 C-5.63 6.27 -6.29 6.33 -6.97 6.39 C-7.64 6.47 -8.31 6.55 -9 6.62 C-9.67 6.72 -10.34 6.81 -11.03 6.9 C-11.7 7 -12.36 7.11 -13.05 7.22 C-14.04 7.4 -14.04 7.4 -15.05 7.59 C-16.01 7.79 -16.01 7.79 -17 8 C-18.82 8.48 -18.82 8.48 -20.67 8.97 C-21.83 9.35 -22.99 9.73 -24.19 10.12 C-25.32 10.57 -26.45 11.01 -27.62 11.46 C-28.74 11.97 -29.85 12.48 -31 13 C-32.69 13.89 -32.69 13.89 -34.41 14.79 C-35.51 15.44 -36.61 16.08 -37.75 16.75 C-38.81 17.44 -39.87 18.12 -40.96 18.83 C-41.96 19.55 -42.97 20.26 -44 21 C-44.92 21.73 -45.84 22.45 -46.79 23.2 C-47.64 23.94 -48.5 24.68 -49.38 25.44 C-50.17 26.19 -50.97 26.95 -51.79 27.73 C-52.88 28.85 -52.88 28.85 -54 30 C-54.97 31.05 -54.97 31.05 -55.96 32.11 C-56.55 32.82 -57.14 33.52 -57.75 34.25 C-58.29 34.98 -58.84 35.71 -59.39 36.46 C-60.19 37.72 -60.19 37.72 -61 39 C-61.58 40.12 -62.16 41.24 -62.76 42.39 C-63.31 43.56 -63.87 44.73 -64.44 45.94 C-64.93 47.04 -65.42 48.14 -65.93 49.28 C-66.29 50.18 -66.64 51.07 -67 52 C-67 52.66 -67 53.32 -67 54 C-66.55 53.26 -66.1 52.52 -65.64 51.76 C-64.99 50.75 -64.35 49.73 -63.69 48.69 C-62.95 47.59 -62.22 46.5 -61.46 45.37 C-61.06 44.81 -60.66 44.24 -60.25 43.66 C-59.63 42.84 -59.63 42.84 -59 42 C-58.17 41.02 -57.33 40.04 -56.48 39.04 C-55.6 38.12 -54.72 37.2 -53.81 36.25 C-52.88 35.36 -51.94 34.46 -50.97 33.54 C-49.99 32.7 -49.01 31.86 -48 31 C-46.99 30.24 -45.98 29.49 -44.93 28.71 C-43.36 27.68 -43.36 27.68 -41.75 26.62 C-40.67 26 -39.59 25.37 -38.48 24.72 C-37.33 24.15 -36.18 23.59 -35 23 C-34.35 22.73 -33.71 22.47 -33.04 22.19 C-32.37 21.94 -31.7 21.69 -31.02 21.43 C-29.68 20.97 -28.34 20.51 -27 20.06 C-25.78 19.68 -24.57 19.3 -23.31 18.91 C-21.43 18.39 -19.54 17.88 -17.65 17.39 C-16.77 17.26 -15.9 17.13 -15 17 C-14.33 16.95 -13.67 16.91 -12.98 16.86 C-11.83 16.81 -11.83 16.81 -10.66 16.76 C-8.98 16.72 -7.3 16.7 -5.62 16.69 C-3.82 16.69 -2.02 16.7 -0.22 16.73 C0.67 16.76 1.56 16.79 2.47 16.83 C3.72 16.91 3.72 16.91 5 17 C5.72 17.09 6.43 17.19 7.17 17.28 C8.15 17.46 8.15 17.46 9.16 17.65 C10.38 17.95 11.61 18.25 12.88 18.56 C14.06 18.93 15.25 19.3 16.48 19.69 C17.64 20.12 18.8 20.55 20 21 C21.19 21.47 22.38 21.95 23.61 22.44 C24.79 22.97 25.97 23.51 27.19 24.06 C28.89 24.96 28.89 24.96 30.64 25.88 C31.75 26.58 32.86 27.28 34 28 C34.55 28.42 35.11 28.85 35.68 29.28 C36.22 29.73 36.77 30.19 37.33 30.65 C37.86 31.12 38.39 31.58 38.94 32.06 C39.45 32.54 39.97 33.01 40.5 33.5 C41.49 34.45 42.47 35.41 43.45 36.38 C44.71 37.67 44.71 37.67 46 39 C46.62 39.62 47.23 40.24 47.87 40.88 C48.36 41.41 48.86 41.95 49.38 42.5 C49.81 43.04 50.25 43.58 50.7 44.14 C51.13 44.75 51.56 45.37 52 46 C52.51 46.82 53.02 47.64 53.55 48.48 C54.07 49.4 54.59 50.31 55.12 51.25 C55.87 52.67 55.87 52.67 56.62 54.12 C57.08 55.07 57.53 56.02 58 57 C58.38 57.88 58.77 58.76 59.16 59.66 C59.5 60.54 59.84 61.41 60.19 62.31 C60.5 63.2 60.81 64.1 61.13 65.02 C61.42 66 61.71 66.99 62 68 C62.54 70.52 63.06 73.04 63.56 75.56 C63.77 76.74 63.98 77.92 64.19 79.13 C64.46 80.08 64.73 81.02 65 82 C65.99 82.66 66.98 83.32 68 84 C67.67 85.32 67.34 86.64 67 88 C66.01 88 65.02 88 64 88 C63.99 88.69 63.97 89.38 63.96 90.1 C63.91 91.08 63.86 92.05 63.81 93.06 C63.72 94.16 63.62 95.25 63.53 96.38 C63.35 97.57 63.18 98.77 63 100 C62.69 101.23 62.38 102.45 62.07 103.71 C61.48 105.59 61.48 105.59 60.88 107.5 C60.66 108.13 60.44 108.77 60.21 109.42 C59.98 110.05 59.74 110.68 59.5 111.33 C59.01 112.54 58.51 113.75 58 115 C57.49 116.07 56.99 117.13 56.46 118.23 C55.92 119.23 55.37 120.22 54.81 121.25 C53.92 122.69 53.92 122.69 53.01 124.15 C52.35 125.09 51.68 126.03 51 127 C50.23 127.97 49.47 128.94 48.68 129.94 C47.86 130.89 47.03 131.84 46.19 132.81 C44.91 134.16 44.91 134.16 43.6 135.53 C42.74 136.35 41.88 137.16 41 138 C39.79 139.01 39.79 139.01 38.56 140.03 C37.76 140.62 36.95 141.21 36.12 141.81 C35.3 142.35 34.47 142.89 33.62 143.44 C31.8 144.53 29.97 145.59 28.12 146.65 C27.13 147.18 26.14 147.71 25.12 148.25 C23.59 148.97 23.59 148.97 22.02 149.71 C21.03 150.14 20.03 150.56 19 151 C17.72 151.51 17.72 151.51 16.41 152.04 C15.53 152.31 14.66 152.59 13.75 152.88 C12.78 153.09 11.8 153.31 10.8 153.53 C8.92 153.76 8.92 153.76 7 154 C6.12 154.05 5.23 154.11 4.32 154.16 C2.28 154.24 0.24 154.31 -1.79 154.35 C-3.93 154.37 -6.07 154.37 -8.21 154.35 C-10.25 154.3 -12.29 154.24 -14.33 154.16 C-15.21 154.11 -16.09 154.05 -17 154 C-18.23 153.86 -19.46 153.71 -20.73 153.57 C-21.68 153.36 -22.64 153.15 -23.62 152.94 C-24.5 152.66 -25.38 152.38 -26.29 152.1 C-28.34 151.27 -30.39 150.42 -32.43 149.56 C-33.33 149.16 -33.33 149.16 -34.24 148.74 C-34.84 148.46 -35.44 148.17 -36.06 147.88 C-36.95 147.42 -36.95 147.42 -37.85 146.96 C-38.43 146.65 -39.01 146.33 -39.61 146.01 C-40.73 145.35 -41.85 144.68 -43 144 C-44.49 142.98 -44.49 142.98 -46.02 141.93 C-47.4 140.85 -47.4 140.85 -48.81 139.75 C-49.69 138.99 -50.57 138.22 -51.47 137.43 C-52.31 136.63 -53.14 135.83 -54 135 C-54.8 134.17 -55.61 133.33 -56.43 132.47 C-57.2 131.59 -57.96 130.72 -58.75 129.81 C-59.47 128.89 -60.19 127.97 -60.93 127.02 C-61.61 126.03 -62.3 125.03 -63 124 C-63.5 123.16 -63.5 123.16 -64.02 122.31 C-64.34 121.72 -64.67 121.14 -65.01 120.54 C-65.32 119.95 -65.64 119.36 -65.96 118.75 C-66.41 117.85 -66.41 117.85 -66.88 116.94 C-67.43 115.76 -67.99 114.58 -68.56 113.37 C-69.04 112.26 -69.51 111.14 -70 110 C-70.35 109.05 -70.7 108.11 -71.06 107.13 C-71.33 106.28 -71.6 105.44 -71.88 104.56 C-72.09 103.78 -72.31 103 -72.53 102.19 C-72.68 101.47 -72.84 100.75 -73 100 C-73.08 99.31 -73.17 98.62 -73.25 97.9 C-73.31 97.27 -73.38 96.65 -73.44 96 C-73.62 95.01 -73.81 94.02 -74 93 C-74.68 92.53 -75.36 92.05 -76.06 91.56 C-77.02 91.28 -77.02 91.28 -78 91 C-78 89.68 -78 88.36 -78 87 C-76.02 86.5 -76.02 86.5 -74 86 C-74.33 85.34 -74.66 84.68 -75 84 C-75.08 82.85 -75.08 82.85 -75.16 81.67 C-75.21 78.49 -75.24 75.31 -75.25 72.12 C-75.28 70.5 -75.28 70.5 -75.31 68.84 C-75.32 67.76 -75.32 66.68 -75.33 65.57 C-75.3 64.48 -75.28 63.4 -75.25 62.28 C-75.17 61.2 -75.09 60.11 -75 59 C-74.8 57.92 -74.61 56.83 -74.41 55.72 C-74.16 54.68 -73.91 53.64 -73.65 52.56 C-73.38 51.58 -73.11 50.6 -72.82 49.59 C-72.55 48.74 -72.28 47.88 -72 47 C-71.56 45.86 -71.13 44.73 -70.68 43.55 C-69.71 41.65 -68.72 39.76 -67.72 37.88 C-67.15 36.93 -66.59 35.98 -66 35 C-65.4 34.12 -64.8 33.24 -64.18 32.34 C-63.55 31.51 -62.91 30.67 -62.25 29.81 C-61.57 29.01 -60.89 28.2 -60.18 27.37 C-59.1 26.2 -59.1 26.2 -58 25 C-56.87 23.84 -56.87 23.84 -55.72 22.66 C-54.93 21.91 -54.13 21.15 -53.31 20.38 C-52.47 19.65 -51.63 18.92 -50.76 18.16 C-49.39 17.09 -49.39 17.09 -48 16 C-46.99 15.29 -45.97 14.57 -44.93 13.84 C-43.32 12.8 -43.32 12.8 -41.69 11.75 C-40.05 10.78 -40.05 10.78 -38.37 9.79 C-37.26 9.2 -36.15 8.61 -35 8 C-33.88 7.49 -32.75 6.98 -31.6 6.46 C-30.49 6.02 -29.39 5.58 -28.25 5.12 C-27.17 4.74 -26.09 4.36 -24.98 3.96 C-24 3.64 -23.01 3.33 -22 3 C-21.22 2.77 -20.44 2.53 -19.64 2.29 C-18.93 2.11 -18.23 1.93 -17.5 1.75 C-16.78 1.62 -16.07 1.48 -15.33 1.34 C-14.56 1.23 -13.79 1.12 -13 1 C-12.1 0.87 -11.19 0.73 -10.26 0.59 C-9.25 0.48 -8.23 0.37 -7.19 0.25 C-5.53 0.15 -5.53 0.15 -3.84 0.04 C-2.57 0.03 -1.31 0.01 0 0 Z M-13 22 C-14.13 22.14 -15.26 22.28 -16.43 22.43 C-17.48 22.64 -18.54 22.85 -19.62 23.06 C-20.67 23.34 -21.71 23.62 -22.78 23.9 C-24.37 24.45 -24.37 24.45 -26 25 C-27.17 25.48 -28.33 25.95 -29.53 26.44 C-31.31 27.27 -31.31 27.27 -33.12 28.12 C-34.29 28.74 -35.45 29.35 -36.64 29.99 C-37.75 30.65 -38.86 31.32 -40 32 C-41.01 32.69 -42.01 33.39 -43.05 34.11 C-43.98 34.83 -44.91 35.56 -45.88 36.31 C-46.75 37.08 -47.63 37.85 -48.54 38.64 C-49.35 39.42 -50.16 40.2 -51 41 C-52.09 42.12 -52.09 42.12 -53.21 43.27 C-53.88 44.05 -54.56 44.82 -55.25 45.62 C-55.88 46.46 -56.51 47.29 -57.15 48.15 C-57.76 49.09 -58.37 50.03 -59 51 C-59.64 52.15 -60.28 53.29 -60.94 54.48 C-61.25 55.09 -61.57 55.71 -61.89 56.34 C-62.35 57.29 -62.35 57.29 -62.81 58.25 C-63.1 58.88 -63.39 59.51 -63.69 60.17 C-63.97 60.8 -64.24 61.44 -64.52 62.1 C-64.78 62.74 -65.04 63.38 -65.3 64.04 C-65.65 65.01 -65.65 65.01 -66 66 C-66.19 66.65 -66.39 67.3 -66.59 67.98 C-66.84 68.95 -66.84 68.95 -67.1 69.93 C-67.38 71.17 -67.65 72.41 -67.94 73.69 C-68.15 74.81 -68.37 75.92 -68.59 77.07 C-68.73 78.04 -68.86 79.01 -69 80 C-69 81.32 -69 82.64 -69 84 C-66.53 83.5 -66.53 83.5 -64 83 C-63.78 81.84 -63.56 80.68 -63.34 79.48 C-63.02 77.9 -62.7 76.33 -62.38 74.75 C-62.01 73.09 -61.64 71.42 -61.25 69.77 C-61.05 68.95 -60.85 68.13 -60.64 67.29 C-60.43 66.53 -60.22 65.78 -60 65 C-59.36 63.26 -59.36 63.26 -58.71 61.48 C-58.25 60.5 -57.79 59.51 -57.31 58.5 C-56.8 57.57 -56.29 56.64 -55.77 55.68 C-55.18 54.8 -54.6 53.91 -54 53 C-53.29 52.1 -52.59 51.19 -51.86 50.26 C-51.1 49.39 -50.34 48.52 -49.56 47.62 C-48.79 46.82 -48.01 46.01 -47.21 45.18 C-46.48 44.46 -45.75 43.74 -45 43 C-44.44 42.43 -43.87 41.85 -43.29 41.26 C-42.5 40.51 -42.5 40.51 -41.69 39.75 C-41.13 39.29 -40.57 38.84 -40 38.37 C-39.01 37.69 -39.01 37.69 -38 37 C-36.66 36.21 -36.66 36.21 -35.29 35.41 C-33.78 34.62 -33.78 34.62 -32.25 33.81 C-31.2 33.32 -30.16 32.83 -29.08 32.32 C-27.22 31.52 -25.35 30.73 -23.48 29.96 C-22.66 29.68 -21.84 29.41 -21 29.12 C-20.11 28.91 -19.22 28.69 -18.3 28.47 C-17.21 28.32 -16.12 28.16 -15 28 C-14.27 27.94 -13.54 27.88 -12.79 27.82 C-11.99 27.77 -11.18 27.73 -10.36 27.68 C-9.09 27.64 -9.09 27.64 -7.81 27.6 C-6.51 27.58 -6.51 27.58 -5.19 27.56 C-4.32 27.57 -3.45 27.57 -2.55 27.58 C-1.69 27.61 -0.84 27.63 0.05 27.66 C0.89 27.7 1.74 27.75 2.6 27.79 C3.39 27.86 4.19 27.93 5 28 C6.03 28.15 6.03 28.15 7.08 28.29 C8.02 28.47 8.02 28.47 8.98 28.66 C10.14 28.96 11.3 29.25 12.5 29.56 C13.6 29.93 14.7 30.3 15.83 30.69 C16.88 31.12 17.92 31.55 19 32 C20.04 32.47 21.07 32.95 22.14 33.44 C23.14 33.97 24.15 34.51 25.19 35.06 C26.15 35.67 27.12 36.27 28.11 36.89 C29.07 37.59 30.02 38.28 31 39 C31.98 39.84 32.97 40.68 33.98 41.55 C34.71 42.22 34.71 42.22 35.44 42.91 C36.15 43.6 36.15 43.6 36.88 44.31 C37.77 45.26 38.67 46.2 39.59 47.18 C40.39 48.11 41.18 49.04 42 50 C42.93 51.24 42.93 51.24 43.88 52.51 C44.39 53.31 44.91 54.11 45.44 54.94 C45.88 55.75 46.33 56.56 46.79 57.4 C47.19 58.26 47.59 59.12 48 60 C48.39 60.98 48.78 61.96 49.18 62.98 C49.53 63.99 49.88 65.01 50.25 66.06 C50.56 67.06 50.87 68.06 51.19 69.08 C51.59 70.53 51.59 70.53 52 72 C52.23 72.91 52.45 73.82 52.69 74.76 C52.87 75.58 53.06 76.4 53.25 77.25 C53.5 78.49 53.75 79.72 54 81 C55.65 81.33 57.3 81.66 59 82 C58.91 81.2 58.83 80.4 58.74 79.58 C58.6 78.48 58.46 77.38 58.31 76.25 C58.13 75.06 57.94 73.88 57.75 72.65 C57.51 71.45 57.26 70.24 57 69 C56.49 67.42 56.49 67.42 55.96 65.82 C55.56 64.83 55.16 63.83 54.75 62.81 C54.31 61.83 53.87 60.85 53.41 59.84 C52.94 58.91 52.48 57.97 52 57 C51.54 56.12 51.09 55.25 50.62 54.34 C50.15 53.51 49.67 52.67 49.19 51.81 C48.68 51.01 48.17 50.2 47.64 49.37 C47.1 48.59 46.56 47.8 46 47 C45.44 46.24 44.88 45.48 44.3 44.7 C43.68 43.95 43.07 43.21 42.44 42.44 C41.76 41.71 41.08 40.98 40.39 40.23 C39.6 39.49 38.81 38.76 38 38 C37.02 37.21 36.03 36.42 35.02 35.61 C34.49 35.22 33.96 34.83 33.41 34.42 C32.86 34.04 32.31 33.65 31.75 33.25 C31.19 32.87 30.64 32.5 30.07 32.11 C29.23 31.57 29.23 31.57 28.37 31.01 C27.26 30.35 26.15 29.68 25 29 C23.96 28.47 22.92 27.94 21.85 27.39 C20.85 26.95 19.84 26.52 18.81 26.06 C17.33 25.5 17.33 25.5 15.82 24.93 C14.89 24.62 13.96 24.32 13 24 C12.2 23.76 11.41 23.51 10.59 23.26 C9.82 23.07 9.05 22.88 8.25 22.69 C7.45 22.55 6.64 22.42 5.82 22.28 C4.42 22.14 4.42 22.14 3 22 C1.77 21.93 0.54 21.86 -0.72 21.78 C-1.72 21.75 -1.72 21.75 -2.74 21.72 C-3.42 21.71 -4.11 21.7 -4.81 21.69 C-5.5 21.69 -6.19 21.7 -6.9 21.7 C-7.59 21.72 -8.27 21.74 -8.98 21.76 C-9.66 21.79 -10.34 21.82 -11.04 21.86 C-11.68 21.9 -12.33 21.95 -13 22 Z M-14 32 C-15.83 32.34 -15.83 32.34 -17.71 32.69 C-18.79 33 -19.88 33.31 -21 33.62 C-22.54 34.18 -22.54 34.18 -24.11 34.74 C-25.06 35.16 -26.02 35.57 -27 36 C-27.89 36.44 -28.78 36.87 -29.7 37.32 C-30.54 37.79 -31.38 38.26 -32.25 38.75 C-33.05 39.27 -33.84 39.79 -34.66 40.32 C-36.23 41.45 -37.79 42.59 -39.34 43.74 C-40.47 44.67 -40.47 44.67 -41.62 45.62 C-42.35 46.3 -43.08 46.98 -43.83 47.68 C-44.55 48.45 -45.26 49.21 -46 50 C-46.73 50.91 -47.45 51.82 -48.2 52.76 C-48.9 53.75 -49.59 54.73 -50.31 55.75 C-50.96 56.77 -51.61 57.79 -52.27 58.84 C-52.84 59.89 -53.41 60.93 -54 62 C-54.45 63.04 -54.89 64.08 -55.35 65.16 C-55.71 66.18 -56.07 67.2 -56.44 68.25 C-56.73 69.23 -57.02 70.21 -57.32 71.22 C-57.55 72.14 -57.77 73.05 -58 74 C-58.15 74.84 -58.3 75.67 -58.46 76.53 C-58.55 77.26 -58.65 78 -58.75 78.75 C-58.87 80.36 -58.87 80.36 -59 82 C-58.23 81.83 -57.45 81.65 -56.65 81.47 C-55.78 80.99 -54.9 80.5 -54 80 C-53.55 78.88 -53.1 77.77 -52.63 76.62 C-52.45 75.95 -52.27 75.28 -52.09 74.59 C-51.91 73.88 -51.74 73.17 -51.56 72.44 C-51.16 70.98 -50.75 69.52 -50.32 68.07 C-50.11 67.37 -49.9 66.67 -49.68 65.94 C-49.45 65.3 -49.23 64.66 -49 64 C-48.5 63.05 -48 62.1 -47.49 61.12 C-46.98 60.36 -46.47 59.6 -45.94 58.81 C-45.43 58.13 -44.91 57.45 -44.39 56.75 C-43.93 56.17 -43.47 55.59 -43 55 C-42.42 54.13 -41.84 53.27 -41.25 52.38 C-40.51 51.59 -39.77 50.81 -39 50 C-38.3 49.43 -37.6 48.87 -36.88 48.29 C-36.06 47.68 -35.23 47.07 -34.38 46.44 C-33.07 45.55 -33.07 45.55 -31.73 44.64 C-30.83 44.1 -29.93 43.56 -29 43 C-28.1 42.57 -27.2 42.14 -26.27 41.7 C-25.39 41.34 -24.52 40.99 -23.62 40.62 C-22.83 40.33 -22.04 40.03 -21.23 39.73 C-20.49 39.49 -19.76 39.25 -19 39 C-18.38 38.82 -17.77 38.65 -17.13 38.47 C-16.43 38.31 -15.72 38.16 -15 38 C-14.31 37.94 -13.61 37.88 -12.9 37.82 C-11.32 37.78 -9.73 37.74 -8.15 37.71 C-6.36 37.69 -4.57 37.69 -2.78 37.68 C-1.89 37.7 -0.99 37.71 -0.07 37.72 C1.24 37.77 1.24 37.77 2.57 37.82 C3.77 37.91 3.77 37.91 5 38 C6.21 38.23 7.42 38.45 8.67 38.68 C9.66 38.99 10.66 39.3 11.69 39.62 C13.06 40.17 13.06 40.17 14.45 40.73 C15.29 41.15 16.13 41.57 17 42 C18.26 42.72 18.26 42.72 19.55 43.46 C20.73 44.22 20.73 44.22 21.94 45 C22.66 45.52 23.37 46.04 24.11 46.58 C25.05 47.28 25.05 47.28 26 48 C26.87 48.58 27.73 49.16 28.62 49.75 C29.8 50.86 29.8 50.86 31 52 C31.57 52.69 32.13 53.37 32.71 54.08 C33.32 54.9 33.93 55.72 34.56 56.56 C35.16 57.44 35.75 58.31 36.36 59.21 C36.9 60.13 37.44 61.05 38 62 C38.41 62.94 38.81 63.88 39.23 64.85 C39.57 65.79 39.9 66.72 40.25 67.69 C40.83 69.46 41.42 71.23 42 73 C42.3 73.74 42.6 74.48 42.91 75.25 C43.6 76.84 44.3 78.42 45 80 C46.32 79.67 47.64 79.34 49 79 C48.62 77.2 48.22 75.41 47.81 73.62 C47.53 72.53 47.26 71.43 46.97 70.3 C46.65 69.21 46.33 68.12 46 67 C45.66 66.12 45.32 65.24 44.97 64.33 C44.59 63.52 44.21 62.71 43.81 61.88 C43.16 60.67 43.16 60.67 42.5 59.44 C41.76 58.23 41.76 58.23 41 57 C40.41 56.14 39.82 55.29 39.21 54.4 C38.57 53.55 37.92 52.69 37.25 51.81 C36.56 50.99 35.87 50.17 35.16 49.32 C34.44 48.55 33.73 47.79 33 47 C32.31 46.35 31.62 45.7 30.91 45.03 C29.84 44.15 29.84 44.15 28.75 43.25 C28 42.7 27.26 42.16 26.49 41.6 C25.26 40.81 25.26 40.81 24 40 C23.02 39.44 22.05 38.88 21.04 38.31 C19.07 37.28 17.08 36.26 15.09 35.26 C14.07 34.85 13.05 34.43 12 34 C10.74 33.62 9.47 33.24 8.17 32.86 C7.49 32.7 6.81 32.54 6.11 32.38 C5.42 32.25 4.72 32.13 4 32 C3.3 31.93 2.6 31.86 1.89 31.78 C0.82 31.72 0.82 31.72 -0.26 31.66 C-0.98 31.65 -1.7 31.63 -2.44 31.62 C-3.98 31.62 -5.52 31.63 -7.06 31.63 C-7.85 31.65 -8.64 31.67 -9.45 31.69 C-10.22 31.73 -10.99 31.76 -11.79 31.8 C-12.52 31.87 -13.25 31.93 -14 32 Z M-14 42 C-15.85 42.44 -15.85 42.44 -17.74 42.88 C-18.84 43.27 -19.93 43.66 -21.06 44.06 C-22.09 44.52 -23.11 44.99 -24.17 45.46 C-25.57 46.22 -25.57 46.22 -27 47 C-27.83 47.51 -28.66 48.02 -29.52 48.54 C-30.27 49.08 -31.03 49.63 -31.81 50.19 C-32.51 50.78 -33.22 51.38 -33.94 51.99 C-34.62 52.65 -35.3 53.32 -36 54 C-37.08 55.15 -37.08 55.15 -38.19 56.32 C-38.89 57.14 -39.59 57.97 -40.31 58.81 C-40.96 59.66 -41.6 60.5 -42.27 61.37 C-42.84 62.24 -43.41 63.11 -44 64 C-44.69 65.35 -44.69 65.35 -45.39 66.72 C-45.94 68.04 -45.94 68.04 -46.5 69.38 C-46.8 70.17 -47.1 70.96 -47.41 71.77 C-47.6 72.51 -47.8 73.24 -48 74 C-48 75.32 -48 76.64 -48 78 C-46.68 78.33 -45.36 78.66 -44 79 C-44 79.99 -44 80.98 -44 82 C-45.65 82.66 -47.3 83.32 -49 84 C-49 84.99 -49 85.98 -49 87 C-47.35 87.33 -45.7 87.66 -44 88 C-44 88.99 -44 89.98 -44 91 C-46.48 91.5 -46.48 91.5 -49 92 C-48.67 93.25 -48.67 93.25 -48.34 94.53 C-48.02 95.65 -47.7 96.78 -47.38 97.94 C-46.82 99.72 -46.82 99.72 -46.26 101.54 C-45.85 102.68 -45.43 103.82 -45 105 C-44.33 106.3 -44.33 106.3 -43.64 107.62 C-42.92 108.74 -42.92 108.74 -42.19 109.88 C-41.42 110.93 -41.42 110.93 -40.63 112.01 C-40.09 112.67 -39.55 113.32 -39 114 C-38.18 114.96 -38.18 114.96 -37.34 115.93 C-36.77 116.53 -36.21 117.13 -35.62 117.75 C-35.04 118.31 -34.45 118.86 -33.84 119.44 C-33.24 119.95 -32.63 120.47 -32 121 C-31.37 121.47 -30.74 121.95 -30.09 122.44 C-29.44 122.87 -28.79 123.3 -28.12 123.75 C-27.46 124.14 -26.8 124.53 -26.11 124.94 C-25.42 125.29 -24.72 125.64 -24 126 C-22.85 126.46 -22.85 126.46 -21.67 126.94 C-20.89 127.21 -20.11 127.47 -19.31 127.75 C-18.55 127.98 -17.8 128.21 -17.02 128.44 C-16.35 128.63 -15.69 128.81 -15 129 C-14.2 129.23 -13.39 129.45 -12.56 129.69 C-11.72 129.79 -10.87 129.89 -10 130 C-9.29 130.05 -8.59 130.11 -7.86 130.16 C-6.63 130.2 -6.63 130.2 -5.38 130.25 C-4.08 130.23 -4.08 130.23 -2.75 130.22 C-1.39 130.11 -1.39 130.11 0 130 C0.93 129.82 1.86 129.65 2.81 129.47 C3.74 129.23 4.67 128.99 5.62 128.75 C6.54 128.47 7.46 128.19 8.41 127.9 C9.98 127.35 11.56 126.8 13.12 126.23 C13.76 125.95 14.4 125.66 15.06 125.38 C15.69 125.04 16.32 124.7 16.96 124.35 C17.64 123.9 18.31 123.46 19 123 C19.83 122.36 20.65 121.72 21.5 121.06 C22.8 119.95 22.8 119.95 24.12 118.81 C24.97 118.02 25.81 117.23 26.67 116.41 C27.44 115.61 28.21 114.82 29 114 C29.6 113.3 30.21 112.59 30.83 111.87 C31.34 111.17 31.85 110.47 32.38 109.75 C32.83 109.02 33.28 108.3 33.75 107.55 C34.16 106.71 34.57 105.87 35 105 C35.41 103.86 35.82 102.72 36.25 101.54 C36.81 99.76 36.81 99.76 37.38 97.94 C37.85 96.25 37.85 96.25 38.34 94.53 C38.56 93.69 38.77 92.86 39 92 C37.35 91.34 35.7 90.68 34 90 C34 89.34 34 88.68 34 88 C35.65 87.34 37.3 86.68 39 86 C38.67 85.01 38.34 84.02 38 83 C37.32 82.77 36.64 82.55 35.94 82.31 C35.3 82.21 34.66 82.11 34 82 C34 81.01 34 80.02 34 79 C35.32 78.67 36.64 78.34 38 78 C37.94 77.05 37.88 76.1 37.81 75.12 C37.72 74.48 37.62 73.84 37.52 73.18 C37.35 72.46 37.18 71.74 37 71 C36.72 70.23 36.43 69.46 36.14 68.66 C35.76 67.84 35.39 67.03 35 66.19 C34.55 65.34 34.1 64.49 33.64 63.62 C32.83 62.32 32.83 62.32 32 61 C31.35 60.12 30.69 59.25 30.02 58.35 C29.29 57.49 28.56 56.63 27.81 55.75 C27.04 54.93 26.26 54.11 25.46 53.26 C24.65 52.52 23.84 51.77 23 51 C21.77 50.08 21.77 50.08 20.51 49.14 C19.68 48.62 18.85 48.1 18 47.56 C16.73 46.88 16.73 46.88 15.44 46.18 C14.63 45.79 13.83 45.4 13 45 C12.34 44.66 11.68 44.32 11 43.97 C10.34 43.69 9.68 43.41 9 43.12 C8.27 42.91 7.55 42.7 6.8 42.48 C5.87 42.32 4.95 42.16 4 42 C3.36 41.94 2.72 41.87 2.06 41.8 C0.99 41.73 0.99 41.73 -0.11 41.65 C-0.86 41.61 -1.62 41.58 -2.39 41.55 C-3.17 41.53 -3.95 41.52 -4.75 41.5 C-5.92 41.5 -5.92 41.5 -7.12 41.51 C-7.9 41.54 -8.68 41.56 -9.48 41.59 C-10.25 41.64 -11.01 41.69 -11.8 41.75 C-12.53 41.83 -13.25 41.91 -14 42 Z M44 84 C44 84.66 44 85.32 44 86 C44.66 85.67 45.32 85.34 46 85 C45.34 84.67 44.68 84.34 44 84 Z M54 89 C53.79 90.06 53.58 91.13 53.37 92.23 C53.07 93.69 52.76 95.16 52.44 96.62 C52.08 98.19 51.71 99.76 51.32 101.32 C51.01 102.51 51.01 102.51 50.68 103.71 C50.35 104.84 50.35 104.84 50 106 C49.76 106.67 49.52 107.33 49.27 108.02 C49.01 108.64 48.76 109.26 48.49 109.89 C47.94 111.06 47.38 112.23 46.81 113.44 C46.2 114.56 45.59 115.69 44.96 116.85 C44.31 117.89 43.67 118.93 43 120 C42.35 120.92 41.71 121.83 41.04 122.77 C40 124.03 40 124.03 38.94 125.31 C38.18 126.09 37.42 126.88 36.64 127.68 C35.77 128.45 34.9 129.21 34 130 C33.49 130.41 32.97 130.81 32.44 131.23 C31.89 131.64 31.34 132.05 30.77 132.47 C29.91 133.08 29.91 133.08 29.03 133.69 C28.45 134.08 27.86 134.47 27.25 134.88 C26.66 135.25 26.06 135.62 25.45 136.01 C24.85 136.37 24.25 136.72 23.64 137.09 C23.04 137.42 22.43 137.75 21.81 138.09 C21.22 138.39 20.62 138.69 20 139 C18.83 139.47 17.66 139.93 16.46 140.41 C14.78 140.95 14.78 140.95 13.06 141.5 C11.46 141.93 11.46 141.93 9.83 142.36 C8.89 142.57 7.96 142.78 7 143 C5.78 143.25 4.57 143.5 3.31 143.75 C1.5 143.89 -0.3 144.02 -2.11 144.16 C-2.9 144.19 -3.69 144.22 -4.5 144.25 C-5.35 144.24 -6.2 144.22 -7.07 144.21 C-8.04 144.14 -9 144.07 -10 144 C-11.17 143.85 -12.35 143.7 -13.55 143.54 C-15.45 143.21 -15.45 143.21 -17.38 142.88 C-18.66 142.6 -19.94 142.32 -21.25 142.04 C-22.49 141.69 -23.73 141.35 -25 141 C-26.08 140.59 -27.16 140.17 -28.28 139.75 C-29.28 139.27 -30.28 138.8 -31.31 138.31 C-32.27 137.79 -33.23 137.26 -34.22 136.72 C-35.14 136.15 -36.06 135.59 -37 135 C-37.89 134.4 -38.77 133.8 -39.68 133.18 C-40.53 132.55 -41.38 131.91 -42.25 131.25 C-43.05 130.57 -43.86 129.89 -44.68 129.19 C-45.45 128.47 -46.21 127.75 -47 127 C-47.73 126.23 -48.47 125.45 -49.22 124.65 C-49.91 123.84 -50.6 123.03 -51.31 122.19 C-51.95 121.34 -52.59 120.49 -53.25 119.62 C-53.83 118.76 -54.41 117.89 -55 117 C-55.48 116.15 -55.97 115.29 -56.46 114.41 C-56.89 113.53 -57.31 112.65 -57.75 111.75 C-58.32 110.4 -58.32 110.4 -58.9 109.03 C-59.26 108.03 -59.63 107.03 -60 106 C-60.6 104.08 -61.2 102.17 -61.76 100.24 C-62.29 98.39 -62.8 96.53 -63.3 94.68 C-63.65 93.35 -63.65 93.35 -64 92 C-65.32 92 -66.64 92 -68 92 C-67.99 92.57 -67.97 93.14 -67.96 93.73 C-67.91 94.54 -67.86 95.35 -67.81 96.19 C-67.72 97.1 -67.62 98.01 -67.53 98.95 C-67.35 99.96 -67.18 100.96 -67 102 C-66.69 103.05 -66.38 104.09 -66.07 105.17 C-65.48 106.79 -65.48 106.79 -64.88 108.44 C-64.42 109.53 -63.97 110.63 -63.51 111.76 C-63.01 112.83 -62.51 113.9 -62 115 C-61.48 115.98 -60.96 116.95 -60.43 117.96 C-59.88 118.88 -59.32 119.8 -58.75 120.75 C-58.15 121.64 -57.55 122.53 -56.93 123.45 C-56.29 124.29 -55.65 125.13 -55 126 C-54.35 126.78 -53.71 127.56 -53.04 128.37 C-52.35 129.11 -51.65 129.86 -50.94 130.62 C-50.17 131.34 -49.41 132.06 -48.62 132.8 C-47.76 133.53 -46.89 134.25 -46 135 C-44.97 135.79 -43.94 136.57 -42.88 137.38 C-42.32 137.78 -41.76 138.17 -41.19 138.58 C-40.61 138.96 -40.03 139.35 -39.44 139.75 C-38.84 140.13 -38.24 140.5 -37.63 140.89 C-36.71 141.43 -36.71 141.43 -35.78 141.98 C-35.15 142.33 -34.53 142.67 -33.89 143.02 C-33.27 143.35 -32.64 143.67 -32 144 C-31.39 144.29 -30.79 144.58 -30.16 144.88 C-29.25 145.27 -29.25 145.27 -28.32 145.68 C-27.69 145.92 -27.07 146.16 -26.43 146.4 C-25.79 146.62 -25.16 146.84 -24.5 147.06 C-23.85 147.26 -23.2 147.46 -22.53 147.66 C-21.85 147.83 -21.17 148.01 -20.47 148.18 C-19.76 148.33 -19.05 148.48 -18.32 148.63 C-17.55 148.75 -16.79 148.87 -16 149 C-15.14 149.09 -14.29 149.18 -13.4 149.28 C-12.5 149.34 -11.59 149.41 -10.66 149.47 C-9.27 149.53 -9.27 149.53 -7.85 149.59 C-6.44 149.61 -6.44 149.61 -5 149.62 C-3.59 149.61 -3.59 149.61 -2.16 149.59 C-1.23 149.56 -0.31 149.52 0.64 149.48 C1.55 149.42 2.46 149.35 3.39 149.29 C4.25 149.19 5.11 149.1 6 149 C6.78 148.87 7.56 148.74 8.36 148.6 C9.09 148.44 9.82 148.28 10.57 148.11 C11.27 147.93 11.96 147.75 12.68 147.56 C13.34 147.35 14 147.15 14.69 146.94 C15.33 146.71 15.98 146.49 16.64 146.26 C17.57 145.91 17.57 145.91 18.52 145.54 C19.67 145.03 20.82 144.52 22 144 C23.01 143.48 24.03 142.96 25.07 142.43 C26.46 141.6 26.46 141.6 27.88 140.75 C28.73 140.16 29.59 139.56 30.47 138.95 C31.31 138.31 32.14 137.66 33 137 C33.89 136.28 34.77 135.57 35.68 134.83 C36.98 133.71 36.98 133.71 38.31 132.56 C39.13 131.8 39.94 131.03 40.79 130.24 C41.88 129.13 41.88 129.13 43 128 C43.58 127.36 44.15 126.73 44.75 126.07 C45.49 125.14 45.49 125.14 46.25 124.19 C46.71 123.54 47.16 122.89 47.63 122.22 C48.08 121.49 48.53 120.76 49 120 C49.52 119.07 50.05 118.14 50.59 117.18 C51.12 116.17 51.64 115.16 52.19 114.12 C52.68 113.1 53.17 112.08 53.68 111.02 C54.33 109.52 54.33 109.52 55 108 C55.33 107.12 55.67 106.23 56.01 105.32 C56.27 104.5 56.54 103.67 56.81 102.81 C57.03 102.02 57.25 101.22 57.48 100.4 C57.65 99.61 57.82 98.82 58 98 C58.2 96.7 58.2 96.7 58.4 95.38 C58.49 94.55 58.59 93.73 58.69 92.88 C58.79 91.6 58.89 90.32 59 89 C57.35 89 55.7 89 54 89 Z M46 90 C45.34 90.33 44.68 90.66 44 91 C43.48 92.59 43.48 92.59 42.96 94.21 C42.57 95.6 42.19 96.99 41.81 98.38 C41.38 99.84 40.93 101.31 40.47 102.77 C40.12 103.86 40.12 103.86 39.75 104.96 C39.5 105.63 39.26 106.31 39 107 C38.48 108.06 37.97 109.13 37.43 110.23 C36.88 111.14 36.32 112.06 35.75 113 C35.15 113.86 34.55 114.72 33.93 115.61 C33.3 116.4 32.66 117.19 32 118 C31 119.11 31 119.11 29.97 120.24 C29.26 120.92 28.55 121.61 27.81 122.31 C27.06 122.94 26.3 123.57 25.52 124.21 C24.69 124.8 23.86 125.39 23 126 C22.03 126.58 21.07 127.16 20.07 127.75 C19.06 128.29 18.05 128.82 17 129.38 C15.98 129.85 14.95 130.32 13.9 130.81 C12.46 131.4 12.46 131.4 11 132 C10.25 132.27 9.5 132.54 8.73 132.81 C8.03 133 7.34 133.18 6.62 133.38 C5.91 133.5 5.2 133.63 4.47 133.75 C3.65 133.84 2.84 133.92 2 134 C0.38 134.11 0.38 134.11 -1.28 134.21 C-3.06 134.26 -3.06 134.26 -4.88 134.31 C-6.07 134.29 -7.27 134.27 -8.51 134.25 C-9.66 134.17 -10.81 134.09 -12 134 C-12.99 133.84 -13.97 133.67 -14.99 133.5 C-15.9 133.27 -16.81 133.05 -17.75 132.81 C-18.63 132.53 -19.51 132.25 -20.42 131.96 C-22.13 131.32 -23.84 130.67 -25.55 130 C-26.38 129.63 -27.21 129.26 -28.06 128.88 C-28.87 128.44 -29.69 128.01 -30.52 127.56 C-31.34 127.04 -32.16 126.53 -33 126 C-33.86 125.37 -34.72 124.74 -35.6 124.1 C-36.45 123.38 -37.31 122.67 -38.19 121.94 C-39.01 121.16 -39.83 120.38 -40.68 119.57 C-41.44 118.72 -42.21 117.88 -43 117 C-43.67 116.08 -44.35 115.16 -45.04 114.21 C-45.65 113.23 -46.25 112.26 -46.88 111.25 C-47.42 110.25 -47.97 109.25 -48.53 108.22 C-49.01 107.16 -49.5 106.09 -50 105 C-50.43 103.79 -50.87 102.59 -51.32 101.34 C-51.69 100.16 -52.06 98.97 -52.44 97.75 C-52.75 96.65 -53.05 95.55 -53.37 94.42 C-53.58 93.62 -53.79 92.82 -54 92 C-55.32 92 -56.64 92 -58 92 C-57.94 93.24 -57.88 94.47 -57.81 95.75 C-57.72 96.57 -57.62 97.39 -57.53 98.23 C-57.35 99.15 -57.18 100.06 -57 101 C-56.69 101.97 -56.38 102.95 -56.07 103.95 C-55.67 104.96 -55.28 105.96 -54.88 107 C-54.42 108.02 -53.97 109.03 -53.5 110.08 C-52.76 111.53 -52.76 111.53 -52 113 C-51.49 113.81 -50.99 114.62 -50.46 115.45 C-49.92 116.19 -49.37 116.93 -48.81 117.69 C-47.92 118.75 -47.92 118.75 -47 119.84 C-45.6 121.36 -44.18 122.86 -42.75 124.34 C-41.95 125.12 -41.14 125.89 -40.31 126.69 C-39.03 127.8 -39.03 127.8 -37.72 128.93 C-36.82 129.61 -35.93 130.29 -35 131 C-34.07 131.59 -33.14 132.18 -32.18 132.79 C-31.22 133.32 -30.25 133.84 -29.25 134.38 C-28.25 134.84 -27.25 135.3 -26.22 135.78 C-25.16 136.18 -24.09 136.59 -23 137 C-21.81 137.34 -20.63 137.68 -19.41 138.03 C-18.2 138.31 -16.99 138.59 -15.75 138.88 C-14.57 139.09 -13.39 139.31 -12.17 139.53 C-10.6 139.76 -10.6 139.76 -9 140 C-7.92 140.14 -7.92 140.14 -6.83 140.28 C-6.22 140.31 -5.62 140.34 -5 140.38 C-4.1 140.33 -4.1 140.33 -3.17 140.28 C-2.46 140.19 -1.74 140.1 -1 140 C0.05 139.85 1.09 139.69 2.17 139.53 C3.35 139.31 4.53 139.1 5.75 138.88 C6.96 138.59 8.17 138.31 9.41 138.02 C10.6 137.69 11.78 137.35 13 137 C14.04 136.62 15.08 136.24 16.15 135.85 C17.13 135.41 18.11 134.96 19.12 134.5 C20.09 133.98 21.06 133.46 22.05 132.92 C23.02 132.29 24 131.65 25 131 C25.52 130.61 26.04 130.23 26.57 129.83 C27.1 129.41 27.63 128.98 28.17 128.55 C28.95 127.89 28.95 127.89 29.75 127.21 C30.27 126.75 30.78 126.29 31.31 125.81 C31.81 125.34 32.32 124.87 32.83 124.38 C33.32 123.9 33.8 123.42 34.3 122.93 C35.19 121.96 36.08 120.99 37 120 C37.72 119.09 38.43 118.17 39.17 117.23 C40.07 115.88 40.07 115.88 41 114.5 C41.53 113.6 42.06 112.69 42.6 111.76 C43.06 110.85 43.52 109.94 44 109 C44.42 108.06 44.84 107.12 45.27 106.14 C45.64 105.21 46 104.28 46.38 103.31 C46.68 102.42 46.98 101.52 47.29 100.59 C47.52 99.74 47.76 98.88 48 98 C48.15 97.19 48.3 96.37 48.46 95.53 C48.56 94.8 48.65 94.07 48.75 93.31 C48.83 92.22 48.92 91.13 49 90 C48.01 90 47.02 90 46 90 Z " fill="#FFFFFF" transform="translate(101,19)"/>
</svg>
