<?xml version="1.0" encoding="UTF-8"?>
<!-- Generator: visioncortex VTracer 0.6.4 -->
<svg version="1.1" xmlns="http://www.w3.org/2000/svg" width="192" height="192">
<path d="M0 0 C57.75 0 115.5 0 175 0 C175 33.66 175 67.32 175 102 C169.72 102 164.44 102 159 102 C159 105.63 159 109.26 159 113 C148.11 113 137.22 113 126 113 C126 109.37 126 105.74 126 102 C100.92 102 75.84 102 50 102 C50 105.63 50 109.26 50 113 C38.78 113 27.56 113 16 113 C16 109.37 16 105.74 16 102 C10.72 102 5.44 102 0 102 C0 68.34 0 34.68 0 0 Z M5 5 C5 10.28 5 15.56 5 21 C9.62 21 14.24 21 19 21 C19 15.72 19 10.44 19 5 C14.38 5 9.76 5 5 5 Z M24 5 C24 10.28 24 15.56 24 21 C28.62 21 33.24 21 38 21 C38 15.72 38 10.44 38 5 C33.38 5 28.76 5 24 5 Z M43 5 C43 10.28 43 15.56 43 21 C47.29 21 51.58 21 56 21 C56 15.72 56 10.44 56 5 C51.71 5 47.42 5 43 5 Z M62 5 C62 10.28 62 15.56 62 21 C66.29 21 70.58 21 75 21 C75 15.72 75 10.44 75 5 C70.71 5 66.42 5 62 5 Z M81 5 C81 10.28 81 15.56 81 21 C85.29 21 89.58 21 94 21 C94 15.72 94 10.44 94 5 C89.71 5 85.42 5 81 5 Z M99 5 C99 10.28 99 15.56 99 21 C103.62 21 108.24 21 113 21 C113 15.72 113 10.44 113 5 C108.38 5 103.76 5 99 5 Z M118 5 C118 10.28 118 15.56 118 21 C122.62 21 127.24 21 132 21 C132 15.72 132 10.44 132 5 C127.38 5 122.76 5 118 5 Z M137 5 C137 10.28 137 15.56 137 21 C141.62 21 146.24 21 151 21 C151 15.72 151 10.44 151 5 C146.38 5 141.76 5 137 5 Z M156 5 C156 10.28 156 15.56 156 21 C160.29 21 164.58 21 169 21 C169 15.72 169 10.44 169 5 C164.71 5 160.42 5 156 5 Z M5 27 C5 50.1 5 73.2 5 97 C59.12 97 113.24 97 169 97 C169 73.9 169 50.8 169 27 C114.88 27 60.76 27 5 27 Z M21 102 C21 103.98 21 105.96 21 108 C28.59 108 36.18 108 44 108 C44 106.02 44 104.04 44 102 C36.41 102 28.82 102 21 102 Z M131 102 C131 103.98 131 105.96 131 108 C138.59 108 146.18 108 154 108 C154 106.02 154 104.04 154 102 C146.41 102 138.82 102 131 102 Z " fill="#FFFFFF" transform="translate(9,62)"/>
<path d="M0 0 C1.29 -0.06 2.59 -0.12 3.92 -0.18 C5.56 -0.2 7.19 -0.22 8.83 -0.24 C9.7 -0.25 10.57 -0.25 11.47 -0.26 C13.31 -0.28 15.15 -0.29 16.99 -0.3 C19.79 -0.31 22.6 -0.36 25.4 -0.4 C27.19 -0.41 28.98 -0.42 30.77 -0.43 C31.6 -0.44 32.44 -0.46 33.3 -0.48 C34.09 -0.48 34.88 -0.47 35.69 -0.47 C36.43 -0.43 37.17 -0.4 37.94 -0.36 C38.62 -0.24 39.3 -0.12 40 0 C40.62 0.28 41.24 0.56 41.87 0.85 C42.42 1.2 42.96 1.55 43.52 1.9 C44.34 2.6 45.16 3.29 46 4 C46.3 4.65 46.6 5.3 46.91 5.96 C46.96 6.62 47.01 7.27 47.06 7.94 C47.12 8.98 47.12 8.98 47.17 10.04 C47.12 10.68 47.06 11.33 47 12 C46.61 12.95 46.22 13.9 45.81 14.88 C45.21 15.58 44.62 16.28 44 17 C43.39 17.37 42.77 17.74 42.14 18.12 C41.43 18.41 40.73 18.7 40 19 C39.35 19.09 38.7 19.17 38.03 19.26 C37.35 19.27 36.66 19.27 35.95 19.27 C34.78 19.29 34.78 19.29 33.58 19.3 C32.74 19.3 31.9 19.3 31.04 19.3 C30.16 19.31 29.29 19.31 28.4 19.31 C26.56 19.32 24.72 19.32 22.88 19.32 C20.08 19.31 17.27 19.34 14.46 19.36 C12.67 19.36 10.89 19.36 9.1 19.36 C8.26 19.37 7.42 19.38 6.56 19.39 C5.77 19.38 4.99 19.38 4.18 19.37 C3.45 19.34 2.72 19.3 1.96 19.27 C1.32 19.18 0.67 19.09 0 19 C-0.97 18.56 -1.94 18.12 -2.94 17.66 C-3.62 17.12 -4.3 16.57 -5 16 C-5.66 15.01 -6.32 14.02 -7 13 C-7.12 11.89 -7.25 10.77 -7.38 9.62 C-7.25 8.43 -7.13 7.23 -7 6 C-6.4 5.05 -5.8 4.1 -5.19 3.12 C-4.47 2.42 -3.74 1.72 -3 1 C-2.01 0.67 -1.02 0.34 0 0 Z M0 6 C-0.66 6.66 -1.32 7.32 -2 8 C-1.9 8.68 -1.79 9.36 -1.69 10.06 C-1.46 10.7 -1.23 11.34 -1 12 C-0.67 12.33 -0.34 12.66 0 13 C1.24 13.04 2.49 13.09 3.77 13.13 C5.45 13.14 7.13 13.14 8.81 13.13 C9.7 13.13 10.58 13.13 11.49 13.14 C13.36 13.14 15.24 13.13 17.11 13.13 C19.99 13.13 22.86 13.13 25.74 13.14 C27.56 13.14 29.37 13.13 31.19 13.13 C32.49 13.14 32.49 13.14 33.81 13.14 C34.61 13.14 35.41 13.13 36.23 13.13 C37.47 13.09 38.72 13.04 40 13 C40.33 12.67 40.66 12.34 41 12 C41.04 11.17 41.08 10.35 41.12 9.5 C41.08 8.67 41.04 7.85 41 7 C40.5 6.5 40.5 6.5 40 6 C38.76 5.95 37.52 5.9 36.25 5.85 C34.57 5.84 32.9 5.83 31.22 5.83 C30.34 5.83 29.46 5.83 28.55 5.82 C26.68 5.82 24.81 5.81 22.94 5.81 C20.08 5.81 17.21 5.79 14.35 5.78 C12.53 5.77 10.72 5.77 8.91 5.77 C8.05 5.76 7.19 5.76 6.3 5.75 C5.1 5.75 5.1 5.75 3.88 5.76 C2.6 5.84 1.32 5.92 0 6 Z " fill="#FFFFFF" transform="translate(35,102)"/>
<path d="M0 0 C0.7 -0.16 1.4 -0.32 2.12 -0.48 C2.91 -0.54 3.71 -0.6 4.53 -0.66 C5.82 -0.69 5.82 -0.69 7.15 -0.72 C8.07 -0.71 8.99 -0.71 9.94 -0.7 C10.9 -0.71 11.85 -0.71 12.84 -0.72 C14.86 -0.73 16.88 -0.72 18.9 -0.71 C20.44 -0.7 20.44 -0.7 22 -0.69 C24.05 -0.71 26.11 -0.74 28.16 -0.77 C30.13 -0.77 32.1 -0.77 34.06 -0.76 C34.98 -0.78 35.9 -0.79 36.85 -0.81 C37.72 -0.79 38.58 -0.78 39.47 -0.76 C40.67 -0.66 40.67 -0.66 41.88 -0.56 C42.58 -0.37 43.28 -0.19 44 0 C44.84 0.63 44.84 0.63 45.71 1.28 C46.16 1.8 46.62 2.32 47.09 2.86 C47.72 3.89 48.35 4.93 49 6 C49.19 7.01 49.37 8.02 49.56 9.06 C49.28 10.52 49.28 10.52 49 12 C48.38 12.93 47.76 13.86 47.12 14.81 C46.07 15.9 46.07 15.9 45 17 C44.01 17.5 44.01 17.5 43 18 C42.39 18.05 41.79 18.1 41.16 18.15 C40.42 18.17 39.67 18.18 38.91 18.19 C38.06 18.21 37.22 18.22 36.35 18.24 C32.48 18.29 28.62 18.33 24.75 18.35 C22.71 18.37 20.68 18.39 18.64 18.43 C15.7 18.49 12.76 18.51 9.82 18.52 C8.46 18.56 8.46 18.56 7.07 18.59 C5.79 18.59 5.79 18.59 4.48 18.58 C3.3 18.52 3.3 18.52 2.1 18.45 C1.41 18.3 0.71 18.15 0 18 C-1.01 17.21 -2.03 16.41 -3.07 15.6 C-3.71 14.74 -4.34 13.88 -5 13 C-5.22 12.32 -5.44 11.64 -5.66 10.94 C-5.64 9.98 -5.64 9.98 -5.62 9 C-5.64 8.36 -5.65 7.72 -5.66 7.06 C-5.44 6.38 -5.23 5.7 -5 5 C-4.05 3.72 -4.05 3.72 -3.08 2.41 C-2.06 1.62 -1.05 0.82 0 0 Z M3 5 C2.13 5.69 2.13 5.69 1.25 6.39 C0.63 7.19 0.63 7.19 0 8 C0.06 8.7 0.12 9.4 0.19 10.12 C0.59 11.05 0.59 11.05 1 12 C1.66 12.33 2.32 12.66 3 13 C4.22 13.05 5.43 13.1 6.68 13.15 C8.27 13.16 9.85 13.17 11.44 13.17 C12.27 13.17 13.11 13.17 13.97 13.18 C15.74 13.18 17.51 13.19 19.28 13.19 C21.99 13.19 24.7 13.21 27.41 13.22 C29.13 13.23 30.85 13.23 32.56 13.23 C33.78 13.24 33.78 13.24 35.03 13.25 C35.79 13.25 36.54 13.25 37.32 13.24 C38.53 13.16 39.75 13.08 41 13 C41.66 12.34 42.32 11.68 43 11 C42.85 9.73 42.85 9.73 42.69 8.44 C42.46 7.63 42.23 6.83 42 6 C41.5 5.5 41.5 5.5 41 5 C39.24 4.92 39.24 4.92 37.45 4.84 C35.86 4.82 34.28 4.81 32.7 4.8 C31.86 4.79 31.03 4.79 30.17 4.78 C28.39 4.77 26.62 4.76 24.85 4.76 C22.14 4.75 19.43 4.72 16.72 4.69 C15.01 4.68 13.29 4.68 11.57 4.67 C10.76 4.66 9.95 4.65 9.11 4.63 C8.35 4.64 7.59 4.64 6.81 4.64 C4.93 4.82 4.93 4.82 3 5 Z " fill="#FFFFFF" transform="translate(33,125)"/>
<path d="M0 0 C0.97 -0.12 1.94 -0.25 2.94 -0.38 C3.62 -0.25 4.3 -0.13 5 0 C5.12 0.72 5.25 1.44 5.38 2.19 C5.25 3.12 5.13 4.04 5 5 C4.56 5.48 4.12 5.95 3.66 6.45 C2.84 7.12 2.84 7.12 2 7.81 C1.01 8.53 0.02 9.26 -1 10 C-0.17 10.89 0.65 11.77 1.5 12.69 C1.95 13.24 2.4 13.79 2.87 14.36 C3.24 14.9 3.61 15.44 4 16 C4.21 16.83 4.41 17.65 4.62 18.5 C4.42 19.33 4.21 20.15 4 21 C3.63 21.54 3.25 22.09 2.87 22.64 C2.19 23.47 2.19 23.47 1.5 24.31 C0.67 25.2 -0.15 26.09 -1 27 C0.48 28.08 0.48 28.08 2 29.19 C2.82 29.86 2.82 29.86 3.66 30.55 C4.1 31.03 4.55 31.51 5 32 C5.12 32.93 5.25 33.86 5.38 34.81 C5.25 35.53 5.13 36.26 5 37 C4.32 37.14 3.64 37.29 2.94 37.44 C1.97 37.29 1 37.15 0 37 C-0.92 36.33 -0.92 36.33 -1.86 35.65 C-2.48 35.07 -3.11 34.48 -3.75 33.88 C-4.34 33.23 -4.93 32.59 -5.53 31.93 C-6.02 31.3 -6.5 30.66 -7 30 C-7.41 28.99 -7.83 27.98 -8.25 26.94 C-8.17 25.97 -8.08 25 -8 24 C-7.65 23.44 -7.29 22.87 -6.93 22.29 C-6.48 21.74 -6.03 21.19 -5.56 20.62 C-4.72 19.76 -3.87 18.89 -3 18 C-3.85 17.13 -4.69 16.27 -5.56 15.38 C-6.01 14.83 -6.46 14.28 -6.93 13.71 C-7.28 13.15 -7.63 12.58 -8 12 C-8.08 11.01 -8.17 10.02 -8.25 9 C-7.84 8.01 -7.42 7.02 -7 6 C-6.27 5.15 -6.27 5.15 -5.53 4.29 C-4.94 3.74 -4.36 3.19 -3.75 2.62 C-3.12 2.13 -2.5 1.64 -1.86 1.12 C-1.24 0.75 -0.63 0.38 0 0 Z " fill="#FFFFFF" transform="translate(98,19)"/>
<path d="M0 0 C1.32 0 2.64 0 4 0 C4.12 0.72 4.25 1.44 4.38 2.19 C4.25 3.12 4.13 4.04 4 5 C3.56 5.48 3.12 5.95 2.66 6.45 C1.84 7.12 1.84 7.12 1 7.81 C0.01 8.53 -0.98 9.26 -2 10 C-1.18 10.7 -0.35 11.4 0.5 12.12 C1.32 13.07 2.15 14.02 3 15 C3.21 15.99 3.41 16.98 3.62 18 C3.42 18.99 3.21 19.98 3 21 C2.18 21.95 1.35 22.9 0.5 23.88 C-0.32 24.58 -1.15 25.28 -2 26 C-1.57 26.38 -1.13 26.75 -0.69 27.14 C0.15 27.9 0.15 27.9 1 28.69 C1.55 29.23 2.1 29.77 2.66 30.33 C3.1 30.88 3.55 31.43 4 32 C4.12 32.95 4.25 33.9 4.38 34.88 C4.25 35.58 4.13 36.28 4 37 C3.32 36.96 2.64 36.92 1.94 36.88 C0.97 36.59 -0 36.3 -1 36 C-1.94 35.43 -1.94 35.43 -2.89 34.84 C-3.52 34.36 -4.16 33.87 -4.81 33.38 C-5.4 32.84 -5.99 32.3 -6.6 31.75 C-7.29 30.88 -7.29 30.88 -8 30 C-8.23 28.82 -8.45 27.65 -8.69 26.44 C-8.46 25.3 -8.23 24.17 -8 23 C-7.34 22.03 -6.68 21.06 -6 20.06 C-5.01 19.04 -5.01 19.04 -4 18 C-4.66 17.48 -5.32 16.97 -6 16.44 C-6.66 15.63 -7.32 14.83 -8 14 C-8.25 12.91 -8.5 11.81 -8.75 10.69 C-8.5 9.47 -8.25 8.25 -8 7 C-7.45 6.34 -6.91 5.67 -6.34 4.99 C-5.65 4.36 -4.96 3.72 -4.25 3.06 C-3.55 2.48 -2.86 1.89 -2.14 1.29 C-1.43 0.86 -0.73 0.44 0 0 Z " fill="#FFFFFF" transform="translate(152,19)"/>
<path d="M0 0 C1.32 0 2.64 0 4 0 C4.12 0.72 4.25 1.44 4.38 2.19 C4.25 3.12 4.13 4.04 4 5 C3.56 5.48 3.12 5.95 2.66 6.45 C1.84 7.12 1.84 7.12 1 7.81 C0.01 8.53 -0.98 9.26 -2 10 C-1.17 10.7 -0.35 11.4 0.5 12.12 C1.33 13.07 2.15 14.02 3 15 C3.21 15.99 3.41 16.98 3.62 18 C3.42 18.99 3.21 19.98 3 21 C2.17 21.95 1.35 22.9 0.5 23.88 C-0.33 24.58 -1.15 25.28 -2 26 C-1.57 26.38 -1.13 26.75 -0.69 27.14 C0.15 27.9 0.15 27.9 1 28.69 C1.55 29.23 2.1 29.77 2.66 30.33 C3.1 30.88 3.55 31.43 4 32 C4.12 32.95 4.25 33.9 4.38 34.88 C4.25 35.58 4.13 36.28 4 37 C3.32 36.96 2.64 36.92 1.94 36.88 C0.97 36.59 -0 36.3 -1 36 C-1.94 35.43 -1.94 35.43 -2.89 34.84 C-3.52 34.36 -4.16 33.87 -4.81 33.38 C-5.4 32.84 -5.99 32.3 -6.6 31.75 C-7.29 30.88 -7.29 30.88 -8 30 C-8.23 28.82 -8.45 27.65 -8.69 26.44 C-8.46 25.3 -8.23 24.17 -8 23 C-7.34 22.03 -6.68 21.06 -6 20.06 C-5.01 19.04 -5.01 19.04 -4 18 C-4.66 17.48 -5.32 16.97 -6 16.44 C-6.66 15.63 -7.32 14.83 -8 14 C-8.25 12.91 -8.49 11.81 -8.75 10.69 C-8.5 9.47 -8.26 8.25 -8 7 C-7.45 6.34 -6.91 5.67 -6.34 4.99 C-5.65 4.36 -4.96 3.72 -4.25 3.06 C-3.55 2.48 -2.86 1.89 -2.14 1.29 C-1.43 0.86 -0.73 0.44 0 0 Z " fill="#FFFFFF" transform="translate(72,19)"/>
<path d="M0 0 C0.97 -0.12 1.94 -0.25 2.94 -0.38 C3.62 -0.25 4.3 -0.13 5 0 C4.75 0.89 4.51 1.77 4.25 2.69 C3.84 3.78 3.42 4.87 3 6 C2.3 6.95 1.6 7.9 0.88 8.88 C0.26 9.58 -0.36 10.28 -1 11 C-0.36 11.58 0.28 12.16 0.94 12.75 C1.62 13.49 2.3 14.23 3 15 C3.31 15.64 3.62 16.28 3.94 16.94 C3.96 17.62 3.98 18.3 4 19 C3.57 19.85 3.13 20.69 2.69 21.56 C2.13 22.37 1.57 23.17 1 24 C0.34 24.99 -0.32 25.98 -1 27 C-0.2 27.74 0.61 28.48 1.44 29.25 C2.28 30.16 3.13 31.06 4 32 C4.27 32.76 4.54 33.53 4.81 34.31 C4.87 34.87 4.94 35.43 5 36 C4.32 36.29 3.64 36.58 2.94 36.88 C1.48 36.94 1.48 36.94 0 37 C-0.61 36.66 -1.22 36.32 -1.86 35.98 C-2.48 35.49 -3.11 35 -3.75 34.5 C-4.34 33.94 -4.93 33.39 -5.53 32.81 C-6.02 32.21 -6.5 31.62 -7 31 C-7.41 29.84 -7.83 28.69 -8.25 27.5 C-8.17 26.34 -8.09 25.19 -8 24 C-7.65 23.41 -7.29 22.83 -6.93 22.22 C-6.48 21.67 -6.03 21.13 -5.56 20.56 C-4.72 19.72 -3.87 18.87 -3 18 C-3.85 17.32 -4.69 16.64 -5.56 15.94 C-6.37 14.97 -7.17 14 -8 13 C-8.08 11.87 -8.16 10.73 -8.25 9.56 C-7.84 8.39 -7.42 7.21 -7 6 C-6.52 5.41 -6.03 4.82 -5.53 4.22 C-4.94 3.67 -4.36 3.13 -3.75 2.56 C-2.81 1.83 -2.81 1.83 -1.86 1.09 C-0.94 0.55 -0.94 0.55 0 0 Z " fill="#FFFFFF" transform="translate(45,19)"/>
<path d="M0 0 C1.32 0 2.64 0 4 0 C4.1 0.7 4.21 1.4 4.31 2.12 C4.16 3.55 4.16 3.55 4 5 C3.45 5.83 3.45 5.83 2.89 6.67 C2.2 7.48 2.2 7.48 1.5 8.31 C0.67 9.2 -0.15 10.09 -1 11 C-0.34 11.52 0.32 12.03 1 12.56 C1.99 13.77 1.99 13.77 3 15 C3.16 16.13 3.33 17.27 3.5 18.44 C3.34 19.61 3.17 20.79 3 22 C2.34 22.97 1.68 23.94 1 24.94 C0.01 25.96 0.01 25.96 -1 27 C0.24 28.08 0.24 28.08 1.5 29.19 C2.33 30.12 3.15 31.04 4 32 C4.1 32.93 4.21 33.86 4.31 34.81 C4.21 35.53 4.11 36.26 4 37 C2.95 36.91 2.95 36.91 1.88 36.81 C0.93 36.54 -0.02 36.28 -1 36 C-2.61 34.95 -2.61 34.95 -4.25 33.88 C-5.16 32.93 -6.06 31.98 -7 31 C-7.39 29.87 -7.78 28.73 -8.19 27.56 C-8.13 26.39 -8.06 25.21 -8 24 C-7.65 23.41 -7.29 22.82 -6.93 22.22 C-6.48 21.67 -6.03 21.13 -5.56 20.56 C-4.72 19.72 -3.87 18.87 -3 18 C-3.83 17.3 -4.65 16.6 -5.5 15.88 C-6.33 14.93 -7.15 13.98 -8 13 C-8.27 12.05 -8.54 11.1 -8.81 10.12 C-8.54 9.09 -8.28 8.06 -8 7 C-7.45 6.36 -6.9 5.72 -6.34 5.06 C-5.65 4.42 -4.96 3.78 -4.25 3.12 C-3.55 2.53 -2.86 1.93 -2.14 1.32 C-1.43 0.88 -0.73 0.45 0 0 Z " fill="#FFFFFF" transform="translate(125,19)"/>
<path d="M0 0 C0.97 0.08 1.94 0.17 2.94 0.25 C4.45 0.62 4.45 0.62 6 1 C6.76 1.33 7.53 1.66 8.31 2 C9.15 2.99 9.15 2.99 10 4 C10.2 4.67 10.4 5.34 10.61 6.02 C10.8 7.19 10.8 7.19 11 8.38 C11.08 9.56 11.08 9.56 11.15 10.77 C11.1 11.51 11.05 12.24 11 13 C10.53 13.99 10.05 14.98 9.56 16 C8.72 16.66 7.87 17.32 7 18 C6.38 18.21 5.76 18.41 5.12 18.62 C4.44 18.75 3.76 18.87 3.06 19 C2.03 19.07 2.03 19.07 0.97 19.14 C-0.01 19.07 -0.01 19.07 -1 19 C-1.97 18.57 -2.94 18.13 -3.94 17.69 C-4.62 17.13 -5.3 16.57 -6 16 C-6.33 15.34 -6.66 14.68 -7 14 C-7.08 13.33 -7.16 12.66 -7.24 11.98 C-7.26 11.2 -7.29 10.42 -7.31 9.62 C-7.3 8.82 -7.3 8.02 -7.29 7.2 C-7.19 6.47 -7.1 5.75 -7 5 C-6.4 4.17 -5.8 3.35 -5.19 2.5 C-4.47 2 -3.74 1.51 -3 1 C-2.01 0.67 -1.02 0.34 0 0 Z M0 6 C-0.66 6.66 -1.32 7.32 -2 8 C-1.88 8.7 -1.75 9.4 -1.62 10.12 C-1.42 10.74 -1.21 11.36 -1 12 C-0.2 12.19 0.61 12.37 1.44 12.56 C2.71 12.78 2.71 12.78 4 13 C4.33 12.67 4.66 12.34 5 12 C5.02 11.15 5.04 10.31 5.06 9.44 C5.04 8.63 5.02 7.83 5 7 C4.22 6.79 3.43 6.59 2.62 6.38 C1.76 6.25 0.89 6.13 0 6 Z " fill="#FFFFFF" transform="translate(154,102)"/>
<path d="M0 0 C0.64 -0.17 1.28 -0.34 1.94 -0.51 C2.62 -0.57 3.3 -0.63 4 -0.69 C4.68 -0.64 5.36 -0.6 6.06 -0.55 C7.02 -0.28 7.02 -0.28 8 0 C8.99 0.87 9.98 1.73 11 2.62 C11.66 3.74 12.32 4.85 13 6 C13.19 7.01 13.37 8.02 13.56 9.06 C13.38 10.03 13.19 11 13 12 C12.38 12.93 11.76 13.86 11.12 14.81 C10.42 15.53 9.72 16.26 9 17 C8.34 17.33 7.68 17.66 7 18 C5.91 18.12 4.81 18.25 3.69 18.38 C1.86 18.19 1.86 18.19 0 18 C-0.97 17.34 -1.94 16.68 -2.94 16 C-3.62 15.01 -4.3 14.02 -5 13 C-5.16 12.36 -5.32 11.72 -5.48 11.06 C-5.53 10.38 -5.58 9.7 -5.62 9 C-5.58 8.32 -5.53 7.64 -5.48 6.94 C-5.32 6.3 -5.16 5.66 -5 5 C-4.34 4.01 -3.68 3.02 -3 2 C-2.01 1.34 -1.02 0.68 0 0 Z M3 5 C1.51 5.99 1.51 5.99 0 7 C0.33 8.65 0.66 10.3 1 12 C1.62 12.21 2.24 12.41 2.88 12.62 C3.58 12.75 4.28 12.87 5 13 C5.66 12.34 6.32 11.68 7 11 C6.88 10.13 6.75 9.27 6.62 8.38 C6.32 7.2 6.32 7.2 6 6 C5.01 5.67 4.02 5.34 3 5 Z " fill="#FFFFFF" transform="translate(152,125)"/>
</svg>
