<?xml version="1.0" encoding="UTF-8"?>
<!-- Generator: visioncortex VTracer 0.6.4 -->
<svg version="1.1" xmlns="http://www.w3.org/2000/svg" width="192" height="192">
<path d="M0 0 C0.62 -0.04 1.23 -0.09 1.87 -0.13 C2.57 -0.13 3.28 -0.14 4 -0.14 C5.22 -0.15 5.22 -0.15 6.46 -0.16 C7.35 -0.16 8.24 -0.16 9.15 -0.16 C10.09 -0.17 11.02 -0.17 11.99 -0.18 C15.09 -0.19 18.2 -0.2 21.3 -0.2 C23.46 -0.21 25.61 -0.21 27.77 -0.22 C32.29 -0.23 36.82 -0.24 41.34 -0.24 C47.13 -0.25 52.93 -0.27 58.72 -0.3 C63.18 -0.32 67.63 -0.32 72.09 -0.32 C74.22 -0.33 76.36 -0.33 78.49 -0.35 C81.48 -0.36 84.47 -0.36 87.46 -0.36 C88.34 -0.37 89.22 -0.37 90.13 -0.38 C91.36 -0.38 91.36 -0.38 92.62 -0.37 C93.75 -0.32 93.75 -0.32 94.91 -0.27 C95.95 -0.14 95.95 -0.14 97 0 C98.14 0.46 99.29 0.92 100.47 1.4 C101.3 1.93 102.14 2.46 103 3 C103.69 3.64 104.38 4.28 105.09 4.95 C105.7 5.66 106.31 6.38 106.94 7.12 C107.61 7.91 108.28 8.7 108.96 9.51 C109.64 10.33 110.31 11.15 111 12 C112.02 13.25 112.02 13.25 113.07 14.52 C114.3 16.06 115.53 17.6 116.75 19.15 C117.37 20.07 117.37 20.07 118 21 C118 21.66 118 22.32 118 23 C118.82 23.01 119.64 23.03 120.49 23.04 C122.17 23.11 122.17 23.11 123.88 23.19 C125.06 23.28 126.25 23.38 127.47 23.48 C128.64 23.65 129.8 23.82 131 24 C131.93 24.3 132.85 24.59 133.81 24.9 C135.05 25.47 135.05 25.47 136.31 26.06 C137.5 26.74 137.5 26.74 138.72 27.42 C139.47 27.94 140.22 28.46 141 29 C141.73 29.6 142.46 30.21 143.22 30.83 C143.91 31.48 144.6 32.14 145.31 32.81 C145.95 33.51 146.59 34.2 147.25 34.91 C147.83 35.6 148.41 36.29 149 37 C149.73 37.91 149.73 37.91 150.46 38.84 C151.1 39.75 151.1 39.75 151.75 40.69 C152.32 41.69 152.32 41.69 152.9 42.72 C153.26 43.47 153.63 44.23 154 45 C154.39 45.86 154.79 46.73 155.19 47.62 C155.75 49.11 155.75 49.11 156.31 50.62 C156.79 52.28 156.79 52.28 157.27 53.97 C157.47 54.91 157.47 54.91 157.67 55.86 C157.78 56.57 157.89 57.27 158 58 C158.08 58.84 158.15 59.68 158.23 60.55 C158.31 61.91 158.31 61.91 158.39 63.31 C158.42 64.25 158.44 65.19 158.47 66.16 C158.49 67.6 158.49 67.6 158.5 69.06 C158.49 70.02 158.48 70.98 158.47 71.97 C158.44 72.9 158.41 73.84 158.38 74.8 C158.31 76.15 158.31 76.15 158.23 77.53 C158.15 78.34 158.08 79.16 158 80 C157.77 81.23 157.54 82.46 157.3 83.73 C156.84 85.23 156.84 85.23 156.38 86.75 C156.01 87.64 155.65 88.53 155.27 89.45 C154.64 90.71 154.64 90.71 154 92 C153.28 93.38 153.28 93.38 152.54 94.8 C152.03 95.69 151.52 96.58 151 97.5 C150.53 98.27 150.05 99.05 149.56 99.84 C148.79 100.91 148.79 100.91 148 102 C147.28 102.75 146.56 103.51 145.81 104.28 C145.21 104.85 144.62 105.42 144 106 C144.23 106.7 144.47 107.4 144.71 108.12 C145.14 109.07 145.56 110.02 146 111 C147.07 112.46 147.07 112.46 148.16 113.95 C148.56 114.46 148.97 114.97 149.38 115.5 C149.79 116.04 150.2 116.57 150.62 117.12 C151.04 117.69 151.45 118.25 151.87 118.83 C152.26 119.41 152.65 119.98 153.05 120.57 C153.69 121.7 154.34 122.83 155 124 C155.36 125.54 155.36 125.54 155.73 127.12 C155.76 128.07 155.78 129.02 155.81 130 C155.73 130.89 155.65 131.77 155.56 132.68 C155.38 133.45 155.19 134.21 155 135 C154.44 136.01 153.89 137.02 153.31 138.06 C152.17 139.02 152.17 139.02 151 140 C150.33 140.36 149.65 140.72 148.96 141.1 C147.98 141.4 147.01 141.69 146 142 C144.98 142.1 144.98 142.1 143.93 142.21 C143.16 142.24 142.38 142.27 141.58 142.31 C139.83 142.34 138.07 142.36 136.32 142.37 C135.38 142.38 134.45 142.39 133.49 142.4 C131.52 142.41 129.55 142.42 127.58 142.43 C124.58 142.44 121.57 142.49 118.57 142.54 C116.65 142.55 114.73 142.55 112.82 142.56 C111.92 142.58 111.03 142.6 110.11 142.62 C109.26 142.61 108.42 142.61 107.55 142.6 C106.76 142.55 105.98 142.5 105.17 142.45 C104.45 142.3 103.74 142.15 103 142 C102.37 141.64 101.74 141.29 101.08 140.92 C100.54 140.48 100 140.05 99.43 139.59 C98.63 138.74 97.83 137.88 97 137 C96.75 136.32 96.5 135.64 96.24 134.94 C96.28 133.98 96.28 133.98 96.31 133 C96.31 132.36 96.3 131.72 96.3 131.06 C96.53 130.38 96.76 129.7 97 129 C98.05 127.72 98.05 127.72 99.12 126.42 C100.07 125.62 101.02 124.82 102 124 C103.07 123.78 104.13 123.56 105.23 123.34 C106.42 123.32 107.61 123.31 108.83 123.29 C110.12 123.26 111.42 123.23 112.75 123.21 C114.1 123.2 115.46 123.19 116.81 123.19 C118.19 123.16 119.56 123.14 120.94 123.11 C124.29 123.05 127.64 123.02 131 123 C130.37 121.86 129.75 120.72 129.1 119.54 C128.64 118.9 128.18 118.26 127.71 117.6 C127.15 117.08 126.58 116.55 126 116 C125.31 115.79 124.63 115.59 123.92 115.37 C123.15 115.32 122.37 115.26 121.58 115.21 C120.74 115.21 119.9 115.21 119.03 115.21 C118.14 115.24 117.24 115.28 116.32 115.32 C115.4 115.33 114.47 115.34 113.52 115.35 C110.57 115.39 107.63 115.47 104.69 115.56 C102.69 115.6 100.69 115.63 98.69 115.66 C93.79 115.74 88.9 115.86 84 116 C84.52 116.71 84.52 116.71 85.06 117.43 C85.51 118.05 85.97 118.67 86.44 119.31 C86.89 119.93 87.34 120.54 87.81 121.18 C88.2 121.78 88.59 122.38 89 123 C89.33 123.99 89.66 124.98 90 126 C90.08 127.11 90.17 128.23 90.25 129.38 C90.17 130.57 90.08 131.77 90 133 C89.44 134.33 89.44 134.33 88.88 135.69 C88.26 136.45 87.64 137.21 87 138 C86.12 138.7 85.25 139.4 84.35 140.11 C83.24 140.74 82.14 141.36 81 142 C79.84 142.16 78.69 142.33 77.5 142.49 C76.21 142.49 74.92 142.49 73.59 142.49 C72.87 142.49 72.16 142.49 71.42 142.5 C69.07 142.5 66.72 142.48 64.37 142.46 C62.73 142.46 61.09 142.46 59.44 142.46 C56.01 142.46 52.58 142.44 49.15 142.41 C44.75 142.38 40.36 142.37 35.96 142.37 C32.58 142.37 29.19 142.36 25.81 142.35 C24.19 142.34 22.57 142.34 20.94 142.33 C18.68 142.33 16.42 142.31 14.15 142.29 C12.86 142.28 11.58 142.28 10.25 142.27 C8.64 142.14 8.64 142.14 7 142 C6.23 141.73 5.47 141.45 4.68 141.17 C4.12 140.78 3.57 140.4 3 140 C2.34 139.01 1.68 138.02 1 137 C0.88 135.72 0.75 134.44 0.62 133.12 C0.58 132.14 0.58 132.14 0.54 131.13 C0.69 130.43 0.84 129.73 1 129 C1.55 128.14 2.1 127.29 2.67 126.41 C3.44 125.61 4.21 124.82 5 124 C5.87 123.79 6.75 123.58 7.64 123.36 C8.65 123.35 9.65 123.35 10.69 123.34 C11.83 123.32 12.97 123.3 14.14 123.28 C15.37 123.28 16.6 123.29 17.86 123.29 C19.12 123.28 20.38 123.26 21.68 123.25 C25.02 123.21 28.36 123.2 31.7 123.19 C35.11 123.18 38.52 123.15 41.93 123.11 C48.62 123.05 55.31 123.01 62 123 C61.36 121.86 60.72 120.72 60.06 119.55 C59.6 118.91 59.14 118.27 58.66 117.61 C58.11 117.08 57.56 116.55 57 116 C56.36 115.79 55.73 115.57 55.07 115.35 C54.36 115.28 53.65 115.21 52.92 115.15 C52.15 115.13 51.38 115.12 50.59 115.11 C49.77 115.13 48.96 115.15 48.11 115.17 C47.26 115.16 46.4 115.15 45.52 115.15 C43.7 115.13 41.89 115.14 40.08 115.15 C38.71 115.17 38.71 115.17 37.31 115.19 C33.73 115.2 30.14 115.19 26.55 115.17 C25.27 115.16 25.27 115.16 23.96 115.16 C22.34 115.14 20.73 115.12 19.12 115.09 C18.07 115.04 18.07 115.04 17 115 C15.93 114.89 14.85 114.77 13.75 114.65 C12.9 114.5 12.05 114.34 11.17 114.18 C10.07 113.91 10.07 113.91 8.95 113.63 C8.31 113.42 7.66 113.21 7 113 C5.77 112.53 4.54 112.07 3.28 111.59 C1.56 110.74 -0.16 109.89 -1.86 109.01 C-2.46 108.69 -3.05 108.36 -3.66 108.03 C-4.76 107.36 -5.87 106.69 -7 106 C-7.87 105.35 -8.75 104.7 -9.65 104.03 C-10.4 103.34 -11.16 102.65 -11.94 101.94 C-12.63 101.18 -13.32 100.41 -14.03 99.63 C-14.68 98.76 -15.33 97.89 -16 97 C-16.67 95.96 -17.34 94.91 -18.03 93.84 C-18.66 92.7 -19.29 91.55 -19.94 90.38 C-20.49 89.18 -21.05 87.98 -21.62 86.75 C-22.07 85.51 -22.53 84.27 -23 83 C-23.47 81.13 -23.47 81.13 -23.95 79.22 C-24.15 77.97 -24.35 76.72 -24.56 75.44 C-24.68 74.19 -24.79 72.94 -24.91 71.66 C-24.95 69.85 -24.95 69.85 -25 68 C-24.97 66.9 -24.94 65.79 -24.91 64.66 C-24.79 63.59 -24.68 62.53 -24.56 61.44 C-24.36 60.39 -24.15 59.34 -23.94 58.26 C-23.63 57.18 -23.32 56.11 -23 55 C-22.56 53.82 -22.11 52.64 -21.65 51.43 C-21.11 50.24 -20.56 49.04 -20 47.81 C-19.39 46.66 -18.78 45.51 -18.15 44.32 C-17.44 43.23 -16.73 42.13 -16 41 C-15.57 40.48 -15.14 39.95 -14.7 39.41 C-14.24 38.91 -13.79 38.41 -13.32 37.89 C-12.41 36.98 -11.5 36.07 -10.56 35.12 C-9.7 34.32 -8.83 33.52 -7.94 32.7 C-7.3 32.14 -6.66 31.58 -6 31 C-6.35 30.53 -6.7 30.06 -7.06 29.57 C-7.51 28.95 -7.97 28.33 -8.44 27.69 C-8.89 27.07 -9.34 26.46 -9.81 25.82 C-10.2 25.22 -10.59 24.62 -11 24 C-11.33 23.01 -11.66 22.02 -12 21 C-12.08 20.33 -12.16 19.67 -12.24 18.98 C-12.26 18.25 -12.29 17.51 -12.31 16.75 C-12.3 15.96 -12.29 15.16 -12.28 14.35 C-12.19 13.57 -12.1 12.8 -12 12 C-11.76 11.34 -11.53 10.68 -11.28 10 C-10.96 9.4 -10.64 8.8 -10.31 8.19 C-9.55 7.14 -8.79 6.08 -8 5 C-7.15 4.22 -6.31 3.43 -5.44 2.62 C-4.63 2.09 -3.83 1.55 -3 1 C-2.01 0.67 -1.02 0.34 0 0 Z M1 5 C-0.47 5.68 -0.47 5.68 -1.96 6.38 C-2.63 6.92 -3.31 7.45 -4 8 C-4.6 8.74 -5.2 9.48 -5.81 10.25 C-6.2 11.16 -6.6 12.06 -7 13 C-7.13 14.05 -7.26 15.11 -7.39 16.2 C-7.26 17.45 -7.13 18.71 -7 20 C-6.57 20.9 -6.57 20.9 -6.13 21.82 C-5.74 22.43 -5.34 23.04 -4.94 23.66 C-4.48 24.3 -4.02 24.94 -3.54 25.6 C-3.03 26.27 -2.53 26.93 -2 27.62 C-1.22 28.7 -1.22 28.7 -0.41 29.79 C1.37 32.21 3.18 34.61 5 37 C6.05 38.39 6.05 38.39 7.12 39.8 C10.01 43.62 12.91 47.43 15.83 51.22 C16.49 52.07 17.15 52.93 17.82 53.81 C18.41 54.57 19 55.33 19.61 56.11 C20.07 56.74 20.53 57.36 21 58 C21.33 58.66 21.66 59.32 22 60 C22.56 59.75 23.11 59.5 23.69 59.25 C24.45 58.84 25.21 58.42 26 58 C26.87 57.31 27.75 56.63 28.64 55.92 C29.42 55.29 30.2 54.65 31 54 C30.63 53.5 30.27 53.01 29.89 52.49 C29.37 51.79 28.86 51.09 28.32 50.37 C27.75 49.59 27.17 48.81 26.58 48 C25.31 46.28 24.05 44.56 22.78 42.84 C19.05 37.75 19.05 37.75 15.26 32.71 C14.72 32 14.18 31.3 13.62 30.57 C13.11 29.9 12.6 29.23 12.08 28.54 C11.13 27.29 10.17 26.05 9.2 24.81 C8.78 24.25 8.35 23.68 7.91 23.1 C7.28 22.08 6.65 21.05 6 20 C5.86 19.08 5.73 18.16 5.59 17.21 C5.72 16.48 5.86 15.75 6 15 C6.66 14.34 7.32 13.68 8 13 C9.07 12.91 10.13 12.83 11.23 12.74 C12.64 12.72 14.05 12.72 15.46 12.73 C16.23 12.72 17 12.72 17.79 12.71 C20.34 12.7 22.9 12.7 25.45 12.7 C27.22 12.7 29 12.69 30.77 12.69 C34.5 12.68 38.22 12.68 41.95 12.68 C46.71 12.69 51.47 12.67 56.24 12.65 C59.9 12.64 63.57 12.63 67.24 12.64 C68.99 12.64 70.75 12.63 72.51 12.62 C74.97 12.61 77.43 12.62 79.89 12.63 C80.61 12.62 81.33 12.61 82.07 12.6 C83.09 12.62 83.09 12.62 84.13 12.63 C86.05 12.81 86.05 12.81 88 13 C88.66 13.21 89.32 13.41 90 13.63 C90.63 13.89 91.26 14.14 91.91 14.41 C92.93 14.93 93.95 15.46 95 16 C95.8 16.9 95.8 16.9 96.61 17.82 C96.99 18.44 97.36 19.05 97.75 19.69 C98.22 20.3 98.69 20.91 99.18 21.55 C99.78 22.03 100.38 22.51 101 23 C102.4 23.22 102.4 23.22 103.82 23.45 C104.83 23.45 105.84 23.44 106.88 23.44 C107.84 23.37 108.81 23.31 109.8 23.25 C110.89 23.12 110.89 23.12 112 23 C111.62 22.5 111.25 22.01 110.86 21.5 C110.35 20.82 109.84 20.14 109.31 19.44 C108.76 18.71 108.21 17.98 107.65 17.23 C107.1 16.5 106.56 15.76 106 15 C103.55 11.36 103.55 11.36 102.37 9.54 C101.92 9.03 101.47 8.52 101 8 C100 7.22 100 7.22 98.99 6.43 C98 5.96 97.02 5.49 96 5 C95.35 4.91 94.71 4.82 94.04 4.72 C93.31 4.69 92.58 4.65 91.83 4.62 C91.03 4.61 90.23 4.6 89.4 4.59 C88.54 4.6 87.68 4.61 86.79 4.61 C85.87 4.61 84.95 4.6 84.01 4.6 C80.97 4.58 77.94 4.59 74.91 4.6 C72.8 4.6 70.68 4.6 68.57 4.59 C64.15 4.59 59.73 4.59 55.31 4.61 C49.64 4.63 43.98 4.62 38.31 4.6 C33.95 4.59 29.6 4.59 25.24 4.6 C23.15 4.6 21.06 4.6 18.97 4.59 C16.05 4.58 13.13 4.6 10.21 4.61 C9.35 4.61 8.48 4.6 7.6 4.59 C6.4 4.61 6.4 4.61 5.17 4.62 C4.08 4.67 4.08 4.67 2.96 4.72 C2.31 4.81 1.67 4.91 1 5 Z M10 17 C10.66 18.14 11.32 19.28 12.01 20.46 C12.47 21.1 12.93 21.73 13.4 22.39 C13.93 22.92 14.46 23.45 15 24 C16.8 24.4 16.8 24.4 18.64 24.8 C19.32 24.81 20 24.81 20.7 24.81 C21.79 24.76 21.79 24.76 22.91 24.7 C24.08 24.69 24.08 24.69 25.28 24.68 C26.51 24.66 26.51 24.66 27.76 24.64 C29.51 24.58 31.25 24.52 32.99 24.46 C34.77 24.43 36.56 24.4 38.35 24.37 C43.04 24.28 47.73 24.15 52.43 24.02 C57.22 23.88 62.01 23.79 66.81 23.7 C76.21 23.5 85.6 23.27 95 23 C94.24 22.2 93.47 21.39 92.69 20.56 C91.8 19.72 90.91 18.87 90 18 C89.01 17.67 88.02 17.34 87 17 C85.37 16.94 85.37 16.94 83.72 16.88 C82.34 16.88 80.97 16.88 79.59 16.89 C78.84 16.89 78.09 16.89 77.31 16.89 C74.83 16.89 72.35 16.89 69.86 16.9 C68.14 16.9 66.42 16.91 64.7 16.91 C60.16 16.91 55.63 16.92 51.1 16.93 C46.47 16.94 41.85 16.95 37.22 16.95 C28.15 16.96 19.07 16.98 10 17 Z M18 28 C19.98 30.97 21.96 33.94 24 37 C24.86 38.17 25.71 39.34 26.6 40.55 C27.42 41.62 28.24 42.68 29.06 43.75 C29.47 44.29 29.88 44.83 30.3 45.38 C30.71 45.91 31.11 46.44 31.54 46.98 C32.76 48.48 32.76 48.48 34 50 C34.86 50.92 35.73 51.85 36.62 52.8 C37.4 53.53 38.19 54.25 39 55 C40.01 55.47 41.02 55.95 42.06 56.44 C43.52 57.21 43.52 57.21 45 58 C45.76 58.89 46.53 59.77 47.31 60.69 C47.87 61.78 48.43 62.87 49 64 C49.11 65.27 49.23 66.54 49.34 67.84 C49.46 68.9 49.46 68.9 49.58 69.98 C49.79 70.98 49.79 70.98 50 72 C50.59 72.98 51.18 73.95 51.79 74.96 C52.58 75.9 53.37 76.84 54.19 77.81 C55.09 78.92 56 80.03 56.9 81.15 C57.39 81.75 57.89 82.36 58.39 82.98 C58.92 83.65 59.45 84.31 60 85 C62.47 88.29 64.89 91.61 67.31 94.94 C68.47 96.53 69.64 98.12 70.8 99.71 C71.36 100.45 71.91 101.18 72.49 101.93 C72.99 102.62 73.49 103.3 74 104 C74.35 104.62 74.7 105.24 75.06 105.89 C75.4 106.43 75.74 106.98 76.09 107.54 C77.05 108.35 78.01 109.16 79 110 C79.93 110.15 80.86 110.3 81.82 110.46 C82.93 110.5 84.04 110.54 85.18 110.59 C86.91 110.56 86.91 110.56 88.68 110.53 C89.88 110.48 91.08 110.43 92.31 110.38 C93.53 110.35 94.75 110.32 96 110.29 C98.23 110.24 100.46 110.18 102.69 110.1 C103.45 110.06 104.22 110.03 105 110 C104.24 109.25 103.47 108.5 102.69 107.73 C101.8 106.83 100.91 105.93 100 105 C99.2 104.08 99.2 104.08 98.38 103.15 C97.92 102.56 97.47 101.98 97 101.38 C96.25 100.35 96.25 100.35 95.48 99.3 C94.99 98.54 94.5 97.78 94 97 C93.53 96.14 93.06 95.28 92.58 94.39 C92.14 93.48 91.7 92.57 91.25 91.62 C90.85 90.69 90.45 89.75 90.04 88.78 C89.69 87.86 89.35 86.94 89 86 C88.75 85.2 88.5 84.39 88.25 83.57 C88.06 82.78 87.88 82 87.69 81.19 C87.49 79.97 87.49 79.97 87.28 78.72 C87.19 77.82 87.1 76.92 87 76 C86.89 74.38 86.89 74.38 86.78 72.72 C86.75 71.55 86.72 70.39 86.69 69.19 C86.72 67.4 86.72 67.4 86.75 65.59 C86.88 63.81 86.88 63.81 87 62 C87.23 60.32 87.23 60.32 87.46 58.6 C87.79 56.97 87.79 56.97 88.12 55.31 C88.4 54.26 88.67 53.2 88.95 52.11 C89.3 51.08 89.64 50.06 90 49 C90.45 47.99 90.9 46.99 91.36 45.95 C92.11 44.52 92.11 44.52 92.88 43.06 C93.4 42.18 93.92 41.29 94.45 40.38 C94.96 39.59 95.47 38.81 96 38 C96.45 37.38 96.9 36.76 97.36 36.12 C97.78 35.61 98.19 35.09 98.62 34.56 C99.41 33.72 100.19 32.87 101 32 C102.32 30.68 103.64 29.36 105 28 C76.29 28 47.58 28 18 28 Z M115 29 C113.85 29.45 113.85 29.45 112.68 29.92 C111.15 30.79 109.62 31.67 108.09 32.55 C107.06 33.27 107.06 33.27 106 34 C104.73 35.39 104.73 35.39 103.44 36.81 C102.96 37.53 102.49 38.26 102 39 C104.47 41.97 104.47 41.97 107 45 C107.69 44.65 108.37 44.3 109.08 43.94 C109.98 43.49 110.88 43.03 111.81 42.56 C113.15 41.88 113.15 41.88 114.52 41.19 C115.75 40.6 115.75 40.6 117 40 C117.99 39.67 118.98 39.34 120 39 C120 35.7 120 32.4 120 29 C118.35 29 116.7 29 115 29 Z M125 29 C125 32.3 125 35.6 125 39 C127.1 39.93 127.1 39.93 129.25 40.88 C130.84 41.58 132.42 42.28 134 43 C135.34 43.66 136.67 44.32 138 45 C139.65 43.02 141.3 41.04 143 39 C142.55 38.28 142.09 37.56 141.62 36.81 C140.76 35.88 139.89 34.96 139 34 C138.22 33.52 137.45 33.05 136.65 32.55 C134.92 31.66 133.18 30.78 131.44 29.92 C130.63 29.62 129.83 29.31 129 29 C127.68 29 126.36 29 125 29 Z M-3 36 C-3.5 36.32 -4 36.63 -4.52 36.96 C-5.09 37.43 -5.66 37.89 -6.25 38.38 C-6.87 38.92 -7.49 39.47 -8.12 40.03 C-9.05 41.01 -9.05 41.01 -10 42 C-10.56 42.77 -11.11 43.55 -11.69 44.34 C-12.2 45.18 -12.72 46.01 -13.25 46.88 C-13.73 47.74 -14.22 48.61 -14.71 49.5 C-15.48 51 -16.25 52.5 -17 54 C-17.27 54.62 -17.54 55.24 -17.81 55.88 C-18.03 56.52 -18.24 57.16 -18.46 57.82 C-18.64 58.54 -18.82 59.26 -19 60 C-19.17 60.9 -19.33 61.81 -19.5 62.74 C-19.63 63.73 -19.75 64.73 -19.88 65.75 C-19.94 66.77 -20 67.79 -20.06 68.85 C-20.04 69.89 -20.02 70.93 -20 72 C-19.86 73.03 -19.71 74.06 -19.56 75.12 C-19.34 76.13 -19.11 77.14 -18.88 78.19 C-18.59 79.17 -18.31 80.16 -18.01 81.18 C-17.51 82.58 -17.51 82.58 -17 84 C-16.64 84.83 -16.27 85.66 -15.89 86.51 C-15.5 87.27 -15.1 88.03 -14.69 88.81 C-14.25 89.53 -13.82 90.24 -13.37 90.98 C-12.92 91.64 -12.47 92.31 -12 93 C-11.56 93.63 -11.12 94.25 -10.66 94.9 C-10.19 95.49 -9.73 96.08 -9.25 96.69 C-8.5 97.52 -8.5 97.52 -7.73 98.37 C-7.16 98.91 -6.59 99.45 -6 100 C-5.31 100.55 -4.61 101.1 -3.9 101.66 C-3.15 102.18 -2.4 102.71 -1.62 103.25 C-0.86 103.73 -0.09 104.22 0.7 104.71 C1.46 105.14 2.22 105.56 3 106 C3.71 106.33 4.42 106.66 5.14 107 C5.82 107.27 6.49 107.54 7.19 107.81 C8.45 108.2 9.7 108.6 11 109 C11.89 109.19 12.79 109.37 13.71 109.57 C14.8 109.71 15.88 109.85 17 110 C18.97 110.06 18.97 110.06 20.99 110.11 C22.48 110.11 23.97 110.11 25.46 110.1 C26.25 110.1 27.04 110.09 27.86 110.09 C30.36 110.09 32.87 110.08 35.38 110.06 C37.08 110.06 38.79 110.05 40.5 110.05 C44.66 110.04 48.83 110.02 53 110 C51.02 106.98 49.02 103.98 47 101 C45.96 99.51 44.91 98.02 43.85 96.54 C42.78 95.09 41.7 93.64 40.62 92.19 C39.84 91.08 39.84 91.08 39.03 89.96 C38.5 89.24 37.96 88.53 37.41 87.79 C36.87 87.12 36.33 86.46 35.77 85.77 C35.19 85.18 34.6 84.6 34 84 C33.3 83.57 32.61 83.14 31.89 82.7 C31.18 82.35 30.47 82.01 29.74 81.66 C28.76 81.26 28.76 81.26 27.76 80.86 C27.18 80.57 26.6 80.29 26 80 C25.2 79.09 24.39 78.19 23.56 77.25 C23.05 76.18 22.53 75.1 22 74 C21.91 72.77 21.83 71.54 21.74 70.27 C21.66 69.57 21.58 68.87 21.5 68.14 C21.34 67.43 21.17 66.73 21 66 C20.66 65.37 20.31 64.73 19.96 64.08 C19.52 63.46 19.08 62.85 18.63 62.21 C17.9 61.27 17.9 61.27 17.15 60.32 C16.63 59.68 16.1 59.04 15.56 58.38 C14.47 56.99 13.38 55.6 12.29 54.21 C11.74 53.52 11.19 52.82 10.63 52.1 C10.09 51.41 9.55 50.72 9 50 C7.54 47.98 6.11 45.93 4.68 43.89 C3.82 42.65 2.97 41.41 2.12 40.17 C1.74 39.62 1.36 39.07 0.96 38.5 C-0.01 37.26 -0.01 37.26 -1 36 C-1.66 36 -2.32 36 -3 36 Z M98 43 C97.19 44.47 96.41 45.95 95.62 47.44 C95.17 48.35 94.71 49.26 94.25 50.19 C93.83 51.12 93.42 52.05 93 53 C92.74 53.83 92.49 54.67 92.22 55.53 C92.05 56.3 91.87 57.08 91.69 57.88 C91.55 58.57 91.41 59.27 91.26 59.99 C91.18 60.65 91.09 61.32 91 62 C91 63.32 91 64.64 91 66 C93.31 66 95.62 66 98 66 C98.35 64.94 98.7 63.88 99.06 62.79 C99.52 61.4 99.98 60.01 100.44 58.62 C100.67 57.93 100.9 57.23 101.13 56.51 C101.75 54.67 102.37 52.83 103 51 C103.33 50.34 103.66 49.68 104 49 C103.2 48.01 102.39 47.02 101.56 46 C100.72 45.01 99.87 44.02 99 43 C98.67 43 98.34 43 98 43 Z M118 44 C117.15 44.43 117.15 44.43 116.27 44.88 C115.65 45.25 115.02 45.62 114.38 46 C113.26 46.66 112.15 47.32 111 48 C111.29 48.76 111.58 49.53 111.88 50.31 C112.25 51.2 112.62 52.09 113 53 C113.99 54.48 113.99 54.48 115 56 C116.65 55.34 118.3 54.68 120 54 C120 50.7 120 47.4 120 44 C119.34 44 118.68 44 118 44 Z M125 44 C125 47.63 125 51.26 125 55 C127.47 55.5 127.47 55.5 130 56 C131.32 54.35 132.64 52.7 134 51 C133.77 50.4 133.55 49.8 133.31 49.19 C132.88 48.47 132.45 47.74 132 47 C131.18 46.42 130.35 45.84 129.5 45.25 C128.68 44.84 127.85 44.42 127 44 C126.34 44 125.68 44 125 44 Z M145 44 C144.26 44.78 143.51 45.57 142.75 46.38 C142.38 46.92 142.01 47.47 141.63 48.03 C141.42 48.68 141.21 49.33 141 50 C141.19 50.79 141.39 51.57 141.59 52.38 C141.95 53.22 142.31 54.07 142.69 54.94 C143.29 56.22 143.29 56.22 143.9 57.52 C144.26 58.34 144.63 59.16 145 60 C145.17 60.73 145.33 61.45 145.5 62.2 C145.59 62.83 145.67 63.47 145.75 64.12 C145.83 65.07 145.91 66.02 146 67 C148.64 67 151.28 67 154 67 C153.77 65.21 153.51 63.42 153.25 61.62 C153.07 60.54 152.89 59.45 152.7 58.33 C152.47 57.23 152.24 56.13 152 55 C151.7 54.01 151.39 53.03 151.08 52.01 C150.43 50.29 149.77 48.57 149.1 46.86 C148.74 46.25 148.37 45.63 148 45 C147.01 44.67 146.02 44.34 145 44 Z M107 54 C106.53 54.87 106.05 55.73 105.56 56.62 C105.05 57.74 104.53 58.85 104 60 C103.77 61.11 103.55 62.23 103.31 63.38 C103.21 64.24 103.11 65.11 103 66 C105.31 66 107.62 66 110 66 C110.35 65.42 110.7 64.84 111.06 64.25 C111.37 63.51 111.68 62.77 112 62 C111.96 61.34 111.92 60.68 111.88 60 C111.59 59.34 111.3 58.68 111 58 C110.32 57.26 109.64 56.52 108.94 55.75 C108.3 55.17 107.66 54.59 107 54 Z M137 54 C136.62 54.44 136.23 54.87 135.84 55.32 C135.35 55.92 134.87 56.51 134.38 57.12 C133.91 57.76 133.45 58.39 132.98 59.04 C132.66 59.69 132.33 60.33 132 61 C132.23 62.13 132.45 63.27 132.69 64.44 C133.12 65.28 133.55 66.13 134 67 C136.31 67 138.62 67 141 67 C140.96 66.4 140.93 65.79 140.89 65.17 C140.79 63.97 140.79 63.97 140.69 62.75 C140.6 61.93 140.51 61.11 140.42 60.27 C140.28 59.52 140.14 58.77 140 58 C139.48 57.15 138.97 56.31 138.44 55.44 C137.96 54.96 137.49 54.49 137 54 Z M33 59 C31.39 59.93 31.39 59.93 29.75 60.88 C28.39 61.93 28.39 61.93 27 63 C26.67 63.66 26.34 64.32 26 65 C25.88 66.26 25.75 67.52 25.62 68.81 C25.64 69.52 25.65 70.23 25.66 70.96 C25.83 71.97 25.83 71.97 26 73 C26.7 73.97 27.4 74.94 28.12 75.94 C29.07 76.62 30.02 77.3 31 78 C31.99 78.33 32.98 78.66 34 79 C34.99 79 35.98 79 37 79 C37.89 78.61 38.77 78.22 39.69 77.81 C40.83 76.92 40.83 76.92 42 76 C42.6 75.4 43.2 74.8 43.81 74.19 C44.2 73.47 44.6 72.74 45 72 C45.12 71.03 45.25 70.06 45.38 69.06 C45.25 68.05 45.13 67.04 45 66 C44.59 65.09 44.17 64.19 43.75 63.25 C43.17 62.51 42.59 61.77 42 61 C41.38 60.57 40.76 60.13 40.12 59.69 C39.42 59.46 38.72 59.23 38 59 C36.82 58.81 36.82 58.81 35.62 58.62 C34.33 58.81 34.33 58.81 33 59 Z M121 59 C120.13 59.68 119.27 60.36 118.38 61.06 C117.59 62.03 116.81 63 116 64 C115.67 65.13 115.34 66.27 115 67.44 C115 68.61 115 69.79 115 71 C115.37 72.09 115.74 73.19 116.12 74.31 C117.05 75.64 117.05 75.64 118 77 C118.8 77.5 119.61 77.99 120.44 78.5 C121.28 78.66 122.13 78.83 123 79 C123.72 78.79 124.44 78.59 125.19 78.38 C125.79 77.92 126.38 77.47 127 77 C127.36 76.4 127.72 75.81 128.09 75.19 C128.39 74.47 128.69 73.75 129 73 C129.12 72.28 129.24 71.56 129.37 70.82 C129.39 70.07 129.41 69.33 129.44 68.56 C129.42 67.78 129.41 67 129.39 66.2 C129.26 65.47 129.13 64.75 129 64 C128.24 62.99 127.47 61.98 126.69 60.94 C125.8 60.3 124.91 59.66 124 59 C123.01 59 122.02 59 121 59 Z M91 71 C91.01 71.58 91.03 72.17 91.04 72.77 C91.09 73.59 91.14 74.41 91.19 75.25 C91.28 76.15 91.36 77.05 91.45 77.98 C91.63 78.98 91.81 79.97 92 81 C92.37 82.08 92.73 83.16 93.11 84.27 C93.55 85.33 93.99 86.4 94.44 87.5 C94.87 88.5 95.3 89.5 95.75 90.53 C96.16 91.35 96.57 92.16 97 93 C97.66 93.66 98.32 94.32 99 95 C99.68 94.11 100.36 93.23 101.06 92.31 C101.7 91.22 102.34 90.13 103 89 C102.88 87.87 102.88 87.87 102.75 86.72 C102.19 84.7 101.61 82.68 101.03 80.67 C100.67 79.52 100.31 78.37 99.94 77.19 C99.58 76.03 99.21 74.86 98.84 73.67 C98.56 72.79 98.29 71.91 98 71 C95.69 71 93.38 71 91 71 Z M103 71 C103.31 72.44 103.62 73.88 103.94 75.31 C104.11 76.11 104.29 76.91 104.46 77.74 C104.73 78.86 104.73 78.86 105 80 C105.33 80.99 105.66 81.98 106 83 C106.62 82.77 107.24 82.55 107.88 82.31 C108.58 81.88 109.28 81.45 110 81 C110.68 79.86 110.68 79.86 111.38 78.69 C111.58 77.8 111.79 76.91 112 76 C111.71 75.07 111.42 74.14 111.12 73.19 C110.75 72.47 110.38 71.74 110 71 C107.69 71 105.38 71 103 71 Z M134 72 C133.57 72.87 133.13 73.73 132.69 74.62 C132.35 76.3 132.35 76.3 132 78 C132.32 78.57 132.65 79.14 132.98 79.73 C133.44 80.28 133.9 80.82 134.38 81.38 C135.24 82.24 136.11 83.11 137 84 C137.47 83.5 137.95 83.01 138.44 82.5 C138.95 81.67 139.47 80.85 140 80 C140.14 79.32 140.28 78.65 140.42 77.95 C140.55 76.86 140.55 76.86 140.69 75.75 C140.79 74.51 140.89 73.28 141 72 C138.69 72 136.38 72 134 72 Z M146 72 C145.81 72.81 145.61 73.62 145.41 74.45 C145.02 76.05 145.02 76.05 144.62 77.69 C144.37 78.74 144.11 79.8 143.85 80.89 C143.57 81.91 143.29 82.94 143 84 C142.64 84.96 142.27 85.91 141.9 86.89 C141.45 87.94 141.45 87.94 141 89 C142.32 90.65 143.64 92.3 145 94 C145.99 93.67 146.98 93.34 148 93 C148.37 92.29 148.75 91.58 149.13 90.86 C149.62 89.53 149.62 89.53 150.12 88.19 C150.46 87.31 150.79 86.44 151.13 85.54 C151.42 84.7 151.71 83.86 152 83 C152.2 82.31 152.4 81.62 152.61 80.91 C152.74 80.28 152.87 79.65 153 79 C153.03 77.14 153.03 77.14 153.06 75.25 C153.04 74.18 153.02 73.11 153 72 C150.69 72 148.38 72 146 72 Z M47 78 C46.43 78.36 45.86 78.72 45.27 79.09 C44.65 79.56 44.02 80.02 43.38 80.5 C42.25 81.33 41.12 82.17 40 83 C41.4 85.14 42.81 87.27 44.23 89.4 C45.11 90.69 45.11 90.69 46 92 C47.7 94.39 49.42 96.75 51.16 99.11 C51.75 99.9 52.33 100.69 52.94 101.5 C53.52 102.29 54.1 103.08 54.7 103.89 C56.46 106.27 58.21 108.65 60 111 C60.97 112.2 60.97 112.2 61.97 113.42 C62.6 114.2 63.23 114.98 63.88 115.78 C64.45 116.47 65.03 117.16 65.62 117.88 C66.3 118.93 66.3 118.93 67 120 C67.25 120.87 67.5 121.74 67.76 122.64 C67.88 123.81 67.88 123.81 68 125 C67.5 125.99 67.5 125.99 67 127 C66.29 127.01 65.59 127.02 64.86 127.02 C58.21 127.1 51.56 127.19 44.91 127.29 C41.49 127.34 38.07 127.38 34.65 127.42 C30.72 127.47 26.79 127.53 22.86 127.59 C21.02 127.6 21.02 127.6 19.14 127.62 C18 127.64 16.86 127.66 15.69 127.68 C14.68 127.69 13.68 127.71 12.64 127.72 C11.77 127.81 10.9 127.91 10 128 C9.22 128.34 8.45 128.67 7.64 129.02 C6.83 129.51 6.83 129.51 6 130 C5.96 130.78 5.92 131.57 5.88 132.38 C5.92 133.24 5.96 134.11 6 135 C6.66 135.66 7.32 136.32 8 137 C8.97 137.09 9.94 137.18 10.94 137.27 C12.2 137.28 13.46 137.3 14.76 137.31 C15.45 137.31 16.15 137.32 16.86 137.33 C19.16 137.36 21.47 137.36 23.77 137.37 C25.37 137.38 26.97 137.39 28.57 137.4 C31.92 137.41 35.28 137.42 38.64 137.43 C42.94 137.43 47.23 137.47 51.53 137.51 C54.84 137.54 58.14 137.55 61.45 137.55 C63.03 137.56 64.61 137.57 66.2 137.59 C67.71 137.61 69.22 137.62 70.73 137.61 C71.43 137.61 72.13 137.6 72.85 137.6 C74.75 137.61 74.75 137.61 76.68 137.61 C77.77 137.41 78.87 137.21 80 137 C80.97 136.23 81.94 135.46 82.93 134.66 C83.61 133.79 84.3 132.91 85 132 C85.08 130.93 85.15 129.87 85.23 128.77 C84.62 126.9 84.62 126.9 84 125 C83.58 124.3 83.15 123.6 82.72 122.87 C82.19 122.13 81.66 121.38 81.11 120.61 C79.86 118.98 78.59 117.36 77.31 115.75 C75.94 113.98 74.58 112.21 73.21 110.44 C72.51 109.54 71.81 108.64 71.09 107.71 C69.72 105.94 68.36 104.15 67.02 102.35 C65.15 99.82 63.29 97.29 61.44 94.75 C59.81 92.54 58.19 90.33 56.56 88.12 C55.47 86.65 54.4 85.16 53.34 83.68 C52.8 82.94 52.27 82.21 51.72 81.45 C51.25 80.79 50.77 80.13 50.28 79.44 C49.86 78.97 49.44 78.49 49 78 C48.34 78 47.68 78 47 78 Z M115 82 C113.68 83.65 112.36 85.3 111 87 C111.19 87.6 111.37 88.2 111.56 88.81 C112.04 89.53 112.51 90.26 113 91 C113.56 91.31 114.12 91.62 114.69 91.93 C115.33 92.2 115.97 92.47 116.62 92.75 C117.74 93.16 118.85 93.58 120 94 C120 90.37 120 86.74 120 83 C118.35 82.67 116.7 82.34 115 82 Z M127 82 C126.01 82.5 126.01 82.5 125 83 C125 86.63 125 90.26 125 94 C126.3 93.38 127.6 92.76 128.94 92.12 C130.03 91.6 130.03 91.6 131.15 91.07 C131.76 90.72 132.37 90.36 133 90 C133.33 89.34 133.66 88.68 134 88 C132.82 86.52 132.82 86.52 131.62 85 C130.76 84.01 129.89 83.02 129 82 C128.34 82 127.68 82 127 82 Z M106 93 C105.3 93.83 104.6 94.65 103.88 95.5 C103.26 96.33 102.64 97.15 102 98 C102.26 98.6 102.51 99.19 102.77 99.8 C103.38 100.89 103.38 100.89 104 102 C104.55 102.54 105.1 103.08 105.66 103.63 C106.31 104.13 106.96 104.62 107.62 105.12 C108.33 105.64 109.03 106.15 109.76 106.67 C110.5 107.11 111.24 107.55 112 108 C112.76 108.27 113.52 108.55 114.3 108.83 C115.03 109.01 115.75 109.19 116.5 109.38 C118.23 109.68 118.23 109.68 120 110 C120 106.37 120 102.74 120 99 C118.04 98 116.09 97 114.12 96 C113.03 95.44 111.94 94.89 110.82 94.31 C109.89 93.88 108.96 93.45 108 93 C107.34 93 106.68 93 106 93 Z M136 93 C134 94.33 132 95.67 130 97 C129.05 97.41 128.1 97.83 127.12 98.25 C126.42 98.5 125.72 98.75 125 99 C125 102.3 125 105.6 125 109 C125.85 108.92 126.69 108.84 127.56 108.75 C128.7 108.5 129.83 108.25 131 108 C132.18 107.42 133.35 106.84 134.56 106.25 C135.14 105.9 135.72 105.55 136.32 105.19 C136.87 104.8 137.43 104.4 138 104 C138.51 103.55 139.03 103.09 139.55 102.62 C140.01 102.17 140.47 101.72 140.94 101.25 C141.62 100.51 142.3 99.77 143 99 C142.22 98.01 141.43 97.02 140.62 96 C139.76 95.01 138.89 94.02 138 93 C137.34 93 136.68 93 136 93 Z M137 110 C135.45 110.74 135.45 110.74 133.88 111.5 C132.93 112 131.98 112.49 131 113 C131.64 114.13 132.28 115.27 132.94 116.44 C133.3 117.08 133.66 117.71 134.03 118.37 C134.35 118.91 134.67 119.45 135 120 C135.5 120.5 135.5 120.5 136 121 C136.04 121.82 136.08 122.65 136.12 123.5 C136.08 124.32 136.04 125.15 136 126 C135.5 126.5 135.5 126.5 135 127 C134.1 127.06 133.2 127.13 132.27 127.19 C131.08 127.22 129.89 127.25 128.66 127.28 C126.73 127.34 126.73 127.34 124.75 127.39 C123.38 127.43 122 127.47 120.62 127.5 C117.95 127.57 115.28 127.64 112.6 127.72 C111.41 127.75 110.22 127.78 108.99 127.81 C108 127.87 107.02 127.94 106 128 C105.01 128.33 104.02 128.66 103 129 C102.79 129.95 102.59 130.9 102.38 131.88 C102.25 132.91 102.13 133.94 102 135 C102.66 135.66 103.32 136.32 104 137 C105.29 137.1 106.58 137.19 107.91 137.29 C109.6 137.32 111.3 137.33 112.99 137.34 C114.33 137.35 114.33 137.35 115.7 137.36 C117.6 137.37 119.5 137.37 121.39 137.37 C124.29 137.37 127.19 137.41 130.08 137.45 C131.93 137.46 133.77 137.46 135.61 137.46 C136.48 137.48 137.34 137.49 138.23 137.5 C139.05 137.5 139.86 137.49 140.7 137.49 C141.83 137.43 141.83 137.43 142.98 137.36 C143.65 137.24 144.31 137.12 145 137 C146 136.37 147 135.74 148.03 135.1 C148.68 134.41 149.33 133.71 150 133 C150.3 132.33 150.6 131.66 150.9 130.97 C150.93 130.32 150.97 129.67 151 129 C150.53 127.82 150.05 126.65 149.56 125.44 C149.2 124.76 148.83 124.07 148.45 123.37 C147.97 122.59 147.49 121.81 147 121 C146.35 120.02 145.69 119.04 145.02 118.04 C143.62 116.06 142.22 114.09 140.8 112.12 C140.21 111.42 139.61 110.72 139 110 C138.34 110 137.68 110 137 110 Z " fill="#FFFFFF" transform="translate(29,25)"/>
<path d="M0 0 C1.32 0 2.64 0 4 0 C3.88 1.05 3.75 2.1 3.62 3.19 C3.42 4.45 3.21 5.7 3 7 C2.65 7.76 2.3 8.53 1.94 9.31 C1.47 10.64 1.47 10.64 1 12 C0.92 12.73 0.85 13.46 0.77 14.21 C0.74 15.05 0.71 15.89 0.69 16.75 C0.71 18.04 0.71 18.04 0.73 19.36 C0.82 20.23 0.91 21.1 1 22 C1.35 23.26 1.35 23.26 1.71 24.54 C1.99 25.33 2.27 26.12 2.56 26.94 C2.85 27.65 3.14 28.36 3.44 29.09 C3.63 29.72 3.81 30.35 4 31 C3.5 32.48 3.5 32.48 3 34 C2.4 33.96 1.8 33.92 1.19 33.88 C0.1 33.44 0.1 33.44 -1 33 C-1.56 32.07 -2.11 31.14 -2.69 30.19 C-3.12 29.14 -3.55 28.08 -4 27 C-4.19 26.39 -4.37 25.78 -4.56 25.15 C-4.71 24.44 -4.85 23.73 -5 23 C-5.12 21.68 -5.12 21.68 -5.24 20.34 C-5.26 19.36 -5.29 18.38 -5.31 17.38 C-5.31 16.32 -5.3 15.27 -5.3 14.19 C-5.2 13.14 -5.1 12.09 -5 11 C-4.72 10.02 -4.43 9.04 -4.14 8.03 C-3.78 7.13 -3.43 6.24 -3.06 5.31 C-2.52 4.1 -2.52 4.1 -1.97 2.86 C-1.65 2.25 -1.33 1.63 -1 1 C-0.67 0.67 -0.34 0.34 0 0 Z " fill="#FFFFFF" transform="translate(25,77)"/>
<path d="M0 0 C1.32 0 2.64 0 4 0 C3.88 0.87 3.75 1.73 3.62 2.62 C3.42 3.74 3.21 4.85 3 6 C2.65 6.97 2.3 7.94 1.94 8.94 C1.63 9.95 1.32 10.96 1 12 C0.92 13.18 0.84 14.35 0.75 15.56 C0.87 17.26 0.87 17.26 1 19 C1.33 19.87 1.66 20.73 2 21.62 C2.33 22.41 2.66 23.19 3 24 C3.06 25.39 3.06 25.39 3.12 26.81 C3.08 27.53 3.04 28.26 3 29 C1.35 28.67 -0.3 28.34 -2 28 C-2.32 27.16 -2.32 27.16 -2.66 26.31 C-2.93 25.55 -3.21 24.79 -3.5 24 C-3.77 23.17 -4.04 22.35 -4.32 21.5 C-4.54 20.67 -4.77 19.85 -5 19 C-5.14 17.7 -5.29 16.4 -5.44 15.06 C-5.41 14.42 -5.39 13.78 -5.37 13.12 C-5.19 12.07 -5.19 12.07 -5 11 C-4.71 10.11 -4.43 9.23 -4.13 8.31 C-3.6 6.95 -3.6 6.95 -3.06 5.56 C-2.7 4.72 -2.34 3.87 -1.97 3 C-1.65 2.34 -1.33 1.68 -1 1 C-0.67 0.67 -0.34 0.34 0 0 Z " fill="#FFFFFF" transform="translate(17,79)"/>
</svg>
