<?xml version="1.0" encoding="utf-8"?>
<!-- Generator: Adobe Illustrator 23.0.5, SVG Export Plug-In . SVG Version: 6.00 Build 0)  -->
<svg version="1.1" id="Слой_1" xmlns="http://www.w3.org/2000/svg" xmlns:xlink="http://www.w3.org/1999/xlink" x="0px" y="0px"
	 viewBox="0 0 762 97" style="enable-background:new 0 0 762 97;" xml:space="preserve">
<style type="text/css">
	.st0{fill:#FF1919;}
</style>
<g>
	<path class="st0" d="M64.3,0H46.3c0,0-11.9,14.1-15.9,18.7C27.7,21.8,22,28,19.2,31c-1.3,1.3-5.2,5.3-5.2,5.3s3.9,3.9,5.2,5.3
		c2.9,3,8.5,9.2,11.2,12.3c4.1,4.6,15.9,18.7,15.9,18.7l17.9,0L33.5,36.3L64.3,0z"/>
	<path class="st0" d="M734.4,35.4c-8.7-1.6-12.8-3.4-12.8-6.9c0-2.8,3.3-6.6,11.3-6.6c8.2,0,11.8,3.7,12.4,7.3h13.4
		c-1-11.7-9.8-18.4-24.5-18.4c-15.6,0-24.9,7.5-25.5,17.1c-0.6,9.1,5.7,13.9,10.3,15.9c2.1,0.9,4.2,1.7,6.4,2.3c3,0.9,15,3.4,17,4
		c4.1,1.3,6.6,2.5,6.6,5.5c0,1.6-0.7,2.9-2,4c-2.1,1.7-4.8,2.6-9.8,2.6c-2.6,0-6.6-0.9-9.2-2.4c-2.5-1.5-4.6-3.8-5.3-6.4h-14.1
		c1.1,8,8.6,20.1,28,20.1c17.6,0,25.7-8.8,25.7-18.2C762,41.7,750.5,38.4,734.4,35.4z"/>
	<rect x="0" y="0" class="st0" width="14" height="72.5"/>
	<polygon class="st0" points="394.6,12 394.6,0 346.3,0 346.3,72.5 394.6,72.5 394.6,60.5 361.2,60.5 361.2,42.7 389.6,42.7 
		389.6,29.8 361.2,29.8 361.2,12 	"/>
	<path class="st0" d="M676.6,35.4c-8.7-1.6-12.8-3.4-12.8-6.9c0-2.8,3.3-6.6,11.3-6.6c8.2,0,11.8,3.7,12.4,7.3h13.4
		c-1-11.7-9.8-18.4-24.5-18.4c-15.6,0-24.9,7.5-25.5,17.1c-0.6,9.1,5.7,13.9,10.3,15.9c2.1,0.9,4.2,1.7,6.4,2.3c3,0.9,15,3.4,17,4
		c4.1,1.3,6.6,2.5,6.6,5.5c0,1.6-0.7,2.9-2,4c-2.1,1.7-4.8,2.6-9.8,2.6c-2.6,0-6.6-0.9-9.2-2.4c-2.5-1.5-4.6-3.8-5.3-6.4h-14.1
		c1.1,8,8.6,20.1,28,20.1c17.6,0,25.7-8.8,25.7-18.2C704.2,41.7,692.7,38.4,676.6,35.4z"/>
	<g>
		<path class="st0" d="M276.6,72.5V11.9h14.4v8.7c2.9-5.9,9.7-9.9,18.2-9.9c14.4,0,22.7,9.3,22.7,24.3v19.1c0,4.7,0.8,6.4,4.1,6.4
			c0.7,0,1.4-0.1,2.1-0.2v12.1c-1.7,0.5-3.7,0.7-6.3,0.7c-9.5,0-14.2-5.3-14.2-15.9v-21c0-8.5-4.7-13.7-12.8-13.7
			c-8.1,0-13.8,5.9-13.8,14.4v35.6H276.6z"/>
	</g>
	<path class="st0" d="M644.5,41.6c0-21.1-13.3-30.7-29.7-30.7c-19.1,0-29.1,13.4-29.1,31.9c0,18.9,13.3,30.7,30.1,30.7
		c15.6,0,25.3-9.6,28.1-20.1h-14.2c-2.8,5.7-8.5,8.8-13.6,8.8c-10.2,0-17.1-8.5-17.1-16.2h45.4L644.5,41.6z M598.9,36.6
		c0.5-6.6,6.9-13.8,16.4-13.8c9.2,0,15.4,6.8,15.5,13.8H598.9z"/>
	<polygon class="st0" points="466.5,11.9 448.9,11.9 433,33.6 417.1,11.9 399.5,11.9 424.2,43.3 401.1,72.5 418.7,72.5 433,52.9 
		447.3,72.5 464.9,72.5 441.8,43.3 	"/>
	<path class="st0" d="M266,60.5c-3.3,0-4.1-1.7-4.1-6.4v-9.2c0,0,0,0,0,0v-33h-15v7.9c-5.1-5.3-11.5-8.9-19.2-8.9
		c-16.4,0-29.7,14-29.7,31.3c0,17.3,13.3,31.2,29.7,31.3c4,0,8-0.8,11.7-2.4c3.5-1.5,6.6-3.8,9.1-6.6c1.8,5.8,6.2,8.6,13.3,8.6
		c2.5,0,4.6-0.2,6.3-0.7V60.3C267.4,60.4,266.7,60.5,266,60.5z M243.2,54.8c-2.9,3.7-7,6.1-11.5,6.7c-3.6,0.5-7.2-0.3-10.5-2.1
		c-3.4-1.9-6.1-5-7.8-8.9c-1.7-3.9-2.1-8.3-1.3-12.5c0.8-4.2,2.9-7.9,5.9-10.6c2.9-2.6,6.4-4.2,10-4.6c3.5-0.3,7,0.5,10,2.2
		c2.9,1.7,5.3,4.2,7,7.3c1.6,3,2.5,6.4,2.5,9.8C247.4,46.8,245.9,51.3,243.2,54.8z"/>
	<g>
		<path class="st0" d="M576.3,10.8c-8.6,0-15.3,4-18.2,9.9V12h-14.4v60.6h14.4V37.7c0-8.3,5.7-14.1,13.8-14.1c2.9,0,5.4,0.7,7.4,1.9
			l7.2-11.9C584.1,11.8,580.4,10.8,576.3,10.8z"/>
	</g>
	<path class="st0" d="M506.9,10.9c-7.7,0-14.2,3.7-19.2,8.9v-7.9l-14.9,0l0,85.1h14.6V65.8c2.3,2.2,4.9,4,7.8,5.3
		c3.7,1.6,7.6,2.5,11.7,2.4c16.4-0.1,29.7-14,29.7-31.3C536.6,24.9,523.3,10.9,506.9,10.9z M521.3,50.5c-1.7,3.8-4.4,6.9-7.8,8.9
		c-3.2,1.9-6.9,2.6-10.5,2.1c-4.5-0.6-8.6-3-11.5-6.7c-2.8-3.5-4.3-8-4.3-12.6c0-3.4,0.8-6.9,2.5-9.8c1.6-3.1,4-5.6,7-7.3
		c3-1.8,6.5-2.6,10-2.2c3.7,0.3,7.2,1.9,10,4.6c3,2.7,5,6.5,5.9,10.6C523.4,42.2,523,46.6,521.3,50.5z"/>
	<path class="st0" d="M130.7,60.5c-3.3,0-4.1-1.7-4.1-6.4v-9.2c0,0,0,0,0,0v-33h-15v7.9c-5.1-5.3-11.5-8.9-19.2-8.9
		c-16.4,0-29.7,14-29.7,31.3c0,17.3,13.3,31.2,29.7,31.3c4,0,8-0.8,11.7-2.4c3.5-1.5,6.6-3.8,9.1-6.6c1.8,5.8,6.2,8.6,13.3,8.6
		c2.5,0,4.6-0.2,6.3-0.7V60.3C132.1,60.4,131.4,60.5,130.7,60.5z M107.8,54.8c-2.9,3.7-7,6.1-11.5,6.7c-3.6,0.5-7.2-0.3-10.5-2.1
		c-3.4-1.9-6.1-5-7.8-8.9c-1.7-3.9-2.1-8.3-1.3-12.5c0.8-4.2,2.9-7.9,5.9-10.6c2.9-2.6,6.4-4.2,10-4.6c3.5-0.3,7,0.5,10,2.2
		c2.9,1.7,5.3,4.2,7,7.3c1.6,3,2.5,6.4,2.5,9.8C112.1,46.8,110.6,51.3,107.8,54.8z"/>
	<path class="st0" d="M192.9,23.9V11.9H141v11.9h33.9L141,60.6v11.9h51.9V60.6H159L192.9,23.9z"/>
</g>
</svg>
