<?xml version="1.0" encoding="UTF-8"?>
<!-- Generator: visioncortex VTracer 0.6.4 -->
<svg version="1.1" xmlns="http://www.w3.org/2000/svg" width="192" height="193">
<path d="M0 0 C0.89 -0.06 1.79 -0.12 2.71 -0.18 C6.22 -0.24 9.74 -0.28 13.25 -0.31 C15.07 -0.36 15.07 -0.36 16.93 -0.4 C18.12 -0.41 19.3 -0.42 20.52 -0.43 C22.21 -0.38 22.21 -0.38 23.95 -0.34 C25.46 -0.17 25.46 -0.17 27 0 C27.77 0.28 28.54 0.55 29.34 0.84 C30.27 1.35 30.27 1.35 31.22 1.88 C32.6 2.93 32.6 2.93 34 4 C34.74 4.72 35.48 5.44 36.25 6.19 C36.83 7.12 37.41 8.04 38 9 C38.48 10.22 38.96 11.44 39.45 12.7 C39.71 13.5 39.97 14.3 40.24 15.13 C40.49 16.08 40.74 17.02 41 18 C41.31 19.7 41.31 19.7 41.63 21.44 C41.93 23.38 42.23 25.32 42.52 27.25 C43.07 30.83 43.63 34.39 44.23 37.96 C44.63 40.17 45.04 42.39 45.48 44.6 C45.71 45.68 45.71 45.68 45.94 46.78 C46.11 47.49 46.27 48.2 46.44 48.93 C46.63 49.61 46.81 50.3 47 51 C47.32 51.97 47.32 51.97 47.64 52.96 C47.87 53.57 48.1 54.19 48.33 54.83 C48.82 56.01 49.3 57.18 49.8 58.39 C50.3 59.5 50.79 60.6 51.3 61.74 C52.29 63.79 53.29 65.84 54.3 67.88 C54.77 68.78 55.23 69.69 55.71 70.62 C56.12 71.4 56.54 72.18 56.97 72.98 C57.31 73.65 57.65 74.31 58 75 C58.33 75.99 58.66 76.98 59 78 C60.09 78.47 61.19 78.95 62.31 79.44 C62.91 79.64 63.5 79.85 64.11 80.06 C64.74 80.37 65.36 80.68 66 81 C67.05 82.02 67.05 82.02 68.12 83.06 C68.74 83.7 69.36 84.34 70 85 C70 84.02 70 83.04 70 82.03 C70.02 72.81 70.06 63.58 70.13 54.36 C70.17 49.62 70.19 44.87 70.2 40.13 C70.2 35.55 70.23 30.97 70.27 26.4 C70.29 24.65 70.29 22.91 70.29 21.16 C70.28 18.71 70.31 16.27 70.34 13.82 C70.33 13.1 70.32 12.38 70.31 11.64 C70.33 10.96 70.35 10.29 70.36 9.6 C70.57 8.41 70.78 7.22 71 6 C71.8 5.03 72.59 4.07 73.42 3.07 C74.27 2.39 75.12 1.71 76 1 C76.66 0.67 77.32 0.34 78 0 C79.53 -0.1 79.53 -0.1 81.08 -0.2 C82.93 -0.23 82.93 -0.23 84.81 -0.25 C86.65 -0.29 86.65 -0.29 88.52 -0.33 C90.24 -0.17 90.24 -0.17 92 0 C92.94 0.46 93.87 0.93 94.84 1.41 C95.91 2.2 95.91 2.2 97 3 C97.6 3.58 98.2 4.16 98.81 4.75 C99.4 5.86 99.4 5.86 100 7 C100.06 8.24 100.12 9.48 100.19 10.75 C100.13 11.82 100.06 12.89 100 14 C101.18 14.4 101.18 14.4 102.38 14.81 C103.24 15.2 104.11 15.6 105 16 C105.99 17.48 105.99 17.48 107 19 C107.08 19.83 107.16 20.67 107.24 21.52 C107.26 22.46 107.29 23.41 107.31 24.38 C107.38 25.36 107.45 26.34 107.53 27.35 C107.68 28.22 107.84 29.1 108 30 C108.78 30.93 109.57 31.86 110.38 32.81 C111.24 33.53 112.11 34.26 113 35 C113.54 35.87 114.08 36.73 114.64 37.63 C115.31 39.3 115.31 39.3 116 41 C116.12 42.27 116.24 43.54 116.36 44.85 C116.36 45.88 116.36 45.88 116.37 46.94 C116.35 48.03 116.35 48.03 116.33 49.14 C116.33 49.9 116.32 50.66 116.32 51.44 C116.32 53.04 116.3 54.64 116.28 56.24 C116.25 58.69 116.24 61.14 116.23 63.59 C116.23 65.15 116.21 66.7 116.2 68.26 C116.2 68.99 116.19 69.72 116.19 70.48 C116.18 71.16 116.17 71.84 116.16 72.54 C116.11 73.68 116.05 74.82 116 76 C115.67 76.99 115.34 77.98 115 79 C114.96 79.73 114.92 80.46 114.87 81.22 C114.87 82.08 114.87 82.95 114.87 83.84 C114.87 85.31 114.87 85.31 114.86 86.81 C114.86 87.87 114.87 88.93 114.87 90.02 C114.87 91.11 114.87 92.2 114.86 93.33 C114.86 95.64 114.87 97.95 114.87 100.26 C114.87 103.79 114.87 107.32 114.86 110.85 C114.86 113.09 114.87 115.34 114.87 117.58 C114.86 119.16 114.86 119.16 114.86 120.77 C114.87 122.7 114.88 124.63 114.9 126.56 C114.94 127.36 114.97 128.17 115 129 C115.16 130.14 115.32 131.29 115.49 132.47 C115.74 133.72 115.74 133.72 116 135 C116.14 136.94 116.14 136.94 116.27 138.91 C116.31 140.29 116.35 141.68 116.38 143.06 C116.43 144.1 116.43 144.1 116.49 145.17 C116.51 146.18 116.51 146.18 116.52 147.22 C116.26 149.09 116.26 149.09 116 151 C114.89 152.46 114.89 152.46 113.76 153.96 C112.85 154.63 111.94 155.31 111 156 C109.87 156.33 109.87 156.33 108.72 156.66 C107.99 156.65 107.25 156.64 106.5 156.62 C105.77 156.64 105.04 156.65 104.28 156.66 C103.53 156.44 102.78 156.23 102 156 C101.09 155.33 100.18 154.65 99.24 153.96 C98.5 152.98 97.76 152.01 97 151 C96.83 149.75 96.65 148.51 96.48 147.22 C96.49 146.2 96.49 146.2 96.51 145.17 C96.55 144.47 96.59 143.78 96.62 143.06 C96.64 142.37 96.65 141.68 96.67 140.97 C96.69 140.29 96.71 139.61 96.73 138.91 C96.82 137.62 96.91 136.33 97 135 C97.16 134.16 97.33 133.32 97.5 132.45 C97.66 131.31 97.83 130.17 98 129 C98.04 128.21 98.08 127.43 98.13 126.62 C98.21 123.72 98.27 120.82 98.32 117.91 C98.35 116.33 98.35 116.33 98.38 114.71 C98.44 111.35 98.5 107.99 98.56 104.62 C98.61 102.34 98.65 100.05 98.69 97.77 C98.8 92.18 98.9 86.59 99 81 C98.34 81 97.68 81 97 81 C96.34 80.01 95.68 79.02 95 78 C94.88 77.3 94.77 76.6 94.65 75.88 C94.51 74.73 94.51 74.73 94.38 73.56 C94.14 72.37 94.14 72.37 93.89 71.14 C93.6 70.44 93.3 69.73 93 69 C92.42 68.57 91.83 68.14 91.23 67.7 C90.54 67.39 89.84 67.07 89.12 66.75 C88.41 66.47 87.7 66.18 86.97 65.89 C85.99 65.45 85.99 65.45 85 65 C84.22 64.2 83.43 63.39 82.62 62.56 C82.09 61.72 81.55 60.87 81 60 C80.64 59.25 80.29 58.5 79.92 57.73 C79.62 56.83 79.31 55.93 79 55 C78.89 53.99 78.78 52.99 78.66 51.95 C78.64 50.33 78.64 50.33 78.62 48.69 C78.64 47.55 78.66 46.41 78.68 45.23 C78.79 44.17 78.89 43.1 79 42 C79.25 41.18 79.5 40.36 79.76 39.52 C80.25 38.49 80.25 38.49 80.75 37.44 C81.29 36.5 81.29 36.5 81.85 35.55 C82.23 35.04 82.61 34.53 83 34 C83.72 33.4 84.44 32.8 85.19 32.19 C85.79 31.47 86.38 30.74 87 30 C87.1 29.17 87.2 28.34 87.3 27.49 C87.34 26.53 87.39 25.56 87.44 24.56 C87.51 23.12 87.51 23.12 87.59 21.64 C87.73 20.77 87.86 19.9 88 19 C88.36 18.4 88.72 17.79 89.09 17.17 C89.54 16.72 89.98 16.27 90.44 15.81 C91.28 15.21 92.13 14.62 93 14 C93.66 14 94.32 14 95 14 C94.6 12.3 94.6 12.3 94.19 10.56 C93.6 8.8 93.6 8.8 93 7 C92.01 6.67 91.02 6.34 90 6 C88.82 5.92 88.82 5.92 87.62 5.83 C86.76 5.83 85.89 5.82 85 5.81 C84.13 5.8 83.27 5.78 82.38 5.77 C81.2 5.88 81.2 5.88 80 6 C79.01 6.66 78.02 7.32 77 8 C76.88 9.06 76.75 10.12 76.62 11.21 C76.61 11.87 76.61 12.53 76.6 13.21 C76.6 13.93 76.61 14.65 76.62 15.4 C76.61 16.16 76.6 16.93 76.6 17.71 C76.59 19.37 76.59 21.03 76.59 22.69 C76.59 25.32 76.58 27.94 76.56 30.57 C76.52 36.15 76.51 41.73 76.5 47.31 C76.49 53.77 76.47 60.22 76.42 66.68 C76.41 69.27 76.41 71.85 76.42 74.44 C76.41 76.03 76.4 77.62 76.38 79.21 C76.39 79.93 76.4 80.65 76.4 81.39 C76.4 82.06 76.39 82.72 76.38 83.41 C76.25 84.6 76.13 85.78 76 87 C75.54 87.97 75.08 88.94 74.61 89.94 C74.08 90.62 73.55 91.3 73 92 C71.92 92.4 71.92 92.4 70.81 92.81 C70.21 92.87 69.62 92.94 69 93 C68.92 94.09 68.83 95.19 68.75 96.31 C68.38 98.14 68.38 98.14 68 100 C67.4 100.64 66.8 101.28 66.19 101.94 C65.47 102.29 64.74 102.64 64 103 C62.68 103 61.36 103 60 103 C60 108.28 60 113.56 60 119 C61.98 119.99 61.98 119.99 64 121 C64.57 121.58 65.14 122.17 65.72 122.77 C66.35 123.87 66.35 123.87 67 125 C67.14 125.88 67.28 126.75 67.42 127.65 C67.45 129.75 67.48 131.85 67.51 133.95 C67.51 135.08 67.5 136.21 67.5 137.38 C67.53 138.5 67.56 139.62 67.59 140.78 C67.59 142.42 67.59 142.42 67.59 144.09 C67.54 145.12 67.49 146.16 67.44 147.23 C67.3 148.14 67.15 149.06 67 150 C66.68 150.7 66.36 151.39 66.03 152.11 C65.62 152.65 65.21 153.19 64.79 153.75 C63.87 154.5 62.95 155.24 62 156 C61.15 156.23 60.3 156.46 59.43 156.69 C58.59 156.65 57.74 156.61 56.88 156.56 C56.03 156.54 55.18 156.52 54.3 156.5 C53.54 156.34 52.78 156.17 52 156 C51.4 155.25 51.4 155.25 50.78 154.49 C50.19 154 49.61 153.51 49 153 C48 152.87 47 152.75 45.97 152.62 C44.11 152.62 44.11 152.62 42.21 152.61 C41.52 152.61 40.83 152.6 40.12 152.6 C37.86 152.58 35.59 152.59 33.32 152.6 C31.74 152.6 30.16 152.6 28.58 152.59 C25.27 152.59 21.97 152.59 18.66 152.61 C14.42 152.63 10.18 152.62 5.94 152.6 C2.69 152.59 -0.57 152.59 -3.83 152.6 C-5.39 152.6 -6.96 152.6 -8.52 152.59 C-10.71 152.58 -12.89 152.6 -15.08 152.61 C-16.32 152.61 -17.56 152.62 -18.84 152.62 C-19.89 152.74 -20.93 152.87 -22 153 C-22.76 153.49 -23.51 153.99 -24.29 154.5 C-24.86 154.99 -25.42 155.49 -26 156 C-26.73 156.14 -27.46 156.29 -28.22 156.43 C-28.97 156.43 -29.72 156.44 -30.5 156.44 C-31.28 156.41 -32.07 156.39 -32.88 156.36 C-33.58 156.24 -34.28 156.12 -35 156 C-36.24 155.07 -36.24 155.07 -37.5 154.12 C-38 153.42 -38.49 152.72 -39 152 C-39.33 151.34 -39.66 150.68 -40 150 C-40.05 149.19 -40.1 148.38 -40.15 147.54 C-40.17 144.24 -40.19 140.93 -40.19 137.62 C-40.2 136.48 -40.21 135.33 -40.22 134.14 C-40.23 133.03 -40.23 131.93 -40.23 130.79 C-40.23 129.78 -40.24 128.76 -40.24 127.72 C-40.16 126.82 -40.08 125.92 -40 125 C-39.77 124.26 -39.54 123.52 -39.3 122.76 C-38.87 122.18 -38.44 121.6 -38 121 C-37.13 120.59 -36.27 120.18 -35.38 119.75 C-34.59 119.5 -33.81 119.25 -33 119 C-33.03 117.51 -33.03 117.51 -33.06 115.99 C-33.14 112.25 -33.18 108.51 -33.22 104.76 C-33.24 103.15 -33.27 101.54 -33.3 99.93 C-33.33 98.37 -33.36 96.81 -33.38 95.25 C-33.39 93.7 -33.39 92.15 -33.37 90.6 C-33.34 89.47 -33.34 89.47 -33.31 88.32 C-33.28 87.59 -33.24 86.86 -33.2 86.11 C-33.13 85.41 -33.07 84.72 -33 84 C-32.75 82.76 -32.5 81.51 -32.24 80.23 C-31.75 78.56 -31.75 78.56 -31.25 76.85 C-30.89 75.82 -30.53 74.79 -30.15 73.73 C-29.58 72.38 -29.58 72.38 -29 71 C-28.65 70.29 -28.3 69.58 -27.94 68.85 C-27.59 68.22 -27.24 67.59 -26.89 66.95 C-26.53 66.33 -26.17 65.71 -25.8 65.08 C-25.44 64.44 -25.07 63.79 -24.69 63.12 C-24.1 62.02 -24.1 62.02 -23.51 60.89 C-23.12 60.05 -22.72 59.21 -22.32 58.34 C-21.93 57.39 -21.54 56.45 -21.14 55.48 C-20.76 54.33 -20.39 53.18 -20 52 C-19.74 50.92 -19.74 50.92 -19.47 49.82 C-19.12 48.18 -18.78 46.55 -18.45 44.92 C-17.79 41.4 -17.16 37.88 -16.56 34.36 C-16.13 31.72 -15.71 29.08 -15.3 26.43 C-15.16 25.59 -15.03 24.76 -14.89 23.89 C-14.64 22.31 -14.4 20.73 -14.18 19.14 C-14.01 18.06 -14.01 18.06 -13.84 16.96 C-13.72 16.28 -13.6 15.61 -13.47 14.91 C-13.32 14.28 -13.16 13.65 -13 13 C-12.51 11.87 -12.02 10.75 -11.51 9.59 C-11.01 8.73 -10.51 7.88 -10 7 C-9.43 6.39 -8.87 5.77 -8.28 5.14 C-7.69 4.66 -7.11 4.18 -6.5 3.69 C-5.91 3.2 -5.32 2.71 -4.72 2.2 C-4.15 1.8 -3.58 1.41 -3 1 C-2.01 0.67 -1.02 0.34 0 0 Z M2 5 C0.86 5.55 -0.29 6.09 -1.47 6.66 C-2.72 7.82 -2.72 7.82 -4 9 C-4.68 9.9 -5.36 10.8 -6.07 11.73 C-6.7 12.81 -7.34 13.89 -8 15 C-8.3 16.07 -8.6 17.14 -8.91 18.25 C-9.1 19.39 -9.29 20.54 -9.48 21.72 C-9.7 22.98 -9.91 24.24 -10.13 25.54 C-10.23 26.19 -10.33 26.84 -10.44 27.51 C-10.75 29.5 -11.08 31.48 -11.42 33.46 C-11.82 35.89 -12.21 38.32 -12.6 40.75 C-12.74 41.82 -12.87 42.9 -13 44 C-13.02 45.13 -13.04 46.26 -13.06 47.42 C-13.04 48.27 -13.02 49.12 -13 50 C-11.35 50 -9.7 50 -8 50 C-7.49 47.87 -7.01 45.74 -6.53 43.61 C-6.27 42.32 -6.27 42.32 -6 41 C-5.87 40.2 -5.75 39.4 -5.62 38.57 C-5.51 37.78 -5.4 36.99 -5.29 36.18 C-5.18 35.37 -5.07 34.57 -4.95 33.75 C-4.73 32.11 -4.52 30.48 -4.32 28.84 C-4.15 27.65 -4.15 27.65 -3.98 26.43 C-3.84 25.67 -3.7 24.91 -3.56 24.12 C-3.38 23.42 -3.19 22.72 -3 22 C-2.39 20.86 -1.78 19.72 -1.15 18.54 C-0.44 17.7 0.27 16.86 1 16 C1.57 15.55 2.14 15.11 2.73 14.65 C3.48 14.43 4.23 14.22 5 14 C6.29 13.89 7.57 13.78 8.9 13.66 C10.39 13.64 11.88 13.63 13.38 13.62 C14.12 13.6 14.86 13.58 15.62 13.55 C16.72 13.54 16.72 13.54 17.84 13.54 C18.55 13.58 19.26 13.63 19.99 13.67 C20.65 13.78 21.32 13.89 22 14 C23.11 14.48 24.21 14.96 25.35 15.46 C26.66 16.72 26.66 16.72 28 18 C28.48 18.94 28.48 18.94 28.98 19.9 C29.24 20.63 29.5 21.35 29.77 22.1 C30.1 23.28 30.1 23.28 30.44 24.49 C30.63 25.32 30.81 26.15 31 27 C31.16 27.84 31.32 28.69 31.49 29.55 C31.63 30.41 31.77 31.27 31.91 32.15 C32.16 33.89 32.4 35.63 32.62 37.38 C32.86 39.13 33.11 40.89 33.35 42.65 C33.45 43.41 33.55 44.18 33.66 44.97 C33.83 45.97 33.83 45.97 34 47 C34.33 47.99 34.66 48.98 35 50 C36.98 50 38.96 50 41 50 C40.24 45.12 39.46 40.25 38.66 35.38 C38.39 33.72 38.12 32.06 37.87 30.41 C37.49 28.02 37.1 25.63 36.7 23.24 C36.59 22.51 36.48 21.77 36.37 21.02 C36.25 20.32 36.13 19.62 36 18.89 C35.86 18.23 35.72 17.57 35.58 16.89 C35.39 16.26 35.2 15.64 35 15 C34.04 13.33 34.04 13.33 33.05 11.63 C32.37 10.76 31.7 9.89 31 9 C30.16 8.23 29.33 7.45 28.47 6.66 C27.32 6.11 26.18 5.56 25 5 C23.74 4.82 23.74 4.82 22.46 4.63 C21.51 4.58 20.57 4.52 19.59 4.47 C18.6 4.46 17.61 4.46 16.59 4.45 C15.57 4.47 14.55 4.48 13.5 4.5 C12.48 4.48 11.46 4.47 10.41 4.45 C9.42 4.46 8.43 4.46 7.41 4.47 C6.46 4.52 5.51 4.57 4.54 4.63 C3.7 4.75 2.86 4.87 2 5 Z M8 18 C6.52 18.46 6.52 18.46 5 18.94 C4.34 19.62 3.68 20.3 3 21 C2.71 21.56 2.41 22.13 2.11 22.71 C1.85 23.4 1.58 24.1 1.31 24.81 C0.97 25.99 0.97 25.99 0.62 27.2 C0.42 28.12 0.21 29.05 0 30 C-0.21 31.15 -0.41 32.3 -0.62 33.49 C-0.99 35.88 -1.34 38.27 -1.67 40.67 C-1.78 41.77 -1.89 42.87 -2 44 C-2 45.98 -2 47.96 -2 50 C8.23 50 18.46 50 29 50 C28.5 43.56 28.5 43.56 28 37 C27.86 35.77 27.72 34.55 27.57 33.28 C27.35 31.9 27.35 31.9 27.12 30.5 C26.98 29.56 26.84 28.62 26.7 27.66 C26.35 26.34 26.35 26.34 26 25 C25.56 24.1 25.13 23.21 24.68 22.28 C24.13 21.53 23.57 20.78 23 20 C22.39 19.57 21.78 19.15 21.15 18.71 C20.44 18.47 19.73 18.24 19 18 C18.14 17.9 17.27 17.8 16.38 17.7 C14.98 17.69 14.98 17.69 13.56 17.69 C12.11 17.73 12.11 17.73 10.63 17.77 C9.33 17.88 9.33 17.88 8 18 Z M95 19 C94.34 19.66 93.68 20.32 93 21 C92.96 22.03 92.92 23.06 92.88 24.12 C92.92 25.07 92.96 26.02 93 27 C95.97 27 98.94 27 102 27 C101.86 25.87 101.71 24.73 101.56 23.56 C101.38 22.39 101.19 21.21 101 20 C100.67 19.67 100.34 19.34 100 19 C99.2 18.94 98.39 18.88 97.56 18.81 C96.72 18.87 95.87 18.94 95 19 Z M93 33 C92.32 33.36 91.64 33.73 90.93 34.1 C90.32 34.58 89.7 35.07 89.06 35.56 C88.51 36.12 87.95 36.67 87.38 37.24 C86.7 38.11 86.7 38.11 86 39 C85.5 40.07 85.01 41.14 84.5 42.25 C84.33 43.49 84.17 44.72 84 46 C83.99 46.82 83.98 47.64 83.98 48.49 C84.03 49.36 84.07 50.23 84.12 51.12 C84.24 51.98 84.36 52.83 84.48 53.71 C84.65 54.46 84.82 55.22 85 56 C85.5 56.93 85.99 57.86 86.5 58.81 C87.74 59.9 87.74 59.9 89 61 C90.52 61.72 92.04 62.42 93.56 63.12 C94.35 63.52 95.13 63.92 95.94 64.33 C96.62 64.88 97.3 65.43 98 66 C98.41 66.91 98.82 67.82 99.25 68.76 C99.65 70.27 99.65 70.27 100.06 71.81 C100.36 73.28 100.36 73.28 100.66 74.77 C100.77 75.51 100.88 76.24 101 77 C104.47 77.5 104.47 77.5 108 78 C108.49 77.48 108.97 76.96 109.47 76.42 C109.98 75.62 110.48 74.82 111 74 C111.13 72.98 111.27 71.97 111.4 70.92 C111.45 66.12 111.45 66.12 111.45 61.32 C111.44 60.64 111.44 59.95 111.44 59.25 C111.46 57.89 111.48 56.53 111.5 55.17 C111.5 53.86 111.5 52.55 111.5 51.2 C111.45 49.95 111.41 48.69 111.37 47.4 C111.19 45.72 111.19 45.72 111 44 C110.72 43.12 110.44 42.24 110.16 41.33 C109.81 40.62 109.47 39.91 109.11 39.17 C108.07 37.6 108.07 37.6 107 36 C106.28 35.34 105.56 34.68 104.81 34 C103.88 33.67 102.96 33.34 102 33 C100.97 32.81 100.97 32.81 99.93 32.62 C98.79 32.53 98.79 32.53 97.62 32.44 C96.85 32.47 96.08 32.49 95.29 32.52 C94.53 32.68 93.78 32.84 93 33 Z M-15 55 C-16.82 58.75 -18.63 62.5 -20.44 66.25 C-20.95 67.31 -21.47 68.38 -22 69.47 C-22.5 70.5 -22.99 71.52 -23.5 72.58 C-23.95 73.52 -24.41 74.46 -24.88 75.43 C-25.25 76.28 -25.62 77.13 -26 78 C-26.22 78.63 -26.43 79.25 -26.66 79.9 C-26.77 80.59 -26.88 81.29 -27 82 C-27 84.31 -27 86.62 -27 89 C0.06 89 27.12 89 55 89 C54.01 83.06 54.01 83.06 53 77 C52.63 75.92 52.25 74.84 51.87 73.73 C51.47 72.92 51.07 72.1 50.65 71.27 C50.21 70.37 49.77 69.46 49.32 68.53 C48.86 67.63 48.41 66.74 47.94 65.81 C47.25 64.4 47.25 64.4 46.54 62.97 C45.7 61.26 44.85 59.55 44 57.85 C43.67 57.24 43.34 56.63 43 56 C42.5 55.5 42.5 55.5 42 55 C41.25 54.96 40.49 54.92 39.72 54.88 C38.71 54.88 37.7 54.88 36.65 54.89 C34.94 54.89 34.94 54.89 33.2 54.89 C31.33 54.89 31.33 54.89 29.43 54.9 C28.17 54.9 26.91 54.91 25.6 54.91 C22.24 54.91 18.87 54.92 15.51 54.93 C12.08 54.94 8.64 54.95 5.21 54.95 C-1.52 54.96 -8.26 54.98 -15 55 Z M108 83 C107.01 83.33 106.02 83.66 105 84 C105 97.2 105 110.4 105 124 C106.32 124 107.64 124 109 124 C109 110.47 109 96.94 109 83 C108.67 83 108.34 83 108 83 Z M60 85 C60 89.29 60 93.58 60 98 C60.99 97.67 61.98 97.34 63 97 C63 93.04 63 89.08 63 85 C62.01 85 61.02 85 60 85 Z M-28 94 C-28 102.25 -28 110.5 -28 119 C-26.35 119.99 -24.7 120.98 -23 122 C-22.67 122.66 -22.34 123.32 -22 124 C-21.93 124.74 -21.86 125.48 -21.79 126.25 C-21.76 127.16 -21.72 128.07 -21.68 129.01 C-21.64 129.99 -21.6 130.98 -21.56 132 C-21.52 133.03 -21.48 134.06 -21.44 135.12 C-21.39 136.17 -21.35 137.21 -21.31 138.28 C-21.2 140.85 -21.1 143.43 -21 146 C-19.35 146 -17.7 146 -16 146 C-15.98 144.35 -15.98 144.35 -15.96 142.68 C-15.91 141.22 -15.86 139.77 -15.81 138.31 C-15.81 137.59 -15.8 136.87 -15.79 136.13 C-15.77 135.42 -15.74 134.72 -15.71 133.99 C-15.64 133.3 -15.57 132.62 -15.5 131.91 C-15.33 131.28 -15.17 130.65 -15 130 C-14.2 129.02 -13.4 128.05 -12.57 127.04 C-11.3 126.03 -11.3 126.03 -10 125 C-9.34 124.67 -8.68 124.34 -8 124 C-7.4 123.95 -6.79 123.9 -6.17 123.85 C-5.43 123.84 -4.68 123.83 -3.92 123.82 C-3.08 123.81 -2.24 123.8 -1.37 123.78 C-0.46 123.78 0.45 123.77 1.39 123.76 C2.33 123.75 3.27 123.75 4.23 123.74 C6.22 123.72 8.21 123.71 10.19 123.7 C13.22 123.69 16.25 123.64 19.29 123.6 C21.22 123.59 23.15 123.58 25.08 123.57 C26.43 123.55 26.43 123.55 27.82 123.52 C29.1 123.53 29.1 123.53 30.4 123.53 C31.2 123.57 31.99 123.61 32.81 123.65 C33.53 123.76 34.26 123.88 35 124 C35.63 124.27 36.26 124.55 36.9 124.83 C37.44 125.17 37.98 125.52 38.54 125.87 C39.35 126.57 40.16 127.28 41 128 C41.43 128.82 41.87 129.65 42.31 130.5 C42.54 131.66 42.77 132.81 43 134 C43.16 135.51 43.16 135.51 43.33 137.05 C43.43 138.15 43.53 139.25 43.62 140.38 C43.76 142.25 43.88 144.12 44 146 C44.99 146 45.98 146 47 146 C47.01 145.42 47.03 144.84 47.04 144.24 C47.12 141.6 47.22 138.96 47.31 136.31 C47.34 135.4 47.36 134.49 47.38 133.55 C47.43 132.22 47.43 132.22 47.49 130.86 C47.55 130.01 47.61 129.16 47.67 128.28 C47.78 127.53 47.89 126.78 48 126 C48.43 125 48.85 124.01 49.29 122.98 C49.86 122.33 50.42 121.67 51 121 C52.32 120.34 53.64 119.68 55 119 C55 110.75 55 102.5 55 94 C27.61 94 0.22 94 -28 94 Z M-32 124 C-32.57 124.4 -33.14 124.79 -33.73 125.2 C-34.15 125.79 -34.57 126.39 -35 127 C-35.13 127.73 -35.26 128.47 -35.39 129.22 C-35.39 130.07 -35.39 130.91 -35.4 131.78 C-35.4 132.71 -35.41 133.63 -35.41 134.58 C-35.4 135.54 -35.39 136.51 -35.38 137.5 C-35.39 138.46 -35.4 139.43 -35.41 140.42 C-35.41 141.34 -35.4 142.27 -35.4 143.22 C-35.4 144.06 -35.39 144.91 -35.39 145.78 C-35.26 146.51 -35.13 147.24 -35 148 C-34.55 148.6 -34.1 149.2 -33.64 149.81 C-33.1 150.21 -32.56 150.6 -32 151 C-30.7 150.88 -30.7 150.88 -29.38 150.75 C-28.59 150.5 -27.81 150.25 -27 150 C-26.67 149.67 -26.34 149.34 -26 149 C-25.95 148.28 -25.9 147.55 -25.85 146.81 C-25.83 143.73 -25.81 140.64 -25.81 137.56 C-25.8 136.49 -25.79 135.41 -25.78 134.3 C-25.77 133.28 -25.77 132.25 -25.77 131.19 C-25.77 130.24 -25.76 129.3 -25.76 128.32 C-25.88 127.17 -25.88 127.17 -26 126 C-26.66 125.34 -27.32 124.68 -28 124 C-29.32 124 -30.64 124 -32 124 Z M55 124 C54.34 124.66 53.68 125.32 53 126 C52.91 126.76 52.83 127.52 52.74 128.31 C52.74 129.25 52.74 130.19 52.73 131.16 C52.73 132.18 52.73 133.2 52.73 134.25 C52.73 135.33 52.74 136.4 52.75 137.5 C52.74 138.57 52.73 139.64 52.73 140.75 C52.73 141.77 52.73 142.79 52.73 143.84 C52.74 144.78 52.74 145.72 52.74 146.69 C52.83 147.45 52.91 148.22 53 149 C53.66 149.66 54.32 150.32 55 151 C56.24 150.91 56.24 150.91 57.5 150.81 C58.33 150.54 59.15 150.28 60 150 C60.66 149.01 61.32 148.02 62 147 C62.09 146.33 62.18 145.67 62.27 144.98 C62.3 142.51 62.32 140.04 62.31 137.56 C62.33 136.7 62.34 135.84 62.36 134.96 C62.36 134.13 62.36 133.3 62.36 132.44 C62.33 131.66 62.3 130.87 62.26 130.06 C62.18 129.38 62.09 128.7 62 128 C61.58 127.14 61.16 126.29 60.73 125.4 C60.16 124.94 59.59 124.48 59 124 C57.68 124 56.36 124 55 124 Z M-5 128 C-5.98 128.46 -6.96 128.92 -7.97 129.4 C-8.97 130.19 -8.97 130.19 -10 131 C-10.33 131.66 -10.66 132.32 -11 133 C-11 137.29 -11 141.58 -11 146 C5.17 146 21.34 146 38 146 C38 141.38 38 136.76 38 132 C37.01 131.01 36.02 130.02 35 129 C34.01 128.67 33.02 128.34 32 128 C30.19 127.92 30.19 127.92 28.34 127.84 C26.82 127.82 25.31 127.81 23.79 127.8 C22.98 127.79 22.18 127.79 21.35 127.78 C19.65 127.77 17.94 127.76 16.24 127.76 C13.64 127.75 11.04 127.72 8.45 127.69 C6.79 127.68 5.13 127.68 3.48 127.67 C2.7 127.66 1.93 127.65 1.13 127.63 C0.03 127.64 0.03 127.64 -1.08 127.64 C-2.38 127.76 -3.67 127.88 -5 128 Z M104 129 C103.65 130.48 103.32 131.96 103 133.44 C102.82 134.34 102.64 135.25 102.46 136.19 C102.31 137.12 102.16 138.04 102 139 C101.92 139.85 101.84 140.69 101.76 141.56 C101.71 143.07 101.67 144.58 101.64 146.09 C101.76 146.72 101.88 147.35 102 148 C102.45 148.58 102.89 149.17 103.36 149.77 C103.9 150.17 104.44 150.58 105 151 C105.87 150.94 106.73 150.88 107.62 150.81 C108.41 150.54 109.19 150.28 110 150 C110.33 149.34 110.66 148.68 111 148 C111.08 146.98 111.08 146.98 111.17 145.93 C111.18 144.21 111.18 142.48 111.17 140.75 C111.11 139.85 111.06 138.94 111 138 C110.85 137.12 110.7 136.24 110.55 135.34 C110.37 134.53 110.19 133.71 110 132.88 C109.72 131.76 109.72 131.76 109.44 130.62 C109.29 130.08 109.15 129.55 109 129 C107.35 129 105.7 129 104 129 Z " fill="#FFFFFF" transform="translate(58,20)"/>
<path d="M0 0 C1.14 -0.05 2.28 -0.11 3.46 -0.16 C4.88 -0.18 6.31 -0.19 7.74 -0.2 C8.88 -0.21 8.88 -0.21 10.04 -0.22 C11.64 -0.23 13.25 -0.24 14.85 -0.24 C17.29 -0.25 19.74 -0.28 22.18 -0.31 C23.74 -0.32 25.3 -0.32 26.86 -0.33 C27.59 -0.34 28.31 -0.35 29.06 -0.37 C29.75 -0.36 30.44 -0.36 31.15 -0.36 C33.06 -0.18 33.06 -0.18 35 0 C36.13 0.46 37.26 0.93 38.42 1.41 C39.7 2.2 39.7 2.2 41 3 C41.68 3.9 41.68 3.9 42.38 4.81 C42.58 5.53 42.79 6.26 43 7 C43.12 7.97 43.25 8.94 43.38 9.94 C43.19 11.45 43.19 11.45 43 13 C42.38 13.93 41.76 14.86 41.12 15.81 C40.07 16.9 40.07 16.9 39 18 C38.01 18.5 38.01 18.5 37 19 C35.77 19.06 34.54 19.12 33.27 19.18 C31.66 19.2 30.06 19.22 28.45 19.24 C27.6 19.25 26.75 19.25 25.87 19.26 C24.07 19.28 22.26 19.29 20.46 19.3 C17.71 19.31 14.96 19.36 12.21 19.4 C10.45 19.41 8.7 19.42 6.95 19.43 C6.13 19.44 5.31 19.46 4.46 19.48 C3.69 19.48 2.91 19.47 2.12 19.47 C1.4 19.43 0.68 19.4 -0.06 19.36 C-0.7 19.24 -1.34 19.12 -2 19 C-2.99 18.37 -3.98 17.74 -5 17.1 C-5.66 16.41 -6.32 15.71 -7 15 C-7.33 14.34 -7.66 13.68 -8 13 C-8.12 11.91 -8.25 10.81 -8.38 9.69 C-8.25 8.47 -8.13 7.25 -8 6 C-7.24 5.05 -6.47 4.1 -5.69 3.12 C-4.8 2.42 -3.91 1.72 -3 1 C-2.01 0.67 -1.02 0.34 0 0 Z M-1 6 C-1.66 7.65 -2.32 9.3 -3 11 C-2.51 11.74 -2.51 11.74 -2 12.5 C-1.34 13 -0.68 13.49 0 14 C0.98 14.1 0.98 14.1 1.98 14.2 C3.07 14.19 3.07 14.19 4.19 14.19 C5.45 14.13 6.7 14.06 8 14 C8 11.36 8 8.72 8 6 C5.03 6 2.06 6 -1 6 Z M14 6 C14 8.64 14 11.28 14 14 C16.31 14 18.62 14 21 14 C21 11.36 21 8.72 21 6 C18.69 6 16.38 6 14 6 Z M26 6 C26 8.64 26 11.28 26 14 C27.46 14.05 28.92 14.09 30.38 14.12 C31.59 14.16 31.59 14.16 32.84 14.2 C33.55 14.13 34.26 14.07 35 14 C35.66 13.34 36.32 12.68 37 12 C37.09 10.73 37.09 10.73 37.19 9.44 C37.13 8.63 37.06 7.83 37 7 C36.67 6.67 36.34 6.34 36 6 C34.87 5.95 34.87 5.95 33.71 5.9 C32.8 5.91 31.88 5.93 30.94 5.94 C30.02 5.95 29.1 5.96 28.15 5.96 C27.44 5.98 26.73 5.99 26 6 Z " fill="#FFFFFF" transform="translate(54,82)"/>
<path d="M0 0 C0.8 -0.15 1.6 -0.3 2.42 -0.46 C3.29 -0.52 4.16 -0.57 5.06 -0.62 C5.9 -0.64 6.74 -0.65 7.6 -0.66 C8.39 -0.44 9.18 -0.23 10 0 C10.76 0.66 11.51 1.31 12.29 1.99 C12.86 2.98 13.42 3.98 14 5 C14.15 5.99 14.15 5.99 14.31 7 C14.34 7.73 14.36 8.46 14.39 9.21 C14.37 10.33 14.37 10.33 14.35 11.48 C14.32 12.25 14.28 13.02 14.25 13.81 C14.23 14.6 14.21 15.39 14.2 16.2 C14.15 18.13 14.08 20.07 14 22 C13.34 22.33 12.68 22.66 12 23 C11.27 23.07 10.54 23.13 9.79 23.2 C8.93 23.22 8.07 23.23 7.19 23.25 C5.85 23.24 5.85 23.24 4.48 23.22 C3.66 23.15 2.84 23.08 2 23 C1.01 22.57 0.02 22.13 -1 21.69 C-1.66 21.13 -2.32 20.57 -3 20 C-3.66 19.01 -4.32 18.02 -5 17 C-5.12 16.1 -5.24 15.19 -5.37 14.26 C-5.39 13.22 -5.41 12.19 -5.44 11.12 C-5.41 10.06 -5.39 9 -5.36 7.9 C-5.24 6.94 -5.12 5.99 -5 5 C-4.38 3.93 -3.76 2.85 -3.12 1.75 C-2.09 1.17 -1.06 0.59 0 0 Z M3 4 C1.89 4.8 1.89 4.8 0.75 5.62 C0.17 6.41 -0.41 7.19 -1 8 C-1.14 8.99 -1.29 9.98 -1.44 11 C-1.29 11.99 -1.15 12.98 -1 14 C-0.67 14.78 -0.34 15.57 0 16.38 C0.66 16.91 1.32 17.45 2 18 C2.65 18.08 3.31 18.16 3.98 18.24 C5.07 18.25 5.07 18.25 6.19 18.25 C8.07 18.13 8.07 18.13 10 18 C10.03 17.32 10.07 16.65 10.11 15.95 C10.13 15.06 10.16 14.17 10.19 13.25 C10.22 12.37 10.26 11.49 10.29 10.58 C10.2 9.73 10.1 8.88 10 8 C9.58 7.23 9.17 6.46 8.74 5.67 C8.16 5.12 7.59 4.57 7 4 C5.68 4 4.36 4 3 4 Z " fill="#FFFFFF" transform="translate(151,57)"/>
<path d="M0 0 C10.89 0 21.78 0 33 0 C33.5 1.98 33.5 1.98 34 4 C33.67 4.33 33.34 4.66 33 5 C31.96 5.04 30.93 5.07 29.86 5.11 C28.47 5.11 27.07 5.11 25.68 5.1 C24.95 5.1 24.22 5.09 23.47 5.09 C21.12 5.09 18.78 5.08 16.44 5.06 C14.85 5.06 13.27 5.05 11.68 5.05 C7.79 5.04 3.89 5.02 0 5 C0 3.35 0 1.7 0 0 Z " fill="#FFFFFF" transform="translate(55,155)"/>
</svg>
