<?xml version="1.0" encoding="UTF-8"?>
<!-- Generator: visioncortex VTracer 0.6.4 -->
<svg version="1.1" xmlns="http://www.w3.org/2000/svg" width="192" height="193">
<path d="M0 0 C0.59 0.06 1.18 0.11 1.79 0.17 C2.52 0.44 3.25 0.72 4 1 C4.56 1.75 5.11 2.5 5.68 3.27 C6.52 4.77 6.52 4.77 7.36 6.31 C8.31 8 8.31 8 9.28 9.72 C9.96 10.96 10.63 12.2 11.31 13.44 C12.02 14.7 12.72 15.97 13.43 17.23 C14.9 19.85 16.36 22.47 17.81 25.09 C21.16 31.1 24.61 37.05 28.06 43 C28.95 44.54 28.95 44.54 29.86 46.12 C31 48.09 32.14 50.06 33.29 52.02 C33.85 53.01 34.42 53.99 35 55 C35.61 56.13 36.22 57.25 36.85 58.41 C37.45 59.51 38.06 60.62 38.68 61.75 C39.22 62.76 39.76 63.76 40.32 64.8 C40.88 65.52 41.43 66.25 42 67 C43.32 67 44.64 67 46 67 C46.41 66.29 46.81 65.58 47.23 64.84 C69.98 24.97 69.98 24.97 77 13 C78.63 10.28 80.27 7.57 81.94 4.88 C82.95 3.25 83.97 1.62 85 0 C85.89 0.14 85.89 0.14 86.8 0.27 C87.89 0.63 87.89 0.63 89 1 C89.54 1.53 90.08 2.06 90.63 2.6 C91.13 3.27 91.62 3.94 92.12 4.62 C92.62 5.28 93.12 5.93 93.63 6.6 C94.08 7.39 94.54 8.18 95 9 C95.38 10.09 95.77 11.17 96.16 12.29 C96.44 13.52 96.71 14.74 97 16 C97.15 17.86 97.15 17.86 97.3 19.76 C97.31 21.78 97.31 23.79 97.29 25.81 C97.27 26.52 97.26 27.22 97.24 27.95 C97.21 28.64 97.17 29.33 97.14 30.04 C97.09 30.69 97.05 31.34 97 32 C96.87 33.04 96.74 34.08 96.61 35.14 C96.41 36.09 96.21 37.03 96 38 C95.73 38.95 95.45 39.89 95.17 40.87 C94.78 41.9 94.4 42.94 94 44 C93.74 44.62 93.47 45.25 93.2 45.89 C92.76 46.89 92.76 46.89 92.3 47.91 C91.82 48.93 91.82 48.93 91.33 49.97 C91 50.66 90.66 51.35 90.31 52.06 C89.61 53.44 88.89 54.8 88.16 56.16 C87.45 57.45 86.73 58.73 86 60 C85.05 61.56 85.05 61.56 84.09 63.15 C83.46 64.07 82.83 64.99 82.19 65.94 C81.53 66.79 80.88 67.65 80.21 68.53 C79.11 69.75 79.11 69.75 78 71 C76.64 72.27 76.64 72.27 75.26 73.57 C74.31 74.37 73.36 75.17 72.38 76 C71.5 76.7 70.62 77.4 69.71 78.12 C68.82 78.74 67.92 79.36 67 80 C65.94 80.58 64.88 81.16 63.79 81.75 C62.87 82.16 61.95 82.58 61 83 C60.34 83 59.68 83 59 83 C58.78 84.67 58.78 84.67 58.56 86.38 C58.28 88.17 58.28 88.17 58 90 C57.67 90.66 57.34 91.32 57 92 C57.26 92.55 57.51 93.09 57.78 93.66 C58.16 94.26 58.54 94.87 58.94 95.5 C59.32 96.11 59.7 96.72 60.09 97.34 C60.39 97.89 60.69 98.44 61 99 C61 99.66 61 100.32 61 101 C62.11 100.63 62.11 100.63 63.25 100.25 C64.16 100.17 65.06 100.08 66 100 C66.98 100.81 66.98 100.81 67.97 101.64 C68.64 102.42 69.31 103.2 70 104 C70.54 104.84 71.07 105.69 71.63 106.56 C72.41 107.98 72.41 107.98 73.21 109.44 C73.79 110.5 74.38 111.56 74.99 112.65 C75.59 113.76 76.19 114.86 76.81 116 C78.01 118.17 79.2 120.33 80.39 122.5 C80.98 123.57 81.57 124.64 82.17 125.75 C82.77 126.82 83.38 127.89 84 129 C86.89 133.73 86.89 133.73 89.82 138.44 C90.21 139.29 90.6 140.13 91 141 C90.96 142.08 90.96 142.08 90.92 143.18 C90.61 143.78 90.31 144.38 90 145 C89.47 145.46 88.94 145.92 88.39 146.39 C87.71 146.79 87.03 147.2 86.32 147.61 C85.58 148.06 84.83 148.5 84.06 148.96 C83.28 149.4 82.5 149.85 81.69 150.31 C80.91 150.78 80.14 151.25 79.35 151.73 C78.6 152.16 77.85 152.6 77.07 153.05 C76.39 153.45 75.7 153.85 75 154.26 C74.34 154.5 73.68 154.75 73 155 C72.28 154.9 71.57 154.81 70.83 154.71 C70.23 154.48 69.62 154.24 69 154 C68.33 153.29 68.33 153.29 67.65 152.57 C66.71 151.08 65.77 149.6 64.83 148.12 C63.83 146.42 62.84 144.72 61.86 143 C59.71 139.17 57.59 135.32 55.48 131.47 C54.66 129.98 53.83 128.49 53 127 C51.64 124.72 50.26 122.45 48.88 120.19 C48.32 119.29 47.76 118.4 47.18 117.48 C46.79 116.66 46.4 115.84 46 115 C45.94 114.07 45.88 113.14 45.82 112.18 C45.91 111.1 45.91 111.1 46 110 C46.66 110 47.32 110 48 110 C47.5 109.05 47.01 108.1 46.5 107.12 C46 106.09 45.51 105.06 45 104 C45 103.34 45 102.68 45 102 C44.34 102 43.68 102 43 102 C42.33 103.66 41.66 105.33 41 107 C40.5 108.48 40.5 108.48 40 110 C40.66 110 41.32 110 42 110 C41.9 111.02 41.81 112.04 41.71 113.09 C41.48 114.38 41.24 115.67 41 117 C40.51 118.06 40.02 119.13 39.51 120.22 C38.89 121.3 38.26 122.38 37.61 123.49 C37.27 124.08 36.93 124.67 36.58 125.28 C35.5 127.15 34.41 129.01 33.31 130.88 C32.6 132.12 31.88 133.36 31.17 134.6 C29.78 136.99 28.38 139.38 26.96 141.75 C26.32 142.82 25.67 143.89 25 145 C24.15 146.41 24.15 146.41 23.28 147.85 C22.77 148.67 22.26 149.48 21.73 150.32 C21.08 151.36 21.08 151.36 20.41 152.43 C19.71 153.21 19.71 153.21 19 154 C18.37 154.28 17.74 154.56 17.09 154.85 C16.4 154.9 15.71 154.95 15 155 C14 154.65 14 154.65 12.99 154.29 C11.52 153.47 10.06 152.65 8.61 151.83 C7.83 151.37 7.05 150.91 6.25 150.44 C5.46 150.01 4.66 149.58 3.85 149.13 C2.72 148.48 2.72 148.48 1.58 147.81 C0.89 147.41 0.2 147.02 -0.5 146.61 C-1 146.08 -1.49 145.55 -2 145 C-2.14 144.07 -2.27 143.15 -2.41 142.19 C-2.28 141.14 -2.14 140.08 -2 139 C-1.58 138.05 -1.16 137.1 -0.73 136.12 C-0.15 135.14 0.43 134.16 1.04 133.15 C1.68 132.05 2.33 130.95 2.99 129.82 C3.68 128.67 4.37 127.52 5.06 126.38 C6.05 124.71 6.05 124.71 7.05 123 C8.37 120.77 9.7 118.55 11.04 116.33 C11.68 115.23 12.33 114.13 13 113 C13.62 111.85 14.24 110.71 14.88 109.52 C15.77 107.89 15.77 107.89 16.68 106.23 C17.2 105.25 17.72 104.26 18.26 103.25 C18.83 102.51 19.41 101.77 20 101 C21.28 100.56 21.28 100.56 22.58 100.11 C23.38 100.07 24.18 100.04 25 100 C25.99 100.5 25.99 100.5 27 101 C27.43 99.92 27.43 99.92 27.88 98.81 C28.25 97.88 28.62 96.96 29 96 C29.62 94.73 29.62 94.73 30.25 93.44 C30.5 92.63 30.75 91.83 31 91 C30.71 90.32 30.42 89.64 30.12 88.94 C29.75 88.3 29.38 87.66 29 87 C29 85.68 29 84.36 29 83 C28.12 82.74 27.24 82.48 26.33 82.21 C25.23 81.81 24.13 81.41 23 81 C22.12 80.49 21.23 79.97 20.32 79.44 C19.45 78.82 18.58 78.2 17.69 77.56 C16.74 76.84 15.78 76.12 14.8 75.38 C13.88 74.59 12.95 73.81 12 73 C10.8 71.81 10.8 71.81 9.57 70.59 C8.45 69.31 8.45 69.31 7.31 68 C6.59 67.07 5.88 66.15 5.14 65.2 C4.43 64.14 3.73 63.09 3 62 C2.63 61.37 2.26 60.74 1.89 60.09 C1.52 59.42 1.15 58.75 0.77 58.05 C0.04 56.67 -0.67 55.27 -1.38 53.88 C-2.04 52.51 -2.69 51.13 -3.34 49.75 C-3.9 48.51 -4.46 47.26 -5 46 C-5.37 45.06 -5.75 44.12 -6.13 43.15 C-6.53 41.99 -6.53 41.99 -6.94 40.81 C-7.29 39.55 -7.64 38.3 -8 37 C-8.18 36.26 -8.36 35.51 -8.55 34.75 C-8.7 33.84 -8.85 32.93 -9 32 C-9.07 30.79 -9.13 29.58 -9.2 28.33 C-9.23 26.97 -9.24 25.61 -9.25 24.25 C-9.25 22.82 -9.23 21.39 -9.21 19.96 C-9.11 18 -9.11 18 -9 16 C-8.85 15.08 -8.7 14.15 -8.54 13.2 C-8.32 12.45 -8.1 11.71 -7.88 10.94 C-7.47 9.93 -7.47 9.93 -7.07 8.91 C-6.54 7.96 -6.54 7.96 -6 7 C-5.49 6.31 -4.99 5.62 -4.46 4.91 C-3.92 4.26 -3.37 3.61 -2.81 2.94 C-2.28 2.37 -1.75 1.8 -1.21 1.21 C-0.81 0.81 -0.41 0.41 0 0 Z M0 8 C-0.29 8.58 -0.58 9.17 -0.88 9.77 C-1.25 10.59 -1.62 11.41 -2 12.25 C-2.36 13.17 -2.72 14.08 -3.1 15.02 C-3.4 16.01 -3.69 16.99 -4 18 C-4.12 18.96 -4.24 19.92 -4.37 20.91 C-4.39 21.89 -4.41 22.87 -4.44 23.88 C-4.39 24.89 -4.35 25.9 -4.31 26.95 C-4.21 27.95 -4.1 28.96 -4 30 C-3.87 30.95 -3.73 31.89 -3.6 32.87 C-3.4 33.82 -3.2 34.77 -3 35.75 C-2.73 36.73 -2.45 37.71 -2.17 38.73 C-1.78 39.81 -1.4 40.89 -1 42 C-0.74 42.64 -0.47 43.27 -0.2 43.92 C0.1 44.6 0.39 45.27 0.7 45.96 C1.02 46.65 1.34 47.33 1.67 48.03 C2 48.72 2.34 49.41 2.69 50.12 C3.04 50.81 3.39 51.49 3.75 52.2 C4.11 52.87 4.46 53.54 4.83 54.23 C5.19 54.87 5.56 55.52 5.93 56.18 C6.28 56.78 6.64 57.38 7 58 C7.64 58.98 8.29 59.95 8.95 60.96 C9.9 62.22 9.9 62.22 10.88 63.5 C11.53 64.26 12.18 65.03 12.86 65.81 C13.56 66.53 14.27 67.26 15 68 C15.84 68.76 16.68 69.53 17.55 70.31 C18.42 71.03 19.29 71.76 20.19 72.5 C21.38 73.44 21.38 73.44 22.61 74.41 C23.4 74.93 24.19 75.46 25 76 C26.39 76.6 26.39 76.6 27.8 77.22 C28.53 77.48 29.25 77.73 30 78 C30.43 77.05 30.87 76.1 31.31 75.12 C31.87 74.09 32.43 73.06 33 72 C33.99 71.34 34.98 70.68 36 70 C35.89 69.45 35.79 68.9 35.68 68.33 C35.45 67.56 35.23 66.79 35 66 C34.59 65.18 34.18 64.36 33.76 63.52 C33.24 62.6 32.72 61.68 32.19 60.74 C31.61 59.71 31.04 58.68 30.44 57.62 C29.82 56.53 29.2 55.44 28.56 54.31 C27.93 53.19 27.29 52.07 26.64 50.91 C23.04 44.54 19.4 38.18 15.69 31.88 C14.52 29.91 13.35 27.94 12.17 25.97 C10.93 23.87 9.69 21.77 8.46 19.66 C7.64 18.28 6.82 16.89 6 15.5 C5.63 14.86 5.25 14.22 4.87 13.55 C4.52 12.97 4.17 12.38 3.81 11.78 C2.92 10.4 2.92 10.4 2 9 C1.34 8.67 0.68 8.34 0 8 Z M87 8 C86.6 8.53 86.21 9.05 85.8 9.6 C84.75 11.18 83.71 12.76 82.67 14.34 C82.12 15.22 81.57 16.1 81 17 C80.01 18.68 79.03 20.37 78.06 22.07 C77.04 23.9 76.02 25.73 75 27.56 C70.79 35.09 66.53 42.58 62.19 50.03 C61.57 51.1 60.95 52.16 60.31 53.25 C59.71 54.28 59.11 55.31 58.49 56.37 C55.33 61.78 55.33 61.78 54 64 C53.34 64.99 52.68 65.98 52 67 C52.04 67.64 52.08 68.28 52.12 68.94 C52.41 69.62 52.7 70.3 53 71 C53.64 71.68 54.28 72.36 54.94 73.06 C55.96 74.02 55.96 74.02 57 75 C57.66 75.99 58.32 76.98 59 78 C60.03 77.42 60.03 77.42 61.09 76.82 C62.03 76.26 62.97 75.7 63.94 75.12 C64.94 74.48 65.95 73.83 66.98 73.17 C67.98 72.45 68.97 71.74 70 71 C70.81 70.27 71.62 69.55 72.45 68.8 C73.56 67.63 73.56 67.63 74.69 66.44 C75.41 65.59 76.13 64.74 76.87 63.86 C77.57 62.92 78.27 61.97 79 61 C79.72 59.9 80.45 58.8 81.2 57.67 C81.55 57.09 81.9 56.51 82.27 55.91 C82.96 54.73 83.64 53.53 84.32 52.33 C84.63 51.74 84.95 51.15 85.27 50.54 C85.84 49.37 86.41 48.2 87 47 C87.67 45.32 87.67 45.32 88.35 43.61 C88.71 42.57 89.07 41.52 89.44 40.44 C89.72 39.51 90.01 38.58 90.31 37.62 C90.54 36.76 90.76 35.89 91 35 C91.29 33.77 91.29 33.77 91.58 32.52 C91.72 31.69 91.86 30.86 92 30 C92.08 29.09 92.16 28.18 92.24 27.24 C92.28 25.79 92.28 25.79 92.31 24.31 C92.31 22.75 92.31 22.75 92.3 21.16 C92.2 20.12 92.1 19.07 92 18 C91.56 16.51 91.56 16.51 91.11 15 C90.74 14.09 90.38 13.18 90 12.25 C89.63 11.43 89.26 10.61 88.88 9.77 C88.59 9.18 88.3 8.6 88 8 C87.67 8 87.34 8 87 8 Z M40 73 C39.03 73.68 38.06 74.36 37.06 75.06 C36.38 76.03 35.7 77 35 78 C34.67 79.16 34.34 80.31 34 81.5 C34 82.66 34 83.81 34 85 C34.35 85.91 34.7 86.81 35.06 87.75 C35.7 88.49 36.34 89.23 37 90 C37.91 90.64 38.81 91.28 39.75 91.94 C41.36 92.46 41.36 92.46 43 93 C44.2 92.86 45.39 92.71 46.62 92.56 C47.74 92.05 48.85 91.53 50 91 C50.83 90.11 51.65 89.23 52.5 88.31 C53 87.22 53.49 86.13 54 85 C54.02 83.82 54.04 82.65 54.06 81.44 C53.71 80.3 53.36 79.17 53 78 C51.98 76.55 51.98 76.55 50.94 75.06 C49.97 74.38 49 73.7 48 73 C47.36 72.84 46.72 72.68 46.07 72.52 C45.04 72.45 45.04 72.45 44 72.38 C43.32 72.42 42.64 72.47 41.93 72.52 C41.3 72.68 40.66 72.84 40 73 Z M36 96 C34.35 98.64 32.7 101.28 31 104 C32.98 104.99 32.98 104.99 35 106 C36.65 103.03 38.3 100.06 40 97 C38.68 96.67 37.36 96.34 36 96 Z M50 96 C49.34 96.66 48.68 97.32 48 98 C50.47 101.96 50.47 101.96 53 106 C54.32 105.34 55.64 104.68 57 104 C55.68 101.36 54.36 98.72 53 96 C52.01 96 51.02 96 50 96 Z M23 107 C20.94 110.57 18.87 114.15 16.81 117.72 C16.11 118.94 15.41 120.15 14.71 121.36 C14.37 121.95 14.03 122.54 13.68 123.14 C13.35 123.72 13.01 124.3 12.67 124.9 C11.69 126.6 10.71 128.29 9.74 129.99 C8.71 131.78 7.67 133.56 6.62 135.33 C6.26 135.95 5.89 136.57 5.52 137.21 C5.02 138.13 4.52 139.05 4 140 C4 140.66 4 141.32 4 142 C5.03 142.76 5.03 142.76 6.08 143.54 C7.43 144.36 7.43 144.36 8.81 145.19 C9.71 145.74 10.6 146.29 11.52 146.86 C12.34 147.23 13.16 147.61 14 148 C15.48 147.5 15.48 147.5 17 147 C16.05 146.34 15.1 145.68 14.12 145 C13.09 144.34 12.06 143.68 11 143 C10.34 143 9.68 143 9 143 C9 141.68 9 140.36 9 139 C10.33 139.19 10.33 139.19 11.69 139.38 C12.78 139.58 13.87 139.79 15 140 C15.89 140.34 16.79 140.69 17.71 141.04 C18.84 141.51 18.84 141.51 20 142 C20.98 140.33 20.98 140.33 21.98 138.63 C22.61 137.56 22.61 137.56 23.25 136.46 C24.17 134.9 25.08 133.34 26 131.78 C27.33 129.51 28.66 127.25 30 125 C33.41 119.55 33.41 119.55 35.14 116.88 C35.42 116.26 35.71 115.64 36 115 C35.67 114.01 35.34 113.02 35 112 C34.35 111.54 33.71 111.08 33.04 110.61 C32.24 110.18 31.45 109.75 30.62 109.31 C29.83 108.88 29.04 108.44 28.23 107.99 C27.49 107.66 26.76 107.34 26 107 C25.01 107 24.02 107 23 107 Z M62 107 C60.77 107.65 60.77 107.65 59.52 108.31 C58.63 108.87 57.73 109.43 56.81 110 C55.46 110.84 55.46 110.84 54.08 111.69 C53.39 112.12 52.71 112.55 52 113 C52.26 113.71 52.53 114.41 52.8 115.14 C53.19 116.08 53.59 117.03 54 118 C54.5 118.91 55 119.83 55.51 120.77 C56.38 122.24 56.38 122.24 57.26 123.74 C57.88 124.8 58.51 125.87 59.15 126.97 C59.8 128.07 60.45 129.18 61.12 130.31 C61.78 131.43 62.44 132.56 63.12 133.71 C64.74 136.48 66.37 139.24 68 142 C68.76 141.68 69.51 141.37 70.29 141.04 C71.19 140.7 72.08 140.35 73 140 C74.09 139.79 75.19 139.59 76.31 139.38 C77.2 139.25 78.09 139.13 79 139 C79 140.32 79 141.64 79 143 C78.24 143.27 77.47 143.54 76.69 143.81 C75.36 144.4 75.36 144.4 74 145 C73.4 145.54 72.8 146.07 72.19 146.62 C71.8 147.08 71.4 147.53 71 148 C71.66 147.94 72.32 147.88 73 147.81 C73.99 147.54 74.98 147.28 76 147 C76.7 146.61 77.39 146.22 78.11 145.82 C79.56 144.91 81 143.99 82.43 143.06 C82.95 142.71 83.46 142.36 84 142 C83.61 140.71 83.61 140.71 83.21 139.39 C82.81 138.27 82.41 137.15 82 136 C81.48 135 80.96 134.01 80.43 132.98 C79.82 131.94 79.22 130.9 78.59 129.83 C77.6 128.12 77.6 128.12 76.59 126.38 C75.89 125.19 75.2 124 74.5 122.81 C73.8 121.61 73.11 120.41 72.41 119.21 C70.62 116.13 68.83 113.06 67 110 C66.34 109.01 65.68 108.02 65 107 C64.01 107 63.02 107 62 107 Z " fill="#FFFFFF" transform="translate(52,19)"/>
<path d="M0 0 C1.32 0 2.64 0 4 0 C3.9 1.04 3.8 2.07 3.69 3.14 C3.46 4.41 3.24 5.69 3 7 C2.56 7.97 2.11 8.93 1.65 9.93 C1.09 10.88 0.52 11.83 -0.06 12.81 C-0.69 13.88 -1.32 14.95 -1.97 16.05 C-2.64 17.17 -3.31 18.29 -4 19.44 C-5.03 21.18 -6.06 22.92 -7.09 24.66 C-8.11 26.38 -9.12 28.09 -10.14 29.81 C-10.75 30.86 -11.37 31.91 -12 33 C-12.95 34.74 -13.89 36.48 -14.82 38.23 C-15.22 38.97 -15.62 39.72 -16.03 40.49 C-16.39 41.17 -16.75 41.86 -17.12 42.56 C-17.45 43.22 -17.78 43.87 -18.12 44.54 C-18.43 45.13 -18.75 45.71 -19.07 46.32 C-19.71 47.2 -20.34 48.09 -21 49 C-22.36 49.45 -22.36 49.45 -23.74 49.9 C-24.49 49.93 -25.23 49.97 -26 50 C-25.97 49.09 -25.93 48.18 -25.9 47.24 C-25.81 46.6 -25.71 45.95 -25.62 45.29 C-25.41 44.54 -25.21 43.78 -25 43 C-24.6 42.13 -24.2 41.26 -23.78 40.37 C-23.01 38.94 -23.01 38.94 -22.23 37.48 C-21.04 35.38 -19.84 33.28 -18.62 31.19 C-18 30.09 -17.37 28.99 -16.72 27.87 C-14.83 24.57 -12.91 21.28 -11 18 C-10.45 17.04 -9.9 16.07 -9.33 15.08 C-7.86 12.52 -6.37 9.98 -4.88 7.44 C-4.44 6.68 -4 5.92 -3.55 5.13 C-3.14 4.45 -2.73 3.76 -2.3 3.06 C-1.54 2.05 -0.78 1.04 0 0 Z " fill="#FFFFFF" transform="translate(135,37)"/>
<path d="M0 0 C1.12 0.07 1.12 0.07 2.27 0.15 C3.17 0.43 4.07 0.71 5 1 C5.62 1.8 6.25 2.6 6.89 3.43 C7.48 4.5 8.07 5.56 8.67 6.66 C9.16 7.53 9.16 7.53 9.65 8.41 C10.7 10.29 11.73 12.17 12.75 14.06 C13.46 15.35 14.17 16.64 14.89 17.92 C16.29 20.45 17.69 22.99 19.08 25.53 C19.72 26.68 20.35 27.82 21 29 C22.01 30.75 23.02 32.5 24.05 34.24 C24.47 34.97 24.9 35.7 25.33 36.45 C26.09 37.73 26.85 39.01 27.61 40.29 C27.94 40.85 28.26 41.42 28.59 42 C29.06 42.99 29.52 43.98 30 45 C30.07 45.96 30.14 46.92 30.22 47.91 C30.15 48.6 30.07 49.29 30 50 C29.25 49.95 28.49 49.89 27.71 49.84 C26.82 49.56 25.92 49.28 25 49 C24.41 48.23 23.82 47.47 23.21 46.68 C22.68 45.66 22.14 44.64 21.58 43.59 C20.97 42.46 20.36 41.34 19.73 40.17 C19.09 38.95 18.45 37.72 17.81 36.5 C16.82 34.64 15.82 32.79 14.82 30.94 C14.16 29.7 13.5 28.47 12.84 27.23 C11.9 25.48 10.95 23.74 10 22 C8.95 20.19 7.88 18.39 6.8 16.6 C5.48 14.43 4.15 12.26 2.79 10.12 C2.42 9.5 2.05 8.89 1.66 8.26 C0.84 6.65 0.84 6.65 0 5 C-0.08 4.03 -0.17 3.06 -0.25 2.05 C-0.17 1.38 -0.09 0.7 0 0 Z " fill="#FFFFFF" transform="translate(53,37)"/>
<path d="M0 0 C1.73 0.09 1.73 0.09 3.5 0.19 C4.66 0.46 5.81 0.72 7 1 C7.64 1.54 8.28 2.07 8.94 2.62 C9.29 3.41 9.64 4.19 10 5 C10.25 6.7 10.25 6.7 10.5 8.44 C10.34 9.61 10.17 10.79 10 12 C8.95 13.45 8.95 13.45 7.88 14.94 C6.45 15.96 6.45 15.96 5 17 C4.01 17.19 3.02 17.37 2 17.56 C1.01 17.38 0.02 17.19 -1 17 C-1.95 16.5 -2.9 16.01 -3.88 15.5 C-4.58 14.67 -5.28 13.85 -6 13 C-6.14 12.37 -6.27 11.74 -6.41 11.09 C-6.44 10.4 -6.47 9.71 -6.5 9 C-6.45 8.31 -6.41 7.62 -6.36 6.9 C-6.24 6.27 -6.12 5.65 -6 5 C-5.57 4.2 -5.13 3.39 -4.69 2.56 C-4.13 2.05 -3.57 1.53 -3 1 C-2.01 0.67 -1.02 0.34 0 0 Z M0 6 C-0.33 7.32 -0.66 8.64 -1 10 C0.98 10.99 0.98 10.99 3 12 C3.66 11.34 4.32 10.68 5 10 C4.88 9.3 4.75 8.6 4.62 7.88 C4.42 7.26 4.21 6.64 4 6 C2.68 6 1.36 6 0 6 Z " fill="#FFFFFF" transform="translate(94,93)"/>
</svg>
