<?xml version="1.0" encoding="UTF-8"?>
<!-- Generator: visioncortex VTracer 0.6.4 -->
<svg version="1.1" xmlns="http://www.w3.org/2000/svg" width="192" height="193">
<path d="M0 0 C1.32 0.07 2.63 0.13 3.99 0.2 C5.05 0.3 5.05 0.3 6.12 0.39 C7.6 0.55 9.07 0.72 10.53 0.9 C11.26 1 11.99 1.1 12.75 1.21 C13.47 1.33 14.18 1.45 14.93 1.58 C15.61 1.72 16.29 1.86 17 2 C18.78 2.51 18.78 2.51 20.6 3.04 C21.68 3.44 22.76 3.84 23.88 4.25 C25.43 4.92 25.43 4.92 27.02 5.61 C28.5 6.3 28.5 6.3 30 7 C30.92 7.41 31.84 7.82 32.79 8.24 C33.68 8.68 34.58 9.11 35.5 9.56 C36.38 10.07 37.27 10.58 38.18 11.1 C39.11 11.73 40.04 12.35 41 13 C41.53 13.4 42.05 13.8 42.59 14.21 C43.14 14.66 43.69 15.1 44.26 15.56 C44.81 16.03 45.37 16.5 45.94 16.99 C46.77 17.74 46.77 17.74 47.62 18.5 C48.45 19.27 48.45 19.27 49.29 20.06 C50.09 20.85 50.09 20.85 50.91 21.66 C51.44 22.21 51.96 22.75 52.5 23.31 C52.99 23.87 53.49 24.43 54 25 C54.45 25.56 54.9 26.13 55.37 26.71 C55.79 27.28 56.21 27.85 56.65 28.43 C57.05 29.01 57.45 29.59 57.86 30.18 C58.23 30.76 58.61 31.34 59 31.94 C59.36 32.52 59.72 33.11 60.09 33.71 C60.44 34.3 60.78 34.88 61.13 35.48 C62.06 37.22 62.06 37.22 63 39 C63.52 40.12 64.05 41.24 64.59 42.39 C65.26 44.02 65.26 44.02 65.94 45.69 C66.3 46.64 66.66 47.59 67.03 48.57 C67.51 50.27 67.51 50.27 68 52 C68.18 52.81 68.37 53.62 68.56 54.46 C68.74 55.36 68.92 56.27 69.11 57.21 C69.27 58.16 69.43 59.11 69.6 60.09 C69.73 61.05 69.86 62.01 70 63 C70.07 63.9 70.15 64.8 70.22 65.73 C70.26 66.63 70.3 67.52 70.34 68.44 C70.35 69.34 70.37 70.25 70.38 71.18 C70.37 74.14 70.36 77.1 70.31 80.06 C70.27 81.06 70.24 82.06 70.2 83.09 C70.13 84.05 70.07 85.01 70 86 C69.9 86.88 69.8 87.76 69.7 88.66 C69.57 89.5 69.44 90.33 69.31 91.19 C69.09 92.4 69.09 92.4 68.87 93.63 C68.71 94.41 68.54 95.19 68.38 96 C68.2 96.77 68.02 97.54 67.84 98.34 C67.65 99.09 67.46 99.85 67.26 100.62 C67.06 101.36 66.86 102.09 66.65 102.84 C66.22 104.26 65.78 105.68 65.33 107.09 C65.11 107.76 64.88 108.43 64.64 109.12 C64.29 110.1 64.29 110.1 63.93 111.09 C63.68 111.72 63.44 112.35 63.19 113 C62.67 114.2 62.15 115.41 61.61 116.64 C60.81 118.31 60.81 118.31 60 120 C59.5 120.97 59 121.95 58.48 122.95 C57.95 123.85 57.42 124.76 56.88 125.69 C56.29 126.55 55.7 127.42 55.09 128.31 C54.4 129.2 53.71 130.09 53 131 C52.58 131.5 52.16 131.99 51.73 132.5 C51.04 133.28 51.04 133.28 50.34 134.06 C49.86 134.58 49.38 135.1 48.89 135.63 C48.39 136.14 47.89 136.66 47.38 137.19 C46.86 137.69 46.35 138.2 45.82 138.72 C45.03 139.45 45.03 139.45 44.23 140.2 C43.7 140.68 43.16 141.15 42.61 141.64 C42.08 142.09 41.55 142.54 41 143 C39.96 143.78 38.93 144.56 37.86 145.36 C36.82 146.05 35.77 146.73 34.69 147.44 C33.62 148.06 32.55 148.68 31.45 149.31 C30.31 149.87 29.17 150.43 28 151 C27.35 151.26 26.71 151.53 26.05 151.8 C25.38 152.05 24.71 152.3 24.02 152.56 C22.68 153.03 21.34 153.49 20 153.94 C18.17 154.51 18.17 154.51 16.31 155.09 C14.44 155.61 12.56 156.12 10.68 156.61 C9.8 156.74 8.91 156.87 8 157 C7.3 157.05 6.61 157.09 5.89 157.14 C5.08 157.17 4.28 157.2 3.45 157.24 C1.67 157.28 -0.1 157.3 -1.88 157.31 C-3.77 157.32 -5.66 157.3 -7.55 157.28 C-8.48 157.24 -9.41 157.21 -10.36 157.18 C-11.23 157.12 -12.1 157.06 -13 157 C-14.11 156.85 -14.11 156.85 -15.25 156.7 C-16.26 156.51 -16.26 156.51 -17.29 156.32 C-18.54 156.01 -19.78 155.7 -21.06 155.38 C-22.24 155.01 -23.42 154.64 -24.64 154.26 C-25.75 153.84 -26.86 153.43 -28 153 C-29.6 152.35 -29.6 152.35 -31.23 151.68 C-32.25 151.21 -33.27 150.74 -34.31 150.25 C-35.27 149.74 -36.23 149.23 -37.22 148.7 C-38.14 148.14 -39.05 147.58 -40 147 C-40.9 146.37 -41.79 145.73 -42.72 145.08 C-44 144.08 -44 144.08 -45.31 143.06 C-46.12 142.38 -46.93 141.69 -47.77 140.98 C-48.5 140.33 -49.24 139.67 -50 139 C-50.61 138.48 -51.23 137.96 -51.86 137.43 C-52.42 136.91 -52.98 136.4 -53.56 135.88 C-54.38 135.02 -54.38 135.02 -55.21 134.15 C-55.8 133.44 -56.39 132.73 -57 132 C-58.12 130.5 -58.12 130.5 -59.25 128.98 C-59.84 128.14 -59.84 128.14 -60.44 127.28 C-61.23 126.09 -62.01 124.9 -62.79 123.69 C-63.35 122.78 -63.35 122.78 -63.91 121.84 C-64.27 121.22 -64.63 120.59 -65 119.95 C-65.49 118.98 -65.49 118.98 -66 118 C-66.29 117.34 -66.57 116.67 -66.87 115.99 C-67.13 115.32 -67.38 114.66 -67.65 113.97 C-67.88 113.31 -68.12 112.64 -68.36 111.96 C-68.97 110.1 -69.55 108.24 -70.12 106.38 C-70.41 105.26 -70.7 104.15 -71 103 C-71.2 102.06 -71.4 101.12 -71.61 100.15 C-71.74 99.11 -71.87 98.07 -72 97 C-72.05 96.31 -72.09 95.61 -72.14 94.9 C-72.17 94.13 -72.2 93.36 -72.24 92.57 C-72.28 90.9 -72.3 89.23 -72.31 87.56 C-72.32 85.77 -72.3 83.98 -72.28 82.19 C-72.24 81.31 -72.21 80.43 -72.18 79.52 C-72.09 78.27 -72.09 78.27 -72 77 C-71.85 75.91 -71.85 75.91 -71.7 74.8 C-71.57 74.13 -71.45 73.47 -71.32 72.78 C-71.01 71.53 -70.7 70.28 -70.38 69 C-70.01 67.81 -69.64 66.62 -69.26 65.4 C-68.85 64.28 -68.43 63.16 -68 62 C-67.55 60.92 -67.11 59.84 -66.64 58.73 C-66.16 57.7 -65.68 56.68 -65.19 55.62 C-64.67 54.66 -64.16 53.7 -63.62 52.71 C-63.09 51.81 -62.55 50.92 -62 50 C-61.2 48.8 -61.2 48.8 -60.38 47.57 C-59.82 46.83 -59.26 46.08 -58.69 45.31 C-58.1 44.6 -57.5 43.88 -56.89 43.15 C-55.96 42.08 -55.96 42.08 -55 41 C-54.34 40.25 -53.69 39.5 -53.01 38.73 C-52.31 37.97 -51.6 37.22 -50.88 36.44 C-50.11 35.7 -49.35 34.96 -48.57 34.2 C-47.72 33.47 -46.87 32.75 -46 32 C-45.02 31.28 -44.04 30.57 -43.03 29.83 C-41.97 29.14 -40.91 28.46 -39.81 27.75 C-38.71 27.1 -37.62 26.46 -36.48 25.79 C-34.76 24.91 -34.76 24.91 -33 24 C-32.39 23.73 -31.78 23.46 -31.15 23.19 C-30.53 22.94 -29.91 22.68 -29.27 22.43 C-28.04 21.98 -26.82 21.53 -25.56 21.06 C-24.45 20.68 -23.34 20.3 -22.19 19.91 C-21.14 19.61 -20.09 19.31 -19 19 C-18.09 18.8 -17.19 18.6 -16.25 18.39 C-15.18 18.26 -14.11 18.13 -13 18 C-12.23 17.96 -11.46 17.92 -10.66 17.88 C-8.86 17.82 -7.06 17.78 -5.26 17.76 C-2.31 17.75 0.63 17.76 3.58 17.8 C4.99 17.84 4.99 17.84 6.44 17.88 C7.28 17.92 8.13 17.96 9 18 C10.76 18.19 10.76 18.19 12.55 18.39 C13.48 18.59 14.41 18.79 15.38 19 C16.27 19.28 17.16 19.55 18.08 19.84 C19.04 20.22 20.01 20.6 21 21 C22.3 21.55 23.59 22.1 24.89 22.66 C25.57 22.98 26.26 23.29 26.96 23.61 C27.65 23.95 28.35 24.28 29.06 24.62 C30.09 25.15 30.09 25.15 31.13 25.68 C31.8 26.04 32.47 26.4 33.16 26.77 C33.81 27.13 34.47 27.5 35.14 27.88 C35.75 28.25 36.37 28.62 37 29 C38.05 29.72 39.1 30.43 40.18 31.17 C41.11 31.9 42.04 32.63 43 33.38 C43.86 34.13 44.72 34.89 45.61 35.67 C46.79 36.82 46.79 36.82 48 38 C48.73 38.76 49.45 39.52 50.2 40.3 C50.88 41.09 51.55 41.88 52.25 42.69 C52.87 43.5 53.5 44.32 54.14 45.16 C54.75 46.1 55.37 47.03 56 48 C56.34 48.6 56.67 49.19 57.02 49.81 C57.7 51.1 58.38 52.39 59.04 53.69 C59.67 54.97 60.3 56.25 60.92 57.53 C61.62 59.02 62.31 60.51 63 62 C62.91 61.35 62.83 60.69 62.74 60.02 C62.6 59.1 62.46 58.19 62.31 57.25 C62.12 56.24 61.94 55.24 61.74 54.2 C61.5 53.14 61.25 52.09 61 51 C60.54 49.52 60.54 49.52 60.07 48.02 C59.7 47.04 59.32 46.07 58.94 45.06 C58.28 43.57 58.28 43.57 57.61 42.05 C57.08 41.04 56.55 40.04 56 39 C55.34 37.96 54.67 36.92 53.99 35.86 C53.25 34.83 52.51 33.81 51.75 32.75 C50.97 31.76 50.19 30.77 49.38 29.75 C48.59 28.85 47.81 27.94 47 27 C46.29 26.25 45.57 25.49 44.84 24.71 C44.13 24.05 43.42 23.38 42.69 22.69 C41.94 22.07 41.2 21.45 40.44 20.81 C39.63 20.21 38.83 19.61 38 19 C37.07 18.37 36.14 17.74 35.19 17.1 C34.2 16.49 33.21 15.88 32.19 15.25 C31.18 14.69 30.17 14.12 29.13 13.54 C28.1 13.03 27.07 12.52 26 12 C24.92 11.57 23.85 11.15 22.74 10.71 C21.69 10.35 20.64 9.99 19.56 9.62 C18.14 9.18 18.14 9.18 16.69 8.73 C15.04 8.28 13.38 7.84 11.73 7.4 C10.38 7.2 10.38 7.2 9 7 C8.32 6.98 7.65 6.96 6.95 6.94 C4.57 6.94 2.19 6.96 -0.19 7 C-1.81 7.03 -3.42 7.05 -5.04 7.06 C-6.35 7.04 -7.65 7.02 -9 7 C-9.66 6.67 -10.32 6.34 -11 6 C-10.67 4.35 -10.34 2.7 -10 1 C-8.7 0.79 -7.4 0.59 -6.06 0.38 C-4.7 0.24 -4.7 0.24 -3.3 0.11 C-2.21 0.07 -1.12 0.04 0 0 Z M-10 23 C-10.68 23.1 -11.35 23.2 -12.05 23.3 C-12.73 23.42 -13.41 23.54 -14.11 23.66 C-14.78 23.8 -15.46 23.94 -16.16 24.08 C-16.83 24.24 -17.5 24.4 -18.19 24.56 C-18.85 24.74 -19.51 24.91 -20.2 25.09 C-20.85 25.29 -21.5 25.48 -22.18 25.68 C-22.82 25.89 -23.46 26.1 -24.12 26.32 C-25.05 26.65 -25.05 26.65 -26 27 C-27.17 27.5 -28.34 28 -29.54 28.51 C-30.64 29.06 -31.74 29.62 -32.88 30.19 C-33.92 30.79 -34.96 31.39 -36.03 32.02 C-37.01 32.67 -37.99 33.33 -39 34 C-40.38 35.08 -40.38 35.08 -41.78 36.17 C-42.64 36.92 -43.49 37.67 -44.38 38.44 C-45.17 39.21 -45.97 39.98 -46.8 40.77 C-47.52 41.51 -48.25 42.24 -49 43 C-49.62 43.59 -50.25 44.18 -50.89 44.79 C-51.46 45.37 -52.04 45.96 -52.62 46.56 C-53.17 47.21 -53.71 47.86 -54.27 48.53 C-54.84 49.34 -55.41 50.16 -56 51 C-56.51 51.83 -56.51 51.83 -57.02 52.68 C-57.38 53.31 -57.74 53.93 -58.1 54.57 C-58.46 55.22 -58.81 55.88 -59.18 56.56 C-59.53 57.24 -59.89 57.92 -60.25 58.62 C-60.59 59.32 -60.93 60.01 -61.28 60.73 C-61.61 61.42 -61.93 62.12 -62.27 62.84 C-62.57 63.54 -62.87 64.23 -63.19 64.95 C-63.45 65.63 -63.72 66.3 -64 67 C-64.39 68.22 -64.77 69.44 -65.17 70.69 C-65.45 71.85 -65.72 73 -66 74.19 C-66.2 75.33 -66.39 76.47 -66.6 77.64 C-66.73 78.75 -66.86 79.86 -67 81 C-67.1 82.06 -67.2 83.11 -67.31 84.2 C-67.35 85.25 -67.39 86.3 -67.44 87.38 C-67.41 88.44 -67.38 89.5 -67.34 90.59 C-67.23 91.72 -67.12 92.84 -67 94 C-66.78 95.28 -66.57 96.56 -66.34 97.88 C-66.2 98.54 -66.06 99.21 -65.92 99.9 C-65.76 100.57 -65.6 101.24 -65.44 101.94 C-65.26 102.61 -65.08 103.28 -64.9 103.98 C-64.71 104.65 -64.51 105.32 -64.31 106.01 C-64.1 106.68 -63.89 107.34 -63.68 108.03 C-63.45 108.68 -63.23 109.33 -63 110 C-62.53 111.22 -62.05 112.45 -61.56 113.71 C-61.03 114.88 -60.49 116.05 -59.94 117.25 C-59.33 118.38 -58.73 119.51 -58.11 120.68 C-57.41 121.78 -56.72 122.87 -56 124 C-55.6 124.54 -55.2 125.08 -54.78 125.64 C-54.36 126.17 -53.93 126.71 -53.49 127.26 C-53.04 127.78 -52.6 128.3 -52.14 128.84 C-51.68 129.34 -51.22 129.85 -50.75 130.38 C-50.28 130.87 -49.81 131.36 -49.32 131.87 C-48.85 132.35 -48.37 132.82 -47.88 133.31 C-46.45 134.64 -46.45 134.64 -45 136 C-44.12 136.76 -43.24 137.53 -42.34 138.31 C-41.46 138.99 -40.59 139.67 -39.69 140.38 C-38.78 140.99 -37.88 141.61 -36.95 142.25 C-35.98 142.83 -35 143.41 -34 144 C-32.31 144.87 -32.31 144.87 -30.58 145.75 C-29.4 146.29 -28.22 146.82 -27 147.38 C-25.81 147.85 -24.63 148.32 -23.41 148.81 C-22.28 149.2 -21.16 149.6 -20 150 C-19.06 150.27 -18.12 150.54 -17.16 150.81 C-15.84 151.09 -15.84 151.09 -14.5 151.38 C-13.62 151.5 -12.73 151.62 -11.82 151.75 C-9.81 151.93 -7.79 152.09 -5.77 152.25 C-4.63 152.29 -3.49 152.33 -2.31 152.38 C-1.13 152.35 0.04 152.33 1.26 152.31 C2.49 152.21 3.73 152.1 5 152 C5.65 151.9 6.3 151.81 6.98 151.71 C7.64 151.59 8.31 151.47 8.99 151.35 C9.66 151.21 10.33 151.07 11.02 150.92 C11.7 150.76 12.37 150.6 13.06 150.44 C13.73 150.26 14.4 150.09 15.09 149.9 C15.76 149.71 16.42 149.52 17.11 149.32 C17.76 149.11 18.41 148.9 19.08 148.68 C19.72 148.46 20.35 148.23 21 148 C22.17 147.5 23.34 147 24.55 146.49 C25.65 145.94 26.74 145.38 27.88 144.81 C28.92 144.21 29.96 143.61 31.03 142.98 C32.01 142.33 32.99 141.67 34 141 C34.92 140.28 35.84 139.57 36.78 138.83 C37.64 138.08 38.49 137.33 39.38 136.56 C40.17 135.79 40.97 135.02 41.8 134.23 C42.89 133.12 42.89 133.12 44 132 C44.62 131.41 45.25 130.82 45.89 130.21 C46.75 129.33 46.75 129.33 47.62 128.44 C48.17 127.79 48.71 127.15 49.27 126.48 C50.13 125.25 50.13 125.25 51 124 C51.34 123.43 51.68 122.87 52.02 122.28 C52.38 121.65 52.74 121.02 53.1 120.36 C53.46 119.7 53.81 119.03 54.18 118.34 C54.53 117.65 54.89 116.96 55.25 116.25 C55.59 115.55 55.93 114.85 56.28 114.12 C56.77 113.08 56.77 113.08 57.27 112.01 C57.57 111.33 57.87 110.64 58.19 109.94 C58.45 109.3 58.72 108.66 59 108 C59.39 106.98 59.77 105.95 60.17 104.89 C60.45 103.96 60.72 103.03 61 102.06 C61.2 101.11 61.39 100.16 61.6 99.18 C61.73 98.13 61.86 97.08 62 96 C62.06 95.36 62.11 94.73 62.17 94.08 C62.22 93.39 62.26 92.71 62.31 92.01 C62.35 90.95 62.35 90.95 62.4 89.87 C62.41 89.15 62.42 88.43 62.44 87.69 C62.43 86.97 62.43 86.24 62.42 85.5 C62.4 84.78 62.37 84.06 62.35 83.31 C62.3 82.59 62.26 81.87 62.21 81.13 C62.14 80.43 62.07 79.73 62 79 C61.9 78.33 61.8 77.66 61.69 76.97 C61.56 76.32 61.44 75.67 61.31 75 C61 73.74 60.69 72.48 60.38 71.19 C59.82 69.36 59.82 69.36 59.25 67.5 C58.84 66.34 58.43 65.19 58 64 C57.36 62.41 57.36 62.41 56.71 60.79 C56.25 59.78 55.79 58.78 55.31 57.75 C54.8 56.79 54.28 55.83 53.75 54.84 C53.17 53.9 52.59 52.97 52 52 C51.35 51.05 50.7 50.11 50.04 49.13 C49.32 48.2 48.61 47.27 47.88 46.31 C47.11 45.42 46.34 44.53 45.55 43.61 C44.71 42.75 43.87 41.89 43 41 C42.04 40.17 41.09 39.34 40.11 38.49 C38.6 37.32 38.6 37.32 37.06 36.12 C36.04 35.4 35.02 34.68 33.96 33.93 C32.5 32.98 32.5 32.98 31 32 C30.19 31.5 29.38 30.99 28.54 30.47 C27.76 30.05 26.99 29.62 26.19 29.19 C25.38 28.82 24.57 28.45 23.74 28.06 C22.83 27.71 21.93 27.36 21 27 C19.88 26.61 18.76 26.22 17.61 25.81 C16.37 25.44 15.14 25.07 13.88 24.69 C13.24 24.52 12.6 24.36 11.95 24.18 C11.3 24.03 10.65 23.88 9.99 23.73 C9 23.53 9 23.53 8 23.33 C7.34 23.22 6.68 23.11 6 23 C4.69 22.87 3.39 22.74 2.04 22.61 C0.07 22.56 0.07 22.56 -1.94 22.5 C-2.6 22.51 -3.26 22.52 -3.94 22.53 C-4.94 22.57 -4.94 22.57 -5.95 22.62 C-6.62 22.67 -7.28 22.72 -7.97 22.78 C-8.64 22.85 -9.31 22.92 -10 23 Z " fill="#FFFFFF" transform="translate(97,19)"/>
<path d="M0 0 C1.46 -0.13 1.46 -0.13 2.96 -0.26 C4 -0.3 5.05 -0.34 6.12 -0.38 C7.22 -0.35 8.31 -0.33 9.44 -0.31 C10.61 -0.21 11.79 -0.11 13 0 C13.65 0.1 14.3 0.2 14.96 0.3 C15.97 0.49 15.97 0.49 17 0.69 C17.68 0.83 18.36 0.98 19.06 1.13 C19.74 1.29 20.42 1.46 21.12 1.62 C21.81 1.8 22.49 1.98 23.19 2.17 C23.85 2.36 24.52 2.55 25.21 2.75 C26.46 3.16 27.71 3.58 29 4 C30.52 4.62 30.52 4.62 32.07 5.25 C32.98 5.7 33.88 6.16 34.81 6.62 C35.67 7.14 36.53 7.65 37.41 8.18 C38.26 8.78 39.12 9.38 40 10 C41.42 11.1 41.42 11.1 42.87 12.22 C44.3 13.44 44.3 13.44 45.75 14.69 C46.65 15.55 47.56 16.41 48.49 17.29 C49.32 18.19 50.15 19.08 51 20 C51.69 20.9 52.39 21.81 53.11 22.74 C54.01 24.11 54.01 24.11 54.94 25.5 C55.48 26.42 56.02 27.33 56.57 28.28 C57.04 29.18 57.51 30.07 58 31 C58.41 31.85 58.82 32.69 59.24 33.57 C59.6 34.39 59.95 35.21 60.31 36.06 C60.76 37.29 60.76 37.29 61.22 38.55 C61.48 39.36 61.74 40.17 62 41 C62.23 41.79 62.45 42.58 62.68 43.39 C62.87 44.19 63.06 44.99 63.25 45.81 C63.39 46.64 63.53 47.47 63.68 48.32 C63.79 49.21 63.89 50.09 64 51 C64.09 51.98 64.17 52.95 64.26 53.96 C64.3 55 64.34 56.05 64.38 57.12 C64.34 58.77 64.34 58.77 64.31 60.44 C64.16 62.2 64.16 62.2 64 64 C63.9 64.64 63.81 65.29 63.71 65.95 C63.53 66.95 63.53 66.95 63.35 67.96 C63.21 68.64 63.07 69.31 62.92 70.01 C62.76 70.69 62.6 71.36 62.44 72.06 C62.26 72.74 62.09 73.42 61.91 74.11 C61.71 74.78 61.52 75.45 61.32 76.13 C61.11 76.79 60.9 77.44 60.69 78.11 C60.35 79.05 60.35 79.05 60 80 C59.49 81.11 58.98 82.22 58.46 83.37 C57.89 84.38 57.33 85.39 56.75 86.44 C56.14 87.39 55.53 88.35 54.89 89.33 C53.69 91.03 52.48 92.73 51.26 94.42 C50.66 95.17 50.06 95.92 49.44 96.69 C48.44 97.75 48.44 97.75 47.42 98.84 C46.22 99.91 46.22 99.91 45 101 C44.5 101.39 43.99 101.79 43.47 102.19 C42.92 102.6 42.37 103 41.8 103.41 C40.94 104.01 40.94 104.01 40.05 104.62 C39.46 105.02 38.86 105.41 38.25 105.81 C37.35 106.38 37.35 106.38 36.43 106.96 C35.83 107.32 35.22 107.68 34.6 108.05 C34 108.39 33.4 108.73 32.78 109.08 C32.19 109.38 31.6 109.69 31 110 C29.91 110.47 28.83 110.94 27.71 111.42 C26.18 111.95 26.18 111.95 24.62 112.5 C23.65 112.78 22.68 113.07 21.68 113.36 C20.79 113.57 19.91 113.78 19 114 C18.27 114.15 17.54 114.3 16.79 114.45 C16.14 114.55 15.49 114.65 14.81 114.75 C13.55 114.83 12.3 114.92 11 115 C10.35 115.05 9.71 115.1 9.04 115.16 C8.35 115.19 7.65 115.22 6.94 115.25 C6.19 115.24 5.44 115.22 4.67 115.21 C3.79 115.14 2.91 115.07 2 115 C0.85 114.85 -0.3 114.7 -1.48 114.54 C-2.75 114.32 -4.01 114.1 -5.31 113.88 C-7.25 113.46 -7.25 113.46 -9.22 113.04 C-11.09 112.52 -11.09 112.52 -13 112 C-14.62 111.38 -14.62 111.38 -16.28 110.75 C-17.78 110.04 -17.78 110.04 -19.31 109.31 C-20.27 108.79 -21.23 108.26 -22.22 107.72 C-23.6 106.87 -23.6 106.87 -25 106 C-25.89 105.41 -26.77 104.82 -27.68 104.22 C-28.95 103.28 -28.95 103.28 -30.25 102.31 C-31.05 101.64 -31.86 100.96 -32.68 100.26 C-33.83 99.14 -33.83 99.14 -35 98 C-36.1 96.71 -36.1 96.71 -37.22 95.39 C-37.91 94.48 -38.6 93.57 -39.31 92.62 C-39.95 91.68 -40.59 90.74 -41.25 89.77 C-42.34 88.05 -43.42 86.33 -44.5 84.6 C-44.93 83.83 -45.37 83.05 -45.81 82.25 C-46.19 81.44 -46.58 80.63 -46.97 79.8 C-47.48 78.41 -47.48 78.41 -48 77 C-48.32 75.8 -48.64 74.59 -48.97 73.36 C-49.11 72.71 -49.26 72.07 -49.41 71.41 C-49.54 70.76 -49.68 70.11 -49.81 69.44 C-50.04 68.15 -50.26 66.86 -50.5 65.53 C-50.66 64.36 -50.83 63.2 -51 62 C-51.09 61.2 -51.19 60.39 -51.29 59.57 C-51.31 58.88 -51.34 58.2 -51.38 57.5 C-51.34 56.82 -51.31 56.13 -51.28 55.43 C-51.19 54.63 -51.1 53.82 -51 53 C-50.85 51.86 -50.69 50.72 -50.53 49.54 C-50.31 48.27 -50.1 47 -49.88 45.69 C-49.74 45.04 -49.61 44.39 -49.48 43.73 C-49.33 43.08 -49.18 42.44 -49.03 41.78 C-48.69 40.53 -48.35 39.28 -48 38 C-47.6 36.93 -47.2 35.86 -46.78 34.75 C-46.32 33.76 -45.85 32.77 -45.38 31.75 C-44.85 30.79 -44.32 29.83 -43.78 28.84 C-42.9 27.43 -42.9 27.43 -42 26 C-41.36 25.05 -40.72 24.11 -40.07 23.13 C-39.36 22.2 -38.66 21.27 -37.94 20.31 C-37.17 19.42 -36.41 18.53 -35.62 17.61 C-34.75 16.75 -33.89 15.89 -33 15 C-32.5 14.58 -32 14.15 -31.49 13.71 C-30.96 13.3 -30.43 12.88 -29.88 12.45 C-29.34 12.05 -28.8 11.65 -28.24 11.24 C-27.68 10.85 -27.13 10.46 -26.56 10.06 C-25.73 9.51 -25.73 9.51 -24.88 8.94 C-24.32 8.59 -23.77 8.24 -23.2 7.88 C-21.62 6.95 -21.62 6.95 -20 6 C-19.11 5.55 -18.22 5.09 -17.3 4.62 C-16.48 4.27 -15.66 3.92 -14.81 3.56 C-13.61 3.14 -13.61 3.14 -12.38 2.71 C-10.8 2.24 -9.21 1.78 -7.62 1.32 C-6.82 1.13 -6.01 0.95 -5.19 0.75 C-4.36 0.61 -3.53 0.47 -2.68 0.32 C-1.79 0.21 -0.91 0.11 0 0 Z M5 5 C3.08 5.18 3.08 5.18 1.12 5.36 C0.46 5.46 -0.21 5.55 -0.89 5.65 C-1.9 5.82 -1.9 5.82 -2.94 6 C-3.61 6.13 -4.29 6.26 -4.99 6.4 C-5.66 6.55 -6.33 6.7 -7.03 6.86 C-8.02 7.12 -8.02 7.12 -9.04 7.39 C-10.01 7.69 -10.01 7.69 -11 8 C-12.2 8.5 -13.4 9 -14.63 9.52 C-16.3 10.37 -16.3 10.37 -18 11.25 C-19.04 11.87 -20.09 12.48 -21.16 13.12 C-22.1 13.74 -23.04 14.36 -24 15 C-25.16 15.82 -25.16 15.82 -26.34 16.66 C-27.35 17.48 -27.35 17.48 -28.38 18.31 C-28.99 18.89 -29.6 19.47 -30.23 20.07 C-30.81 20.71 -31.4 21.34 -32 22 C-32.61 22.74 -33.23 23.48 -33.86 24.24 C-34.77 25.45 -34.77 25.45 -35.69 26.69 C-36.53 27.95 -36.53 27.95 -37.39 29.24 C-37.92 30.15 -38.45 31.06 -39 32 C-39.5 33.05 -40 34.09 -40.51 35.17 C-40.96 36.23 -41.41 37.28 -41.88 38.38 C-42.26 39.35 -42.65 40.33 -43.05 41.34 C-43.37 42.22 -43.68 43.09 -44 44 C-44.18 44.63 -44.36 45.26 -44.54 45.91 C-44.69 46.6 -44.85 47.29 -45 48 C-45.06 48.66 -45.12 49.33 -45.18 50.01 C-45.22 51.5 -45.26 53 -45.29 54.5 C-45.31 56.19 -45.31 57.88 -45.32 59.58 C-45.3 60.43 -45.29 61.28 -45.28 62.15 C-45.24 62.98 -45.21 63.82 -45.18 64.68 C-45.12 65.44 -45.06 66.21 -45 67 C-44.66 68.77 -44.66 68.77 -44.32 70.57 C-43.85 72.05 -43.85 72.05 -43.38 73.56 C-42.83 74.95 -42.83 74.95 -42.27 76.36 C-41.85 77.23 -41.43 78.1 -41 79 C-40.53 79.9 -40.06 80.81 -39.57 81.74 C-39.08 82.61 -38.58 83.48 -38.06 84.38 C-37.54 85.18 -37.02 85.99 -36.48 86.83 C-35.27 88.6 -34.04 90.36 -32.81 92.12 C-32.41 92.58 -32 93.04 -31.59 93.5 C-31.06 94 -30.54 94.49 -30 95 C-29.23 95.65 -28.46 96.3 -27.66 96.96 C-26.76 97.66 -25.86 98.35 -24.94 99.06 C-23.99 99.74 -23.03 100.41 -22.05 101.1 C-21.05 101.73 -20.04 102.35 -19 103 C-17.4 103.79 -17.4 103.79 -15.76 104.59 C-14.7 105.03 -13.65 105.48 -12.56 105.94 C-11.59 106.32 -10.63 106.7 -9.63 107.09 C-8.76 107.39 -7.89 107.69 -7 108 C-6.37 108.18 -5.74 108.36 -5.09 108.54 C-4.4 108.69 -3.71 108.84 -3 109 C-2.34 109.06 -1.67 109.12 -0.99 109.18 C0.5 109.22 2 109.26 3.5 109.29 C5.19 109.31 6.88 109.31 8.58 109.32 C9.43 109.3 10.28 109.29 11.15 109.28 C11.98 109.24 12.82 109.21 13.68 109.18 C14.44 109.12 15.21 109.06 16 109 C17.77 108.66 17.77 108.66 19.57 108.32 C20.56 108.01 21.54 107.7 22.56 107.38 C23.95 106.82 23.95 106.82 25.36 106.26 C26.23 105.85 27.1 105.43 28 105 C28.88 104.55 29.76 104.11 30.67 103.64 C31.52 103.16 32.37 102.68 33.25 102.19 C34.06 101.67 34.86 101.15 35.69 100.62 C37.19 99.57 38.67 98.51 40.15 97.45 C40.82 96.91 41.5 96.37 42.19 95.81 C42.83 95.23 43.46 94.64 44.12 94.04 C44.74 93.37 45.36 92.69 46 92 C46.63 91.15 47.26 90.3 47.91 89.43 C48.52 88.5 49.12 87.58 49.75 86.62 C50.32 85.68 50.88 84.73 51.46 83.75 C52.4 82.08 53.33 80.4 54.25 78.71 C54.6 78 54.95 77.29 55.31 76.56 C55.61 75.84 55.91 75.11 56.22 74.36 C56.48 73.58 56.73 72.8 57 72 C57.24 71.09 57.47 70.17 57.72 69.23 C57.91 68.25 58.11 67.26 58.31 66.25 C58.45 65.23 58.6 64.21 58.74 63.16 C58.83 62.12 58.91 61.08 59 60 C59.02 58.96 59.05 57.91 59.07 56.84 C59.03 55.78 58.98 54.72 58.94 53.62 C58.82 52.55 58.71 51.47 58.59 50.36 C58.4 49.25 58.2 48.14 58 47 C57.7 45.83 57.4 44.66 57.09 43.45 C56.52 41.68 56.52 41.68 55.94 39.88 C55.49 38.71 55.04 37.55 54.57 36.36 C54.05 35.25 53.54 34.14 53 33 C52.41 31.99 51.82 30.99 51.21 29.95 C50.56 29.02 49.92 28.09 49.25 27.12 C48.56 26.25 47.87 25.37 47.16 24.46 C46.44 23.65 45.73 22.84 45 22 C44.31 21.26 43.62 20.52 42.91 19.75 C42.19 19.07 41.48 18.39 40.75 17.69 C40 17.06 39.26 16.43 38.49 15.79 C37.67 15.2 36.85 14.61 36 14 C35.01 13.42 34.03 12.84 33.01 12.25 C31.46 11.44 31.46 11.44 29.88 10.62 C28.85 10.15 27.83 9.67 26.77 9.18 C25.4 8.6 25.4 8.6 24 8 C22.84 7.57 21.69 7.13 20.5 6.69 C19.34 6.46 18.19 6.23 17 6 C15.75 5.78 15.75 5.78 14.47 5.56 C13.51 5.44 12.55 5.31 11.56 5.19 C10.02 5.09 10.02 5.09 8.44 4.98 C7.3 4.99 6.17 4.99 5 5 Z " fill="#FFFFFF" transform="translate(88,49)"/>
<path d="M0 0 C1.07 -0.1 2.14 -0.21 3.25 -0.31 C5.11 -0.16 5.11 -0.16 7 0 C8.03 0.34 8.03 0.34 9.09 0.68 C10.13 1.15 10.13 1.15 11.19 1.62 C11.85 1.99 12.52 2.36 13.2 2.74 C13.8 3.16 14.39 3.57 15 4 C15.8 4.91 16.61 5.81 17.44 6.75 C17.95 7.82 18.47 8.89 19 10 C19.17 10.63 19.35 11.27 19.53 11.92 C19.64 12.58 19.76 13.25 19.88 13.94 C19.93 14.61 19.98 15.29 20.04 15.98 C20.02 16.65 20.01 17.31 20 18 C19.77 19.22 19.55 20.43 19.31 21.69 C18.88 22.78 18.45 23.87 18 25 C17.42 25.91 16.84 26.81 16.25 27.75 C15.51 28.49 14.77 29.23 14 30 C12.67 30.9 12.67 30.9 11.31 31.81 C9.67 32.4 9.67 32.4 8 33 C6.92 33.14 6.92 33.14 5.82 33.29 C4.67 33.33 4.67 33.33 3.5 33.38 C2.73 33.34 1.96 33.31 1.17 33.28 C0.1 33.14 0.1 33.14 -1 33 C-2.07 32.63 -3.14 32.26 -4.25 31.88 C-5.16 31.26 -6.06 30.64 -7 30 C-7.48 29.52 -7.95 29.03 -8.44 28.54 C-8.89 28.01 -9.35 27.48 -9.81 26.94 C-10.53 25.97 -11.26 25 -12 24 C-12.33 23.34 -12.66 22.68 -13 22 C-13.08 21.21 -13.16 20.42 -13.24 19.61 C-13.26 18.67 -13.29 17.72 -13.31 16.75 C-13.3 15.76 -13.29 14.78 -13.28 13.76 C-13.19 12.85 -13.1 11.94 -13 11 C-12.44 9.87 -11.89 8.73 -11.31 7.56 C-10.55 6.72 -9.79 5.87 -9 5 C-8.17 4.24 -7.35 3.47 -6.5 2.69 C-5.67 2.13 -4.85 1.57 -4 1 C-3.38 0.75 -2.76 0.5 -2.12 0.25 C-1.07 0.13 -1.07 0.13 0 0 Z M3 5 C2.34 5.66 1.68 6.32 1 7 C0.84 7.83 0.68 8.65 0.52 9.5 C0.33 11.6 0.17 13.7 0.02 15.8 C0.01 16.86 0.01 17.91 0 19 C0.13 19.92 0.26 20.84 0.39 21.79 C0.57 22.6 0.75 23.41 0.94 24.25 C1.46 26.11 1.46 26.11 2 28 C2.99 28 3.98 28 5 28 C5 20.74 5 13.48 5 6 C4.34 5.67 3.68 5.34 3 5 Z M-5 9 C-5.54 9.66 -6.07 10.32 -6.62 11 C-7.08 11.99 -7.53 12.98 -8 14 C-8.04 15.01 -8.04 15.01 -8.08 16.04 C-8.01 16.75 -7.94 17.46 -7.88 18.19 C-7.59 19.45 -7.3 20.7 -7 22 C-5.52 22.99 -5.52 22.99 -4 24 C-4 19.05 -4 14.1 -4 9 C-4.33 9 -4.66 9 -5 9 Z M9 9 C8.86 9.85 8.86 9.85 8.71 10.72 C8.6 11.49 8.49 12.27 8.38 13.06 C8.28 13.88 8.19 14.69 8.09 15.53 C8.06 16.35 8.03 17.16 8 18 C8.13 18.71 8.25 19.42 8.38 20.16 C8.56 20.79 8.75 21.41 8.94 22.06 C9.29 23.03 9.64 24 10 25 C10.47 24.55 10.95 24.09 11.44 23.62 C11.95 23.09 12.47 22.55 13 22 C13.33 21.34 13.66 20.68 14 20 C14.08 18.89 14.16 17.77 14.25 16.62 C14.13 14.83 14.13 14.83 14 13 C13.55 12.2 13.09 11.39 12.62 10.56 C12.09 10.05 11.55 9.53 11 9 C10.34 9 9.68 9 9 9 Z " fill="#FFFFFF" transform="translate(60,90)"/>
<path d="M0 0 C0.83 0.05 1.65 0.11 2.5 0.16 C3.33 0.32 4.15 0.47 5 0.62 C6.3 0.92 6.3 0.92 7.63 1.21 C8.41 1.47 9.19 1.73 10 2 C11.45 3.11 11.45 3.11 12.94 4.25 C13.96 5.61 13.96 5.61 15 7 C15.9 8.39 15.9 8.39 16.81 9.81 C17.4 11.39 17.4 11.39 18 13 C18.09 13.64 18.19 14.29 18.29 14.95 C18.31 15.63 18.34 16.3 18.38 17 C18.33 18.02 18.33 18.02 18.28 19.05 C18.14 20.02 18.14 20.02 18 21 C17.63 22.05 17.26 23.1 16.88 24.19 C16.26 25.12 15.64 26.04 15 27 C14.52 27.48 14.03 27.95 13.54 28.45 C13.01 28.9 12.48 29.35 11.94 29.81 C10.97 30.53 10 31.26 9 32 C8.01 32.5 8.01 32.5 7 33 C6.21 33.08 5.42 33.16 4.61 33.24 C3.67 33.26 2.72 33.29 1.75 33.31 C0.27 33.3 0.27 33.3 -1.24 33.28 C-2.61 33.14 -2.61 33.14 -4 33 C-5.13 32.44 -6.27 31.89 -7.44 31.31 C-8.28 30.55 -9.13 29.79 -10 29 C-10.76 28.15 -11.53 27.31 -12.31 26.44 C-12.87 25.63 -13.43 24.83 -14 24 C-14.33 23.01 -14.66 22.02 -15 21 C-15.1 19.78 -15.21 18.57 -15.31 17.31 C-15.3 16.61 -15.29 15.91 -15.28 15.19 C-15.19 14.47 -15.09 13.75 -15 13 C-14.77 12.29 -14.55 11.57 -14.32 10.84 C-14.01 10.15 -13.7 9.46 -13.38 8.75 C-13.01 8.09 -12.65 7.44 -12.27 6.76 C-11.64 5.89 -11.64 5.89 -11 5 C-10.03 4.2 -9.06 3.39 -8.06 2.56 C-6.55 1.79 -6.55 1.79 -5 1 C-4.21 0.79 -3.43 0.58 -2.62 0.36 C-1.76 0.24 -0.89 0.12 0 0 Z M-2 6 C-2.97 6.5 -3.94 6.99 -4.94 7.5 C-5.62 8 -6.3 8.49 -7 9 C-6.67 9.66 -6.34 10.32 -6 11 C-4.97 11.24 -4.97 11.24 -3.93 11.48 C-2.15 11.67 -0.37 11.83 1.41 11.98 C2.69 11.99 2.69 11.99 4 12 C5.2 11.69 6.39 11.38 7.62 11.06 C8.41 10.71 9.19 10.36 10 10 C9.32 9.34 8.64 8.68 7.94 8 C6.48 7.01 6.48 7.01 5 6 C3.84 5.86 2.69 5.71 1.5 5.56 C0.34 5.71 -0.81 5.85 -2 6 Z M-10 15 C-10 15.99 -10 16.98 -10 18 C-9.39 18.16 -8.79 18.31 -8.16 18.47 C-6.91 18.76 -6.91 18.76 -5.62 19.06 C-4.72 19.25 -3.81 19.43 -2.88 19.62 C-1.93 19.74 -0.98 19.87 0 20 C0.92 19.98 1.84 19.96 2.79 19.95 C3.66 19.86 4.54 19.78 5.44 19.69 C6.24 19.59 7.04 19.49 7.87 19.39 C8.57 19.26 9.28 19.13 10 19 C10.99 18.67 11.98 18.34 13 18 C12.67 17.01 12.34 16.02 12 15 C4.74 15 -2.52 15 -10 15 Z M-7 23 C-5.35 24.65 -3.7 26.3 -2 28 C-0.84 28.2 -0.84 28.2 0.35 28.41 C1.1 28.3 1.85 28.18 2.62 28.06 C3.38 27.97 4.14 27.88 4.91 27.79 C5.6 27.53 6.29 27.27 7 27 C7.99 25.68 8.98 24.36 10 23 C4.39 23 -1.22 23 -7 23 Z " fill="#FFFFFF" transform="translate(93,121)"/>
<path d="M0 0 C1.89 -0.12 1.89 -0.12 3.81 -0.25 C4.52 -0.24 5.22 -0.23 5.95 -0.21 C6.96 -0.11 6.96 -0.11 8 0 C9.05 0.39 10.1 0.78 11.19 1.19 C12.12 1.79 13.04 2.38 14 3 C14.93 3.83 15.86 4.65 16.81 5.5 C17.53 6.33 18.26 7.15 19 8 C19.33 8.99 19.66 9.98 20 11 C20.08 11.81 20.16 12.62 20.24 13.45 C20.26 14.38 20.29 15.3 20.31 16.25 C20.3 17.23 20.28 18.2 20.27 19.21 C20.14 20.59 20.14 20.59 20 22 C19.8 22.71 19.6 23.41 19.39 24.14 C19.09 24.73 18.8 25.33 18.5 25.94 C17.68 26.95 16.85 27.96 16 29 C15.42 29.43 14.83 29.87 14.23 30.31 C13.58 30.68 12.92 31.06 12.25 31.44 C11.21 31.88 11.21 31.88 10.14 32.34 C9.43 32.56 8.73 32.78 8 33 C7.33 33.13 6.67 33.25 5.98 33.38 C5 33.44 5 33.44 4 33.5 C3.35 33.46 2.69 33.42 2.02 33.38 C1.02 33.19 1.02 33.19 0 33 C-1.06 32.67 -1.06 32.67 -2.14 32.34 C-2.84 32.04 -3.53 31.74 -4.25 31.44 C-4.9 31.07 -5.56 30.69 -6.23 30.31 C-6.82 29.88 -7.4 29.45 -8 29 C-9.24 27.48 -9.24 27.48 -10.5 25.94 C-10.79 25.34 -11.08 24.74 -11.38 24.12 C-11.58 23.42 -11.79 22.72 -12 22 C-12.19 20.67 -12.19 20.67 -12.38 19.31 C-12.42 18.36 -12.46 17.41 -12.5 16.44 C-12.46 15.5 -12.43 14.56 -12.39 13.59 C-12.26 12.73 -12.13 11.88 -12 11 C-11.44 9.87 -10.89 8.73 -10.31 7.56 C-9.55 6.72 -8.79 5.87 -8 5 C-7.15 4.24 -6.31 3.47 -5.44 2.69 C-4.63 2.13 -3.83 1.57 -3 1 C-2.01 0.67 -1.02 0.34 0 0 Z M3 5 C2.84 5.57 2.67 6.13 2.51 6.72 C2.34 7.47 2.17 8.22 2 9 C1.96 9.73 1.93 10.45 1.89 11.2 C1.89 11.97 1.9 12.75 1.9 13.55 C1.91 14.39 1.91 15.24 1.91 16.11 C1.92 16.98 1.93 17.85 1.94 18.75 C1.94 19.64 1.95 20.53 1.95 21.44 C1.96 23.63 1.98 25.81 2 28 C2.99 28 3.98 28 5 28 C5.33 27.03 5.66 26.06 6 25.06 C6.18 24.42 6.36 23.79 6.55 23.13 C6.7 22.43 6.85 21.72 7 21 C7.1 19.9 7.1 19.9 7.2 18.78 C7.22 18.03 7.23 17.27 7.25 16.5 C7.23 15.75 7.22 15 7.2 14.22 C7.14 13.49 7.07 12.76 7 12 C6.85 11.3 6.7 10.59 6.55 9.87 C6.37 9.23 6.19 8.59 6 7.94 C5.67 6.97 5.34 6 5 5 C4.34 5 3.68 5 3 5 Z M-4 9 C-4.54 9.52 -5.07 10.03 -5.62 10.56 C-6.08 11.37 -6.53 12.17 -7 13 C-7.14 14.13 -7.29 15.27 -7.44 16.44 C-7.29 17.61 -7.15 18.79 -7 20 C-6.34 20.97 -5.68 21.94 -5 22.94 C-4.34 23.62 -3.68 24.3 -3 25 C-2.67 24.32 -2.34 23.64 -2 22.94 C-1.67 21.97 -1.34 21 -1 20 C-0.94 18.82 -0.88 17.65 -0.81 16.44 C-0.91 14.74 -0.91 14.74 -1 13 C-1.16 12.2 -1.33 11.39 -1.5 10.56 C-1.66 10.05 -1.83 9.53 -2 9 C-2.66 9 -3.32 9 -4 9 Z M11 9 C11 14.28 11 19.56 11 25 C11.99 24.01 12.98 23.02 14 22 C14.33 21.34 14.66 20.68 15 20 C15.15 18.33 15.15 18.33 15.31 16.62 C15.21 15.43 15.11 14.23 15 13 C13.68 11.68 12.36 10.36 11 9 Z " fill="#FFFFFF" transform="translate(122,90)"/>
<path d="M0 0 C1.33 -0.19 1.33 -0.19 2.69 -0.38 C4.11 -0.44 4.11 -0.44 5.56 -0.5 C6.5 -0.46 7.44 -0.43 8.41 -0.39 C9.27 -0.26 10.12 -0.13 11 0 C12.13 0.56 13.27 1.11 14.44 1.69 C15.28 2.45 16.13 3.21 17 4 C17.76 4.85 18.53 5.69 19.31 6.56 C19.87 7.37 20.43 8.17 21 9 C21.5 10.48 21.5 10.48 22 12 C22.08 13.26 22.16 14.52 22.25 15.81 C22.24 16.52 22.22 17.22 22.21 17.95 C22.14 18.62 22.07 19.3 22 20 C21.63 21.05 21.26 22.1 20.88 23.19 C20.26 24.12 19.64 25.04 19 26 C18.52 26.48 18.03 26.95 17.54 27.45 C17.01 27.9 16.48 28.35 15.94 28.81 C14.97 29.53 14 30.26 13 31 C12.34 31.33 11.68 31.66 11 32 C10.22 32.08 9.45 32.16 8.64 32.24 C7.71 32.26 6.78 32.29 5.81 32.31 C4.83 32.3 3.84 32.28 2.83 32.27 C1.43 32.14 1.43 32.14 0 32 C-0.71 31.8 -1.41 31.6 -2.14 31.39 C-2.73 31.09 -3.33 30.8 -3.94 30.5 C-4.95 29.67 -5.96 28.85 -7 28 C-7.43 27.42 -7.87 26.83 -8.31 26.23 C-8.68 25.58 -9.06 24.92 -9.44 24.25 C-9.74 23.55 -10.03 22.86 -10.34 22.14 C-10.56 21.43 -10.78 20.73 -11 20 C-11.13 19.33 -11.25 18.67 -11.38 17.98 C-11.42 17.33 -11.46 16.67 -11.5 16 C-11.46 15.35 -11.42 14.69 -11.38 14.02 C-11.25 13.35 -11.13 12.69 -11 12 C-10.78 11.29 -10.56 10.59 -10.34 9.86 C-10.04 9.16 -9.74 8.47 -9.44 7.75 C-9.07 7.1 -8.69 6.44 -8.31 5.77 C-7.88 5.18 -7.45 4.6 -7 4 C-5.99 3.17 -4.98 2.35 -3.94 1.5 C-3.34 1.21 -2.74 0.92 -2.12 0.62 C-1.42 0.42 -0.72 0.21 0 0 Z M2 5 C0.35 6.32 -1.3 7.64 -3 9 C2.28 9 7.56 9 13 9 C11.68 7.68 10.36 6.36 9 5 C7.87 4.84 6.73 4.67 5.56 4.5 C3.8 4.75 3.8 4.75 2 5 Z M0 13 C-1.22 13.33 -2.43 13.66 -3.69 14 C-4.45 14.33 -5.21 14.66 -6 15 C-6 15.99 -6 16.98 -6 18 C1.26 18 8.52 18 16 18 C16 16.68 16 15.36 16 14 C14.93 13.76 14.93 13.76 13.84 13.51 C12.9 13.34 11.97 13.17 11 13 C10.11 12.94 9.23 12.89 8.32 12.83 C6.43 12.82 4.55 12.82 2.67 12.83 C1.79 12.89 0.91 12.94 0 13 Z M2 21 C0.55 21.5 0.55 21.5 -0.94 22 C-1.96 22.5 -1.96 22.5 -3 23 C-1.98 23.99 -1.98 23.99 -0.94 25 C0.03 25.66 1 26.32 2 27 C3.18 27.14 4.35 27.29 5.56 27.44 C7.26 27.22 7.26 27.22 9 27 C9.8 26.55 10.61 26.09 11.44 25.62 C12.21 24.82 12.21 24.82 13 24 C13 23.34 13 22.68 13 22 C12.48 21.84 11.97 21.67 11.44 21.5 C10.23 21.25 10.23 21.25 9 21 C7.87 20.94 6.73 20.88 5.56 20.81 C4.39 20.87 3.21 20.94 2 21 Z " fill="#FFFFFF" transform="translate(89,59)"/>
<path d="M0 0 C1.09 -0.1 2.19 -0.21 3.31 -0.31 C4.53 -0.21 5.75 -0.11 7 0 C7.95 0.62 8.9 1.24 9.88 1.88 C10.58 2.58 11.28 3.28 12 4 C12.33 4.66 12.66 5.32 13 6 C13.1 7.09 13.21 8.19 13.31 9.31 C13.21 10.53 13.11 11.75 13 13 C12.38 13.95 11.76 14.9 11.12 15.88 C10.42 16.58 9.72 17.28 9 18 C8.34 18.33 7.68 18.66 7 19 C5.91 19.1 4.81 19.21 3.69 19.31 C2.47 19.21 1.25 19.11 0 19 C-0.95 18.38 -1.9 17.76 -2.88 17.12 C-3.58 16.42 -4.28 15.72 -5 15 C-5.33 14.34 -5.66 13.68 -6 13 C-6.1 11.91 -6.21 10.81 -6.31 9.69 C-6.21 8.47 -6.11 7.25 -6 6 C-5.38 5.05 -4.76 4.1 -4.12 3.12 C-3.42 2.42 -2.72 1.72 -2 1 C-1.34 0.67 -0.68 0.34 0 0 Z M1 5 C0.34 5.66 -0.32 6.32 -1 7 C-1.08 7.83 -1.17 8.65 -1.25 9.5 C-1.17 10.33 -1.08 11.15 -1 12 C-0.34 12.66 0.32 13.32 1 14 C1.83 14.08 2.65 14.16 3.5 14.25 C4.74 14.13 4.74 14.13 6 14 C6.66 13.34 7.32 12.68 8 12 C8.08 11.17 8.16 10.35 8.25 9.5 C8.17 8.67 8.09 7.85 8 7 C7.34 6.34 6.68 5.68 6 5 C5.17 4.92 4.35 4.83 3.5 4.75 C2.67 4.83 1.85 4.92 1 5 Z " fill="#FFFFFF" transform="translate(91,97)"/>
</svg>
