<?xml version="1.0" encoding="UTF-8"?>
<!-- Generator: visioncortex VTracer 0.6.4 -->
<svg version="1.1" xmlns="http://www.w3.org/2000/svg" width="192" height="192">
<path d="M0 0 C1.62 -0.03 3.25 -0.05 4.88 -0.06 C6.92 -0.06 8.96 -0.04 11 0 C12.41 0.06 12.41 0.06 13.85 0.12 C15.16 0.21 15.16 0.21 16.5 0.31 C17.29 0.37 18.09 0.43 18.91 0.49 C19.6 0.66 20.29 0.83 21 1 C21.51 1.36 22.01 1.72 22.53 2.09 C23.02 2.72 23.5 3.35 24 4 C24.29 5.06 24.59 6.11 24.89 7.2 C25.13 8.49 25.36 9.78 25.61 11.12 C25.73 11.81 25.86 12.51 26 13.22 C26.27 14.69 26.53 16.15 26.79 17.62 C27.19 19.86 27.6 22.1 28.01 24.33 C28.51 27.07 29.01 29.8 29.5 32.54 C29.66 33.68 29.83 34.82 30 36 C30.02 36.98 30.05 37.95 30.08 38.96 C30.04 39.97 30.04 39.97 30 41 C31.65 41 33.3 41 35 41 C35.66 36.71 36.32 32.42 37 28 C38.65 27.67 40.3 27.34 42 27 C43.28 27.02 43.28 27.02 44.58 27.04 C47.54 27.29 50.49 27.54 53.44 27.81 C54.46 27.9 55.49 27.98 56.54 28.06 C57.54 28.15 58.53 28.24 59.56 28.33 C60.46 28.41 61.36 28.49 62.29 28.57 C63.18 28.71 64.08 28.85 65 29 C66.98 29.66 68.96 30.32 71 31 C70.67 35.62 70.34 40.24 70 45 C72.64 45 75.28 45 78 45 C78.35 45.48 78.7 45.96 79.05 46.45 C79.37 47.29 79.68 48.13 80 49 C79.99 49.63 79.99 50.27 79.98 50.92 C79.91 51.65 79.83 52.37 79.76 53.11 C79.56 54.66 79.35 56.2 79.12 57.75 C79.02 58.54 78.92 59.34 78.81 60.15 C78.55 62.1 78.28 64.05 78 66 C78.64 66.06 79.28 66.12 79.93 66.18 C80.76 66.27 81.59 66.35 82.44 66.44 C83.67 66.56 83.67 66.56 84.93 66.68 C85.62 66.79 86.3 66.89 87 67 C87.33 67.33 87.66 67.66 88 68 C87.96 69.12 87.92 70.23 87.88 71.38 C87.78 72.77 87.67 74.17 87.56 75.56 C87.51 76.27 87.46 76.98 87.4 77.72 C87.27 79.48 87.14 81.24 87 83 C88.65 82.67 90.3 82.34 92 82 C92.08 81 92.16 80 92.24 78.97 C92.55 75.25 92.86 71.53 93.17 67.8 C93.31 66.2 93.44 64.59 93.57 62.98 C93.75 60.66 93.95 58.34 94.15 56.02 C94.2 55.31 94.26 54.6 94.32 53.86 C94.38 53.18 94.44 52.5 94.5 51.8 C94.75 49.92 94.75 49.92 95 48 C95.45 46.37 95.45 46.37 95.92 44.7 C96.27 43.81 96.63 42.92 97 42 C97.72 40.95 98.43 39.9 99.17 38.82 C100.02 37.72 100.88 36.64 101.75 35.56 C102.43 34.71 102.43 34.71 103.11 33.85 C104.01 32.73 104.9 31.62 105.8 30.51 C106.19 30.01 106.59 29.51 107 29 C107.58 28.22 108.15 27.44 108.75 26.64 C109.46 25.7 109.46 25.7 110.19 24.75 C111.12 23.84 112.04 22.94 113 22 C114.18 21.63 115.35 21.26 116.56 20.88 C117.7 20.92 118.83 20.96 120 21 C120.93 21.41 121.86 21.83 122.81 22.25 C123.9 23.12 123.9 23.12 125 24 C125.99 25.48 125.99 25.48 127 27 C127.16 28.08 127.32 29.15 127.49 30.26 C127.33 31.49 127.17 32.73 127 34 C126.64 34.54 126.28 35.07 125.92 35.63 C124.91 36.76 123.9 37.87 122.88 38.99 C122.32 39.61 121.76 40.23 121.19 40.88 C120.63 41.56 120.08 42.24 119.5 42.94 C118.96 43.71 118.43 44.48 117.87 45.27 C117.1 46.56 117.1 46.56 116.32 47.88 C115.88 48.91 115.45 49.94 115 51 C114.84 51.64 114.69 52.27 114.52 52.92 C114.4 53.61 114.27 54.3 114.14 55.01 C114.03 55.73 113.92 56.46 113.81 57.2 C113.63 58.7 113.45 60.2 113.29 61.71 C113.15 63.23 113.02 64.75 112.91 66.27 C112.7 69.28 112.5 72.29 112.34 75.3 C112.24 77.28 112.16 79.26 112.08 81.24 C112.06 82.15 112.03 83.06 112 84 C112.78 84.13 113.56 84.27 114.37 84.4 C115.38 84.58 116.39 84.76 117.44 84.94 C118.45 85.11 119.46 85.29 120.5 85.46 C121.74 85.73 121.74 85.73 123 86 C123.33 86.33 123.66 86.66 124 87 C124.03 87.61 124.06 88.22 124.1 88.85 C124.07 90.9 124.03 92.95 124 95 C127.63 95.33 131.26 95.66 135 96 C134.97 94.48 134.93 92.96 134.89 91.4 C134.87 89.39 134.84 87.38 134.81 85.38 C134.79 84.38 134.76 83.38 134.74 82.35 C134.72 80.89 134.72 80.89 134.71 79.4 C134.73 78.46 134.74 77.52 134.76 76.55 C134.84 75.71 134.92 74.87 135 74 C135.44 72.82 135.89 71.65 136.34 70.44 C137.16 69.23 137.16 69.23 138 68 C139.33 66.82 139.33 66.82 140.69 65.62 C141.78 65.09 142.87 64.55 144 64 C144.7 63.91 145.41 63.82 146.13 63.72 C146.85 63.71 147.57 63.7 148.31 63.69 C150.14 63.84 150.14 63.84 152 64 C152.33 64.33 152.66 64.66 153 65 C153.08 65.7 153.15 66.39 153.23 67.11 C153.31 68.49 153.31 68.49 153.39 69.89 C153.6 73.12 153.82 76.35 154.07 79.57 C154.25 81.75 154.45 83.92 154.66 86.09 C154.83 87.53 154.83 87.53 155 89 C155.13 89.74 155.25 90.48 155.39 91.25 C155.53 91.87 155.66 92.49 155.81 93.13 C156.12 94.2 156.43 95.27 156.75 96.38 C157.1 97.35 157.45 98.32 157.81 99.32 C158.2 100.2 158.6 101.09 159 102 C159.43 102.9 159.87 103.79 160.31 104.71 C160.79 105.57 161.26 106.43 161.75 107.31 C162.52 108.51 162.52 108.51 163.31 109.72 C163.87 110.47 164.43 111.23 165 112 C165.6 112.72 166.2 113.44 166.81 114.18 C167.45 114.87 168.09 115.55 168.75 116.25 C169.42 116.89 170.1 117.53 170.79 118.18 C171.88 119.08 171.88 119.08 173 120 C173.83 120.57 174.67 121.14 175.52 121.72 C176.38 122.25 177.24 122.77 178.12 123.31 C178.96 123.79 179.8 124.26 180.66 124.75 C182.09 125.51 183.53 126.28 184.97 127.04 C185.79 127.45 185.79 127.45 186.62 127.88 C187.8 128.43 187.8 128.43 189 129 C188.92 129.89 188.84 130.77 188.75 131.69 C188.5 132.78 188.25 133.87 188 135 C187.4 135.91 186.8 136.81 186.19 137.75 C185.47 138.49 184.74 139.24 184 140 C183.39 140.37 182.78 140.74 182.15 141.12 C181.44 141.41 180.73 141.7 180 142 C179.28 142.1 178.56 142.2 177.82 142.3 C176.6 142.3 176.6 142.3 175.35 142.3 C174.38 142.29 173.41 142.27 172.41 142.25 C171.29 142.17 170.16 142.08 169 142 C168.35 141.92 167.7 141.84 167.04 141.76 C165.62 141.56 164.2 141.35 162.78 141.13 C159.77 140.63 156.76 140.1 153.75 139.55 C151.41 139.12 149.07 138.71 146.72 138.31 C145.23 138.04 143.74 137.78 142.25 137.51 C141.55 137.39 140.85 137.27 140.13 137.14 C139.16 136.96 139.16 136.96 138.17 136.78 C137.13 136.52 136.08 136.26 135 136 C134.34 135.34 133.68 134.68 133 134 C133.01 133.07 133.02 132.14 133.02 131.18 C133.35 128.12 133.67 125.06 134 122 C127.56 121.5 127.56 121.5 121 121 C121.02 122.13 121.04 123.27 121.06 124.44 C121.04 125.61 121.02 126.79 121 128 C120.67 128.33 120.34 128.66 120 129 C118.19 128.96 118.19 128.96 116.34 128.91 C114.73 128.82 113.11 128.72 111.5 128.62 C110.65 128.58 109.8 128.54 108.93 128.5 C107.16 128.4 105.39 128.31 103.63 128.2 C102.76 128.13 101.89 128.07 101 128 C99.39 127.81 97.78 127.6 96.17 127.39 C94.68 127.21 93.18 127.04 91.69 126.88 C90.97 126.81 90.26 126.75 89.52 126.69 C88.85 126.66 88.17 126.64 87.48 126.61 C86.33 126.74 85.18 126.87 84 127 C82.97 127.86 82.97 127.86 81.93 128.73 C81.46 129.5 80.98 130.27 80.5 131.06 C80.11 131.89 79.72 132.72 79.31 133.57 C78.88 134.37 78.45 135.17 78 136 C77.3 136.62 76.6 137.23 75.88 137.87 C75.09 138.39 74.31 138.9 73.5 139.44 C72.79 139.89 72.08 140.34 71.34 140.81 C70.57 141.2 69.8 141.59 69 142 C67.57 142.56 67.57 142.56 66.11 143.14 C65.08 143.42 64.06 143.71 63 144 C61.98 144.11 60.97 144.22 59.92 144.34 C58.88 144.35 57.83 144.36 56.75 144.38 C55.62 144.36 54.49 144.34 53.32 144.32 C52.23 144.21 51.13 144.11 50 144 C49.06 143.76 48.12 143.52 47.14 143.28 C46.29 142.96 45.44 142.64 44.56 142.31 C43.77 141.94 42.97 141.57 42.15 141.19 C41.08 140.6 41.08 140.6 40 140 C39.41 139.64 38.83 139.28 38.23 138.9 C37.72 138.52 37.21 138.14 36.69 137.75 C35.8 136.84 34.91 135.94 34 135 C33.31 134.08 33.31 134.08 32.6 133.15 C32.15 132.48 31.71 131.81 31.25 131.12 C30.85 130.43 30.45 129.74 30.04 129.03 C29.69 128.36 29.35 127.69 29 127 C28.57 125.91 28.13 124.81 27.69 123.69 C27.35 121.86 27.35 121.86 27 120 C26.93 119.15 26.86 118.31 26.78 117.43 C26.75 116.51 26.72 115.58 26.69 114.62 C26.71 113.69 26.73 112.75 26.75 111.78 C26.83 110.86 26.91 109.95 27 109 C27.18 108.16 27.35 107.33 27.54 106.47 C27.77 105.7 28.01 104.92 28.25 104.12 C28.48 103.45 28.71 102.77 28.95 102.07 C29.3 101.39 29.64 100.7 30 100 C30.69 99.25 31.39 98.5 32.1 97.73 C32.73 96.83 33.35 95.93 34 95 C34.02 94.1 34.04 93.21 34.07 92.28 C33.76 90.79 33.76 90.79 33.45 89.28 C33.23 88.13 33.01 86.98 32.78 85.8 C32.52 84.54 32.27 83.29 32 82 C31.75 80.66 31.51 79.33 31.28 77.99 C30.48 73.52 29.65 69.05 28.81 64.58 C28.66 63.77 28.51 62.97 28.36 62.14 C27.57 57.91 26.77 53.69 25.98 49.46 C25.16 45.09 24.35 40.72 23.54 36.35 C22.91 32.98 22.28 29.62 21.64 26.25 C21.34 24.64 21.04 23.03 20.74 21.41 C20.33 19.17 19.91 16.94 19.48 14.7 C19.12 12.79 19.12 12.79 18.76 10.84 C18.38 9.44 18.38 9.44 18 8 C17.34 7.67 16.68 7.34 16 7 C14.17 6.74 14.17 6.74 12.3 6.46 C10.83 6.29 9.35 6.11 7.88 5.94 C6.74 5.8 6.74 5.8 5.59 5.66 C3.73 5.44 1.86 5.22 0 5 C0 3.35 0 1.7 0 0 Z M116 27 C115.2 27.7 115.2 27.7 114.38 28.42 C113.62 29.4 113.62 29.4 112.84 30.39 C112.27 31.1 111.71 31.81 111.12 32.54 C110.55 33.29 109.97 34.04 109.38 34.81 C108.79 35.55 108.2 36.29 107.6 37.05 C106.52 38.43 105.43 39.81 104.36 41.19 C103.91 41.79 103.46 42.38 103 43 C102.34 43.99 101.68 44.98 101 46 C100.75 47.47 100.75 47.47 100.5 48.97 C100.38 50.16 100.27 51.35 100.15 52.57 C100.02 53.88 99.89 55.19 99.76 56.54 C99.69 57.22 99.63 57.9 99.57 58.6 C99.38 60.66 99.17 62.72 98.97 64.78 C98.72 67.38 98.48 69.98 98.25 72.58 C98.17 73.71 98.08 74.84 98 76 C97.97 76.9 97.94 77.81 97.92 78.74 C97.91 79.47 97.91 80.2 97.91 80.96 C97.94 81.96 97.97 82.97 98 84 C100.64 84 103.28 84 106 84 C106.2 82.19 106.41 80.38 106.61 78.57 C106.79 76.96 106.98 75.35 107.17 73.74 C107.37 72.03 107.57 70.31 107.76 68.6 C107.88 67.31 107.88 67.31 108 66 C108.06 64.38 108.12 62.76 108.16 61.14 C108.22 59.55 108.29 57.96 108.38 56.38 C108.43 55.59 108.49 54.81 108.54 54.01 C108.64 53.24 108.73 52.46 108.83 51.66 C108.97 50.89 109.12 50.12 109.27 49.33 C109.51 48.56 109.75 47.79 110 47 C110.42 46.21 110.83 45.42 111.26 44.61 C111.77 43.83 112.28 43.05 112.8 42.25 C113.34 41.5 113.87 40.75 114.43 39.98 C114.99 39.27 115.55 38.55 116.12 37.81 C116.69 37.12 117.25 36.43 117.83 35.72 C118.63 34.79 118.63 34.79 119.45 33.83 C120.29 32.9 121.13 31.96 122 31 C121.34 29.68 120.68 28.36 120 27 C118.68 27 117.36 27 116 27 Z M42 33 C41.67 35.97 41.34 38.94 41 42 C43.71 42.34 46.42 42.67 49.12 43 C49.89 43.1 50.65 43.19 51.43 43.29 C52.92 43.47 54.42 43.64 55.91 43.81 C56.6 43.87 57.29 43.94 58 44 C59.17 44.02 60.35 44.04 61.55 44.06 C62.36 44.04 63.17 44.02 64 44 C64.33 41.03 64.66 38.06 65 35 C62.29 34.66 59.58 34.33 56.88 34 C56.11 33.9 55.35 33.81 54.57 33.71 C53.08 33.53 51.58 33.36 50.09 33.19 C49.4 33.13 48.71 33.06 48 33 C46.83 32.98 45.65 32.96 44.45 32.94 C43.64 32.96 42.83 32.98 42 33 Z M32 47 C32.23 49.48 32.46 51.96 32.71 54.44 C32.81 55.29 32.9 56.13 33 57 C33.19 58.03 33.37 59.06 33.56 60.12 C33.71 60.74 33.85 61.36 34 62 C34.99 62.33 35.98 62.66 37 63 C38.75 63.2 38.75 63.2 40.54 63.4 C42 63.54 43.45 63.66 44.91 63.79 C45.68 63.86 46.45 63.92 47.25 63.99 C48.87 64.14 50.5 64.27 52.12 64.41 C54.62 64.62 57.12 64.85 59.62 65.07 C61.2 65.21 62.77 65.34 64.35 65.48 C65.1 65.54 65.85 65.61 66.63 65.68 C67.66 65.77 67.66 65.77 68.72 65.85 C69.8 65.9 70.89 65.95 72 66 C72.5 65.5 72.5 65.5 73 65 C73.1 63.88 73.21 62.77 73.32 61.62 C73.4 60.23 73.48 58.83 73.56 57.44 C73.63 56.37 73.63 56.37 73.69 55.28 C73.8 53.52 73.9 51.76 74 50 C69.47 49.57 64.93 49.14 60.4 48.72 C58.86 48.57 57.32 48.43 55.78 48.28 C52.13 47.93 48.49 47.59 44.84 47.28 C43.57 47.19 42.3 47.1 41 47 C39.48 46.95 39.48 46.95 37.93 46.91 C37.1 46.91 36.28 46.91 35.43 46.91 C34.3 46.94 33.17 46.97 32 47 Z M36 68 C36.19 70.35 36.41 72.7 36.64 75.04 C36.76 76.02 36.88 76.99 37 78 C37.17 79.03 37.34 80.05 37.51 81.11 C37.99 83.75 38.49 86.37 39 89 C39.99 89 40.98 89 42 89 C42.62 88.78 43.24 88.57 43.88 88.34 C44.58 88.07 45.28 87.79 46 87.5 C47.19 87.09 47.19 87.09 48.41 86.68 C49.26 86.46 50.12 86.23 51 86 C51.9 85.9 52.79 85.8 53.72 85.7 C55.1 85.66 55.1 85.66 56.5 85.62 C57.42 85.66 58.35 85.69 59.3 85.72 C60.19 85.81 61.08 85.91 62 86 C62.8 86.14 63.6 86.29 64.42 86.43 C65.17 86.64 65.92 86.85 66.69 87.06 C67.4 87.33 68.12 87.59 68.86 87.87 C69.56 88.24 70.27 88.61 71 89 C71.76 89.58 72.52 90.16 73.3 90.76 C74.03 91.39 74.75 92.03 75.5 92.69 C76.15 93.31 76.8 93.93 77.47 94.57 C77.97 95.04 78.48 95.52 79 96 C79.33 96 79.66 96 80 96 C80.34 93.13 80.67 90.25 81 87.38 C81.14 86.16 81.14 86.16 81.29 84.93 C81.42 83.74 81.42 83.74 81.56 82.52 C81.65 81.8 81.73 81.08 81.82 80.33 C81.91 79.18 81.91 79.18 82 78 C82.01 76.92 82.02 75.83 82.03 74.72 C82.02 73.82 82.01 72.92 82 72 C73.87 71.08 65.74 70.18 57.6 69.34 C55.37 69.13 53.14 68.93 50.91 68.76 C47.6 68.54 44.29 68.36 40.98 68.2 C39.32 68.13 37.66 68.06 36 68 Z M144 70 C143.44 70.5 142.89 70.99 142.31 71.5 C141.88 72.33 141.45 73.15 141 74 C140.82 75.06 140.64 76.13 140.45 77.23 C140.37 77.94 140.29 78.65 140.21 79.38 C140.14 80.25 140.07 81.11 140 82 C139.88 84.31 139.78 86.62 139.68 88.93 C139.6 91.58 139.51 94.23 139.44 96.88 C139.42 97.56 139.4 98.24 139.37 98.95 C139.23 103.63 139.1 108.32 139 113 C138.95 116.65 138.93 120.29 138.94 123.94 C138.96 126.29 138.98 128.65 139 131 C143.73 131.89 148.46 132.76 153.2 133.62 C154.81 133.91 156.41 134.21 158.02 134.51 C160.34 134.95 162.66 135.37 164.98 135.79 C165.69 135.92 166.4 136.06 167.14 136.2 C167.82 136.32 168.5 136.44 169.2 136.56 C170.45 136.71 171.71 136.85 173 137 C174.12 136.89 175.23 136.78 176.38 136.67 C177.25 136.45 178.11 136.23 179 136 C179.62 135.48 180.24 134.97 180.88 134.44 C181.25 133.96 181.62 133.49 182 133 C181.67 132.34 181.34 131.68 181 131 C180.24 130.56 179.49 130.12 178.71 129.67 C176.79 128.69 174.87 127.71 172.96 126.73 C171.98 126.16 171.01 125.59 170 125 C168.99 124.24 167.97 123.47 166.93 122.69 C165.96 121.8 164.99 120.91 164 120 C163.2 119.02 162.41 118.03 161.59 117.02 C160.45 115.38 159.32 113.73 158.2 112.08 C157.82 111.51 157.44 110.93 157.05 110.34 C156.37 109.24 155.7 108.13 155 107 C154.54 106.13 154.08 105.25 153.61 104.35 C153.26 103.55 152.92 102.76 152.56 101.94 C152.14 100.73 152.14 100.73 151.7 99.51 C151.47 98.68 151.24 97.85 151 97 C150.79 96.09 150.58 95.18 150.36 94.24 C150.09 92.79 150.09 92.79 149.81 91.31 C149.67 90.32 149.52 89.34 149.37 88.32 C149.25 87.22 149.13 86.13 149 85 C148.82 82.94 148.66 80.88 148.51 78.81 C148.32 75.88 148.15 72.94 148 70 C146.68 70 145.36 70 144 70 Z M86 88 C85.84 88.88 85.67 89.76 85.5 90.66 C85.41 91.3 85.32 91.94 85.23 92.6 C85.15 93.39 85.08 94.18 85 95 C84.97 95.99 84.95 96.99 84.92 98.02 C84.9 101.49 84.91 104.96 84.94 108.44 C84.94 109.65 84.95 110.85 84.95 112.1 C84.96 115.07 84.98 118.03 85 121 C88.48 121.34 91.96 121.67 95.44 122 C96.41 122.1 97.39 122.19 98.39 122.29 C99.83 122.42 99.83 122.42 101.31 122.56 C102.18 122.65 103.06 122.73 103.96 122.82 C104.96 122.88 105.97 122.94 107 123 C109.97 123 112.94 123 116 123 C116.99 112.44 117.98 101.88 119 91 C114.48 90.5 109.97 90.01 105.31 89.5 C103.19 89.27 103.19 89.27 101.02 89.03 C99.33 88.84 99.33 88.84 97.61 88.66 C96.47 88.53 95.32 88.4 94.14 88.28 C93.1 88.18 92.07 88.09 91 88 C89.56 87.98 89.56 87.98 88.09 87.96 C87.05 87.98 87.05 87.98 86 88 Z M56 90 C55.28 90.06 54.57 90.12 53.83 90.18 C53.08 90.3 52.33 90.43 51.56 90.56 C50.43 90.85 50.43 90.85 49.27 91.14 C48.52 91.42 47.77 91.71 47 92 C46.27 92.43 45.54 92.86 44.79 93.3 C43.75 94.05 43.75 94.05 42.69 94.81 C42.04 95.35 41.39 95.89 40.72 96.44 C40.15 96.96 39.58 97.47 39 98 C38.24 98.74 37.47 99.49 36.69 100.25 C36.13 101.16 35.57 102.06 35 103 C34.68 103.71 34.36 104.42 34.03 105.15 C33.58 106.37 33.58 106.37 33.12 107.62 C32.89 108.49 32.65 109.35 32.41 110.24 C32.21 111.61 32.21 111.61 32 113 C32.04 113.95 32.08 114.9 32.12 115.88 C32.27 116.83 32.41 117.78 32.56 118.75 C32.78 119.67 32.99 120.58 33.21 121.53 C33.47 122.34 33.73 123.16 34 124 C34.56 125.09 35.11 126.19 35.69 127.31 C36.45 128.2 37.21 129.09 38 130 C38.49 130.52 38.99 131.05 39.5 131.59 C40.06 132.11 40.61 132.64 41.19 133.19 C41.79 133.68 42.4 134.17 43.02 134.67 C43.67 135.11 44.33 135.55 45 136 C45.71 136.36 46.41 136.71 47.14 137.08 C48.24 137.5 48.24 137.5 49.38 137.94 C50.13 138.15 50.89 138.37 51.68 138.59 C52.44 138.73 53.21 138.86 54 139 C54.76 139.03 55.51 139.06 56.29 139.09 C57.04 139.04 57.79 138.99 58.56 138.94 C59.3 138.81 60.04 138.69 60.81 138.56 C61.53 138.38 62.25 138.19 63 138 C63.69 137.77 64.38 137.55 65.1 137.31 C66.1 136.88 66.1 136.88 67.12 136.44 C68.09 135.9 68.09 135.9 69.08 135.35 C70.03 134.68 70.03 134.68 71 134 C71.64 133.44 72.29 132.88 72.95 132.31 C73.56 131.67 74.18 131.03 74.81 130.38 C75.37 129.68 75.94 128.98 76.52 128.26 C77.01 127.52 77.5 126.77 78 126 C78.39 125.22 78.77 124.45 79.17 123.64 C79.47 122.83 79.76 122.02 80.06 121.19 C80.27 120.35 80.48 119.51 80.7 118.65 C80.8 117.78 80.9 116.9 81 116 C80.96 115.05 80.91 114.11 80.87 113.13 C80.73 112.18 80.58 111.23 80.44 110.25 C80.22 109.33 80.01 108.42 79.79 107.47 C79.53 106.66 79.27 105.84 79 105 C78.44 103.91 77.89 102.81 77.31 101.69 C76.55 100.8 75.79 99.91 75 99 C74.46 98.47 73.92 97.93 73.36 97.38 C72.77 96.84 72.17 96.3 71.56 95.75 C70.96 95.26 70.35 94.76 69.72 94.25 C69.15 93.84 68.59 93.43 68 93 C67.17 92.57 66.35 92.13 65.5 91.69 C64.67 91.46 63.85 91.23 63 91 C61.93 90.75 60.86 90.5 59.75 90.25 C58.51 90.17 57.27 90.08 56 90 Z M123 101 C122.5 108.43 122.5 108.43 122 116 C125.96 116 129.92 116 134 116 C134.03 113.69 134.05 111.38 134.06 109.06 C134.07 107.77 134.09 106.49 134.1 105.16 C134.07 104.12 134.03 103.07 134 102 C133.67 101.67 133.34 101.34 133 101 C131.87 100.95 131.87 100.95 130.71 100.9 C128.14 100.93 125.57 100.97 123 101 Z " fill="#FFFFFF" transform="translate(2,33)"/>
<path d="M0 0 C0.69 -0.11 1.38 -0.21 2.1 -0.32 C2.89 -0.29 3.69 -0.27 4.5 -0.24 C5.39 -0.21 6.28 -0.18 7.19 -0.15 C12.72 0.15 12.72 0.15 15.46 0.33 C17.29 0.49 19.11 0.65 20.94 0.81 C21.87 0.88 22.8 0.95 23.76 1.03 C25.1 1.15 25.1 1.15 26.46 1.27 C27.27 1.34 28.07 1.41 28.89 1.48 C29.93 1.74 29.93 1.74 31 2 C31.58 2.44 32.16 2.88 32.76 3.33 C33.17 3.88 33.58 4.43 34 5 C34.12 6.16 34.25 7.31 34.38 8.5 C34.19 10.23 34.19 10.23 34 12 C33.37 12.85 33.37 12.85 32.73 13.71 C32.16 14.14 31.59 14.56 31 15 C30.37 15.09 29.74 15.17 29.09 15.26 C28.38 15.21 27.67 15.16 26.94 15.11 C25.75 15.04 25.75 15.04 24.54 14.96 C23.7 14.89 22.86 14.82 22 14.75 C20.72 14.66 20.72 14.66 19.41 14.57 C17.72 14.45 16.02 14.32 14.32 14.18 C13.55 14.12 12.79 14.06 12 14 C10.83 13.94 9.65 13.87 8.44 13.8 C7.02 13.72 7.02 13.72 5.56 13.62 C4.76 13.58 3.96 13.53 3.13 13.48 C2.43 13.32 1.72 13.16 1 13 C0.25 12.56 -0.49 12.13 -1.26 11.68 C-1.83 11.13 -2.41 10.57 -3 10 C-3.14 8.84 -3.29 7.69 -3.44 6.5 C-3.29 5.34 -3.15 4.19 -3 3 C-2.59 2.44 -2.18 1.88 -1.75 1.3 C-1.18 0.87 -0.6 0.44 0 0 Z M3 5 C3 5.66 3 6.32 3 7 C3.99 7.33 4.98 7.66 6 8 C6.75 8.1 7.5 8.21 8.28 8.32 C10.14 8.49 12 8.65 13.86 8.81 C15.41 8.91 15.41 8.91 17 9 C18.68 9.03 18.68 9.03 20.39 9.06 C23.26 9.06 26.13 9.05 29 9 C28.34 8.34 27.68 7.68 27 7 C26.2 6.86 25.4 6.73 24.57 6.59 C23.57 6.52 22.58 6.44 21.55 6.37 C20.48 6.28 19.4 6.2 18.29 6.11 C17.17 6.03 16.04 5.96 14.88 5.88 C13.17 5.75 13.17 5.75 11.43 5.61 C8.62 5.4 5.81 5.2 3 5 Z " fill="#FFFFFF" transform="translate(40,82)"/>
<path d="M0 0 C0.71 -0.11 1.42 -0.22 2.15 -0.34 C3.25 -0.36 3.25 -0.36 4.38 -0.38 C5.55 -0.35 5.55 -0.35 6.75 -0.32 C7.49 -0.21 8.23 -0.11 9 0 C10.13 0.58 11.27 1.16 12.44 1.75 C13.28 2.49 14.13 3.24 15 4 C15.38 4.62 15.75 5.23 16.14 5.87 C16.42 6.57 16.71 7.27 17 8 C17.11 8.71 17.22 9.42 17.34 10.15 C17.35 10.88 17.36 11.62 17.38 12.38 C17.36 13.16 17.34 13.94 17.32 14.75 C17.21 15.49 17.11 16.23 17 17 C16.13 18.7 16.13 18.7 15.25 20.44 C14.51 21.28 13.77 22.13 13 23 C12.4 23.38 11.79 23.75 11.17 24.14 C10.45 24.42 9.74 24.71 9 25 C8.21 25.11 7.41 25.22 6.6 25.34 C5.34 25.36 5.34 25.36 4.06 25.38 C3.19 25.36 2.31 25.34 1.41 25.32 C0.61 25.21 -0.18 25.11 -1 25 C-2.48 24.13 -2.48 24.13 -4 23.25 C-4.66 22.51 -5.32 21.76 -6 21 C-6.36 20.38 -6.73 19.77 -7.1 19.13 C-7.55 18.08 -7.55 18.08 -8 17 C-8.11 16.29 -8.22 15.58 -8.34 14.85 C-8.35 14.12 -8.36 13.38 -8.38 12.62 C-8.36 11.84 -8.34 11.06 -8.32 10.25 C-8.21 9.51 -8.11 8.77 -8 8 C-7.13 6.3 -7.13 6.3 -6.25 4.56 C-5.51 3.72 -4.77 2.87 -4 2 C-3.38 1.62 -2.77 1.25 -2.13 0.86 C-1.43 0.58 -0.73 0.29 0 0 Z M3 5 C1.92 5.34 1.92 5.34 0.81 5.69 C0.21 6.12 -0.38 6.55 -1 7 C-1.43 7.58 -1.87 8.16 -2.31 8.75 C-2.54 9.49 -2.77 10.24 -3 11 C-2.96 12.01 -2.92 13.02 -2.88 14.06 C-2.59 15.03 -2.3 16 -2 17 C-1.46 17.64 -0.93 18.28 -0.38 18.94 C0.41 19.29 1.19 19.64 2 20 C3.18 20 4.35 20 5.56 20 C6.7 19.67 7.83 19.34 9 19 C9.99 17.89 9.99 17.89 11 16.75 C11.33 15.84 11.66 14.94 12 14 C11.94 12.7 11.94 12.7 11.88 11.38 C11.59 10.59 11.3 9.81 11 9 C10.59 8.42 10.17 7.84 9.75 7.25 C9.17 6.84 8.59 6.43 8 6 C7.2 5.73 6.39 5.46 5.56 5.19 C4.72 5.13 3.87 5.06 3 5 Z " fill="#FFFFFF" transform="translate(54,135)"/>
<path d="M0 0 C1.18 0.14 2.35 0.29 3.56 0.44 C5.26 0.72 5.26 0.72 7 1 C7.21 1.58 7.41 2.16 7.62 2.75 C7.75 3.49 7.87 4.23 8 5 C7.69 5.74 7.38 6.48 7.06 7.25 C6.71 7.83 6.36 8.41 6 9 C4.58 9.09 4.58 9.09 3.12 9.19 C2.09 9.13 1.06 9.06 0 9 C-0.66 8.01 -1.32 7.02 -2 6 C-1.9 5.13 -1.79 4.27 -1.69 3.38 C-1.35 2.2 -1.35 2.2 -1 1 C-0.67 0.67 -0.34 0.34 0 0 Z " fill="#FFFFFF" transform="translate(130,45)"/>
<path d="M0 0 C0.82 -0.08 1.65 -0.16 2.5 -0.25 C3.32 -0.17 4.15 -0.09 5 0 C5.66 0.66 6.32 1.32 7 2 C7.12 3.24 7.12 3.24 7.25 4.5 C7.17 5.33 7.09 6.15 7 7 C6.34 7.66 5.68 8.32 5 9 C3.76 9.12 3.76 9.12 2.5 9.25 C1.68 9.17 0.85 9.09 0 9 C-0.66 8.34 -1.32 7.68 -2 7 C-2.08 6.17 -2.16 5.35 -2.25 4.5 C-2.17 3.67 -2.09 2.85 -2 2 C-1.34 1.34 -0.68 0.68 0 0 Z " fill="#FFFFFF" transform="translate(159,32)"/>
<path d="M0 0 C0.97 -0.06 1.94 -0.12 2.94 -0.19 C3.95 -0.13 4.96 -0.06 6 0 C6.66 0.66 7.32 1.32 8 2 C7.88 3.03 7.75 4.06 7.62 5.12 C7.42 6.07 7.21 7.02 7 8 C6.05 8.21 5.1 8.41 4.12 8.62 C3.09 8.75 2.06 8.87 1 9 C0.34 8.34 -0.32 7.68 -1 7 C-1.06 5.99 -1.12 4.98 -1.19 3.94 C-1.13 2.97 -1.06 2 -1 1 C-0.67 0.67 -0.34 0.34 0 0 Z " fill="#FFFFFF" transform="translate(122,29)"/>
<path d="M0 0 C1.18 0.14 2.35 0.29 3.56 0.44 C5.26 0.72 5.26 0.72 7 1 C7 3.31 7 5.62 7 8 C4.69 8.33 2.38 8.66 0 9 C-0.66 8.01 -1.32 7.02 -2 6 C-1.9 5.13 -1.79 4.27 -1.69 3.38 C-1.35 2.2 -1.35 2.2 -1 1 C-0.67 0.67 -0.34 0.34 0 0 Z " fill="#FFFFFF" transform="translate(151,15)"/>
<path d="M0 0 C1.55 -0.09 1.55 -0.09 3.12 -0.19 C4.07 -0.13 5.02 -0.06 6 0 C6.39 0.74 6.78 1.48 7.19 2.25 C7.46 3.16 7.72 4.06 8 5 C7.55 5.76 7.09 6.53 6.62 7.31 C6.09 7.87 5.55 8.43 5 9 C3.82 8.91 3.82 8.91 2.62 8.81 C1.76 8.54 0.89 8.28 0 8 C-0.47 7.22 -0.95 6.43 -1.44 5.62 C-1.62 4.76 -1.81 3.89 -2 3 C-1.34 2.01 -0.68 1.02 0 0 Z " fill="#FFFFFF" transform="translate(148,47)"/>
<path d="M0 0 C0.89 0.12 1.77 0.25 2.69 0.38 C3.45 0.58 4.21 0.79 5 1 C5.21 1.95 5.41 2.9 5.62 3.88 C5.75 4.91 5.87 5.94 6 7 C5.34 7.66 4.68 8.32 4 9 C2.99 9.06 1.98 9.12 0.94 9.19 C-0.03 9.13 -1 9.06 -2 9 C-2.33 8.67 -2.66 8.34 -3 8 C-3.08 7.03 -3.16 6.06 -3.25 5.06 C-3.17 4.05 -3.09 3.04 -3 2 C-2.01 1.34 -1.02 0.68 0 0 Z " fill="#FFFFFF" transform="translate(142,30)"/>
<path d="M0 0 C1.27 0.19 1.27 0.19 2.56 0.38 C3.77 0.68 3.77 0.68 5 1 C5.33 1.33 5.66 1.66 6 2 C6.06 3.48 6.06 3.48 6.12 5 C6.08 5.99 6.04 6.98 6 8 C5.67 8.33 5.34 8.66 5 9 C4.03 9.06 3.06 9.12 2.06 9.19 C1.05 9.13 0.04 9.06 -1 9 C-1.66 8.34 -2.32 7.68 -3 7 C-2.92 5.99 -2.84 4.98 -2.75 3.94 C-2.5 2.97 -2.25 2 -2 1 C-1.34 0.67 -0.68 0.34 0 0 Z " fill="#FFFFFF" transform="translate(134,13)"/>
</svg>
