<?xml version="1.0" encoding="UTF-8"?>
<!-- Generator: visioncortex VTracer 0.6.4 -->
<svg version="1.1" xmlns="http://www.w3.org/2000/svg" width="192" height="192">
<path d="M0 0 C0.79 -0.06 1.57 -0.12 2.38 -0.18 C4.12 -0.22 5.86 -0.26 7.6 -0.29 C9.56 -0.31 11.52 -0.31 13.48 -0.32 C14.46 -0.31 15.44 -0.29 16.45 -0.28 C17.89 -0.23 17.89 -0.23 19.35 -0.18 C20.22 -0.12 21.1 -0.06 22 0 C22.7 0.1 23.41 0.21 24.13 0.32 C24.75 0.45 25.36 0.58 25.98 0.72 C27.06 1.04 28.14 1.36 29.25 1.69 C30.24 2.06 31.23 2.42 32.25 2.8 C33.61 3.4 33.61 3.4 35 4 C35.89 4.37 36.77 4.75 37.69 5.13 C38.53 5.52 39.38 5.91 40.25 6.31 C41.05 6.72 41.84 7.13 42.66 7.55 C43.43 8.03 44.2 8.51 45 9 C45.78 9.64 46.56 10.28 47.37 10.95 C48.14 11.6 48.9 12.26 49.69 12.94 C50.42 13.54 51.15 14.13 51.91 14.75 C52.6 15.16 53.29 15.58 54 16 C55.83 15.72 55.83 15.72 57.69 15.44 C58.78 14.96 59.87 14.49 61 14 C62.01 13.88 63.02 13.75 64.06 13.62 C65.03 13.75 66 13.87 67 14 C67.99 14.45 68.98 14.91 70 15.38 C70.99 16.24 71.98 17.11 73 18 C73.51 18.69 74.01 19.39 74.54 20.11 C75.04 20.92 75.54 21.73 76.06 22.56 C76.8 23.87 76.8 23.87 77.54 25.21 C78.53 27.1 79.51 28.99 80.49 30.89 C81.37 32.71 82.25 34.53 83.12 36.36 C83.41 37.23 83.7 38.1 84 39 C84.08 40.03 84.16 41.07 84.24 42.13 C84.16 43.08 84.08 44.02 84 45 C83.44 46.05 82.89 47.1 82.31 48.19 C81.17 49.58 81.17 49.58 80 51 C79.13 51.62 78.27 52.24 77.38 52.88 C76.59 53.25 75.81 53.62 75 54 C74.34 54 73.68 54 73 54 C73 66.54 73 79.08 73 92 C79.48 91.97 85.96 91.93 92.43 91.85 C94.64 91.82 96.84 91.81 99.04 91.8 C102.21 91.8 105.38 91.75 108.55 91.71 C109.53 91.71 110.52 91.71 111.53 91.72 C112.45 91.7 113.37 91.68 114.32 91.66 C115.16 91.6 116 91.54 116.87 91.48 C117.57 91.32 118.27 91.16 119 91 C119.82 90.17 120.64 89.35 121.49 88.49 C122.23 87.26 122.23 87.26 123 86 C123.89 85.8 124.78 85.61 125.69 85.41 C126.64 85.44 127.59 85.47 128.56 85.5 C129.51 85.51 130.46 85.52 131.44 85.53 C132.29 85.69 133.13 85.84 134 86 C134.54 86.36 135.08 86.71 135.64 87.08 C136.09 87.71 136.54 88.35 137 89 C137.13 90.07 137.26 91.13 137.39 92.23 C137.39 94.19 137.39 94.19 137.4 96.19 C137.4 97.24 137.4 97.24 137.41 98.31 C137.41 99.78 137.4 101.26 137.39 102.73 C137.38 104.99 137.39 107.25 137.41 109.51 C137.41 110.94 137.4 112.38 137.4 113.81 C137.4 115.12 137.39 116.42 137.39 117.77 C137.26 118.84 137.13 119.9 137 121 C136.45 121.83 136.45 121.83 135.88 122.68 C135.26 123.11 134.64 123.55 134 124 C133.05 124.13 132.09 124.25 131.11 124.38 C129.33 124.38 129.33 124.38 127.51 124.39 C126.85 124.39 126.19 124.4 125.51 124.4 C123.28 124.42 121.06 124.41 118.84 124.4 C117.25 124.41 115.66 124.42 114.06 124.42 C109.74 124.44 105.41 124.44 101.08 124.44 C97.46 124.43 93.85 124.44 90.23 124.44 C81.7 124.46 73.16 124.46 64.63 124.45 C55.83 124.43 47.04 124.45 38.24 124.48 C30.69 124.5 23.13 124.5 15.58 124.5 C11.07 124.49 6.56 124.5 2.05 124.51 C-2.2 124.53 -6.45 124.53 -10.69 124.51 C-12.25 124.5 -13.8 124.51 -15.36 124.52 C-16.8 124.53 -18.25 124.53 -19.7 124.53 C-20.72 124.51 -20.72 124.51 -21.75 124.5 C-23.02 124.46 -24.28 124.42 -25.58 124.37 C-26.71 124.25 -27.84 124.13 -29 124 C-29.96 123.71 -30.91 123.43 -31.9 123.13 C-32.7 122.78 -33.51 122.43 -34.34 122.07 C-35.01 121.72 -35.67 121.37 -36.35 121.01 C-36.9 120.68 -37.44 120.34 -38 120 C-39.21 119.22 -39.21 119.22 -40.45 118.43 C-41.05 117.92 -41.64 117.4 -42.25 116.88 C-42.85 116.3 -43.45 115.72 -44.07 115.12 C-44.71 114.42 -45.34 113.72 -46 113 C-46.71 111.94 -46.71 111.94 -47.44 110.85 C-48.06 109.69 -48.06 109.69 -48.7 108.5 C-49.12 107.62 -49.54 106.73 -49.98 105.82 C-50.31 104.89 -50.65 103.96 -51 103 C-51.15 102.08 -51.3 101.15 -51.46 100.2 C-51.52 99.25 -51.57 98.29 -51.63 97.31 C-51.64 96.32 -51.66 95.32 -51.67 94.3 C-51.66 93.26 -51.64 92.21 -51.63 91.14 C-51.63 90.03 -51.63 88.93 -51.64 87.79 C-51.64 85.46 -51.62 83.13 -51.6 80.8 C-51.56 77.27 -51.58 73.75 -51.6 70.23 C-51.59 67.95 -51.58 65.67 -51.57 63.39 C-51.53 61.21 -51.47 59.03 -51.4 56.84 C-51.35 55.84 -51.29 54.83 -51.24 53.8 C-51.16 52.87 -51.08 51.95 -51 51 C-50.88 50.21 -50.75 49.41 -50.63 48.6 C-50.48 47.89 -50.33 47.18 -50.18 46.46 C-49.68 44.62 -49.68 44.62 -49.16 42.75 C-48.83 41.76 -48.5 40.76 -48.16 39.74 C-47.59 38.39 -47.59 38.39 -47 37 C-46.48 35.92 -45.96 34.84 -45.42 33.73 C-44.91 32.77 -44.4 31.8 -43.88 30.81 C-43.27 29.84 -42.66 28.87 -42.03 27.88 C-41.36 26.93 -40.69 25.98 -40 25 C-39.28 24.05 -38.56 23.1 -37.82 22.12 C-37.03 21.2 -36.25 20.27 -35.44 19.31 C-34.59 18.42 -33.74 17.53 -32.87 16.61 C-31.45 15.32 -31.45 15.32 -30 14 C-29.46 13.58 -28.92 13.15 -28.36 12.71 C-27.79 12.3 -27.22 11.88 -26.63 11.45 C-26.05 11.05 -25.46 10.65 -24.86 10.24 C-24.27 9.85 -23.67 9.46 -23.06 9.06 C-22.47 8.69 -21.88 8.32 -21.26 7.94 C-20.67 7.59 -20.08 7.24 -19.48 6.88 C-18.33 6.26 -17.18 5.64 -16 5 C-14.96 4.53 -13.91 4.07 -12.84 3.59 C-11.4 3.05 -11.4 3.05 -9.94 2.5 C-9.1 2.22 -8.26 1.94 -7.4 1.66 C-6.61 1.44 -5.82 1.22 -5 1 C-4.23 0.83 -3.45 0.65 -2.65 0.47 C-1.34 0.24 -1.34 0.24 0 0 Z M4 5 C2.47 5.21 2.47 5.21 0.91 5.43 C-0.05 5.64 -1.01 5.85 -2 6.06 C-2.97 6.34 -3.93 6.62 -4.93 6.9 C-5.94 7.26 -6.96 7.63 -8 8 C-9.16 8.48 -10.32 8.95 -11.51 9.44 C-12.7 10 -13.9 10.55 -15.12 11.12 C-15.72 11.43 -16.31 11.73 -16.91 12.04 C-17.78 12.51 -17.78 12.51 -18.67 12.99 C-20.32 13.98 -20.32 13.98 -22 15 C-22.94 15.69 -23.89 16.39 -24.86 17.11 C-25.71 17.83 -26.56 18.56 -27.44 19.31 C-28.22 20.08 -29.01 20.84 -29.82 21.62 C-30.54 22.41 -31.26 23.19 -32 24 C-32.66 24.78 -33.31 25.57 -33.99 26.38 C-34.59 27.18 -35.19 27.98 -35.81 28.81 C-36.36 29.64 -36.91 30.47 -37.47 31.32 C-37.97 32.21 -38.48 33.09 -39 34 C-39.48 35 -39.97 35.99 -40.47 37.02 C-40.91 38.04 -41.36 39.07 -41.81 40.12 C-42.19 41.06 -42.57 41.99 -42.96 42.95 C-43.3 43.95 -43.65 44.96 -44 46 C-44.37 47.17 -44.75 48.35 -45.13 49.55 C-45.37 50.57 -45.37 50.57 -45.62 51.61 C-45.75 52.4 -45.87 53.19 -46 54 C-46.08 55.48 -46.08 55.48 -46.16 56.98 C-46.17 58.06 -46.18 59.14 -46.2 60.25 C-46.18 62.5 -46.16 64.75 -46.12 67 C-46.12 68.16 -46.11 69.31 -46.1 70.5 C-46.07 73.34 -46.04 76.17 -46 79 C-44.55 77.82 -44.55 77.82 -43.06 76.62 C-42.52 76.18 -41.97 75.74 -41.41 75.29 C-40.94 74.86 -40.48 74.44 -40 74 C-39.5 73.01 -39.5 73.01 -39 72 C-38.93 71.35 -38.86 70.7 -38.78 70.04 C-38.74 69.24 -38.69 68.45 -38.64 67.63 C-38.45 64.83 -38.24 62.03 -38 59.24 C-37.81 57.34 -37.61 55.45 -37.39 53.55 C-37.26 52.71 -37.13 51.87 -37 51 C-36.51 49.17 -36.51 49.17 -36 47.29 C-35.61 46.31 -35.22 45.33 -34.81 44.31 C-34.15 42.96 -34.15 42.96 -33.48 41.57 C-32.99 40.72 -32.5 39.88 -32 39 C-31.46 38.1 -30.92 37.2 -30.36 36.27 C-29.79 35.4 -29.22 34.52 -28.62 33.62 C-28.02 32.82 -27.42 32.01 -26.79 31.18 C-26.2 30.46 -25.61 29.74 -25 29 C-24.5 28.44 -24 27.87 -23.49 27.29 C-22.98 26.8 -22.46 26.32 -21.94 25.81 C-21.37 25.36 -20.8 24.91 -20.21 24.44 C-19.48 23.97 -18.75 23.49 -18 23 C-16.92 22.39 -15.84 21.78 -14.73 21.15 C-13.51 20.51 -12.29 19.87 -11.06 19.25 C-9.83 18.65 -8.59 18.06 -7.34 17.48 C-6.24 16.99 -5.14 16.5 -4 16 C-3.3 15.71 -2.6 15.41 -1.88 15.11 C-1.3 14.93 -0.72 14.75 -0.12 14.56 C0.48 14.45 1.08 14.33 1.7 14.21 C2.46 14.14 3.22 14.07 4 14 C5.18 13.92 6.36 13.84 7.58 13.75 C8.58 13.71 8.58 13.71 9.6 13.67 C10.29 13.66 10.98 13.64 11.69 13.62 C12.72 13.62 12.72 13.62 13.78 13.62 C14.81 13.64 14.81 13.64 15.87 13.67 C16.56 13.71 17.25 13.74 17.96 13.78 C18.97 13.89 18.97 13.89 20 14 C21.26 14.28 22.52 14.57 23.82 14.86 C24.97 15.22 26.13 15.57 27.31 15.94 C28.34 16.3 29.37 16.66 30.43 17.03 C31.28 17.35 32.12 17.67 33 18 C33.99 18.33 34.98 18.66 36 19 C37.76 19.06 37.76 19.06 39.56 19.12 C40.7 19.08 41.83 19.04 43 19 C43.66 18.67 44.32 18.34 45 18 C45 17.34 45 16.68 45 16 C44.24 15.47 43.48 14.93 42.69 14.38 C40.55 13.14 38.4 11.9 36.25 10.68 C34.64 9.85 34.64 9.85 33 9 C32.15 8.64 31.29 8.28 30.41 7.91 C29.28 7.52 29.28 7.52 28.12 7.12 C27.14 6.82 27.14 6.82 26.13 6.51 C25.43 6.34 24.73 6.17 24 6 C23.06 5.82 22.12 5.63 21.16 5.45 C20.11 5.3 19.07 5.15 18 5 C16.4 4.9 16.4 4.9 14.77 4.8 C13.65 4.78 12.53 4.77 11.38 4.75 C9.53 4.77 9.53 4.77 7.65 4.79 C5.84 4.9 5.84 4.9 4 5 Z M9 18 C7.65 18.13 7.65 18.13 6.27 18.25 C5.44 18.4 4.61 18.54 3.75 18.69 C2.55 18.98 2.55 18.98 1.33 19.28 C0.18 19.64 0.18 19.64 -1 20 C-1.76 20.27 -2.52 20.54 -3.3 20.82 C-4.05 21.12 -4.79 21.43 -5.56 21.75 C-6.29 22.1 -7.03 22.46 -7.78 22.82 C-9.29 23.62 -10.79 24.43 -12.28 25.24 C-13.03 25.7 -13.79 26.15 -14.56 26.62 C-15.3 27.14 -16.04 27.65 -16.8 28.17 C-17.52 28.78 -18.25 29.38 -19 30 C-19.73 30.77 -20.45 31.54 -21.2 32.33 C-22.25 33.59 -22.25 33.59 -23.31 34.88 C-24.29 36.16 -24.29 36.16 -25.28 37.48 C-25.85 38.31 -26.41 39.14 -27 40 C-27.43 40.73 -27.87 41.46 -28.32 42.21 C-28.67 42.88 -29.02 43.56 -29.38 44.25 C-29.65 44.83 -29.93 45.42 -30.21 46.02 C-30.47 46.67 -30.73 47.33 -31 48 C-31.53 49.41 -31.53 49.41 -32.07 50.84 C-32.38 51.89 -32.68 52.93 -33 54 C-33.11 55.02 -33.23 56.03 -33.34 57.08 C-33.4 58.12 -33.45 59.17 -33.5 60.25 C-33.65 62.5 -33.82 64.75 -34 67 C-34.11 67.95 -34.22 68.91 -34.33 69.89 C-34.47 70.75 -34.61 71.61 -34.75 72.5 C-34.92 73.3 -35.1 74.09 -35.28 74.91 C-35.52 75.6 -35.75 76.29 -36 77 C-37.14 78.45 -37.14 78.45 -38.31 79.94 C-39.64 80.96 -39.64 80.96 -41 82 C-42.3 82.59 -42.3 82.59 -43.63 83.19 C-44.41 83.79 -45.19 84.38 -46 85 C-46.22 86.06 -46.44 87.13 -46.66 88.22 C-46.64 90.18 -46.62 92.14 -46.58 94.09 C-46.53 95.1 -46.53 95.1 -46.48 96.12 C-46.32 97.4 -46.16 98.68 -46 100 C-45.71 100.99 -45.41 101.98 -45.11 103 C-44.73 103.85 -44.34 104.69 -43.94 105.56 C-43.48 106.34 -43.02 107.11 -42.55 107.91 C-42.04 108.6 -41.53 109.29 -41 110 C-40.47 110.61 -39.94 111.21 -39.39 111.84 C-38.83 112.36 -38.27 112.89 -37.69 113.44 C-37.1 113.89 -36.51 114.35 -35.9 114.82 C-35.27 115.21 -34.65 115.6 -34 116 C-32.95 116.51 -32.95 116.51 -31.88 117.03 C-30.83 117.45 -30.83 117.45 -29.75 117.88 C-27.89 118.43 -27.89 118.43 -26 119 C-25.01 119 -24.02 119 -23 119 C-23 112.4 -23 105.8 -23 99 C-21.35 99 -19.7 99 -18 99 C-18 105.6 -18 112.2 -18 119 C-9.42 119 -0.84 119 8 119 C8.33 112.4 8.66 105.8 9 99 C10.32 99.33 11.64 99.66 13 100 C13.33 106.27 13.66 112.54 14 119 C22.58 119 31.16 119 40 119 C40.33 112.73 40.66 106.46 41 100 C42.32 99.67 43.64 99.34 45 99 C45.33 105.6 45.66 112.2 46 119 C47.53 118.61 49.05 118.22 50.62 117.81 C52 117.39 52 117.39 53.39 116.96 C54.25 116.65 55.11 116.33 56 116 C57.09 115.3 58.19 114.6 59.31 113.88 C60.2 112.93 61.09 111.98 62 111 C62.47 110.28 62.95 109.56 63.44 108.82 C63.89 108.03 64.34 107.25 64.81 106.44 C65.21 105.69 65.61 104.95 66.02 104.18 C66.34 103.46 66.67 102.74 67 102 C67.18 101.38 67.36 100.75 67.55 100.11 C67.7 99.42 67.85 98.72 68 98 C68.05 96.68 68.11 95.36 68.16 94 C68.18 92.38 68.19 90.76 68.2 89.13 C68.21 88.26 68.21 87.39 68.22 86.49 C68.23 84.65 68.24 82.8 68.24 80.95 C68.25 78.17 68.28 75.39 68.31 72.61 C68.33 69.91 68.33 67.22 68.31 64.52 C68.27 62.81 68.22 61.1 68.16 59.39 C68.08 58.21 68.08 58.21 68 57 C67.91 56.28 67.83 55.56 67.74 54.81 C67.63 54.14 67.52 53.47 67.41 52.78 C67.16 51.55 66.91 50.33 66.65 49.07 C66.41 48.03 66.16 47 65.91 45.93 C65.61 44.96 65.31 44 65 43 C64.55 41.9 64.11 40.81 63.65 39.68 C62.99 38.23 62.99 38.23 62.31 36.75 C61.8 35.79 61.29 34.83 60.76 33.84 C60.18 32.91 59.6 31.97 59 31 C58.28 30.02 57.57 29.04 56.83 28.03 C56.1 27.11 55.38 26.2 54.62 25.25 C53.94 24.43 53.25 23.61 52.54 22.77 C51.78 21.89 51.78 21.89 51 21 C50.13 21.32 49.25 21.64 48.36 21.98 C47.25 22.31 46.14 22.65 45 23 C44.07 23.11 43.14 23.22 42.18 23.34 C40.76 23.36 40.76 23.36 39.31 23.38 C37.74 23.35 37.74 23.35 36.14 23.33 C35.1 23.22 34.07 23.11 33 23 C31.63 22.57 31.63 22.57 30.23 22.14 C28.44 21.41 26.64 20.69 24.85 19.96 C23.91 19.65 22.97 19.33 22 19 C20.94 18.82 19.87 18.63 18.77 18.44 C17.67 18.34 16.57 18.23 15.44 18.12 C14.35 18.07 13.26 18.02 12.14 17.96 C11.1 17.98 10.07 17.99 9 18 Z M61 20 C60.01 20.5 60.01 20.5 59 21 C59.33 21.99 59.66 22.98 60 24 C60.97 23.71 61.94 23.42 62.94 23.12 C63.95 22.75 64.96 22.38 66 22 C66.33 21.34 66.66 20.68 67 20 C66.05 19.98 65.1 19.96 64.12 19.94 C63.09 19.96 62.06 19.98 61 20 Z M69 26 C68.13 26.5 67.27 26.99 66.38 27.5 C65.59 28 64.81 28.49 64 29 C64.99 30.48 64.99 30.48 66 32 C67.98 31.01 69.96 30.02 72 29 C71.67 28.01 71.34 27.02 71 26 C70.34 26 69.68 26 69 26 Z M73 34 C72.13 34.5 71.27 34.99 70.38 35.5 C69.59 36 68.81 36.49 68 37 C68.99 38.48 68.99 38.48 70 40 C71.98 39.01 73.96 38.02 76 37 C75.67 36.01 75.34 35.02 75 34 C74.34 34 73.68 34 73 34 Z M78 41 C77.19 41.43 77.19 41.43 76.37 41.88 C75.73 42.25 75.09 42.62 74.44 43 C72.74 43.99 72.74 43.99 71 45 C71.33 45.99 71.66 46.98 72 48 C73.18 47.66 73.18 47.66 74.38 47.31 C75.24 46.88 76.11 46.45 77 46 C77.43 45.13 77.87 44.27 78.31 43.38 C78.54 42.59 78.77 41.81 79 41 C78.67 41 78.34 41 78 41 Z M126 91 C125.67 91.33 125.34 91.66 125 92 C124.96 92.86 124.93 93.71 124.89 94.59 C124.89 95.72 124.9 96.84 124.9 98 C124.91 99.22 124.91 100.43 124.91 101.69 C124.92 102.96 124.93 104.24 124.94 105.56 C124.94 106.85 124.95 108.13 124.95 109.45 C124.96 112.63 124.98 115.82 125 119 C126.45 119.03 126.45 119.03 127.94 119.06 C128.95 119.04 129.96 119.02 131 119 C131.33 118.67 131.66 118.34 132 118 C132.06 116.77 132.06 116.77 132.13 115.52 C132.13 114.44 132.13 113.36 132.13 112.25 C132.13 111.08 132.14 109.92 132.14 108.72 C132.13 107.49 132.13 106.26 132.12 105 C132.13 103.77 132.13 102.55 132.14 101.28 C132.13 99.53 132.13 99.53 132.13 97.75 C132.13 96.13 132.13 96.13 132.13 94.48 C132.09 93.66 132.04 92.84 132 92 C131.67 91.67 131.34 91.34 131 91 C130.18 90.96 129.35 90.92 128.5 90.88 C127.68 90.92 126.85 90.96 126 91 Z M73 97 C72.85 97.62 72.71 98.23 72.55 98.87 C72.22 100.14 72.22 100.14 71.88 101.44 C71.6 102.34 71.33 103.25 71.05 104.19 C70.71 105.12 70.36 106.04 70 107 C69.53 107.85 69.06 108.69 68.57 109.56 C68.05 110.35 67.53 111.13 67 111.94 C66.26 113 66.26 113 65.5 114.09 C64.76 115.04 64.76 115.04 64 116 C63.01 116.99 62.02 117.98 61 119 C80.14 119 99.28 119 119 119 C119 111.74 119 104.48 119 97 C116.69 97 114.38 97 112 97 C111.67 102.28 111.34 107.56 111 113 C109.68 113.33 108.36 113.66 107 114 C106.67 108.39 106.34 102.78 106 97 C103.69 97 101.38 97 99 97 C98.67 100.96 98.34 104.92 98 109 C96.68 109.33 95.36 109.66 94 110 C94 105.71 94 101.42 94 97 C91.36 97 88.72 97 86 97 C85.67 102.28 85.34 107.56 85 113 C83.68 113 82.36 113 81 113 C80.67 107.72 80.34 102.44 80 97 C77.69 97 75.38 97 73 97 Z " fill="#FFFFFF" transform="translate(53,38)"/>
<path d="M0 0 C0.73 -0.04 1.45 -0.08 2.2 -0.12 C3.37 -0.1 3.37 -0.1 4.55 -0.08 C5.8 0.06 5.8 0.06 7.08 0.2 C7.98 0.41 8.89 0.62 9.82 0.84 C10.75 1.15 11.68 1.45 12.64 1.76 C13.56 2.13 14.48 2.49 15.43 2.87 C16.74 3.53 16.74 3.53 18.08 4.2 C18.84 4.7 19.6 5.21 20.38 5.74 C21.41 6.58 21.41 6.58 22.45 7.45 C23.08 8.05 23.71 8.65 24.36 9.27 C24.93 9.91 25.49 10.54 26.08 11.2 C26.58 11.85 27.09 12.5 27.61 13.18 C28.27 14.18 28.27 14.18 28.95 15.2 C29.34 15.87 29.72 16.54 30.11 17.23 C30.43 17.88 30.75 18.53 31.08 19.2 C31.51 20.31 31.94 21.42 32.39 22.57 C32.62 23.77 32.84 24.96 33.08 26.2 C33.16 26.95 33.25 27.7 33.33 28.47 C33.37 29.29 33.41 30.1 33.45 30.95 C33.43 31.79 33.41 32.64 33.39 33.52 C33.23 34.84 33.23 34.84 33.08 36.2 C32.86 37.12 32.65 38.05 32.43 39 C32.13 39.93 31.83 40.86 31.52 41.82 C31.15 42.73 30.78 43.65 30.4 44.59 C29.97 45.45 29.53 46.31 29.08 47.2 C28.57 47.95 28.06 48.71 27.54 49.49 C26.97 50.18 26.41 50.86 25.83 51.57 C25.22 52.2 24.62 52.83 23.99 53.48 C23.36 54.04 22.73 54.61 22.08 55.2 C21.45 55.7 20.81 56.21 20.16 56.73 C19.52 57.17 18.87 57.61 18.2 58.07 C17.53 58.45 16.86 58.83 16.17 59.23 C15.48 59.55 14.79 59.87 14.08 60.2 C13.38 60.45 12.68 60.71 11.96 60.98 C11.23 61.17 10.51 61.37 9.77 61.57 C8.64 61.77 8.64 61.77 7.5 61.98 C6.3 62.08 6.3 62.08 5.08 62.2 C4.19 62.21 3.3 62.22 2.38 62.23 C1.45 62.18 0.53 62.12 -0.42 62.07 C-1.34 61.96 -2.27 61.85 -3.22 61.73 C-4.11 61.55 -5 61.38 -5.92 61.2 C-6.73 60.95 -7.54 60.7 -8.38 60.44 C-9.13 60.13 -9.89 59.83 -10.67 59.51 C-11.39 59.15 -12.12 58.79 -12.86 58.41 C-13.54 58.01 -14.22 57.61 -14.92 57.2 C-15.88 56.56 -15.88 56.56 -16.86 55.91 C-17.46 55.45 -18.06 54.99 -18.67 54.51 C-19.23 53.99 -19.78 53.47 -20.36 52.94 C-20.87 52.37 -21.39 51.79 -21.92 51.2 C-22.41 50.55 -22.89 49.9 -23.39 49.23 C-23.84 48.52 -24.28 47.8 -24.73 47.07 C-25.32 45.92 -25.32 45.92 -25.91 44.75 C-26.25 43.9 -26.58 43.06 -26.92 42.2 C-27.19 41.24 -27.46 40.28 -27.74 39.3 C-27.95 38.3 -28.15 37.29 -28.36 36.26 C-28.49 35.24 -28.63 34.23 -28.77 33.18 C-28.82 32.2 -28.87 31.21 -28.92 30.2 C-28.83 28.86 -28.83 28.86 -28.73 27.49 C-28.59 26.65 -28.44 25.81 -28.3 24.95 C-27.99 23.73 -27.99 23.73 -27.67 22.5 C-27.19 21.02 -26.7 19.55 -26.21 18.08 C-25.93 17.42 -25.65 16.75 -25.36 16.07 C-25.01 15.43 -24.67 14.8 -24.31 14.14 C-23.85 13.5 -23.39 12.86 -22.92 12.2 C-22.26 11.48 -21.59 10.76 -20.91 10.03 C-20.15 9.32 -19.39 8.61 -18.61 7.88 C-17.82 7.23 -17.04 6.57 -16.23 5.89 C-15.09 5.05 -15.09 5.05 -13.92 4.2 C-13.27 3.82 -12.63 3.45 -11.96 3.06 C-11.37 2.8 -10.78 2.53 -10.17 2.26 C-8.56 1.73 -8.56 1.73 -6.92 1.2 C-5.75 0.86 -5.75 0.86 -4.55 0.51 C-3.03 0.33 -1.52 0.15 0 0 Z M-3.92 6.2 C-4.84 6.49 -5.75 6.78 -6.7 7.08 C-7.56 7.47 -8.41 7.86 -9.3 8.26 C-10.1 8.72 -10.9 9.18 -11.73 9.65 C-12.82 10.41 -12.82 10.41 -13.92 11.2 C-14.53 11.73 -15.14 12.26 -15.77 12.8 C-16.29 13.37 -16.82 13.93 -17.36 14.51 C-18.04 15.41 -18.04 15.41 -18.74 16.32 C-19.13 16.94 -19.52 17.56 -19.92 18.2 C-20.26 18.81 -20.6 19.43 -20.95 20.07 C-21.37 21.03 -21.37 21.03 -21.8 22.01 C-22.01 22.68 -22.23 23.34 -22.45 24.03 C-22.68 25.1 -22.68 25.1 -22.92 26.2 C-23.08 27.39 -23.08 27.39 -23.24 28.61 C-23.28 29.44 -23.32 30.27 -23.36 31.13 C-23.34 31.96 -23.32 32.8 -23.29 33.65 C-23.17 34.49 -23.05 35.33 -22.92 36.2 C-22.62 37.07 -22.33 37.94 -22.02 38.83 C-21.66 39.65 -21.3 40.47 -20.92 41.32 C-20.37 42.44 -20.37 42.44 -19.8 43.58 C-19.51 44.11 -19.22 44.65 -18.92 45.2 C-17.93 45.2 -16.94 45.2 -15.92 45.2 C-15.16 44.7 -14.4 44.21 -13.61 43.7 C-13.05 42.87 -12.5 42.05 -11.92 41.2 C-12.19 39.96 -12.46 38.72 -12.73 37.45 C-12.95 36.75 -13.17 36.06 -13.39 35.35 C-13.57 34.64 -13.74 33.93 -13.92 33.2 C-13.93 32.5 -13.94 31.8 -13.95 31.07 C-13.88 30.39 -13.81 29.71 -13.73 29.01 C-13.47 27.75 -13.2 26.49 -12.92 25.2 C-12.3 23.83 -12.3 23.83 -11.67 22.45 C-11.09 21.7 -10.52 20.96 -9.92 20.2 C-9.1 19.45 -8.27 18.71 -7.42 17.95 C-6.6 17.37 -5.77 16.79 -4.92 16.2 C-3.93 15.87 -2.94 15.54 -1.92 15.2 C-0.66 15.13 0.59 15.07 1.89 15.01 C2.94 15.02 2.94 15.02 4 15.03 C4.69 15.08 5.37 15.14 6.08 15.2 C7.23 15.53 8.39 15.86 9.58 16.2 C10.4 16.53 11.23 16.86 12.08 17.2 C12.9 16.41 13.73 15.63 14.58 14.82 C15.4 13.95 16.23 13.09 17.08 12.2 C17.08 11.54 17.08 10.88 17.08 10.2 C16.57 9.91 16.06 9.62 15.53 9.32 C14.8 8.95 14.08 8.58 13.33 8.2 C12.51 7.84 11.69 7.48 10.84 7.11 C9.93 6.81 9.02 6.5 8.08 6.2 C7.12 6.05 6.15 5.9 5.16 5.75 C4.16 5.71 3.17 5.67 2.14 5.63 C0.62 5.69 0.62 5.69 -0.93 5.75 C-2.41 5.97 -2.41 5.97 -3.92 6.2 Z M21.08 16.2 C19.78 17.68 19.78 17.68 18.45 19.2 C17.67 20.19 16.89 21.18 16.08 22.2 C16.41 22.86 16.74 23.52 17.08 24.2 C17.41 25.19 17.74 26.18 18.08 27.2 C18.2 28.45 18.33 29.71 18.45 31.01 C18.43 31.69 18.41 32.37 18.39 33.07 C18.29 33.77 18.19 34.47 18.08 35.2 C17.72 36.28 17.72 36.28 17.36 37.38 C17.04 38.08 16.72 38.79 16.39 39.51 C16.02 40.17 15.65 40.82 15.26 41.5 C14.87 42.06 14.48 42.62 14.08 43.2 C13.03 44.15 13.03 44.15 11.95 45.13 C11 45.48 10.06 45.83 9.08 46.2 C8.32 46.35 7.56 46.5 6.78 46.66 C5.51 46.83 5.51 46.83 4.2 47.01 C3.34 47.07 2.48 47.14 1.59 47.21 C0.76 47.21 -0.07 47.2 -0.92 47.2 C-1.65 47.07 -2.38 46.94 -3.12 46.8 C-3.76 46.62 -4.39 46.44 -5.05 46.26 C-6 45.91 -6.94 45.56 -7.92 45.2 C-9.57 47.18 -11.22 49.16 -12.92 51.2 C-11.53 52.15 -11.53 52.15 -10.11 53.13 C-9.06 53.81 -8.01 54.49 -6.92 55.2 C-5.93 55.53 -4.94 55.86 -3.92 56.2 C-2.65 56.33 -2.65 56.33 -1.36 56.47 C-0.37 56.5 0.62 56.54 1.64 56.57 C2.71 56.56 3.77 56.55 4.87 56.54 C5.93 56.42 6.99 56.31 8.08 56.2 C9 55.91 9.93 55.62 10.88 55.32 C11.73 54.93 12.58 54.54 13.45 54.13 C14.66 53.45 14.66 53.45 15.89 52.75 C16.61 52.24 17.33 51.72 18.08 51.2 C18.99 50.36 18.99 50.36 19.93 49.52 C20.45 48.94 20.98 48.36 21.52 47.76 C21.95 47.22 22.38 46.69 22.82 46.14 C23.44 45.18 23.44 45.18 24.08 44.2 C24.62 43.27 25.16 42.35 25.71 41.4 C26.16 40.34 26.61 39.29 27.08 38.2 C27.22 37.08 27.36 35.97 27.51 34.83 C27.51 33.67 27.51 32.51 27.52 31.32 C27.49 30.1 27.47 28.89 27.45 27.63 C27.33 26.5 27.2 25.36 27.08 24.2 C26.63 22.87 26.63 22.87 26.18 21.51 C25.63 20.42 25.63 20.42 25.08 19.32 C24.42 18.29 23.76 17.26 23.08 16.2 C22.42 16.2 21.76 16.2 21.08 16.2 Z M-1.92 20.2 C-2.82 20.72 -2.82 20.72 -3.73 21.25 C-4.27 21.69 -4.81 22.12 -5.36 22.57 C-6.63 23.87 -6.63 23.87 -7.92 25.2 C-8.25 25.86 -8.58 26.52 -8.92 27.2 C-9.05 28.43 -9.17 29.67 -9.3 30.95 C-9.29 31.65 -9.29 32.36 -9.28 33.09 C-9.16 33.78 -9.04 34.48 -8.92 35.2 C-8.4 36.1 -8.4 36.1 -7.88 37.02 C-7.44 37.55 -7 38.08 -6.55 38.63 C-5.68 39.48 -4.81 40.32 -3.92 41.2 C-3.26 41.53 -2.6 41.86 -1.92 42.2 C-0.68 42.32 0.55 42.44 1.83 42.57 C2.89 42.55 2.89 42.55 3.98 42.54 C4.67 42.42 5.36 42.31 6.08 42.2 C7.75 41.17 7.75 41.17 9.45 40.13 C10.75 38.68 10.75 38.68 12.08 37.2 C12.85 35.52 12.85 35.52 13.64 33.82 C13.86 32.03 13.86 32.03 14.08 30.2 C13.73 28.96 13.38 27.72 13.02 26.45 C12.38 25.37 11.74 24.3 11.08 23.2 C10.36 22.56 9.63 21.92 8.89 21.26 C7.96 20.91 7.03 20.56 6.08 20.2 C4.78 20.03 3.48 19.87 2.14 19.7 C1.12 19.73 1.12 19.73 0.08 19.77 C-0.58 19.91 -1.24 20.05 -1.92 20.2 Z " fill="#FFFFFF" transform="translate(61.921875,68.8046875)"/>
</svg>
