<?xml version="1.0" encoding="UTF-8"?>
<!-- Generator: visioncortex VTracer 0.6.4 -->
<svg version="1.1" xmlns="http://www.w3.org/2000/svg" width="192" height="192">
<path d="M0 0 C0.79 -0.12 1.57 -0.24 2.38 -0.36 C3.3 -0.41 4.22 -0.45 5.17 -0.5 C6.17 -0.51 7.18 -0.52 8.21 -0.53 C9.29 -0.52 10.36 -0.51 11.47 -0.5 C12.58 -0.5 13.69 -0.5 14.84 -0.5 C17.19 -0.5 19.54 -0.49 21.89 -0.47 C25.49 -0.44 29.08 -0.45 32.68 -0.46 C34.96 -0.45 37.25 -0.44 39.53 -0.43 C40.61 -0.44 41.68 -0.44 42.79 -0.44 C43.79 -0.43 44.8 -0.42 45.83 -0.4 C46.75 -0.36 47.67 -0.32 48.62 -0.27 C49.4 -0.18 50.19 -0.09 51 0 C52 0.38 53 0.76 54.03 1.15 C54.68 1.76 55.33 2.37 56 3 C56.59 3.86 57.19 4.72 57.8 5.6 C58.2 6.72 58.59 7.84 59 9 C59.08 9.72 59.15 10.43 59.23 11.17 C59.25 11.95 59.27 12.72 59.29 13.52 C59.28 14.32 59.27 15.11 59.26 15.93 C59.24 16.73 59.21 17.54 59.19 18.38 C59.17 19.62 59.17 19.62 59.15 20.89 C59.11 22.93 59.06 24.97 59 27 C60.18 26.98 61.35 26.96 62.56 26.94 C66.94 26.86 71.32 26.82 75.71 26.78 C77.6 26.76 79.49 26.73 81.38 26.7 C84.11 26.65 86.84 26.63 89.57 26.61 C90.82 26.58 90.82 26.58 92.11 26.55 C92.91 26.55 93.71 26.55 94.53 26.55 C95.67 26.6 95.67 26.6 96.83 26.65 C97.55 26.77 98.26 26.88 99 27 C99.68 27.27 100.36 27.53 101.06 27.81 C101.68 28.15 102.3 28.48 102.94 28.83 C103.95 29.55 104.96 30.26 106 31 C106.78 32.01 107.57 33.02 108.38 34.06 C109.18 35.52 109.18 35.52 110 37 C110.33 37.99 110.66 38.98 111 40 C111.04 40.62 111.09 41.24 111.13 41.88 C111.14 42.94 111.14 42.94 111.15 44.03 C111.16 45.25 111.16 45.25 111.17 46.5 C111.17 47.4 111.17 48.29 111.18 49.21 C111.18 50.15 111.19 51.1 111.2 52.07 C111.22 55.2 111.23 58.32 111.24 61.45 C111.24 62.52 111.25 63.59 111.25 64.69 C111.27 70.34 111.29 76 111.3 81.66 C111.31 87.49 111.34 93.33 111.38 99.17 C111.41 103.66 111.41 108.15 111.42 112.64 C111.42 114.79 111.43 116.95 111.45 119.1 C111.48 122.11 111.48 125.13 111.47 128.14 C111.49 129.47 111.49 129.47 111.51 130.82 C111.5 132.07 111.5 132.07 111.49 133.34 C111.45 134.12 111.4 134.91 111.36 135.71 C111.24 136.47 111.12 137.22 111 138 C110.73 138.76 110.45 139.52 110.17 140.3 C109.83 141.02 109.49 141.73 109.13 142.46 C108.63 143.4 108.63 143.4 108.11 144.36 C107.75 144.9 107.38 145.44 107 146 C106.13 146.8 105.27 147.61 104.38 148.44 C103.59 148.95 102.81 149.47 102 150 C101.34 150.33 100.68 150.66 100 151 C99.16 151.04 98.31 151.09 97.44 151.13 C95.81 151.14 95.81 151.14 94.14 151.15 C92.9 151.15 91.65 151.16 90.36 151.17 C88.97 151.17 87.58 151.17 86.19 151.18 C84.73 151.18 83.27 151.19 81.81 151.2 C77.85 151.21 73.88 151.22 69.91 151.23 C67.43 151.24 64.95 151.24 62.47 151.25 C54.71 151.27 46.95 151.28 39.2 151.29 C30.24 151.3 21.29 151.33 12.33 151.37 C5.41 151.4 -1.51 151.41 -8.43 151.42 C-12.56 151.42 -16.7 151.43 -20.83 151.45 C-24.72 151.48 -28.61 151.48 -32.5 151.47 C-33.93 151.47 -35.36 151.48 -36.78 151.49 C-38.73 151.51 -40.68 151.5 -42.64 151.49 C-43.77 151.45 -44.91 151.4 -46.08 151.36 C-47.53 151.18 -47.53 151.18 -49 151 C-49.7 150.73 -50.41 150.45 -51.13 150.17 C-51.67 149.83 -52.2 149.49 -52.75 149.13 C-53.49 148.43 -54.24 147.73 -55 147 C-55.76 146.13 -56.53 145.27 -57.31 144.38 C-57.87 143.59 -58.43 142.81 -59 142 C-59.33 141.34 -59.66 140.68 -60 140 C-60.04 139.4 -60.09 138.81 -60.13 138.19 C-60.14 137.09 -60.14 137.09 -60.14 135.97 C-60.15 135.12 -60.15 134.28 -60.16 133.41 C-60.16 132.48 -60.16 131.55 -60.16 130.6 C-60.17 129.62 -60.17 128.65 -60.18 127.64 C-60.19 124.4 -60.2 121.16 -60.2 117.92 C-60.21 115.67 -60.21 113.43 -60.22 111.18 C-60.23 106.46 -60.24 101.74 -60.24 97.03 C-60.25 90.98 -60.27 84.94 -60.3 78.9 C-60.32 74.25 -60.32 69.61 -60.32 64.96 C-60.33 62.73 -60.33 60.51 -60.35 58.28 C-60.36 55.16 -60.36 52.04 -60.36 48.92 C-60.37 48 -60.37 47.08 -60.38 46.13 C-60.38 45.28 -60.37 44.42 -60.37 43.54 C-60.34 42.75 -60.31 41.97 -60.27 41.15 C-60.18 40.44 -60.09 39.73 -60 39 C-59.53 37.84 -59.06 36.68 -58.57 35.48 C-58.05 34.66 -57.53 33.84 -57 33 C-56.5 32.46 -56.01 31.91 -55.5 31.36 C-55 30.97 -54.51 30.58 -54 30.19 C-53.01 29.47 -52.02 28.74 -51 28 C-50.01 27.67 -49.02 27.34 -48 27 C-47.07 26.94 -47.07 26.94 -46.12 26.88 C-45.42 26.88 -44.71 26.88 -43.99 26.89 C-43.19 26.89 -42.39 26.89 -41.56 26.89 C-40.27 26.89 -40.27 26.89 -38.96 26.9 C-38.07 26.9 -37.19 26.91 -36.28 26.91 C-33.46 26.91 -30.63 26.92 -27.81 26.94 C-25.9 26.94 -23.99 26.95 -22.07 26.95 C-17.38 26.96 -12.69 26.98 -8 27 C-8.03 25.76 -8.07 24.52 -8.11 23.24 C-8.13 21.6 -8.16 19.95 -8.19 18.31 C-8.21 17.5 -8.24 16.68 -8.26 15.84 C-8.27 15.04 -8.28 14.25 -8.29 13.43 C-8.27 12.65 -8.25 11.88 -8.23 11.08 C-8.15 10.4 -8.08 9.71 -8 9 C-7.6 8.07 -7.21 7.13 -6.8 6.17 C-6.21 5.45 -5.61 4.74 -5 4 C-4.35 3.25 -3.7 2.49 -3.03 1.72 C-2.03 1.15 -1.03 0.58 0 0 Z M2 5 C1.14 5.61 0.28 6.21 -0.6 6.84 C-1.29 7.91 -1.29 7.91 -2 9 C-2.33 9.99 -2.66 10.98 -3 12 C-3.04 12.72 -3.07 13.44 -3.11 14.18 C-3.11 15.41 -3.11 15.41 -3.1 16.67 C-3.1 17.47 -3.09 18.28 -3.09 19.11 C-3.08 20.12 -3.07 21.14 -3.06 22.19 C-3.04 25.43 -3.02 28.66 -3 32 C-9.6 32 -16.2 32 -23 32 C-23 69.62 -23 107.24 -23 146 C9.34 146 41.68 146 75 146 C75 108.38 75 70.76 75 32 C68.4 31.67 61.8 31.34 55 31 C54.69 21.31 54.69 21.31 54.61 18.29 C54.58 17.49 54.55 16.69 54.51 15.86 C54.45 15.01 54.39 14.16 54.33 13.28 C54.22 12.53 54.11 11.78 54 11 C53.53 9.98 53.06 8.97 52.58 7.92 C52.06 7.29 51.54 6.65 51 6 C50.01 5.5 50.01 5.5 49 5 C48.34 4.95 47.68 4.9 47 4.85 C46.18 4.84 45.37 4.83 44.52 4.82 C43.59 4.81 42.67 4.8 41.71 4.78 C40.7 4.78 39.7 4.77 38.66 4.76 C37.12 4.75 37.12 4.75 35.54 4.74 C33.36 4.72 31.17 4.71 28.99 4.7 C25.65 4.69 22.3 4.64 18.96 4.6 C16.84 4.59 14.72 4.58 12.6 4.57 C11.1 4.55 11.1 4.55 9.57 4.52 C8.17 4.53 8.17 4.53 6.74 4.53 C5.89 4.57 5.04 4.61 4.16 4.65 C3.45 4.76 2.74 4.88 2 5 Z M-46 32 C-46.85 32.43 -47.69 32.87 -48.56 33.31 C-49.37 33.87 -50.17 34.43 -51 35 C-51.58 35.49 -52.16 35.99 -52.75 36.5 C-53.16 36.99 -53.58 37.49 -54 38 C-54.33 38.99 -54.66 39.98 -55 41 C-55.04 41.62 -55.09 42.23 -55.13 42.87 C-55.14 43.57 -55.14 44.28 -55.15 45 C-55.15 45.81 -55.16 46.63 -55.17 47.46 C-55.17 48.35 -55.17 49.24 -55.18 50.15 C-55.18 51.09 -55.19 52.02 -55.2 52.99 C-55.22 56.09 -55.23 59.2 -55.24 62.3 C-55.24 63.36 -55.25 64.42 -55.25 65.51 C-55.27 71.12 -55.29 76.73 -55.3 82.34 C-55.31 88.13 -55.34 93.93 -55.38 99.72 C-55.41 104.18 -55.41 108.63 -55.42 113.09 C-55.42 115.22 -55.43 117.36 -55.45 119.49 C-55.48 122.48 -55.48 125.47 -55.47 128.46 C-55.48 129.34 -55.5 130.22 -55.51 131.13 C-55.5 131.95 -55.49 132.77 -55.49 133.62 C-55.45 134.37 -55.41 135.13 -55.36 135.91 C-55.24 136.6 -55.12 137.29 -55 138 C-54.37 139.16 -53.74 140.32 -53.09 141.51 C-52.4 142.33 -51.71 143.15 -51 144 C-50.36 144.45 -49.72 144.91 -49.06 145.38 C-48.38 145.58 -47.7 145.79 -47 146 C-45.35 146 -43.7 146 -42 146 C-42 108.38 -42 70.76 -42 32 C-43.32 32 -44.64 32 -46 32 Z M-37 32 C-37 69.62 -37 107.24 -37 146 C-34.03 146 -31.06 146 -28 146 C-28 108.38 -28 70.76 -28 32 C-30.97 32 -33.94 32 -37 32 Z M80 32 C80 69.62 80 107.24 80 146 C82.64 146 85.28 146 88 146 C88 108.38 88 70.76 88 32 C85.36 32 82.72 32 80 32 Z M93 32 C93 69.62 93 107.24 93 146 C96.47 145.5 96.47 145.5 100 145 C100.57 144.57 101.15 144.14 101.74 143.7 C102.12 143.18 102.49 142.66 102.88 142.12 C103.58 141.09 104.28 140.06 105 139 C105.33 138.01 105.66 137.02 106 136 C106.05 134.72 106.09 133.43 106.14 132.11 C106.15 130.45 106.16 128.79 106.16 127.13 C106.17 126.22 106.17 125.31 106.18 124.38 C106.19 121.37 106.2 118.36 106.2 115.36 C106.21 113.27 106.21 111.18 106.22 109.09 C106.23 104.71 106.24 100.32 106.24 95.94 C106.25 90.33 106.27 84.72 106.3 79.11 C106.32 74.79 106.32 70.47 106.32 66.16 C106.33 64.09 106.33 62.02 106.35 59.95 C106.36 57.05 106.36 54.16 106.36 51.26 C106.37 49.98 106.37 49.98 106.38 48.68 C106.38 47.49 106.38 47.49 106.37 46.27 C106.32 45.16 106.32 45.16 106.27 44.04 C106.18 43.37 106.09 42.69 106 42 C105.56 40.87 105.12 39.74 104.66 38.57 C104.11 37.72 103.56 36.87 103 36 C102.03 35.22 101.06 34.43 100.06 33.62 C99.05 33.09 98.04 32.55 97 32 C95.68 32 94.36 32 93 32 Z " fill="#FFFFFF" transform="translate(71,18)"/>
<path d="M0 0 C1.2 -0.06 2.39 -0.12 3.62 -0.19 C4.36 -0.18 5.09 -0.18 5.84 -0.18 C6.91 -0.09 6.91 -0.09 8 0 C9.05 0.37 10.1 0.74 11.19 1.12 C12.12 1.74 13.04 2.36 14 3 C14.48 3.48 14.95 3.97 15.45 4.46 C15.9 4.99 16.35 5.52 16.81 6.06 C17.53 7.03 18.26 8 19 9 C19.5 9.99 19.5 9.99 20 11 C20.03 12.33 20.05 13.67 20.06 15 C20.17 16.19 20.17 16.19 20.28 17.4 C20.52 18.26 20.76 19.12 21 20 C21.91 21.39 21.91 21.39 22.84 22.82 C23.58 23.72 24.31 24.63 25.06 25.56 C26.16 26.83 26.16 26.83 27.29 28.13 C27.85 28.75 28.42 29.36 29 30 C29.81 29.68 29.81 29.68 30.64 29.35 C31.81 28.68 31.81 28.68 33 28 C33.89 27.17 34.78 26.35 35.7 25.49 C36.72 24.46 37.74 23.42 38.75 22.37 C39.3 21.82 39.84 21.27 40.4 20.71 C42.12 18.95 43.84 17.2 45.56 15.44 C47.83 13.12 50.1 10.81 52.38 8.5 C52.9 7.96 53.42 7.43 53.95 6.87 C54.44 6.38 54.93 5.89 55.43 5.38 C56.28 4.59 57.13 3.81 58 3 C58.99 2.67 59.98 2.34 61 2 C62.09 1.9 63.19 1.79 64.31 1.69 C65.53 1.79 66.75 1.89 68 2 C69.09 2.56 70.19 3.11 71.31 3.69 C72.64 4.83 72.64 4.83 74 6 C74.47 6.74 74.95 7.48 75.44 8.25 C75.62 9.16 75.81 10.06 76 11 C76.02 12.26 76.04 13.52 76.06 14.81 C75.95 15.51 75.83 16.2 75.72 16.92 C75.48 17.61 75.24 18.29 75 19 C74.58 19.59 74.16 20.18 73.73 20.79 C72.55 22.1 71.36 23.4 70.18 24.71 C68.65 26.32 67.1 27.92 65.55 29.52 C62.9 32.19 60.24 34.85 57.56 37.5 C56.64 38.42 55.72 39.34 54.77 40.28 C52.51 42.52 50.26 44.76 48 47 C48.29 47.63 48.59 48.25 48.89 48.9 C49.25 49.59 49.62 50.29 50 51 C50.6 51.54 51.2 52.08 51.81 52.63 C52.53 53.13 53.26 53.62 54 54.12 C54.8 54.64 55.6 55.16 56.42 55.69 C57.27 56.12 58.12 56.55 59 57 C59.87 57.23 60.74 57.45 61.64 57.69 C63.35 57.97 65.06 58.25 66.77 58.52 C67.87 58.76 67.87 58.76 69 59 C70.45 59.87 70.45 59.87 71.94 60.75 C72.62 61.49 73.3 62.23 74 63 C74.6 63.89 75.2 64.77 75.81 65.69 C76.4 67.33 76.4 67.33 77 69 C77.09 70.18 77.09 70.18 77.18 71.39 C77.18 72.62 77.18 72.62 77.19 73.88 C77.15 75.05 77.15 75.05 77.11 76.24 C77.07 76.82 77.04 77.4 77 78 C75.02 78.99 75.02 78.99 73 80 C72.58 79.51 72.15 79.01 71.71 78.5 C71.13 77.86 70.54 77.22 69.94 76.56 C69.31 75.92 68.67 75.28 68.02 74.62 C67.36 74.09 66.69 73.55 66 73 C65.33 72.77 64.66 72.55 63.98 72.31 C63.34 72.23 62.71 72.15 62.06 72.06 C61.05 72.04 60.04 72.02 59 72 C59.04 73.2 59.08 74.39 59.12 75.62 C59.21 76.35 59.29 77.08 59.38 77.84 C59.68 78.91 59.68 78.91 60 80 C60.47 80.57 60.95 81.14 61.44 81.73 C61.99 82.23 62.55 82.73 63.12 83.25 C64.07 84.16 65.02 85.06 66 86 C65.89 86.72 65.79 87.43 65.68 88.17 C65.46 88.78 65.23 89.38 65 90 C64.13 90.05 64.13 90.05 63.24 90.11 C62.07 90.15 62.07 90.15 60.88 90.19 C59.64 90.18 59.64 90.18 58.39 90.18 C57.21 90.09 57.21 90.09 56 90 C54.91 89.61 53.81 89.22 52.69 88.81 C51.8 88.21 50.91 87.62 50 87 C49.32 86.27 48.64 85.54 47.95 84.78 C47.3 83.86 46.66 82.95 46 82 C45.66 80.99 45.33 79.99 44.98 78.95 C44.72 77.87 44.46 76.8 44.19 75.69 C43.87 74.55 43.55 73.42 43.21 72.25 C42.81 71.18 42.41 70.11 42 69 C41.4 68.13 40.81 67.27 40.19 66.38 C39.55 65.65 38.91 64.93 38.25 64.19 C37.17 63.12 36.09 62.06 35 61 C34 61.83 32.99 62.65 31.96 63.5 C31.32 64.05 30.68 64.6 30.01 65.16 C29.35 65.77 28.68 66.38 28 67 C27.4 67.63 26.81 68.25 26.2 68.9 C25.31 69.88 25.31 69.88 24.41 70.88 C23.16 72.26 21.89 73.63 20.62 75 C19.94 75.71 19.26 76.42 18.56 77.15 C17.86 77.84 17.15 78.53 16.42 79.25 C15.7 79.9 14.98 80.56 14.24 81.24 C13.5 81.82 12.76 82.4 12 83 C11.24 83.44 10.48 83.88 9.7 84.34 C8.94 84.69 8.18 85.05 7.39 85.41 C6.26 85.85 6.26 85.85 5.1 86.31 C3.66 86.8 2.21 87.28 0.76 87.77 C0.09 87.96 -0.57 88.15 -1.26 88.35 C-2.49 88.56 -3.73 88.78 -5 89 C-6.15 88.87 -7.3 88.75 -8.49 88.62 C-9.32 88.42 -10.15 88.21 -11 88 C-10.94 86.78 -10.88 85.57 -10.81 84.31 C-10.71 83.49 -10.61 82.66 -10.51 81.81 C-10.26 80.42 -10.26 80.42 -10 79 C-9.62 77.54 -9.62 77.54 -9.22 76.05 C-8.87 75.01 -8.52 73.98 -8.16 72.91 C-7.71 71.77 -7.26 70.63 -6.79 69.45 C-6.2 68.31 -5.61 67.17 -5 66 C-4.18 64.97 -3.37 63.94 -2.53 62.89 C-2.07 62.39 -1.61 61.9 -1.14 61.39 C-0.18 60.41 0.79 59.44 1.77 58.47 C3.27 57.03 4.79 55.61 6.31 54.19 C7.35 53.19 8.39 52.19 9.42 51.19 C11.93 48.77 14.46 46.38 17 44 C15.83 42.83 15.83 42.83 14.63 41.64 C13.04 40.04 11.45 38.43 9.88 36.81 C8.93 36.21 7.98 35.62 7 35 C6.18 34.85 5.36 34.71 4.52 34.55 C3.12 34.37 3.12 34.37 1.69 34.19 C0.73 34.04 -0.22 33.89 -1.2 33.74 C-2.13 33.5 -3.05 33.25 -4 33 C-4.8 32.53 -5.6 32.06 -6.42 31.57 C-7.48 30.7 -7.48 30.7 -8.56 29.81 C-9.19 29.19 -9.82 28.57 -10.47 27.93 C-10.97 27.3 -11.48 26.66 -12 26 C-12.52 24.8 -13.03 23.61 -13.56 22.38 C-13.71 21.26 -13.85 20.15 -14 19 C-13.88 18.03 -13.75 17.06 -13.62 16.06 C-13.42 15.38 -13.21 14.7 -13 14 C-12.4 13.78 -11.79 13.55 -11.17 13.32 C-10.45 13.21 -9.74 13.11 -9 13 C-8.11 13.95 -7.23 14.9 -6.31 15.88 C-5.81 16.43 -5.31 16.99 -4.79 17.56 C-4.2 18.04 -3.61 18.51 -3 19 C-1.82 19.31 -1.82 19.31 -0.61 19.62 C0.62 19.75 0.62 19.75 1.88 19.88 C2.66 19.91 3.44 19.95 4.24 19.99 C5.11 20 5.11 20 6 20 C6 19.13 6 19.13 5.99 18.24 C5.95 17.46 5.91 16.68 5.88 15.88 C5.79 15.05 5.71 14.23 5.62 13.38 C5.32 12.2 5.32 12.2 5 11 C4.53 10.42 4.05 9.84 3.56 9.24 C3.01 8.75 2.45 8.26 1.88 7.75 C0.93 6.84 -0.02 5.94 -1 5 C-0.96 4.05 -0.92 3.1 -0.88 2.12 C-0.59 1.42 -0.3 0.72 0 0 Z M63 7 C62.38 7.43 61.76 7.85 61.12 8.29 C60.48 8.83 59.84 9.38 59.19 9.94 C58.58 10.5 57.98 11.07 57.36 11.65 C56.91 12.1 56.46 12.54 56 13 C56.28 13.6 56.55 14.21 56.84 14.83 C57.22 15.54 57.6 16.26 58 17 C58.87 17.91 59.73 18.81 60.62 19.75 C61.41 20.49 62.19 21.23 63 22 C63.9 21.6 63.9 21.6 64.81 21.19 C65.53 20.8 66.26 20.4 67 20 C67.84 19.32 67.84 19.32 68.69 18.62 C69.12 18.09 69.55 17.55 70 17 C70.29 16.38 70.58 15.76 70.88 15.12 C70.92 14.42 70.96 13.72 71 13 C70.63 12.11 70.26 11.23 69.88 10.31 C69.26 9.55 68.64 8.79 68 8 C67.26 7.61 66.51 7.22 65.75 6.81 C64.84 6.87 63.94 6.94 63 7 Z M11 9 C10.67 13.95 10.34 18.9 10 24 C5.05 24.33 0.1 24.66 -5 25 C-4.01 25.99 -3.02 26.98 -2 28 C-0.08 28.43 -0.08 28.43 1.88 28.88 C2.58 28.94 3.28 29 4.01 29.06 C4.67 29.04 5.32 29.02 6 29 C6.91 28.63 7.81 28.26 8.75 27.88 C9.49 27.26 10.23 26.64 11 26 C11.76 25.28 12.53 24.56 13.31 23.81 C13.87 22.88 14.43 21.96 15 21 C15.19 20.03 15.19 20.03 15.39 19.04 C15.42 18.35 15.46 17.65 15.5 16.94 C15.25 14.99 15.25 14.99 15 13 C13.68 11.68 12.36 10.36 11 9 Z M51 18 C45.39 23.61 39.78 29.22 34 35 C34.33 35.99 34.66 36.98 35 38 C35.58 37.74 36.17 37.48 36.77 37.22 C37.51 36.82 38.24 36.41 39 36 C39.6 35.47 40.21 34.94 40.83 34.4 C41.74 33.47 41.74 33.47 42.67 32.52 C43.34 31.85 44 31.18 44.68 30.49 C45.71 29.44 45.71 29.44 46.75 28.38 C47.45 27.67 48.14 26.96 48.86 26.23 C50.58 24.49 52.29 22.75 54 21 C53.01 20.01 52.02 19.02 51 18 Z M57 25 C56.41 25.51 55.82 26.03 55.21 26.56 C54.51 27.27 53.81 27.98 53.09 28.72 C52.33 29.49 51.56 30.25 50.78 31.04 C49.99 31.85 49.19 32.66 48.38 33.5 C47.57 34.31 46.77 35.12 45.95 35.96 C43.96 37.97 41.98 39.98 40 42 C40.33 42.66 40.66 43.32 41 44 C41.58 43.74 42.17 43.48 42.77 43.22 C43.51 42.82 44.24 42.41 45 42 C45.6 41.47 46.21 40.94 46.83 40.4 C47.74 39.47 47.74 39.47 48.67 38.52 C49.34 37.85 50 37.18 50.68 36.49 C51.71 35.44 51.71 35.44 52.75 34.38 C53.8 33.32 53.8 33.32 54.86 32.23 C56.58 30.49 58.29 28.75 60 27 C59.67 26.34 59.34 25.68 59 25 C58.34 25 57.68 25 57 25 Z M17 27 C16.3 27.83 15.6 28.65 14.88 29.5 C14.26 30.33 13.64 31.15 13 32 C13.68 32.63 13.68 32.63 14.37 33.28 C20.84 39.32 27.3 45.37 33.66 51.52 C34.71 52.56 35.76 53.59 36.81 54.62 C37.73 55.52 38.64 56.42 39.58 57.35 C40.38 58.23 41.18 59.1 42 60 C42.4 60.55 42.8 61.1 43.21 61.67 C43.58 62.22 43.94 62.77 44.32 63.34 C44.88 64.22 45.43 65.09 46 66 C46.8 65.22 47.61 64.43 48.44 63.62 C49.28 62.76 50.13 61.89 51 61 C51.5 60.01 51.5 60.01 52 59 C51.22 58.42 51.22 58.42 50.42 57.82 C48.84 56.62 47.27 55.41 45.71 54.19 C44.81 53.47 43.92 52.75 43 52 C42.08 51.2 41.15 50.41 40.2 49.59 C38.31 47.9 36.44 46.2 34.57 44.48 C33.72 43.66 32.88 42.84 32 42 C31.33 41.28 30.65 40.57 29.96 39.83 C29.37 39.16 28.79 38.5 28.19 37.81 C26.54 35.87 24.93 33.91 23.31 31.95 C22.78 31.31 22.24 30.66 21.69 30 C21.22 29.42 20.75 28.84 20.26 28.25 C19.85 27.84 19.43 27.42 19 27 C18.34 27 17.68 27 17 27 Z M21 48 C20.35 48.58 19.7 49.15 19.03 49.74 C17.85 50.94 17.85 50.94 16.65 52.16 C15.8 53.01 14.95 53.87 14.07 54.75 C13.18 55.66 12.29 56.57 11.38 57.5 C10.48 58.41 9.58 59.31 8.66 60.25 C6.43 62.49 4.21 64.74 2 67 C2.33 67.99 2.66 68.98 3 70 C3.58 69.75 4.15 69.5 4.74 69.24 C5.86 68.63 5.86 68.63 7 68 C7.66 67.41 8.33 66.82 9.01 66.21 C9.71 65.51 10.4 64.81 11.11 64.09 C11.86 63.33 12.62 62.56 13.39 61.78 C14.17 60.99 14.95 60.19 15.75 59.38 C16.54 58.57 17.34 57.77 18.15 56.95 C20.11 54.97 22.06 52.99 24 51 C23.67 50.01 23.34 49.02 23 48 C22.34 48 21.68 48 21 48 Z M28 54 C27.32 54.61 26.64 55.21 25.94 55.84 C25.11 56.67 24.28 57.51 23.43 58.38 C22.53 59.28 21.64 60.18 20.71 61.11 C19.77 62.07 18.82 63.04 17.88 64 C16.92 64.96 15.97 65.93 15.01 66.89 C12.67 69.26 10.33 71.63 8 74 C8.33 74.99 8.66 75.98 9 77 C10.65 75.62 12.31 74.23 13.94 72.83 C14.62 72.23 15.3 71.62 16 71 C17.33 69.72 18.65 68.43 19.96 67.13 C21.29 65.8 22.62 64.46 23.94 63.12 C24.62 62.44 25.31 61.75 26.01 61.04 C27.68 59.36 29.34 57.68 31 56 C30.67 55.34 30.34 54.68 30 54 C29.34 54 28.68 54 28 54 Z M57 63 C56.1 63.52 56.1 63.52 55.18 64.05 C54.38 64.71 54.38 64.71 53.56 65.38 C52.29 66.67 52.29 66.67 51 68 C50.67 68.66 50.34 69.32 50 70 C49.92 71.3 49.84 72.6 49.75 73.94 C49.76 74.65 49.76 75.36 49.77 76.09 C49.84 76.72 49.92 77.35 50 78 C50.5 78.66 50.99 79.32 51.5 80 C52 80.33 52.49 80.66 53 81 C53.17 80.36 53.33 79.72 53.5 79.06 C53.67 78.05 53.83 77.04 54 76 C54.02 75.23 54.04 74.46 54.07 73.66 C54.06 72.04 54.05 70.42 54.04 68.79 C54.02 68.2 54.01 67.61 54 67 C56.27 67.11 58.54 67.24 60.81 67.38 C62.08 67.44 63.34 67.51 64.64 67.59 C65.75 67.72 66.86 67.86 68 68 C68.99 68.66 69.98 69.32 71 70 C70.75 69.4 70.5 68.8 70.25 68.19 C69.84 67.47 69.43 66.74 69 66 C68.46 65.42 67.93 64.84 67.38 64.25 C66.59 63.84 65.81 63.43 65 63 C63.72 62.84 62.44 62.67 61.12 62.5 C60.09 62.53 60.09 62.53 59.04 62.57 C58.36 62.71 57.69 62.85 57 63 Z M-2 73 C-1.67 74.32 -1.34 75.64 -1 77 C-0.48 77.58 0.03 78.16 0.56 78.75 C1.04 79.16 1.51 79.57 2 80 C2.99 79.67 3.98 79.34 5 79 C2.69 77.02 0.38 75.04 -2 73 Z M-5 81 C-4 83 -4 83 -4 83 Z " fill="#FFFFFF" transform="translate(64,65)"/>
<path d="M0 0 C0.91 -0.18 0.91 -0.18 1.84 -0.37 C2.54 -0.42 3.25 -0.47 3.97 -0.52 C5.12 -0.54 5.12 -0.54 6.3 -0.56 C7.12 -0.55 7.94 -0.54 8.78 -0.53 C10.06 -0.54 10.06 -0.54 11.36 -0.54 C13.15 -0.55 14.95 -0.54 16.74 -0.52 C19.49 -0.5 22.23 -0.52 24.98 -0.55 C26.73 -0.54 28.47 -0.54 30.22 -0.53 C31.04 -0.54 31.86 -0.55 32.7 -0.56 C33.47 -0.54 34.24 -0.53 35.03 -0.52 C35.73 -0.47 36.43 -0.42 37.16 -0.37 C37.77 -0.25 38.37 -0.12 39 0 C39.83 0.58 40.66 1.16 41.52 1.75 C42.01 2.49 42.5 3.24 43 4 C43.16 4.72 43.31 5.44 43.47 6.18 C43.46 6.95 43.44 7.72 43.43 8.51 C43.41 9.77 43.41 9.77 43.4 11.06 C43.37 11.92 43.34 12.79 43.31 13.69 C43.3 15.01 43.3 15.01 43.28 16.35 C43.25 17.97 43.22 19.59 43.18 21.21 C43.12 21.8 43.06 22.39 43 23 C42.5 23.49 42.5 23.49 42 24 C41.4 24.04 40.8 24.08 40.18 24.13 C39.38 24.13 38.59 24.13 37.77 24.13 C36.43 24.13 36.43 24.13 35.05 24.14 C33.59 24.14 33.59 24.14 32.09 24.13 C30.6 24.13 30.6 24.13 29.08 24.14 C26.97 24.14 24.86 24.13 22.75 24.13 C19.51 24.13 16.27 24.13 13.04 24.14 C10.99 24.14 8.95 24.13 6.91 24.13 C5.93 24.13 4.95 24.14 3.95 24.14 C3.05 24.14 2.15 24.13 1.23 24.13 C0.43 24.13 -0.36 24.13 -1.18 24.13 C-1.78 24.09 -2.38 24.04 -3 24 C-3.33 23.67 -3.66 23.34 -4 23 C-4.06 22.41 -4.12 21.82 -4.18 21.21 C-4.24 18.7 -4.28 16.19 -4.31 13.69 C-4.34 12.82 -4.37 11.95 -4.4 11.06 C-4.41 10.22 -4.42 9.38 -4.43 8.51 C-4.44 7.74 -4.45 6.97 -4.47 6.18 C-4.31 5.46 -4.16 4.74 -4 4 C-3.51 3.26 -3.02 2.52 -2.52 1.75 C-1.69 1.17 -0.86 0.6 0 0 Z M2 5 C1.67 5.33 1.34 5.66 1 6 C1 10.29 1 14.58 1 19 C13.21 19 25.42 19 38 19 C38 14.71 38 10.42 38 6 C37.5 5.5 37.5 5.5 37 5 C35.91 4.96 34.82 4.91 33.69 4.87 C32.22 4.86 30.75 4.86 29.28 4.87 C28.51 4.87 27.74 4.87 26.94 4.86 C25.3 4.86 23.66 4.87 22.03 4.87 C19.51 4.87 17 4.87 14.48 4.86 C12.89 4.86 11.31 4.87 9.72 4.87 C8.96 4.87 8.2 4.86 7.42 4.86 C6.73 4.86 6.03 4.87 5.31 4.87 C4.22 4.91 3.13 4.96 2 5 Z " fill="#FFFFFF" transform="translate(77,26)"/>
</svg>
