<?xml version="1.0" encoding="UTF-8"?>
<!-- Generator: visioncortex VTracer 0.6.4 -->
<svg version="1.1" xmlns="http://www.w3.org/2000/svg" width="192" height="192">
<path d="M0 0 C0.68 -0.13 1.36 -0.26 2.06 -0.4 C3.52 -0.2 3.52 -0.2 5 0 C5.52 0.36 6.04 0.73 6.58 1.1 C7.13 1.61 7.68 2.11 8.25 2.63 C8.85 3.21 9.45 3.8 10.07 4.4 C11.03 5.38 11.03 5.38 12.02 6.38 C12.71 7.07 13.41 7.76 14.12 8.46 C16.45 10.77 18.77 13.1 21.08 15.43 C22.75 17.09 24.41 18.75 26.08 20.4 C30.61 24.91 35.12 29.43 39.63 33.96 C43.87 38.21 48.12 42.45 52.37 46.69 C61.29 55.6 70.2 64.53 79.1 73.46 C86.75 81.12 94.4 88.78 102.07 96.42 C110.97 105.29 119.86 114.17 128.74 123.06 C133.44 127.77 138.14 132.48 142.85 137.17 C147.28 141.59 151.7 146.02 156.11 150.45 C157.73 152.08 159.36 153.71 160.99 155.33 C163.21 157.53 165.42 159.76 167.62 161.98 C168.27 162.63 168.93 163.27 169.6 163.93 C170.19 164.53 170.77 165.13 171.37 165.75 C171.88 166.3 172.38 166.85 172.9 167.42 C173.26 167.94 173.63 168.46 174 169 C174.13 169.97 174.26 170.94 174.4 171.94 C174.27 172.62 174.14 173.3 174 174 C173.34 174.33 172.68 174.66 172 175 C170.56 175.06 170.56 175.06 169.09 175.13 C167.83 175.13 166.57 175.13 165.27 175.13 C164.58 175.13 163.88 175.13 163.16 175.13 C160.8 175.14 158.45 175.13 156.09 175.13 C154.41 175.13 152.72 175.13 151.04 175.13 C146.46 175.14 141.88 175.14 137.3 175.13 C132.52 175.13 127.73 175.13 122.95 175.14 C114.91 175.14 106.88 175.14 98.84 175.13 C89.54 175.12 80.24 175.13 70.94 175.13 C62.96 175.14 54.99 175.14 47.02 175.13 C42.25 175.13 37.48 175.13 32.71 175.14 C28.23 175.14 23.75 175.14 19.27 175.13 C17.62 175.13 15.97 175.13 14.32 175.13 C12.08 175.14 9.84 175.13 7.6 175.13 C6.34 175.13 5.08 175.13 3.79 175.13 C2.87 175.08 1.95 175.04 1 175 C0.67 174.67 0.34 174.34 0 174 C-0.04 173.06 -0.08 172.13 -0.12 171.16 C-0.12 169.88 -0.12 168.6 -0.12 167.27 C-0.12 166.21 -0.12 166.21 -0.12 165.12 C-0.12 162.72 -0.12 160.32 -0.11 157.91 C-0.11 156.2 -0.11 154.48 -0.11 152.77 C-0.11 148.1 -0.11 143.43 -0.1 138.76 C-0.1 133.89 -0.09 129.01 -0.09 124.14 C-0.09 114.9 -0.08 105.67 -0.07 96.43 C-0.06 85.92 -0.06 75.41 -0.05 64.89 C-0.04 43.26 -0.02 21.63 0 0 Z M5 10 C5 18.58 5 27.16 5 36 C11.6 36.33 18.2 36.66 25 37 C24.67 38.32 24.34 39.64 24 41 C14.59 41.49 14.59 41.49 5 42 C5 44.31 5 46.62 5 49 C8.3 49.33 11.6 49.66 15 50 C15 51.65 15 53.3 15 55 C11.7 55 8.4 55 5 55 C5 57.31 5 59.62 5 62 C11.27 62.33 17.54 62.66 24 63 C24.33 64.32 24.66 65.64 25 67 C18.4 67.33 11.8 67.66 5 68 C5 70.31 5 72.62 5 75 C8.3 75.33 11.6 75.66 15 76 C15 76.99 15 77.98 15 79 C10.05 79.5 10.05 79.5 5 80 C5 82.31 5 84.62 5 87 C11.6 87.33 18.2 87.66 25 88 C24.67 89.32 24.34 90.64 24 92 C14.59 92.5 14.59 92.5 5 93 C5 95.31 5 97.62 5 100 C8.3 100.33 11.6 100.66 15 101 C15 102.65 15 104.3 15 106 C11.7 106 8.4 106 5 106 C5 108.31 5 110.62 5 113 C11.27 113.33 17.54 113.66 24 114 C24.33 115.32 24.66 116.64 25 118 C18.4 118.33 11.8 118.66 5 119 C5 121.31 5 123.62 5 126 C8.3 126.33 11.6 126.66 15 127 C15 127.99 15 128.98 15 130 C10.05 130.5 10.05 130.5 5 131 C5 133.31 5 135.62 5 138 C11.27 138.33 17.54 138.66 24 139 C24 140.32 24 141.64 24 143 C17.73 143.33 11.46 143.66 5 144 C5 152.25 5 160.5 5 169 C12.92 169 20.84 169 29 169 C29.33 162.73 29.66 156.46 30 150 C31.32 150 32.64 150 34 150 C34.33 156.27 34.66 162.54 35 169 C37.31 169 39.62 169 42 169 C42 165.7 42 162.4 42 159 C43.65 159.33 45.3 159.66 47 160 C47.49 164.45 47.49 164.45 48 169 C50.31 169 52.62 169 55 169 C55.33 162.73 55.66 156.46 56 150 C56.99 150 57.98 150 59 150 C59.5 159.41 59.5 159.41 60 169 C62.31 169 64.62 169 67 169 C67.33 166.03 67.66 163.06 68 160 C69.65 159.67 71.3 159.34 73 159 C73 162.3 73 165.6 73 169 C75.31 169 77.62 169 80 169 C80.33 162.73 80.66 156.46 81 150 C82.32 150 83.64 150 85 150 C85.5 159.41 85.5 159.41 86 169 C88.31 169 90.62 169 93 169 C93 165.7 93 162.4 93 159 C94.65 159.33 96.3 159.66 98 160 C98.5 164.45 98.5 164.45 99 169 C101.31 169 103.62 169 106 169 C106.33 162.73 106.66 156.46 107 150 C107.99 150 108.98 150 110 150 C110.5 159.41 110.5 159.41 111 169 C113.31 169 115.62 169 118 169 C118.33 166.03 118.66 163.06 119 160 C120.32 160 121.64 160 123 160 C123.5 164.45 123.5 164.45 124 169 C126.31 169 128.62 169 131 169 C131.33 162.73 131.66 156.46 132 150 C133.32 150 134.64 150 136 150 C136.33 156.27 136.66 162.54 137 169 C145.91 169 154.82 169 164 169 C162.02 166.69 160.04 164.38 158 162 C156.43 160.36 154.85 158.73 153.25 157.12 C152.68 156.55 152.11 155.98 151.51 155.39 C150.89 154.76 150.26 154.13 149.62 153.49 C147.54 151.41 145.46 149.33 143.38 147.25 C141.88 145.75 140.39 144.26 138.89 142.76 C134.84 138.7 130.79 134.65 126.73 130.6 C122.49 126.36 118.25 122.11 114.01 117.87 C106.89 110.76 99.78 103.64 92.66 96.53 C84.42 88.3 76.19 80.06 67.95 71.82 C60.88 64.75 53.81 57.68 46.74 50.61 C42.52 46.39 38.29 42.16 34.07 37.94 C30.11 33.97 26.14 30.01 22.18 26.04 C20.72 24.59 19.26 23.13 17.8 21.67 C15.82 19.68 13.83 17.7 11.85 15.72 C11.27 15.14 10.68 14.55 10.08 13.95 C9.55 13.42 9.02 12.9 8.48 12.35 C7.66 11.58 6.84 10.8 6 10 C5.67 10 5.34 10 5 10 Z " fill="#FFFFFF" transform="translate(9,9)"/>
<path d="M0 0 C0.7 -0.11 1.4 -0.23 2.11 -0.35 C3.07 -0.23 4.02 -0.12 5 0 C5.96 0.76 6.93 1.51 7.92 2.29 C8.44 2.8 8.96 3.3 9.49 3.83 C10.05 4.39 10.6 4.95 11.17 5.54 C11.76 6.12 12.36 6.71 12.97 7.32 C14.94 9.27 16.89 11.24 18.83 13.2 C20.19 14.56 21.55 15.92 22.91 17.28 C25.76 20.12 28.6 22.98 31.44 25.84 C35.08 29.51 38.73 33.17 42.4 36.81 C45.21 39.61 48.01 42.42 50.81 45.24 C52.16 46.59 53.5 47.94 54.86 49.28 C56.74 51.16 58.61 53.05 60.48 54.95 C61.04 55.5 61.6 56.06 62.18 56.63 C62.69 57.15 63.2 57.67 63.72 58.2 C64.47 59.13 65.22 60.05 66 61 C66 62.32 66 63.64 66 65 C65.01 65.5 65.01 65.5 64 66 C63.13 66.04 62.27 66.08 61.37 66.13 C60.26 66.13 59.15 66.13 58.01 66.13 C56.12 66.13 56.12 66.13 54.19 66.14 C52.82 66.14 51.44 66.14 50.06 66.13 C48.65 66.13 47.24 66.13 45.84 66.14 C42.89 66.14 39.94 66.14 36.99 66.13 C33.2 66.12 29.41 66.13 25.62 66.13 C22.72 66.14 19.81 66.14 16.9 66.13 C15.51 66.13 14.11 66.13 12.71 66.14 C10.76 66.14 8.81 66.13 6.86 66.13 C5.75 66.13 4.64 66.13 3.5 66.13 C2.67 66.09 1.85 66.04 1 66 C0.67 65.67 0.34 65.34 0 65 C-0.04 64.15 -0.08 63.29 -0.12 62.41 C-0.12 61.26 -0.12 60.11 -0.11 58.92 C-0.11 57.62 -0.11 56.32 -0.11 54.98 C-0.11 53.55 -0.1 52.11 -0.1 50.68 C-0.1 49.23 -0.09 47.77 -0.09 46.32 C-0.09 42.48 -0.08 38.64 -0.07 34.8 C-0.06 30.89 -0.05 26.97 -0.05 23.06 C-0.04 15.37 -0.02 7.69 0 0 Z M5 10 C5 26.5 5 43 5 60 C21.5 60 38 60 55 60 C53.02 57.69 51.04 55.38 49 53 C48.23 52.18 47.45 51.37 46.65 50.53 C45.91 49.78 45.16 49.03 44.39 48.26 C43.1 46.97 43.1 46.97 41.79 45.65 C40.88 44.75 39.98 43.84 39.04 42.91 C38.09 41.96 37.14 41 36.18 40.05 C34.2 38.06 32.22 36.08 30.23 34.1 C27.68 31.56 25.14 29.01 22.59 26.46 C20.63 24.49 18.67 22.53 16.71 20.57 C15.31 19.17 13.91 17.78 12.52 16.38 C11.67 15.54 10.83 14.7 9.97 13.84 C9.22 13.09 8.48 12.35 7.71 11.59 C7.15 11.06 6.58 10.54 6 10 C5.67 10 5.34 10 5 10 Z " fill="#FFFFFF" transform="translate(40,86)"/>
<path d="M0 0 C0.7 -0.1 1.4 -0.2 2.12 -0.3 C2.91 -0.35 3.69 -0.39 4.5 -0.44 C5.67 -0.39 5.67 -0.39 6.87 -0.34 C7.57 -0.23 8.28 -0.11 9 0 C9.85 0.47 10.69 0.95 11.56 1.44 C12.04 2.28 12.51 3.13 13 4 C13.11 4.7 13.22 5.41 13.34 6.13 C13.39 7.3 13.39 7.3 13.44 8.5 C13.39 9.28 13.35 10.07 13.3 10.88 C13.2 11.58 13.1 12.28 13 13 C12.69 13.82 12.38 14.65 12.06 15.5 C11.04 16.24 11.04 16.24 10 17 C9 17.29 9 17.29 7.97 17.59 C7.2 17.73 6.42 17.86 5.62 18 C4.83 18.06 4.04 18.12 3.23 18.18 C2.49 18.12 1.76 18.06 1 18 C0.01 17.4 -0.98 16.8 -2 16.19 C-2.66 15.47 -3.32 14.74 -4 14 C-4.33 13.34 -4.66 12.68 -5 12 C-5.01 11.32 -5.01 10.64 -5.02 9.94 C-4.95 9.16 -4.88 8.37 -4.81 7.56 C-4.71 6.76 -4.6 5.96 -4.49 5.13 C-4.33 4.43 -4.17 3.73 -4 3 C-3.5 2.32 -3.01 1.64 -2.5 0.94 C-1.68 0.63 -0.85 0.32 0 0 Z M3 5 C2.34 5.66 1.68 6.32 1 7 C1.12 7.87 1.25 8.73 1.38 9.62 C1.58 10.41 1.79 11.19 2 12 C3.65 11.67 5.3 11.34 7 11 C7.21 10.38 7.41 9.76 7.62 9.12 C7.75 8.42 7.87 7.72 8 7 C7.34 6.34 6.68 5.68 6 5 C5.01 5 4.02 5 3 5 Z " fill="#FFFFFF" transform="translate(22,157)"/>
</svg>
